<?xml version="1.0" encoding="UTF-8"?>
<svg id="hoja_1" data-name="hoja 1" xmlns="http://www.w3.org/2000/svg" viewBox="0 0 336 1139">
  <defs>
    <style>
      .cls-1 {
        fill: none;
        opacity: .75;
      }

      .cls-2 {
        fill: #f2c4cd;
      }
    </style>
  </defs>
  <g id="text">
    <g class="cls-1">
      <path class="cls-2" d="m389,75.2c12.8,58.4-12.8,111.2-12.8,180,0,84,28.8,122.4,15.2,187.2-15.2,55.2-58.4,78.4-131.2,78.4-91.2,0-140-27.2-140-116.8,0-78.4,40-95.2,40-156.8,0-34.4-16-40.8-34.4-42.4-28.8-4.8-37.6-27.2-37.6-63.2C88.19,53.6,170.59-7.2,265.8-7.2c73.6,0,108,30.4,123.2,82.4Z"/>
      <path class="cls-2" d="m31,978.4c0-60,32-92.8,92-105.6,13.6-3.2,19.2-7.2,19.2-16.8,0-10.4-4.8-14.4-18.4-19.2-52-19.2-78.4-48.8-78.4-110.4,0-94.4,68-133.6,239.2-133.6s240,39.2,240,133.6c0,61.6-27.2,91.2-79.2,110.4-13.6,4.8-18.4,8.8-18.4,19.2,0,9.6,5.6,13.6,19.2,16.8,60.8,12.8,92,45.6,92,105.6,0,95.2-80,142.4-252.8,142.4s-254.4-47.2-254.4-142.4Zm312-187.2c0-24.8-17.6-34.4-58.4-34.4s-57.6,9.6-57.6,34.4c0,26.4,23.2,38.4,57.6,38.4s58.4-12.8,58.4-38.4Zm0,127.2c0-25.6-20-36-58.4-36s-57.6,10.4-57.6,36c0,27.2,20,37.6,57.6,37.6s58.4-12,58.4-37.6Z"/>
    </g>
  </g>
</svg>