<?xml version="1.0" encoding="UTF-8"?>
<svg id="hoja_4" data-name="hoja 4" xmlns="http://www.w3.org/2000/svg" viewBox="0 0 1125 598.75">
  <defs>
    <style>
      .cls-1 {
        fill: none;
        opacity: .75;
      }

      .cls-2 {
        fill: #b4d5d9;
      }
    </style>
  </defs>
  <g class="cls-1">
    <path class="cls-2" d="m161.3,223.43c23.27,0,32.64,2.67,32.64,10.97,0,9.9-8.56,13.38-17.12,15.25-8.56,1.87-14.98,3.48-14.98,10.17,0,5.08,3.48,7.76,9.63,7.76,13.91,0,20.87-12.04,40.66-12.04,22.47,0,29.96,12.84,29.96,31.3,0,33.17-24.61,46.02-84.27,46.02s-78.92-22.47-78.92-49.23,10.97-33.71,32.91-38.79c11.77-2.41,12.57-5.89,13.91-10.7,1.87-6.15,3.48-10.7,35.58-10.7Zm50.03-37.19c0,22.74-16.05,32.1-50.83,32.1s-50.83-9.36-50.83-32.1,18.19-28.63,50.83-28.63,50.83,6.42,50.83,28.63Z"/>
    <path class="cls-2" d="m337.06,157.89c55.38.27,75.18,12.57,75.18,46.55,0,18.73-5.08,33.18-21.4,33.18s-27.29-5.62-42.27-5.62c-8.03,0-15.78,4.28-15.78,14.45,0,9.36,8.56,13.38,17.39,13.38,17.66,0,29.7-2.67,41.47-2.67,14.18,0,20.6,12.04,20.6,28.89,0,36.65-24.08,48.69-73.84,48.42-72.23.27-89.89-28.89-89.89-90.16,0-57.52,18.19-86.41,88.55-86.41Z"/>
    <path class="cls-2" d="m605.93,244.03c.27,61-17.66,89.89-95.51,89.89s-94.17-28.89-94.17-89.62,18.46-86.68,94.17-86.68,95.78,28.63,95.51,86.41Zm-40.93-117.71c0,20.87-16.32,24.08-62.07,24.08-38.26,0-44.68-2.67-44.68-12.84,0-12.57,13.38-14.71,45.48-22.47,16.85-4.55,30.23-7.49,42.8-7.49,11.24,0,18.46,5.89,18.46,18.73Zm-26.75,119.05c0-10.7-8.83-14.98-27.29-14.98s-27.29,4.28-27.29,14.98,8.83,15.52,27.29,15.52,27.29-4.28,27.29-15.52Z"/>
    <path class="cls-2" d="m741.57,198.02c-6.15-21.67-6.42-40.4,49.76-40.4,39.06,0,52.97,8.83,58.32,27.29,4.01,19.8-4.82,33.98-4.82,60.19,0,28.09,8.83,42.8,4.55,62.33-5.08,17.92-16.85,26.22-40.66,26.22s-33.17-9.36-32.91-24.61c-.27-17.12,10.17-21.67,10.43-37.19-.27-9.9-2.41-14.98-7.49-14.98-7.76,0-13.64,11.5-13.64,22.21,0,9.63,1.87,16.59,2.14,26.49-.27,16.32-8.29,25.95-35.05,25.95s-34.78-9.63-34.78-25.95c0-9.9,2.14-16.85,2.14-26.49,0-10.7-6.15-22.21-13.64-22.21-5.35,0-7.49,5.08-7.49,14.98,0,15.52,10.43,20.06,10.43,37.19,0,15.25-9.63,24.61-32.91,24.61s-35.85-8.29-40.66-26.22c-4.55-19.53,4.28-34.24,4.55-62.33-.27-26.22-9.1-40.4-4.82-60.19,5.08-18.46,18.99-27.29,58.32-27.29,55.91,0,55.65,18.73,49.76,40.4-4.55,15.79-1.87,30.5,9.1,30.5s13.64-14.71,9.36-30.5Z"/>
    <path class="cls-2" d="m1047.89,244.03c.27,61-17.66,89.89-95.51,89.89s-94.17-28.89-94.17-89.62,18.46-86.68,94.17-86.68,95.78,28.63,95.51,86.41Zm-67.68,1.34c0-10.7-8.83-14.98-27.29-14.98s-27.29,4.28-27.29,14.98,8.83,15.52,27.29,15.52,27.29-4.28,27.29-15.52Z"/>
    <path class="cls-2" d="m201.57,512.15c0,42.54-19.8,56.18-69.56,56.18-38.26,0-51.37-13.11-56.45-27.29-6.69-19.53-1.07-41.47-1.07-59.39,0-16.59-6.96-36.92-1.07-60.19,5.35-19.53,20.87-28.89,51.9-28.89,33.17,0,45.21,8.29,45.21,29.16,0,18.99-15.78,30.23-15.78,43.61,0,8.56,5.08,10.97,11.24,10.97,5.35,0,8.56-.53,12.84-.53,14.18,0,22.74,7.49,22.74,36.38Z"/>
    <path class="cls-2" d="m339.88,512.15c0,42.54-19.8,56.18-69.56,56.18-38.26,0-51.37-13.11-56.45-27.29-6.69-19.53-1.07-41.47-1.07-59.39,0-16.59-6.96-36.92-1.07-60.19,5.35-19.53,20.87-28.89,51.9-28.89,33.17,0,45.21,8.29,45.21,29.16,0,18.99-15.78,30.23-15.78,43.61,0,8.56,5.08,10.97,11.24,10.97,5.35,0,8.56-.53,12.84-.53,14.18,0,22.74,7.49,22.74,36.38Z"/>
    <path class="cls-2" d="m347.63,535.42c-3.75-20.06,1.87-40.4,1.87-55.65,0-16.59-5.62-32.1-1.61-53.51,5.08-24.08,20.07-33.71,80.26-33.71,66.88,0,75.71,7.22,75.71,32.1,0,15.52-5.35,26.22-19.53,26.22-20.33,0-26.22-4.01-43.88-4.01-9.36,0-16.59,2.41-16.59,10.97,0,5.08,3.21,8.83,11.24,8.83,17.39,0,27.29-6.69,44.14-6.69,12.31,0,17.39,6.42,17.39,21.67,0,12.04-5.35,21.14-17.12,21.14-13.64,0-27.56-8.29-44.68-8.29-8.29,0-11.24,4.01-11.24,9.36,0,8.56,7.76,11.24,16.59,11.24,17.66,0,24.61-4.28,47.09-4.28,13.11,0,19.26,8.29,19.26,20.06,0,29.43-13.11,37.99-78.12,37.99-60.73,0-75.98-10.17-80.79-33.44Z"/>
    <path class="cls-2" d="m695.15,549.33c-1.34,10.17-6.69,17.66-22.74,17.66-23.81,0-30.5-7.76-30.5-17.12,0-4.01,2.14-6.69,2.14-9.63,0-5.89-2.14-8.83-6.69-8.83-4.28,0-6.96,2.68-8.56,9.1-4.28,15.25-16.05,28.09-51.1,28.09-53.77,0-69.83-28.89-69.83-89.35s18.46-86.68,99.79-86.68c67.95.27,83.2,12.84,83.2,39.06,0,15.78-8.03,24.35-25.15,24.35-30.23,0-39.86-5.62-59.66-5.62-16.32,0-26.49,9.1-26.49,31.84,0,17.39,10.43,23.27,23.54,23.27,9.36,0,10.97-3.21,10.97-6.42,0-6.15-10.7-6.42-10.7-15.25,0-15.25,12.57-20.06,46.28-20.06s42,7.49,44.14,21.14c1.07,9.63-6.69,16.05-6.69,28.63-.27,10.17,9.36,20.87,8.03,35.85Z"/>
    <path class="cls-2" d="m893.39,478.71c.27,61-17.66,89.89-95.51,89.89s-94.17-28.89-94.17-89.62,18.46-86.68,94.17-86.68,95.78,28.63,95.51,86.41Zm-67.69,1.34c0-10.7-8.83-14.98-27.29-14.98s-27.29,4.28-27.29,14.98,8.83,15.52,27.29,15.52,27.29-4.28,27.29-15.52Z"/>
    <path class="cls-2" d="m980.6,501.71c-23.28,0-32.64-2.67-32.64-10.97,0-9.9,8.56-13.38,17.12-15.25,8.56-1.87,14.98-3.48,14.98-10.17,0-5.08-3.21-7.76-9.63-7.76-13.91,0-20.87,12.04-40.66,12.04-22.47,0-29.7-12.84-29.7-31.3,0-33.17,24.35-46.02,84-46.02s78.92,22.47,78.92,49.23-10.97,33.71-32.91,38.79c-11.77,2.41-12.31,5.89-13.64,10.43-2.14,6.42-3.75,10.97-35.85,10.97Zm-49.76,37.19c0-22.74,15.78-32.1,50.83-32.1s50.83,9.36,50.83,32.1-18.46,28.63-50.83,28.63-50.83-6.42-50.83-28.63Z"/>
  </g>
</svg>