<?xml version="1.0" encoding="UTF-8"?>
<svg id="hoja_1" data-name="hoja 1" xmlns="http://www.w3.org/2000/svg" viewBox="0 0 1125 2436">
  <defs>
    <style>
      .cls-1 {
        fill: #0b1c15;
      }
    </style>
  </defs>
  <g id="text">
    <g>
      <g>
        <path class="cls-1" d="m-36.99,2337.71c0-160.84,25.61-280.84,27.06-377.85.97-66.38-6.77-121.27-5.32-185.1,1.45-53.62,23.68-76.59,77.81-76.59,91.34,0,121.79,132.76,121.79,417.43,0,265.52-25.61,419.98-115.5,419.98-75.39,0-105.84-79.14-105.84-197.86Zm108.74-264.24c57.99,0,85.54-45.96,85.54-163.4s-30.45-173.61-93.27-173.61c-47.36,0-61.86,28.08-61.86,135.31,0,162.12,28.03,201.69,69.59,201.69Z"/>
        <path class="cls-1" d="m402.3,1873.05c2.9,213.18,44.46,289.77,44.46,464.66,0,139.14-22.71,195.31-60.89,195.31s-62.83-52.34-62.83-199.14c0-182.54,48.81-246.37,48.81-333.18,0-35.74-8.22-54.89-53.64-54.89s-52.68,19.15-52.68,54.89c0,86.8,48.33,150.63,48.33,333.18,0,146.8-25.61,199.14-63.31,199.14s-60.89-56.17-60.89-195.31c0-174.88,42.04-251.48,44.94-464.66,1.93-118.72,9.67-174.88,83.61-174.88s81.67,56.17,84.09,174.88Zm-14.02-40.85c0-79.14-22.23-95.74-70.07-95.74s-69.59,16.6-69.59,95.74c0,68.93,18.36,94.46,69.59,94.46s70.07-25.53,70.07-94.46Z"/>
        <path class="cls-1" d="m598.5,2305.79c-4.83-474.87-14.5-571.89-51.71-571.89-17.4,0-23.2,16.6-23.2,144.25,0,188.93,63.79,255.31,63.79,453.17,0,146.8-28.03,195.31-65.24,195.31-39.63,0-69.11-51.06-69.11-205.52,0-227.22,54.61-237.44,56.54-435.3,1.45-71.49-1.45-117.44-.48-150.63,1.45-28.08,5.8-35.74,18.36-35.74,46.88,0,54.13,20.43,63.79,121.27,8.22,88.08,20.78,118.72,45.91,118.72,20.3,0,24.65-20.43,24.65-76.59.97-68.93-3.38-104.68-2.9-139.14.48-17.87,2.9-24.26,7.25-24.26s7.25,6.38,8.22,28.08c1.45,40.85-.97,84.25.48,158.29,2.42,191.48,52.19,239.99,52.19,431.47,0,160.84-24.65,209.35-60.89,209.35-38.18,0-65.24-56.17-67.66-220.84Z"/>
        <path class="cls-1" d="m852.22,1699.44c46.39,2.55,65.24,16.6,65.24,49.79,0,8.94-1.45,16.6-8.21,16.6-18.85,0-34.31-35.74-73.94-35.74s-64.76,45.96-64.76,160.84c0,84.25,17.4,113.61,41.08,113.61,35.28,0,53.16-53.61,79.74-53.61,33.35,0,48.33,84.25,48.33,229.78,0,234.88-28.51,356.15-90.86,354.88-94.72,1.28-117.92-135.31-117.92-418.7s29-417.43,121.3-417.43Z"/>
        <path class="cls-1" d="m950.33,2304.52c0-162.12,35.76-282.11,37.21-377.85.97-56.17-3.38-112.34-1.93-157.01.97-47.23,17.88-70.21,67.18-70.21,66.69,0,88.92,17.87,88.92,51.06,0,7.66-2.42,16.59-10.63,16.59-22.71,0-42.04-43.4-91.34-43.4-22.23,0-35.76,16.59-35.76,80.42,0,47.23,9.67,99.57,31.41,99.57,28.03,0,43.98-25.53,74.42-25.53,18.36,0,26.58,12.77,26.58,42.13,0,21.7-8.22,37.02-26.1,37.02-24.16,0-47.36-33.19-73.46-33.19-18.85,0-25.61,29.36-25.61,71.48,0,71.49,20.78,89.36,44.94,89.36s40.11-21.7,62.83-21.7c33.35,0,48.81,76.59,48.81,215.73,0,169.78-28.51,256.58-109.22,256.58s-108.25-91.91-108.25-231.05Z"/>
      </g>
      <g>
        <path class="cls-1" d="m-36.99,1426.71c0-160.84,25.61-280.84,27.06-377.85.97-66.38-6.77-121.27-5.32-185.1,1.45-53.62,23.68-76.59,77.81-76.59,91.34,0,121.79,132.76,121.79,417.43,0,265.52-25.61,419.98-115.5,419.98-75.39,0-105.84-79.14-105.84-197.86Zm108.74-264.24c57.99,0,85.54-45.96,85.54-163.4s-30.45-173.61-93.27-173.61c-47.36,0-61.86,28.08-61.86,135.31,0,162.12,28.03,201.69,69.59,201.69Z"/>
        <path class="cls-1" d="m402.3,962.05c2.9,213.18,44.46,289.77,44.46,464.66,0,139.14-22.71,195.31-60.89,195.31s-62.83-52.34-62.83-199.14c0-182.54,48.81-246.37,48.81-333.18,0-35.74-8.22-54.89-53.64-54.89s-52.68,19.15-52.68,54.89c0,86.8,48.33,150.63,48.33,333.18,0,146.8-25.61,199.14-63.31,199.14s-60.89-56.17-60.89-195.31c0-174.88,42.04-251.48,44.94-464.66,1.93-118.72,9.67-174.88,83.61-174.88s81.67,56.17,84.09,174.88Zm-14.02-40.85c0-79.14-22.23-95.74-70.07-95.74s-69.59,16.6-69.59,95.74c0,68.93,18.36,94.46,69.59,94.46s70.07-25.53,70.07-94.46Z"/>
        <path class="cls-1" d="m598.5,1394.79c-4.83-474.87-14.5-571.89-51.71-571.89-17.4,0-23.2,16.6-23.2,144.25,0,188.93,63.79,255.31,63.79,453.17,0,146.8-28.03,195.31-65.24,195.31-39.63,0-69.11-51.06-69.11-205.52,0-227.22,54.61-237.44,56.54-435.3,1.45-71.49-1.45-117.44-.48-150.63,1.45-28.08,5.8-35.74,18.36-35.74,46.88,0,54.13,20.43,63.79,121.27,8.22,88.08,20.78,118.72,45.91,118.72,20.3,0,24.65-20.43,24.65-76.59.97-68.93-3.38-104.68-2.9-139.14.48-17.87,2.9-24.26,7.25-24.26s7.25,6.38,8.22,28.08c1.45,40.85-.97,84.25.48,158.29,2.42,191.48,52.19,239.99,52.19,431.47,0,160.84-24.65,209.35-60.89,209.35-38.18,0-65.24-56.17-67.66-220.84Z"/>
        <path class="cls-1" d="m852.22,788.44c46.39,2.55,65.24,16.6,65.24,49.79,0,8.94-1.45,16.6-8.21,16.6-18.85,0-34.31-35.74-73.94-35.74s-64.76,45.96-64.76,160.84c0,84.25,17.4,113.61,41.08,113.61,35.28,0,53.16-53.61,79.74-53.61,33.35,0,48.33,84.25,48.33,229.78,0,234.88-28.51,356.15-90.86,354.88-94.72,1.28-117.92-135.31-117.92-418.7s29-417.43,121.3-417.43Z"/>
        <path class="cls-1" d="m950.33,1393.52c0-162.12,35.76-282.11,37.21-377.85.97-56.17-3.38-112.34-1.93-157.01.97-47.23,17.88-70.21,67.18-70.21,66.69,0,88.92,17.87,88.92,51.06,0,7.66-2.42,16.59-10.63,16.59-22.71,0-42.04-43.4-91.34-43.4-22.23,0-35.76,16.59-35.76,80.42,0,47.23,9.67,99.57,31.41,99.57,28.03,0,43.98-25.53,74.42-25.53,18.36,0,26.58,12.77,26.58,42.13,0,21.7-8.22,37.02-26.1,37.02-24.16,0-47.36-33.19-73.46-33.19-18.85,0-25.61,29.36-25.61,71.48,0,71.49,20.78,89.36,44.94,89.36s40.11-21.7,62.83-21.7c33.35,0,48.81,76.59,48.81,215.73,0,169.78-28.51,256.58-109.22,256.58s-108.25-91.91-108.25-231.05Z"/>
      </g>
      <g>
        <path class="cls-1" d="m-36.99,515.71c0-160.84,25.61-280.84,27.06-377.85.97-66.38-6.77-121.27-5.32-185.1,1.45-53.62,23.68-76.59,77.81-76.59,91.34,0,121.79,132.76,121.79,417.43,0,265.52-25.61,419.98-115.5,419.98-75.39,0-105.84-79.14-105.84-197.86ZM71.74,251.46c57.99,0,85.54-45.96,85.54-163.4s-30.45-173.61-93.27-173.61C16.65-85.54,2.15-57.46,2.15,49.77c0,162.12,28.03,201.69,69.59,201.69Z"/>
        <path class="cls-1" d="m402.3,51.05c2.9,213.18,44.46,289.77,44.46,464.66,0,139.14-22.71,195.31-60.89,195.31s-62.83-52.34-62.83-199.14c0-182.54,48.81-246.37,48.81-333.18,0-35.74-8.22-54.89-53.64-54.89s-52.68,19.15-52.68,54.89c0,86.8,48.33,150.63,48.33,333.18,0,146.8-25.61,199.14-63.31,199.14s-60.89-56.17-60.89-195.31c0-174.88,42.04-251.48,44.94-464.66,1.93-118.72,9.67-174.88,83.61-174.88s81.67,56.17,84.09,174.88Zm-14.02-40.85c0-79.14-22.23-95.74-70.07-95.74s-69.59,16.6-69.59,95.74c0,68.93,18.36,94.46,69.59,94.46s70.07-25.53,70.07-94.46Z"/>
        <path class="cls-1" d="m598.5,483.79c-4.83-474.87-14.5-571.89-51.71-571.89-17.4,0-23.2,16.6-23.2,144.25,0,188.93,63.79,255.31,63.79,453.17,0,146.8-28.03,195.31-65.24,195.31-39.63,0-69.11-51.06-69.11-205.52,0-227.22,54.61-237.44,56.54-435.3,1.45-71.49-1.45-117.44-.48-150.63,1.45-28.08,5.8-35.74,18.36-35.74,46.88,0,54.13,20.43,63.79,121.27,8.22,88.08,20.78,118.72,45.91,118.72,20.3,0,24.65-20.43,24.65-76.59.97-68.93-3.38-104.68-2.9-139.14.48-17.87,2.9-24.26,7.25-24.26s7.25,6.38,8.22,28.08c1.45,40.85-.97,84.25.48,158.29,2.42,191.48,52.19,239.99,52.19,431.47,0,160.84-24.65,209.35-60.89,209.35-38.18,0-65.24-56.17-67.66-220.84Z"/>
        <path class="cls-1" d="m852.22-122.56c46.39,2.55,65.24,16.6,65.24,49.79,0,8.94-1.45,16.6-8.21,16.6-18.85,0-34.31-35.74-73.94-35.74s-64.76,45.96-64.76,160.84c0,84.25,17.4,113.61,41.08,113.61,35.28,0,53.16-53.61,79.74-53.61,33.35,0,48.33,84.25,48.33,229.78,0,234.88-28.51,356.15-90.86,354.88-94.72,1.28-117.92-135.31-117.92-418.7s29-417.43,121.3-417.43Z"/>
        <path class="cls-1" d="m950.33,482.52c0-162.12,35.76-282.11,37.21-377.85.97-56.17-3.38-112.34-1.93-157.01.97-47.23,17.88-70.21,67.18-70.21,66.69,0,88.92,17.87,88.92,51.06,0,7.66-2.42,16.59-10.63,16.59-22.71,0-42.04-43.4-91.34-43.4-22.23,0-35.76,16.59-35.76,80.42,0,47.23,9.67,99.57,31.41,99.57,28.03,0,43.98-25.53,74.42-25.53,18.36,0,26.58,12.77,26.58,42.13,0,21.7-8.22,37.02-26.1,37.02-24.16,0-47.36-33.19-73.46-33.19-18.85,0-25.61,29.36-25.61,71.48,0,71.49,20.78,89.36,44.94,89.36s40.11-21.7,62.83-21.7c33.35,0,48.81,76.59,48.81,215.73,0,169.78-28.51,256.58-109.22,256.58s-108.25-91.91-108.25-231.05Z"/>
      </g>
    </g>
  </g>
</svg>