<?xml version="1.0" encoding="UTF-8"?>
<svg id="hoja_3" data-name="hoja 3" xmlns="http://www.w3.org/2000/svg" viewBox="0 0 1125 544">
  <defs>
    <style>
      .cls-1 {
        fill: #181818;
      }
    </style>
  </defs>
  <g id="text-3" data-name="text">
    <g>
      <g>
        <path class="cls-1" d="m238.49,236.63h-83.58V68.73h79.11v4.46h-45.38v75.89h35.96v4.46h-35.96v78.62h49.85v4.46Z"/>
        <path class="cls-1" d="m330.92,236.63h-81.59V68.73h33.73v163.43h47.86v4.46Z"/>
        <path class="cls-1" d="m425.46,236.63h-83.58V68.73h79.11v4.46h-45.38v75.89h35.96v4.46h-35.96v78.62h49.85v4.46Z"/>
        <path class="cls-1" d="m580.9,153.3v73.41c-18.85,8.43-39.43,13.14-62.25,13.14-56.05,0-93-30.75-93-84.32,0-61.75,47.86-90.27,97.96-90.27,17.36,0,35.22,3.22,49.1,10.91l-1.74,2.98c-13.64-6.7-31-8.43-42.16-8.43-42.16,0-65.47,28.52-65.47,82.34,0,47.86,18.85,82.58,59.52,82.58,10.42,0,17.61-.99,24.3-2.48v-75.39h-26.04v-4.46h59.77Z"/>
        <path class="cls-1" d="m644.01,182.31h-37.7l-11.66,54.31h-5.21l33.23-155-2.73-12.9h34.22l35.96,167.9h-34.47l-11.66-54.31Zm-.74-4.46l-18.1-84.57-18.1,84.57h36.21Z"/>
        <path class="cls-1" d="m792.12,68.73v167.9h-34.72l-47.86-138.63v138.63h-4.96V86.09l-5.95-17.36h34.47l54.06,153.51V68.73h4.96Z"/>
        <path class="cls-1" d="m907.36,68.73v4.46h-35.46v163.43h-33.73V73.19h-35.22v-4.46h104.41Z"/>
        <path class="cls-1" d="m1002.03,236.63h-83.58V68.73h79.11v4.46h-45.38v75.89h35.96v4.46h-35.96v78.62h49.85v4.46Z"/>
      </g>
      <g>
        <path class="cls-1" d="m260.64,274.74c-13.6-6.4-26-10-42.8-9.6-18.8,0-32.4,11.6-32.4,31.6,0,22.8,10,40.8,41.6,74,36,38,48.4,56.8,48.4,89.6-.4,44.4-26.8,74.4-80.4,74.4-16.4,0-38.4-4.8-53.2-13.6l3.6-6.4c17.2,9.6,32,12.4,50,12.8,23.6,0,36.8-8.8,36.8-30.4,0-25.2-11.6-44.8-41.2-74.8-32.8-32.8-49.2-58-49.2-94,0-42.4,30.8-70.4,75.2-70.4,16.8,0,32.4,3.2,46.8,10.4l-3.2,6.4Z"/>
        <path class="cls-1" d="m369.16,260.34c47.6,0,77.2,24,77.2,80.8s-34.4,83.6-88.4,83.6h-6v106.4h-54.4v-270.8h71.6Zm-10.4,157.2c16,0,27.6-22,27.6-74,0-57.2-11.2-76-26.8-76h-7.6v150h6.8Z"/>
        <path class="cls-1" d="m650.2,395.14c0,92.8-32.4,141.2-93.2,141.2s-93.2-48-93.2-140.4,32.4-141.2,94.4-141.2,92,48,92,140.4Zm-127.2-.4c0,88.4,11.2,134.4,34,134.4s34-45.6,34-132.8-12-134.4-34.4-134.4-33.6,45.6-33.6,132.8Z"/>
        <path class="cls-1" d="m839.96,531.14h-58l-14.8-94c-4-23.6-12.4-40.8-30.4-40.8h-2.8v134.8h-54.4v-270.8h73.2c53.2,0,76.8,27.2,76.8,62.8,0,44.4-32.4,65.6-69.2,69.6,36.4,4.8,54.4,22.8,60.8,51.6l18.8,86.8Zm-106-142h7.6c15.2,0,29.6-15.6,29.6-60.8,0-34-6-60.8-28-60.8h-9.2v121.6Z"/>
        <path class="cls-1" d="m1001.95,260.34v7.2h-57.2v263.6h-54.4v-263.6h-56.8v-7.2h168.4Z"/>
      </g>
    </g>
    <g>
      <path class="cls-1" d="m157.67,6.36c0-.8.32-1,.97-1h3.05c7.02,0,9.37,3.55,9.37,8.25.02,5.17-2.37,8.75-9.4,8.75h-3.17c-.48,0-.9-.3-.9-.9.05-.97.1-13.47.08-15.1Zm4.1,14.77c6.02,0,7.9-3.05,7.9-7.52,0-3.77-1.8-7.02-7.87-7.02h-2.82c.02,3.22-.05,10.32-.02,14.55h2.82Z"/>
      <path class="cls-1" d="m251.77,6.18c-.02-.5.25-.83.85-.83h5.02c4.17,0,6.35,2.4,6.42,5.32,0,3.35-2.75,5-4.65,5.37l3.52,4.75c.38.52.6.58,1.62.58.27.7-.22,1.22-.95,1.22-.9,0-1.3-.38-1.85-1.15l-3.67-5.22h-5.07c0,.65-.05,3.95,0,5.3.02.7-.15.82-.48.82h-.32c-.48,0-.5-.3-.5-.7.02-.98.1-15.15.05-15.47Zm5.87,8.87c2.92,0,5.1-1.47,5.02-4.37-.02-2.02-1.7-4.1-5.02-4.1h-4.57c0,1.67-.07,7.75-.07,8.47h4.65Z"/>
      <path class="cls-1" d="m344.89,6.36c0-.42,0-1,.65-1h9.7c.35,0,.42.23.42.45v.3c0,.35-.05.48-.4.48h-9.05l.02,6.75c2.45,0,7.22-.02,7.9-.02.2,0,.35.1.35.42v.45c0,.25-.1.32-.35.32-.75,0-5.37-.02-7.92,0,0,2.32-.05,4.75-.02,6.62,2.3,0,7.92,0,9-.02.3,0,.45.17.45.5v.35c0,.32-.08.4-.45.4h-9.7c-.45,0-.6-.5-.58-.9.03-.97-.05-14.8-.02-15.1Z"/>
      <path class="cls-1" d="m435.41,20.38c-.05-.55.62-.75.62-.75,0,0,1.42,1.75,4.47,1.75s4.95-1.4,4.95-3.45c0-1.5-1.3-2.72-3.3-3.22l-3.05-.83c-2.1-.55-4.3-1.52-4.3-4.15s2.12-4.62,5.97-4.62c2.12,0,3.3.4,4.32.92.42.25.9.67.7,1.15-.17.4-.62.55-.62.55,0,0-1.45-1.4-4.4-1.4-3.15,0-4.57,1.52-4.57,3.4s1.8,2.45,3.25,2.85l3.12.85c2.7.77,4.27,2.1,4.27,4.47,0,2.85-2.5,4.7-6.35,4.7-2.22,0-3.85-.7-4.55-1.2-.4-.33-.52-.6-.55-1.02Z"/>
      <path class="cls-1" d="m526.19,20.38c-.05-.55.62-.75.62-.75,0,0,1.42,1.75,4.47,1.75s4.95-1.4,4.95-3.45c0-1.5-1.3-2.72-3.3-3.22l-3.05-.83c-2.1-.55-4.3-1.52-4.3-4.15s2.12-4.62,5.97-4.62c2.12,0,3.3.4,4.32.92.42.25.9.67.7,1.15-.17.4-.62.55-.62.55,0,0-1.45-1.4-4.4-1.4-3.15,0-4.57,1.52-4.57,3.4s1.8,2.45,3.25,2.85l3.12.85c2.7.77,4.27,2.1,4.27,4.47,0,2.85-2.5,4.7-6.35,4.7-2.22,0-3.85-.7-4.55-1.2-.4-.33-.52-.6-.55-1.02Z"/>
      <path class="cls-1" d="m710.34,5.11c2.37,0,3.95.75,4.6,1.17.5.33.7.7.12,1.25-.1.12-.25.22-.25.22,0,0-1.67-1.42-4.57-1.42-4.32,0-6.62,3.15-6.62,7.5s2.6,7.55,6.67,7.55c1.62,0,2.82-.5,3.5-.9.27-.15.52-.25.75.1l.25.35c.15.2.12.42-.17.62-.33.23-1.8,1.05-4.32,1.05-5.42,0-8.02-3.7-8.07-8.75-.05-4.82,2.62-8.75,8.12-8.75Z"/>
      <path class="cls-1" d="m801.83,5.11c4.8,0,7.37,3.77,7.42,8.75.08,5-2.7,8.75-7.55,8.75-5.25,0-7.5-3.72-7.55-8.75-.05-4.92,2.55-8.75,7.67-8.75Zm-.05,16.27c4.27,0,6.07-3.6,6.07-7.55s-1.8-7.5-6.07-7.5c-4.5,0-6.17,3.42-6.2,7.5-.03,4.02,1.65,7.55,6.2,7.55Z"/>
      <path class="cls-1" d="m890.01,6.36c0-.8.32-1,.97-1h3.05c7.02,0,9.37,3.55,9.37,8.25.02,5.17-2.37,8.75-9.4,8.75h-3.17c-.48,0-.9-.3-.9-.9.05-.97.1-13.47.08-15.1Zm4.1,14.77c6.02,0,7.9-3.05,7.9-7.52,0-3.77-1.8-7.02-7.87-7.02h-2.82c.02,3.22-.05,10.32-.02,14.55h2.82Z"/>
      <path class="cls-1" d="m984.08,6.36c0-.42,0-1,.65-1h9.7c.35,0,.42.23.42.45v.3c0,.35-.05.48-.4.48h-9.05l.02,6.75c2.45,0,7.22-.02,7.9-.02.2,0,.35.1.35.42v.45c0,.25-.1.32-.35.32-.75,0-5.37-.02-7.92,0,0,2.32-.05,4.75-.03,6.62,2.3,0,7.92,0,9-.02.3,0,.45.17.45.5v.35c0,.32-.07.4-.45.4h-9.7c-.45,0-.6-.5-.57-.9.02-.97-.05-14.8-.03-15.1Z"/>
    </g>
  </g>
</svg>