<?xml version="1.0" encoding="UTF-8"?>
<svg id="hoja_3" data-name="hoja 3" xmlns="http://www.w3.org/2000/svg" viewBox="0 0 1129.21 531.81">
  <defs>
    <style>
      .cls-1 {
        fill: #181818;
      }
    </style>
  </defs>
  <g id="text-3" data-name="text">
    <g>
      <g>
        <path class="cls-1" d="m231.16,230.27h-83.58V62.37h79.11v4.46h-45.38v75.89h35.96v4.46h-35.96v78.62h49.85v4.46Z"/>
        <path class="cls-1" d="m323.59,230.27h-81.59V62.37h33.73v163.43h47.86v4.46Z"/>
        <path class="cls-1" d="m418.13,230.27h-83.58V62.37h79.11v4.46h-45.38v75.89h35.96v4.46h-35.96v78.62h49.85v4.46Z"/>
        <path class="cls-1" d="m573.57,146.94v73.41c-18.85,8.43-39.43,13.14-62.25,13.14-56.05,0-93-30.75-93-84.32,0-61.75,47.86-90.27,97.96-90.27,17.36,0,35.22,3.22,49.1,10.91l-1.74,2.98c-13.64-6.7-31-8.43-42.16-8.43-42.16,0-65.47,28.52-65.47,82.34,0,47.86,18.85,82.58,59.52,82.58,10.42,0,17.61-.99,24.3-2.48v-75.39h-26.04v-4.46h59.77Z"/>
        <path class="cls-1" d="m636.69,175.96h-37.7l-11.66,54.31h-5.21l33.23-155-2.73-12.9h34.22l35.96,167.9h-34.47l-11.66-54.31Zm-.74-4.46l-18.1-84.57-18.1,84.57h36.21Z"/>
        <path class="cls-1" d="m784.79,62.37v167.9h-34.72l-47.86-138.63v138.63h-4.96V79.73l-5.95-17.36h34.47l54.06,153.51V62.37h4.96Z"/>
        <path class="cls-1" d="m900.04,62.37v4.46h-35.46v163.43h-33.73V66.84h-35.22v-4.46h104.41Z"/>
        <path class="cls-1" d="m994.7,230.27h-83.58V62.37h79.11v4.46h-45.38v75.89h35.96v4.46h-35.96v78.62h49.85v4.46Z"/>
      </g>
      <g>
        <path class="cls-1" d="m253.31,268.39c-13.6-6.4-26-10-42.8-9.6-18.8,0-32.4,11.6-32.4,31.6,0,22.8,10,40.8,41.6,74,36,38,48.4,56.8,48.4,89.6-.4,44.4-26.8,74.4-80.4,74.4-16.4,0-38.4-4.8-53.2-13.6l3.6-6.4c17.2,9.6,32,12.4,50,12.8,23.6,0,36.8-8.8,36.8-30.4,0-25.2-11.6-44.8-41.2-74.8-32.8-32.8-49.2-58-49.2-94,0-42.4,30.8-70.4,75.2-70.4,16.8,0,32.4,3.2,46.8,10.4l-3.2,6.4Z"/>
        <path class="cls-1" d="m361.83,253.99c47.6,0,77.2,24,77.2,80.8s-34.4,83.6-88.4,83.6h-6v106.4h-54.4V253.99h71.6Zm-10.4,157.2c16,0,27.6-22,27.6-74,0-57.2-11.2-76-26.8-76h-7.6v150h6.8Z"/>
        <path class="cls-1" d="m642.87,388.79c0,92.8-32.4,141.2-93.2,141.2s-93.2-48-93.2-140.4,32.4-141.2,94.4-141.2,92,48,92,140.4Zm-127.2-.4c0,88.4,11.2,134.4,34,134.4s34-45.6,34-132.8-12-134.4-34.4-134.4-33.6,45.6-33.6,132.8Z"/>
        <path class="cls-1" d="m832.63,524.79h-58l-14.8-94c-4-23.6-12.4-40.8-30.4-40.8h-2.8v134.8h-54.4V253.99h73.2c53.2,0,76.8,27.2,76.8,62.8,0,44.4-32.4,65.6-69.2,69.6,36.4,4.8,54.4,22.8,60.8,51.6l18.8,86.8Zm-106-142h7.6c15.2,0,29.6-15.6,29.6-60.8,0-34-6-60.8-28-60.8h-9.2v121.6Z"/>
        <path class="cls-1" d="m994.63,253.99v7.2h-57.2v263.6h-54.4v-263.6h-56.8v-7.2h168.4Z"/>
      </g>
    </g>
    <g>
      <path class="cls-1" d="m153.24,15.65l1.2-.12c.65-.05.88-.15.88-.3V1.1c0-.15-.1-.2-1.05-.28l-1-.1-.08-.35,5.7-.08c5.57,0,8.82,2.97,8.82,7.6s-3.5,8.1-9.27,8.1h-5.27l.07-.35Zm12.82-7.22c0-4.45-2.5-7.67-7.5-7.67h-1.7v14.52l2.2.3c4.62-.12,7-3.4,7-7.15Z"/>
      <path class="cls-1" d="m245.83,15.65l1.45-.12c.38-.03.88-.15.88-.3V1.1c0-.15-.1-.2-1.05-.28l-1.25-.1-.08-.35h6.15c3.65,0,5.6,1.5,5.6,3.82,0,2.15-1.7,3.67-3.97,4.25l3.82,5.87c.7,1.05.97,1.23,1.78,1.25l.7.08.1.35h-3.3l-.42-.75-4.17-6.67c-.52,0-1.85-.12-2.35-.3v7c0,.15.62.22,1.05.28l1.25.1.07.35h-6.32l.07-.35Zm10.07-11.27c0-2.27-1.62-3.7-4.7-3.6l-1.5.05v6.97c.58.2,1.9.38,2.6.38,2.12-.12,3.6-1.52,3.6-3.8Z"/>
      <path class="cls-1" d="m338.61,15.65l1.3-.12c.62-.05.85-.15.85-.3V1.1c0-.15-.1-.2-1.03-.28l-1.1-.1-.08-.35h11.2l.4,4.07h-.3l-.28-1.08c-.7-1.95-1.45-2.62-4.2-2.62h-3.07v6.82h2.5c2.07-.05,2.22-.27,2.55-1.42l.25-.72.28.03-.47,4.77-.28-.03-.05-.67c-.1-1.3-.17-1.45-2.4-1.5l-2.38-.03v7.52l3.1.07c3.5-.02,4.25-1.12,4.95-2.87l.3-1.05.38.03-.95,4.3h-11.55l.07-.35Z"/>
      <path class="cls-1" d="m430.55,15.6l-.42-3.67h.38l.55,1.75c.8,1.52,2.12,2.27,3.97,2.27,2.45,0,4.05-1.5,4.05-3.57s-1.35-3.12-4.17-4.05c-2.15-.72-4.05-1.75-4.05-4.1,0-2.47,1.9-4.22,4.65-4.22,1.17,0,2.12.25,2.72.53l1.17-.3.28,3.9h-.38l-1.35-3c-.6-.4-1.47-.72-2.55-.72-2.15,0-3.45,1.35-3.45,3.05,0,1.95,1.55,2.7,3.85,3.52,2.35.83,4.47,1.88,4.47,4.62s-2.32,4.75-5.35,4.75c-1.47,0-3.2-.3-4.37-.75Z"/>
      <path class="cls-1" d="m519.75,15.6l-.42-3.67h.38l.55,1.75c.8,1.52,2.12,2.27,3.97,2.27,2.45,0,4.05-1.5,4.05-3.57s-1.35-3.12-4.17-4.05c-2.15-.72-4.05-1.75-4.05-4.1,0-2.47,1.9-4.22,4.65-4.22,1.18,0,2.12.25,2.72.53l1.18-.3.27,3.9h-.38l-1.35-3c-.6-.4-1.47-.72-2.55-.72-2.15,0-3.45,1.35-3.45,3.05,0,1.95,1.55,2.7,3.85,3.52,2.35.83,4.47,1.88,4.47,4.62s-2.32,4.75-5.35,4.75c-1.47,0-3.2-.3-4.37-.75Z"/>
      <path class="cls-1" d="m690.55,8.37c0-4.85,3.5-8.37,8.47-8.37,1.7,0,3,.4,4.02.9l1.35-.53.25,4.47h-.35l-1.45-3.45c-.65-.45-2.02-1-3.87-1-4.1,0-6.75,3.25-6.75,7.75s2.6,7.8,6.72,7.8c2.57,0,3.9-1.05,5.02-2.72l.72-1.72h.38l-.85,3.87-.85.03c-1,.45-2.8.95-4.45.95-4.85,0-8.37-3.2-8.37-7.97Z"/>
      <path class="cls-1" d="m783.99,8.22c0-4.45,3.72-8.22,8-8.22,4.6,0,8.07,3.32,8.07,8.2,0,4.42-3.7,8.12-8.02,8.12-4.6,0-8.05-3.27-8.05-8.1Zm14.4.08c0-4.77-2.82-7.9-6.4-7.9s-6.3,2.97-6.3,7.75,2.77,7.77,6.4,7.77,6.3-2.92,6.3-7.62Z"/>
      <path class="cls-1" d="m878.49,15.65l1.2-.12c.65-.05.88-.15.88-.3V1.1c0-.15-.1-.2-1.05-.28l-1-.1-.08-.35,5.7-.08c5.57,0,8.82,2.97,8.82,7.6s-3.5,8.1-9.27,8.1h-5.27l.07-.35Zm12.82-7.22c0-4.45-2.5-7.67-7.5-7.67h-1.7v14.52l2.2.3c4.62-.12,7-3.4,7-7.15Z"/>
      <path class="cls-1" d="m971.26,15.65l1.3-.12c.62-.05.85-.15.85-.3V1.1c0-.15-.1-.2-1.02-.28l-1.1-.1-.07-.35h11.2l.4,4.07h-.3l-.28-1.08c-.7-1.95-1.45-2.62-4.2-2.62h-3.07v6.82h2.5c2.07-.05,2.22-.27,2.55-1.42l.25-.72.27.03-.47,4.77-.28-.03-.05-.67c-.1-1.3-.18-1.45-2.4-1.5l-2.37-.03v7.52l3.1.07c3.5-.02,4.25-1.12,4.95-2.87l.3-1.05.38.03-.95,4.3h-11.55l.08-.35Z"/>
    </g>
  </g>
</svg>