<?xml version="1.0" encoding="UTF-8"?>
<svg id="hoja_4" data-name="hoja 4" xmlns="http://www.w3.org/2000/svg" viewBox="0 0 1129.21 851.81">
  <defs>
    <style>
      .cls-1 {
        letter-spacing: 0em;
      }

      .cls-2 {
        letter-spacing: .21em;
      }

      .cls-3 {
        letter-spacing: .01em;
      }

      .cls-4 {
        letter-spacing: -.02em;
      }

      .cls-5 {
        letter-spacing: -.01em;
      }

      .cls-6 {
        letter-spacing: -.02em;
      }

      .cls-7 {
        fill: #eeddb9;
      }

      .cls-8 {
        fill: #181818;
      }

      .cls-9 {
        letter-spacing: -.04em;
      }

      .cls-10 {
        letter-spacing: -.02em;
      }

      .cls-11 {
        letter-spacing: 0em;
      }

      .cls-12 {
        letter-spacing: -.02em;
      }

      .cls-13 {
        letter-spacing: 0em;
      }

      .cls-14 {
        letter-spacing: -.01em;
      }

      .cls-15 {
        letter-spacing: -.01em;
      }

      .cls-16 {
        letter-spacing: -.02em;
      }

      .cls-17 {
        letter-spacing: 0em;
      }

      .cls-18 {
        letter-spacing: -.03em;
      }

      .cls-19 {
        letter-spacing: -.01em;
      }

      .cls-20 {
        letter-spacing: -.02em;
      }

      .cls-21 {
        letter-spacing: 1.01em;
      }

      .cls-22 {
        letter-spacing: -.04em;
      }

      .cls-23 {
        letter-spacing: -.02em;
      }

      .cls-24 {
        letter-spacing: -.04em;
      }

      .cls-25 {
        letter-spacing: 0em;
      }

      .cls-26 {
        letter-spacing: 0em;
      }

      .cls-27 {
        letter-spacing: -.02em;
      }

      .cls-28 {
        letter-spacing: -.04em;
      }

      .cls-29 {
        letter-spacing: -.04em;
      }

      .cls-30 {
        letter-spacing: -.04em;
      }

      .cls-31 {
        letter-spacing: .02em;
      }

      .cls-32 {
        letter-spacing: .02em;
      }

      .cls-33 {
        letter-spacing: -.06em;
      }

      .cls-34 {
        letter-spacing: 0em;
      }

      .cls-35 {
        letter-spacing: -.03em;
      }

      .cls-36 {
        font-family: FreightDispProBook-Regular, 'FreightDisp Pro';
        font-size: 50px;
      }

      .cls-37 {
        letter-spacing: 0em;
      }

      .cls-38 {
        letter-spacing: -.03em;
      }

      .cls-39 {
        letter-spacing: 0em;
      }

      .cls-40 {
        letter-spacing: -.02em;
      }

      .cls-41 {
        letter-spacing: -.03em;
      }

      .cls-42 {
        letter-spacing: 0em;
      }

      .cls-43 {
        letter-spacing: 0em;
      }

      .cls-44 {
        letter-spacing: -.07em;
      }

      .cls-45 {
        letter-spacing: -.03em;
      }

      .cls-46 {
        letter-spacing: -.01em;
      }
    </style>
  </defs>
  <g id="text-3" data-name="text">
    <g>
      <rect class="cls-7" x="172.11" y="342.78" width="799" height="171.43" rx="18" ry="18"/>
      <text class="cls-36" transform="translate(210.08 408.97)"><tspan class="cls-3" x="0" y="0">A</tspan><tspan class="cls-38" x="31.35" y="0">L</tspan><tspan class="cls-34" x="57.42" y="0">I</tspan><tspan x="74.36" y="0">A</tspan><tspan class="cls-12" x="105.16" y="0">S</tspan><tspan x="128.46" y="0">:</tspan><tspan class="cls-2" x="138.21" y="0"> </tspan><tspan class="cls-42" x="157.67" y="0">C</tspan><tspan x="190.48" y="0">A</tspan><tspan class="cls-45" x="221.28" y="0">S</tspan><tspan class="cls-31" x="244.24" y="0">A</tspan><tspan class="cls-25" x="275.89" y="0">M</tspan><tspan class="cls-42" x="316.77" y="0">I</tspan><tspan class="cls-23" x="332.73" y="0">E</tspan><tspan class="cls-19" x="360.35" y="0">N</tspan><tspan class="cls-18" x="394.59" y="0">T</tspan><tspan class="cls-24" x="424.58" y="0">O</tspan><tspan class="cls-6" x="458.76" y="0">F</tspan><tspan class="cls-40" x="485.21" y="0">L</tspan><tspan class="cls-29" x="511.75" y="0">O</tspan><tspan class="cls-33" x="545.98" y="0">R</tspan><tspan class="cls-44" x="573.49" y="0">Y</tspan><tspan class="cls-43" x="600.27" y="0">C</tspan><tspan class="cls-32" x="633.08" y="0">A</tspan><tspan class="cls-26" x="664.73" y="0">M</tspan><tspan x="705.61" y="0">I</tspan><tspan class="cls-20" x="-7.47" y="65">C</tspan><tspan class="cls-28" x="24.6" y="65">B</tspan><tspan class="cls-22" x="51.03" y="65">U</tspan><tspan x="82.86" y="65">: </tspan><tspan class="cls-1" x="101.61" y="65">0</tspan><tspan class="cls-5" x="128.53" y="65">0</tspan><tspan class="cls-35" x="154.96" y="65">7</tspan><tspan class="cls-11" x="174.84" y="65">0</tspan><tspan class="cls-13" x="201.46" y="65">99</tspan><tspan class="cls-17" x="249.21" y="65">9</tspan><tspan class="cls-15" x="273.5" y="65">0</tspan><tspan class="cls-46" x="299.89" y="65">3</tspan><tspan class="cls-37" x="319.15" y="65">00</tspan><tspan class="cls-30" x="372.98" y="65">0</tspan><tspan class="cls-10" x="398.12" y="65">4</tspan><tspan class="cls-4" x="420.02" y="65">0</tspan><tspan class="cls-14" x="446.09" y="65">5</tspan><tspan class="cls-5" x="464.97" y="65">7</tspan><tspan class="cls-16" x="485.66" y="65">8</tspan><tspan class="cls-27" x="507.71" y="65">7</tspan><tspan class="cls-9" x="527.99" y="65">6</tspan><tspan class="cls-39" x="550.36" y="65">2</tspan><tspan class="cls-41" x="572.23" y="65">8</tspan><tspan x="593.82" y="65">2</tspan><tspan class="cls-21" x="615.67" y="65">	</tspan></text>
    </g>
    <g>
      <path class="cls-8" d="m206.89,49.27l3.71-.26c1.89-.19,2.6-.52,2.6-.97v-15.67l-10.4-17.74c-1.5-2.67-2.41-3.64-4.75-3.84l-2.21-.2-.2-.97h16.64l-.19.97-2.47.13c-2.73.13-2.79,1.17-.97,4.29l8.78,15.34h.2l7.02-12.74c2.79-5.2,2.67-6.37-1.23-6.89l-2.08-.13-.2-.97h13.97l-.19.97-1.82.13c-2.73.32-3.77.97-6.83,6.63l-8,14.17v16.71c0,.46.39.59,3.12.85l3.19.2.19.97h-18.07l.19-.97Z"/>
      <path class="cls-8" d="m246.24,46.35l-.13-.06c-2.41,2.47-5.13,4.68-8.26,4.68-3.9,0-6.96-2.86-6.96-6.5,0-4.62,3.71-7.67,15.73-10.6l.07-2.21c.2-6.56-2.73-8.45-6.43-8.45-2.6,0-5.4,1.49-5.4,2.21,0,.46,1.5,1.5,1.5,3.12,0,1.37-1.11,2.6-2.86,2.6-1.62,0-2.86-.97-2.86-2.54,0-3.19,7.21-7.21,12.29-7.21,5.85,0,8.65,2.28,8.26,10.27l-.65,13.85c-.06,1.95.65,2.67,1.95,2.67.98,0,2.01-.85,3.06-1.82l.52.58c-1.37,1.69-3.31,4.1-5.72,4.1-2.27,0-3.96-1.62-4.09-4.68Zm0-1.23l.33-10.21c-9.04,2.21-11.12,4.88-11.12,8.32,0,2.99,2.01,4.81,4.62,4.81,2.34,0,4.22-1.11,6.17-2.92Z"/>
      <path class="cls-8" d="m272.63,44.33l.33-19.37-5.07-.13.19-1.11,8.71-7.28.78.19-.07,5.72h9.62l-.78,2.47h-8.84s-.45,18.79-.45,18.85c-.07,3.12,1.62,4.55,4.42,4.55,2.27,0,3.97-1.11,5.53-2.28l.39.65c-2.4,2.34-5.13,4.55-8.32,4.55-3.64,0-6.5-1.76-6.44-6.83Z"/>
      <path class="cls-8" d="m287.97,36.98c0-8.64,5.85-15.6,14.04-15.6,6.44,0,10.14,3.96,10.14,8.97,0,.58-.06,1.1-.13,1.69l-18.98-.13c-.13.78-.26,2.21-.26,3.12,0,7.54,4.42,12.68,10.27,12.68,3.71,0,6.43-1.3,8.84-4.94l.71.39c-2.73,4.94-6.5,7.93-11.63,7.93-7.41,0-13-6.11-13-14.11Zm19.24-6.11c.06-4.55-1.89-8.38-5.85-8.38-3.58,0-7.08,3.71-8.19,8.45l14.04-.06Z"/>
      <path class="cls-8" d="m313.91,49.27l1.69-.07c1.69-.13,2.34-.26,2.34-.97v-19.04c0-3.51-.46-4.16-2.34-4.49l-2.08-.32.06-.65,8.84-2.21-.13,5.4.19.06c2.79-2.34,6.5-5.53,10.86-5.53,2.01,0,3.83.59,5.07,1.88,1.5,1.5,2.15,3.71,2.15,6.57v18.39c0,.46.13.65,2.73.91l1.62.07.2.97h-13.13l.2-.97,1.69-.07c1.95-.13,2.27-.46,2.27-.97v-16.9c0-4.62-2.08-6.5-5.92-6.5-3.05,0-5.79,1.56-7.87,3.38v20.15c0,.52.39.65,2.73.84l1.69.07.2.97h-13.26l.2-.97Z"/>
      <path class="cls-8" d="m345.2,36.98c0-8.64,5.85-15.6,14.04-15.6,6.44,0,10.14,3.96,10.14,8.97,0,.58-.07,1.1-.13,1.69l-18.98-.13c-.13.78-.26,2.21-.26,3.12,0,7.54,4.42,12.68,10.27,12.68,3.71,0,6.43-1.3,8.84-4.94l.71.39c-2.73,4.94-6.5,7.93-11.64,7.93-7.41,0-13-6.11-13-14.11Zm19.24-6.11c.07-4.55-1.89-8.38-5.85-8.38-3.57,0-7.08,3.71-8.19,8.45l14.04-.06Z"/>
      <path class="cls-8" d="m371.15,49.27l1.69-.07c1.69-.13,2.34-.26,2.34-.97v-18.98c0-3.58-.46-4.22-2.41-4.55l-2.01-.32.07-.65,8.84-2.21-.2,5.27.2.07c2.47-2.34,5.79-5.46,9.95-5.46,2.14,0,3.9.78,5.13,1.95.78.85,1.5,2.15,1.76,3.64l.06.06c2.6-2.6,6.04-5.65,10.21-5.65,2.21,0,3.84.65,5.2,2.02,1.37,1.43,2.08,3.83,2.08,6.56v18.33c0,.46.06.65,2.73.91l1.5.07.2.97h-13.07l.19-.97,1.69-.07c1.89-.13,2.28-.46,2.28-.97v-16.96c0-4.55-1.89-6.44-5.66-6.44-2.79,0-5.85,1.56-7.02,3.31,0,.13-.07,1.69-.07,1.76v18.39c0,.46.07.65,2.73.91l1.62.07.2.97h-13.13l.2-.97,1.69-.07c1.89-.13,2.21-.46,2.21-.97v-16.96c0-4.55-1.88-6.44-5.53-6.44-2.86,0-5.33,1.49-7.21,3.12v20.41c0,.52.39.65,2.73.84l1.75.07.13.97h-13.26l.2-.97Z"/>
      <path class="cls-8" d="m418.69,36.4c0-8.38,6.37-15.02,14.69-15.02s14.37,6.3,14.37,14.56-6.31,15.21-14.56,15.21-14.5-6.37-14.5-14.76Zm23.86.52c0-4.94-1.1-9.43-3.57-11.89-1.43-1.43-3.32-2.54-5.85-2.54-5.59,0-9.23,5.98-9.23,12.94,0,5.13,1.17,9.69,3.71,12.22,1.37,1.43,3.32,2.4,5.79,2.4,5.4,0,9.17-5.98,9.17-13.13Z"/>
      <path class="cls-8" d="m450.85,49.66l-.59-7.87h1.11l1.37,3.77c1.62,2.86,4.09,4.48,6.89,4.48,3.77,0,6.5-2.34,6.5-5.66,0-3.57-2.93-5.2-7.22-6.63-3.9-1.37-7.93-3.25-7.93-8.26,0-4.62,3.97-8.12,9.43-8.12,2.28,0,4.16.46,5.85,1.11l2.08-.65.39,7.8h-1.11l-2.66-5.46c-1.11-.85-2.73-1.69-4.75-1.69-3.51,0-5.59,1.95-5.59,4.88,0,3.45,2.79,4.62,6.83,6.04,4.36,1.56,8.52,3.31,8.52,8.78,0,4.74-4.03,8.97-10.79,8.97-3.19,0-5.92-.59-8.32-1.5Z"/>
      <path class="cls-8" d="m488.81,44.33l.32-19.37-5.07-.13.2-1.11,8.71-7.28.78.19-.06,5.72h9.62l-.78,2.47h-8.84s-.46,18.79-.46,18.85c-.07,3.12,1.62,4.55,4.42,4.55,2.28,0,3.96-1.11,5.53-2.28l.39.65c-2.41,2.34-5.13,4.55-8.32,4.55-3.64,0-6.5-1.76-6.43-6.83Z"/>
      <path class="cls-8" d="m503.94,36.4c0-8.38,6.37-15.02,14.69-15.02s14.37,6.3,14.37,14.56-6.3,15.21-14.56,15.21-14.5-6.37-14.5-14.76Zm23.86.52c0-4.94-1.1-9.43-3.58-11.89-1.43-1.43-3.31-2.54-5.85-2.54-5.59,0-9.23,5.98-9.23,12.94,0,5.13,1.17,9.69,3.71,12.22,1.37,1.43,3.31,2.4,5.79,2.4,5.39,0,9.17-5.98,9.17-13.13Z"/>
      <path class="cls-8" d="m557.27,45.89l-.2-.06c-2.47,2.86-5.72,5.26-9.88,5.26-6.57,0-11.7-5.72-11.7-13.91,0-9.55,7.15-15.47,14.69-15.47,2.79,0,4.94.59,6.96,1.56h.13v-11.38c0-1.95-.33-2.6-2.01-2.79l-3.12-.52.13-.71,9.42-1.88v40.63c0,1.23.26,1.69,1.3,1.82l3.25.52-.07.71-8.91,1.62v-5.39Zm0-1.56v-16.19c-1.62-2.86-4.68-5.2-8.06-5.2-5.4,0-8.71,5.39-8.71,12.67s3.64,12.42,9.23,12.42c3.38,0,5.59-1.69,7.54-3.71Z"/>
      <path class="cls-8" d="m566.15,36.4c0-8.38,6.37-15.02,14.69-15.02s14.37,6.3,14.37,14.56-6.31,15.21-14.56,15.21-14.5-6.37-14.5-14.76Zm23.86.52c0-4.94-1.11-9.43-3.58-11.89-1.43-1.43-3.32-2.54-5.85-2.54-5.59,0-9.23,5.98-9.23,12.94,0,5.13,1.17,9.69,3.71,12.22,1.36,1.43,3.31,2.4,5.79,2.4,5.39,0,9.17-5.98,9.17-13.13Z"/>
      <path class="cls-8" d="m596.65,57.98c2.54-1.43,5.14-3.96,5.14-7.28s-3.25-4.49-4.68-3.58c-.65-1.75.52-4.03,3.32-4.03s4.94,2.02,4.94,5.27c0,4.09-3.96,8.19-8.12,10.14l-.58-.52Z"/>
      <path class="cls-8" d="m618.88,65.59l1.76-.06c1.62-.13,2.34-.26,2.34-.91V29.12c0-3.45-.46-4.09-2.34-4.42l-2.08-.32.06-.65,8.84-2.21-.07,5.46.2.13c2.54-2.93,5.79-5.4,9.95-5.4,6.63,0,11.63,5.66,11.63,13.72,0,9.49-7.02,15.73-14.37,15.73-2.86,0-5.46-.78-7.28-1.62h-.13v15.21c0,.46.33.65,2.67.78l2.79.06.2.97h-14.37l.19-.97Zm25.29-28.6c0-6.89-3.58-12.15-9.1-12.15-3.25,0-5.79,1.75-7.67,3.83v16.19c1.69,2.67,4.68,5.01,8.12,5.01,5.33,0,8.65-5.46,8.65-12.87Z"/>
      <path class="cls-8" d="m651.66,36.98c0-8.64,5.85-15.6,14.04-15.6,6.44,0,10.14,3.96,10.14,8.97,0,.58-.07,1.1-.13,1.69l-18.98-.13c-.13.78-.26,2.21-.26,3.12,0,7.54,4.42,12.68,10.27,12.68,3.71,0,6.44-1.3,8.84-4.94l.71.39c-2.73,4.94-6.5,7.93-11.64,7.93-7.41,0-13-6.11-13-14.11Zm19.24-6.11c.07-4.55-1.88-8.38-5.85-8.38-3.58,0-7.08,3.71-8.19,8.45l14.04-.06Z"/>
      <path class="cls-8" d="m677.56,49.27l1.69-.07c1.69-.13,2.34-.26,2.34-.97v-19.04c0-3.51-.46-4.16-2.34-4.49l-2.01-.32.07-.65,8.78-2.21-.13,10.14h.13c2.4-6.7,5.07-10.27,8.77-10.27,2.28,0,3.71,1.56,3.71,3.25s-1.11,3.19-2.99,3.19c-1.56,0-3.06-1.11-3.32-3.32-2.6.78-4.49,3.84-6.24,9.36v14.5c0,.52.26.71,2.54.84l2.67.07.2.97h-14.04l.2-.97Z"/>
      <path class="cls-8" d="m698.67,36.4c0-8.38,6.37-15.02,14.69-15.02s14.37,6.3,14.37,14.56-6.31,15.21-14.56,15.21-14.5-6.37-14.5-14.76Zm23.86.52c0-4.94-1.11-9.43-3.58-11.89-1.43-1.43-3.32-2.54-5.85-2.54-5.59,0-9.23,5.98-9.23,12.94,0,5.13,1.17,9.69,3.71,12.22,1.36,1.43,3.31,2.4,5.79,2.4,5.39,0,9.17-5.98,9.17-13.13Z"/>
      <path class="cls-8" d="m743.52,49.66l-.58-7.87h1.1l1.37,3.77c1.62,2.86,4.1,4.48,6.89,4.48,3.77,0,6.5-2.34,6.5-5.66,0-3.57-2.92-5.2-7.21-6.63-3.9-1.37-7.93-3.25-7.93-8.26,0-4.62,3.96-8.12,9.43-8.12,2.27,0,4.16.46,5.85,1.11l2.08-.65.39,7.8h-1.11l-2.67-5.46c-1.11-.85-2.73-1.69-4.75-1.69-3.51,0-5.59,1.95-5.59,4.88,0,3.45,2.79,4.62,6.83,6.04,4.35,1.56,8.51,3.31,8.51,8.78,0,4.74-4.03,8.97-10.79,8.97-3.19,0-5.92-.59-8.32-1.5Z"/>
      <path class="cls-8" d="m764.36,49.27l1.82-.07c1.62-.13,2.28-.26,2.28-.97v-19.04c0-3.51-.46-4.16-2.41-4.49l-2.02-.32.13-.65,8.77-2.21v26.85c0,.52.33.65,2.67.84l1.62.07.19.97h-13.26l.19-.97Zm2.47-36.92c0-1.5,1.04-3.38,3.25-3.38s3.18,1.88,3.18,3.32-1.04,3.31-3.18,3.31-3.25-1.88-3.25-3.25Z"/>
      <path class="cls-8" d="m807.78,65.59l2.73-.06c2.34-.13,2.67-.33,2.67-.85v-18.79l-.2-.06c-2.47,2.86-5.72,5.26-9.88,5.26-6.57,0-11.7-5.72-11.7-13.91,0-9.55,7.15-15.47,14.69-15.47,3.05,0,5.98.91,8.06,2.15h.13l2.86-2.73h.46v43.49c0,.65.65.71,2.41.91l1.75.06.2.97h-14.37l.19-.97Zm5.4-21.26v-16.05c-1.62-2.93-4.68-5.33-8.06-5.33-5.4,0-8.71,5.33-8.71,12.54s3.64,12.54,9.23,12.54c3.38,0,5.59-1.69,7.54-3.71Z"/>
      <path class="cls-8" d="m843.03,45.69h-.13c-2.79,2.4-6.43,5.46-10.73,5.46-2.14,0-3.83-.65-5.26-1.95-1.43-1.56-2.02-3.77-2.02-6.56v-18.4c0-.58-.06-.65-2.79-.84l-1.56-.2-.2-.91h9.1l-.13,18.92c0,4.68,2.14,6.56,5.98,6.56,3.12,0,5.66-1.56,7.61-3.31v-18.59c0-1.95-.46-2.34-2.73-2.47l-1.69-.2-.2-.91h9.17v24.05c0,1.17.19,1.62,1.3,1.75l3.18.52-.06.71-8.91,1.95.06-5.59Z"/>
      <path class="cls-8" d="m852.03,36.98c0-8.64,5.85-15.6,14.04-15.6,6.44,0,10.14,3.96,10.14,8.97,0,.58-.07,1.1-.13,1.69l-18.98-.13c-.13.78-.26,2.21-.26,3.12,0,7.54,4.42,12.68,10.27,12.68,3.71,0,6.44-1.3,8.84-4.94l.72.39c-2.73,4.94-6.5,7.93-11.64,7.93-7.41,0-13-6.11-13-14.11Zm19.24-6.11c.07-4.55-1.88-8.38-5.85-8.38-3.58,0-7.08,3.71-8.19,8.45l14.04-.06Z"/>
      <path class="cls-8" d="m877.94,49.27l1.69-.07c1.69-.13,2.34-.26,2.34-.97v-19.04c0-3.51-.46-4.16-2.34-4.49l-2.01-.32.07-.65,8.78-2.21-.13,10.14h.13c2.4-6.7,5.07-10.27,8.77-10.27,2.28,0,3.71,1.56,3.71,3.25s-1.11,3.19-2.99,3.19c-1.56,0-3.06-1.11-3.32-3.32-2.6.78-4.49,3.84-6.24,9.36v14.5c0,.52.26.71,2.54.84l2.67.07.2.97h-14.04l.2-.97Z"/>
      <path class="cls-8" d="m899.04,36.98c0-8.64,5.85-15.6,14.04-15.6,6.44,0,10.14,3.96,10.14,8.97,0,.58-.07,1.1-.13,1.69l-18.98-.13c-.13.78-.26,2.21-.26,3.12,0,7.54,4.42,12.68,10.27,12.68,3.71,0,6.44-1.3,8.84-4.94l.72.39c-2.73,4.94-6.5,7.93-11.64,7.93-7.41,0-13-6.11-13-14.11Zm19.24-6.11c.07-4.55-1.88-8.38-5.85-8.38-3.58,0-7.08,3.71-8.19,8.45l14.04-.06Zm-2.01-24.96h5.39l-11.57,12.03h-.65l6.83-12.03Z"/>
      <path class="cls-8" d="m926.87,49.66l-.58-7.87h1.1l1.37,3.77c1.62,2.86,4.1,4.48,6.89,4.48,3.77,0,6.5-2.34,6.5-5.66,0-3.57-2.92-5.2-7.21-6.63-3.9-1.37-7.93-3.25-7.93-8.26,0-4.62,3.96-8.12,9.43-8.12,2.27,0,4.16.46,5.85,1.11l2.08-.65.39,7.8h-1.11l-2.67-5.46c-1.11-.85-2.73-1.69-4.75-1.69-3.51,0-5.59,1.95-5.59,4.88,0,3.45,2.79,4.62,6.83,6.04,4.35,1.56,8.51,3.31,8.51,8.78,0,4.74-4.03,8.97-10.79,8.97-3.19,0-5.92-.59-8.32-1.5Z"/>
      <path class="cls-8" d="m240.12,110.89l-.2-.06c-2.47,2.86-5.72,5.26-9.88,5.26-6.57,0-11.7-5.72-11.7-13.91,0-9.55,7.15-15.47,14.69-15.47,2.79,0,4.94.59,6.96,1.56h.13v-11.38c0-1.95-.33-2.6-2.01-2.79l-3.12-.52.13-.71,9.42-1.88v40.63c0,1.23.26,1.69,1.3,1.82l3.25.52-.06.71-8.91,1.62v-5.39Zm0-1.56v-16.19c-1.62-2.86-4.68-5.2-8.06-5.2-5.4,0-8.71,5.39-8.71,12.67s3.64,12.42,9.23,12.42c3.38,0,5.59-1.69,7.54-3.71Z"/>
      <path class="cls-8" d="m265.75,111.35l-.13-.06c-2.41,2.47-5.14,4.68-8.26,4.68-3.9,0-6.96-2.86-6.96-6.5,0-4.62,3.71-7.67,15.73-10.6l.06-2.21c.2-6.56-2.73-8.45-6.43-8.45-2.6,0-5.4,1.49-5.4,2.21,0,.46,1.5,1.5,1.5,3.12,0,1.37-1.1,2.6-2.86,2.6-1.62,0-2.86-.97-2.86-2.54,0-3.19,7.21-7.21,12.29-7.21,5.85,0,8.65,2.28,8.26,10.27l-.65,13.85c-.07,1.95.65,2.67,1.95,2.67.98,0,2.02-.85,3.06-1.82l.52.58c-1.37,1.69-3.32,4.1-5.72,4.1-2.28,0-3.96-1.62-4.1-4.68Zm0-1.23l.33-10.21c-9.04,2.21-11.12,4.88-11.12,8.32,0,2.99,2.01,4.81,4.62,4.81,2.34,0,4.23-1.11,6.17-2.92Z"/>
      <path class="cls-8" d="m276.35,114.27l1.69-.07c1.69-.13,2.34-.26,2.34-.97v-19.04c0-3.51-.45-4.16-2.34-4.49l-2.01-.32.07-.65,8.78-2.21-.13,10.14h.13c2.4-6.7,5.07-10.27,8.78-10.27,2.27,0,3.71,1.56,3.71,3.25s-1.11,3.19-2.99,3.19c-1.56,0-3.06-1.11-3.32-3.32-2.6.78-4.49,3.84-6.24,9.36v14.5c0,.52.26.71,2.54.84l2.67.07.2.97h-14.04l.2-.97Z"/>
      <path class="cls-8" d="m299.28,114.27l1.69-.07c1.69-.13,2.34-.26,2.34-.97v-19.04c0-3.51-.46-4.16-2.34-4.49l-2.08-.32.06-.65,8.84-2.21-.13,5.4.2.06c2.79-2.34,6.5-5.53,10.86-5.53,2.01,0,3.83.59,5.07,1.88,1.49,1.5,2.14,3.71,2.14,6.57v18.39c0,.46.13.65,2.73.91l1.62.07.2.97h-13.13l.2-.97,1.69-.07c1.95-.13,2.28-.46,2.28-.97v-16.9c0-4.62-2.08-6.5-5.92-6.5-3.05,0-5.79,1.56-7.87,3.38v20.15c0,.52.39.65,2.73.84l1.69.07.2.97h-13.26l.2-.97Z"/>
      <path class="cls-8" d="m330.57,101.4c0-8.38,6.37-15.02,14.69-15.02s14.37,6.3,14.37,14.56-6.3,15.21-14.56,15.21-14.5-6.37-14.5-14.76Zm23.86.52c0-4.94-1.11-9.43-3.58-11.89-1.43-1.43-3.31-2.54-5.85-2.54-5.59,0-9.23,5.98-9.23,12.94,0,5.13,1.17,9.69,3.71,12.22,1.37,1.43,3.32,2.4,5.79,2.4,5.4,0,9.17-5.98,9.17-13.13Z"/>
      <path class="cls-8" d="m362.73,114.66l-.58-7.87h1.1l1.37,3.77c1.62,2.86,4.09,4.48,6.89,4.48,3.77,0,6.5-2.34,6.5-5.66,0-3.57-2.92-5.2-7.21-6.63-3.9-1.37-7.93-3.25-7.93-8.26,0-4.62,3.96-8.12,9.42-8.12,2.28,0,4.16.46,5.85,1.11l2.08-.65.39,7.8h-1.1l-2.67-5.46c-1.1-.85-2.73-1.69-4.74-1.69-3.51,0-5.59,1.95-5.59,4.88,0,3.45,2.79,4.62,6.83,6.04,4.36,1.56,8.52,3.31,8.52,8.78,0,4.74-4.03,8.97-10.79,8.97-3.18,0-5.92-.59-8.32-1.5Z"/>
      <path class="cls-8" d="m418.18,110.69h-.13c-2.79,2.4-6.43,5.46-10.72,5.46-2.14,0-3.84-.65-5.27-1.95-1.43-1.56-2.01-3.77-2.01-6.56v-18.4c0-.58-.07-.65-2.8-.84l-1.56-.2-.19-.91h9.1l-.13,18.92c0,4.68,2.15,6.56,5.98,6.56,3.12,0,5.66-1.56,7.6-3.31v-18.59c0-1.95-.45-2.34-2.73-2.47l-1.69-.2-.19-.91h9.17v24.05c0,1.17.2,1.62,1.3,1.75l3.18.52-.07.71-8.91,1.95.07-5.59Z"/>
      <path class="cls-8" d="m428.63,114.27l1.69-.07c1.69-.13,2.34-.26,2.34-.97v-19.04c0-3.51-.46-4.16-2.34-4.49l-2.08-.32.07-.65,8.84-2.21-.13,5.4.19.06c2.8-2.34,6.5-5.53,10.86-5.53,2.02,0,3.84.59,5.07,1.88,1.5,1.5,2.15,3.71,2.15,6.57v18.39c0,.46.13.65,2.73.91l1.62.07.2.97h-13.13l.2-.97,1.69-.07c1.95-.13,2.27-.46,2.27-.97v-16.9c0-4.62-2.08-6.5-5.91-6.5-3.06,0-5.79,1.56-7.87,3.38v20.15c0,.52.39.65,2.73.84l1.69.07.2.97h-13.26l.2-.97Z"/>
      <path class="cls-8" d="m476.36,111.35l-.13-.06c-2.41,2.47-5.13,4.68-8.26,4.68-3.9,0-6.96-2.86-6.96-6.5,0-4.62,3.71-7.67,15.73-10.6l.07-2.21c.2-6.56-2.73-8.45-6.43-8.45-2.6,0-5.4,1.49-5.4,2.21,0,.46,1.5,1.5,1.5,3.12,0,1.37-1.11,2.6-2.86,2.6-1.62,0-2.86-.97-2.86-2.54,0-3.19,7.21-7.21,12.29-7.21,5.85,0,8.65,2.28,8.26,10.27l-.65,13.85c-.06,1.95.65,2.67,1.95,2.67.98,0,2.01-.85,3.06-1.82l.52.58c-1.37,1.69-3.31,4.1-5.72,4.1-2.27,0-3.96-1.62-4.09-4.68Zm0-1.23l.33-10.21c-9.04,2.21-11.12,4.88-11.12,8.32,0,2.99,2.01,4.81,4.62,4.81,2.34,0,4.22-1.11,6.17-2.92Z"/>
      <path class="cls-8" d="m498.91,114.27l1.69-.07c1.69-.13,2.34-.26,2.34-.97v-18.98c0-3.58-.46-4.22-2.4-4.55l-2.02-.32.06-.65,8.84-2.21-.19,5.27.19.07c2.47-2.34,5.79-5.46,9.95-5.46,2.15,0,3.9.78,5.14,1.95.78.85,1.49,2.15,1.75,3.64l.07.06c2.6-2.6,6.05-5.65,10.21-5.65,2.21,0,3.83.65,5.2,2.02,1.36,1.43,2.08,3.83,2.08,6.56v18.33c0,.46.06.65,2.73.91l1.5.07.2.97h-13.07l.2-.97,1.69-.07c1.88-.13,2.28-.46,2.28-.97v-16.96c0-4.55-1.88-6.44-5.66-6.44-2.8,0-5.85,1.56-7.02,3.31,0,.13-.06,1.69-.06,1.76v18.39c0,.46.06.65,2.73.91l1.62.07.2.97h-13.13l.2-.97,1.69-.07c1.88-.13,2.21-.46,2.21-.97v-16.96c0-4.55-1.88-6.44-5.52-6.44-2.86,0-5.33,1.49-7.22,3.12v20.41c0,.52.39.65,2.73.84l1.75.07.13.97h-13.26l.2-.97Z"/>
      <path class="cls-8" d="m562.88,111.35l-.13-.06c-2.4,2.47-5.13,4.68-8.25,4.68-3.9,0-6.96-2.86-6.96-6.5,0-4.62,3.71-7.67,15.73-10.6l.07-2.21c.19-6.56-2.73-8.45-6.44-8.45-2.6,0-5.4,1.49-5.4,2.21,0,.46,1.5,1.5,1.5,3.12,0,1.37-1.1,2.6-2.86,2.6-1.62,0-2.86-.97-2.86-2.54,0-3.19,7.21-7.21,12.29-7.21,5.85,0,8.65,2.28,8.25,10.27l-.65,13.85c-.07,1.95.65,2.67,1.95,2.67.97,0,2.01-.85,3.05-1.82l.52.58c-1.37,1.69-3.32,4.1-5.72,4.1-2.28,0-3.96-1.62-4.09-4.68Zm0-1.23l.32-10.21c-9.04,2.21-11.12,4.88-11.12,8.32,0,2.99,2.02,4.81,4.62,4.81,2.34,0,4.23-1.11,6.18-2.92Z"/>
      <path class="cls-8" d="m573.49,114.27l1.69-.07c1.69-.13,2.34-.26,2.34-.97v-19.04c0-3.51-.46-4.16-2.34-4.49l-2.08-.32.07-.65,8.84-2.21-.13,5.4.2.06c2.79-2.34,6.5-5.53,10.86-5.53,2.01,0,3.83.59,5.07,1.88,1.5,1.5,2.14,3.71,2.14,6.57v18.39c0,.46.13.65,2.73.91l1.62.07.2.97h-13.13l.2-.97,1.69-.07c1.95-.13,2.27-.46,2.27-.97v-16.9c0-4.62-2.08-6.5-5.92-6.5-3.05,0-5.79,1.56-7.87,3.38v20.15c0,.52.39.65,2.73.84l1.69.07.2.97h-13.26l.2-.97Z"/>
      <path class="cls-8" d="m604.78,101.4c0-8.38,6.37-15.02,14.69-15.02s14.37,6.3,14.37,14.56-6.31,15.21-14.56,15.21-14.5-6.37-14.5-14.76Zm23.86.52c0-4.94-1.11-9.43-3.58-11.89-1.43-1.43-3.32-2.54-5.85-2.54-5.59,0-9.23,5.98-9.23,12.94,0,5.13,1.17,9.69,3.71,12.22,1.36,1.43,3.31,2.4,5.79,2.4,5.39,0,9.17-5.98,9.17-13.13Z"/>
      <path class="cls-8" d="m648.66,101.98c0-8.71,6.18-15.6,14.63-15.6,5.33,0,9.3,2.54,9.3,5.98,0,1.88-1.43,3.12-2.93,3.12-1.88,0-3.25-1.56-2.92-3.57,0-1.43.91-1.95.91-2.34-.26-.78-2.28-2.08-4.55-2.08-5.26,0-9.62,5.13-9.62,12.48s4.42,12.74,10.27,12.74c3.71,0,6.31-1.3,8.65-4.94l.78.39c-2.67,4.94-6.37,7.93-11.57,7.93-7.34,0-12.94-6.11-12.94-14.11Z"/>
      <path class="cls-8" d="m674.68,101.4c0-8.38,6.37-15.02,14.69-15.02s14.37,6.3,14.37,14.56-6.31,15.21-14.56,15.21-14.5-6.37-14.5-14.76Zm23.86.52c0-4.94-1.11-9.43-3.58-11.89-1.43-1.43-3.32-2.54-5.85-2.54-5.59,0-9.23,5.98-9.23,12.94,0,5.13,1.17,9.69,3.71,12.22,1.36,1.43,3.31,2.4,5.79,2.4,5.39,0,9.17-5.98,9.17-13.13Z"/>
      <path class="cls-8" d="m704.73,114.27l1.69-.07c1.69-.13,2.34-.26,2.34-.97v-19.04c0-3.51-.46-4.16-2.34-4.49l-2.08-.32.07-.65,8.84-2.21-.13,5.4.2.06c2.79-2.34,6.5-5.53,10.86-5.53,2.01,0,3.83.59,5.07,1.88,1.5,1.5,2.14,3.71,2.14,6.57v18.39c0,.46.13.65,2.73.91l1.62.07.2.97h-13.13l.2-.97,1.69-.07c1.95-.13,2.27-.46,2.27-.97v-16.9c0-4.62-2.08-6.5-5.92-6.5-3.05,0-5.79,1.56-7.87,3.38v20.15c0,.52.39.65,2.73.84l1.69.07.2.97h-13.26l.2-.97Z"/>
      <path class="cls-8" d="m749.32,114.27l1.69-.07c1.69-.13,2.34-.26,2.34-.97v-19.04c0-3.51-.46-4.16-2.34-4.49l-2.08-.32.07-.65,8.84-2.21-.13,5.4.2.06c2.79-2.34,6.5-5.53,10.86-5.53,2.01,0,3.83.59,5.07,1.88,1.5,1.5,2.14,3.71,2.14,6.57v18.39c0,.46.13.65,2.73.91l1.62.07.2.97h-13.13l.2-.97,1.69-.07c1.95-.13,2.28-.46,2.28-.97v-16.9c0-4.62-2.08-6.5-5.92-6.5-3.05,0-5.79,1.56-7.87,3.38v20.15c0,.52.39.65,2.73.84l1.69.07.2.97h-13.26l.2-.97Z"/>
      <path class="cls-8" d="m801.14,110.69h-.13c-2.79,2.4-6.44,5.46-10.73,5.46-2.14,0-3.83-.65-5.26-1.95-1.43-1.56-2.02-3.77-2.02-6.56v-18.4c0-.58-.06-.65-2.79-.84l-1.56-.2-.2-.91h9.1l-.13,18.92c0,4.68,2.14,6.56,5.98,6.56,3.12,0,5.66-1.56,7.61-3.31v-18.59c0-1.95-.46-2.34-2.73-2.47l-1.69-.2-.2-.91h9.17v24.05c0,1.17.19,1.62,1.3,1.75l3.18.52-.06.71-8.91,1.95.06-5.59Z"/>
      <path class="cls-8" d="m810.15,101.98c0-8.64,5.85-15.6,14.04-15.6,6.44,0,10.14,3.96,10.14,8.97,0,.58-.07,1.1-.13,1.69l-18.98-.13c-.13.78-.26,2.21-.26,3.12,0,7.54,4.42,12.68,10.27,12.68,3.71,0,6.44-1.3,8.84-4.94l.71.39c-2.73,4.94-6.5,7.93-11.64,7.93-7.41,0-13-6.11-13-14.11Zm19.24-6.11c.07-4.55-1.88-8.38-5.85-8.38-3.58,0-7.08,3.71-8.19,8.45l14.04-.06Z"/>
      <path class="cls-8" d="m837.97,114.66l-.58-7.87h1.1l1.37,3.77c1.62,2.86,4.1,4.48,6.89,4.48,3.77,0,6.5-2.34,6.5-5.66,0-3.57-2.92-5.2-7.21-6.63-3.9-1.37-7.93-3.25-7.93-8.26,0-4.62,3.96-8.12,9.43-8.12,2.27,0,4.16.46,5.85,1.11l2.08-.65.39,7.8h-1.11l-2.67-5.46c-1.11-.85-2.73-1.69-4.75-1.69-3.51,0-5.59,1.95-5.59,4.88,0,3.45,2.79,4.62,6.83,6.04,4.35,1.56,8.51,3.31,8.51,8.78,0,4.74-4.03,8.97-10.79,8.97-3.19,0-5.92-.59-8.32-1.5Z"/>
      <path class="cls-8" d="m863.03,109.33l.33-19.37-5.07-.13.2-1.11,8.71-7.28.78.19-.07,5.72h9.62l-.78,2.47h-8.84s-.46,18.79-.46,18.85c-.06,3.12,1.62,4.55,4.42,4.55,2.27,0,3.96-1.11,5.52-2.28l.39.65c-2.41,2.34-5.14,4.55-8.32,4.55-3.64,0-6.5-1.76-6.44-6.83Z"/>
      <path class="cls-8" d="m879.52,114.27l1.69-.07c1.69-.13,2.34-.26,2.34-.97v-19.04c0-3.51-.46-4.16-2.34-4.49l-2.01-.32.07-.65,8.77-2.21-.13,10.14h.13c2.41-6.7,5.07-10.27,8.78-10.27,2.28,0,3.71,1.56,3.71,3.25s-1.1,3.19-2.99,3.19c-1.56,0-3.06-1.11-3.32-3.32-2.6.78-4.49,3.84-6.24,9.36v14.5c0,.52.26.71,2.54.84l2.67.07.2.97h-14.04l.2-.97Z"/>
      <path class="cls-8" d="m917.63,111.35l-.13-.06c-2.41,2.47-5.14,4.68-8.26,4.68-3.9,0-6.96-2.86-6.96-6.5,0-4.62,3.71-7.67,15.73-10.6l.07-2.21c.19-6.56-2.73-8.45-6.44-8.45-2.6,0-5.4,1.49-5.4,2.21,0,.46,1.5,1.5,1.5,3.12,0,1.37-1.1,2.6-2.86,2.6-1.62,0-2.86-.97-2.86-2.54,0-3.19,7.21-7.21,12.29-7.21,5.85,0,8.65,2.28,8.25,10.27l-.65,13.85c-.07,1.95.65,2.67,1.95,2.67.97,0,2.01-.85,3.05-1.82l.52.58c-1.37,1.69-3.32,4.1-5.72,4.1-2.28,0-3.96-1.62-4.09-4.68Zm0-1.23l.32-10.21c-9.04,2.21-11.12,4.88-11.12,8.32,0,2.99,2.02,4.81,4.62,4.81,2.34,0,4.23-1.11,6.18-2.92Z"/>
      <path class="cls-8" d="m252.63,179.27l1.76-.07c1.69-.13,2.28-.26,2.28-.97v-34.91c0-3.05-.39-3.64-2.08-3.96l-2.47-.52.06-.65,8.97-2.14v42.32c0,.52.26.65,2.67.84l1.62.07.19.97h-13.13l.13-.97Z"/>
      <path class="cls-8" d="m287.09,175.69h-.13c-2.79,2.4-6.43,5.46-10.73,5.46-2.14,0-3.83-.65-5.26-1.95-1.43-1.56-2.01-3.77-2.01-6.56v-18.4c0-.58-.07-.65-2.8-.84l-1.56-.2-.2-.91h9.1l-.13,18.92c0,4.68,2.14,6.56,5.98,6.56,3.12,0,5.65-1.56,7.6-3.31v-18.59c0-1.95-.46-2.34-2.73-2.47l-1.69-.2-.2-.91h9.17v24.05c0,1.17.2,1.62,1.3,1.75l3.19.52-.07.71-8.91,1.95.06-5.59Z"/>
      <path class="cls-8" d="m297.55,179.27l1.69-.07c1.69-.13,2.34-.26,2.34-.97v-19.04c0-3.51-.46-4.16-2.34-4.49l-2.08-.32.07-.65,8.84-2.21-.13,5.4.19.06c2.8-2.34,6.5-5.53,10.86-5.53,2.02,0,3.84.59,5.07,1.88,1.5,1.5,2.15,3.71,2.15,6.57v18.39c0,.46.13.65,2.73.91l1.62.07.2.97h-13.13l.2-.97,1.69-.07c1.95-.13,2.27-.46,2.27-.97v-16.9c0-4.62-2.08-6.5-5.91-6.5-3.06,0-5.79,1.56-7.87,3.38v20.15c0,.52.39.65,2.73.84l1.69.07.2.97h-13.26l.2-.97Z"/>
      <path class="cls-8" d="m345.27,176.35l-.13-.06c-2.41,2.47-5.13,4.68-8.26,4.68-3.9,0-6.96-2.86-6.96-6.5,0-4.62,3.71-7.67,15.73-10.6l.07-2.21c.2-6.56-2.73-8.45-6.43-8.45-2.6,0-5.4,1.49-5.4,2.21,0,.46,1.5,1.5,1.5,3.12,0,1.37-1.11,2.6-2.86,2.6-1.62,0-2.86-.97-2.86-2.54,0-3.19,7.21-7.21,12.29-7.21,5.85,0,8.65,2.28,8.26,10.27l-.65,13.85c-.06,1.95.65,2.67,1.95,2.67.98,0,2.01-.85,3.06-1.82l.52.58c-1.37,1.69-3.31,4.1-5.72,4.1-2.27,0-3.96-1.62-4.09-4.68Zm0-1.23l.33-10.21c-9.04,2.21-11.12,4.88-11.12,8.32,0,2.99,2.01,4.81,4.62,4.81,2.34,0,4.22-1.11,6.17-2.92Z"/>
      <path class="cls-8" d="m389.8,175.89l-.2-.06c-2.47,2.86-5.72,5.26-9.88,5.26-6.56,0-11.7-5.72-11.7-13.91,0-9.55,7.15-15.47,14.69-15.47,2.79,0,4.94.59,6.96,1.56h.13v-11.38c0-1.95-.33-2.6-2.02-2.79l-3.12-.52.13-.71,9.43-1.88v40.63c0,1.23.26,1.69,1.3,1.82l3.25.52-.07.71-8.9,1.62v-5.39Zm0-1.56v-16.19c-1.62-2.86-4.68-5.2-8.06-5.2-5.4,0-8.71,5.39-8.71,12.67s3.64,12.42,9.23,12.42c3.38,0,5.59-1.69,7.54-3.71Z"/>
      <path class="cls-8" d="m398.89,166.98c0-8.64,5.85-15.6,14.04-15.6,6.44,0,10.14,3.96,10.14,8.97,0,.58-.07,1.1-.13,1.69l-18.98-.13c-.13.78-.26,2.21-.26,3.12,0,7.54,4.42,12.68,10.27,12.68,3.71,0,6.43-1.3,8.84-4.94l.71.39c-2.73,4.94-6.5,7.93-11.64,7.93-7.41,0-13-6.11-13-14.11Zm19.24-6.11c.07-4.55-1.89-8.38-5.85-8.38-3.57,0-7.08,3.71-8.19,8.45l14.04-.06Z"/>
      <path class="cls-8" d="m438.09,179.27l1.69-.07c1.69-.13,2.34-.26,2.34-.97v-18.98c0-3.58-.46-4.22-2.4-4.55l-2.02-.32.06-.65,8.84-2.21-.19,5.27.19.07c2.47-2.34,5.79-5.46,9.95-5.46,2.15,0,3.9.78,5.14,1.95.78.85,1.49,2.15,1.75,3.64l.07.06c2.6-2.6,6.05-5.65,10.21-5.65,2.21,0,3.83.65,5.2,2.02,1.37,1.43,2.08,3.83,2.08,6.56v18.33c0,.46.07.65,2.73.91l1.5.07.2.97h-13.07l.2-.97,1.69-.07c1.88-.13,2.28-.46,2.28-.97v-16.96c0-4.55-1.88-6.44-5.66-6.44-2.8,0-5.85,1.56-7.02,3.31,0,.13-.06,1.69-.06,1.76v18.39c0,.46.06.65,2.73.91l1.62.07.2.97h-13.13l.2-.97,1.69-.07c1.88-.13,2.21-.46,2.21-.97v-16.96c0-4.55-1.88-6.44-5.52-6.44-2.86,0-5.33,1.49-7.22,3.12v20.41c0,.52.39.65,2.73.84l1.75.07.13.97h-13.26l.2-.97Z"/>
      <path class="cls-8" d="m487.31,179.27l1.82-.07c1.62-.13,2.28-.26,2.28-.97v-19.04c0-3.51-.46-4.16-2.41-4.49l-2.01-.32.13-.65,8.78-2.21v26.85c0,.52.33.65,2.67.84l1.62.07.2.97h-13.26l.2-.97Zm2.47-36.92c0-1.5,1.04-3.38,3.25-3.38s3.19,1.88,3.19,3.32-1.04,3.31-3.19,3.31-3.25-1.88-3.25-3.25Z"/>
      <path class="cls-8" d="m500.78,166.98c0-8.64,5.85-15.6,14.04-15.6,6.43,0,10.14,3.96,10.14,8.97,0,.58-.07,1.1-.13,1.69l-18.98-.13c-.13.78-.26,2.21-.26,3.12,0,7.54,4.42,12.68,10.27,12.68,3.71,0,6.44-1.3,8.84-4.94l.71.39c-2.73,4.94-6.5,7.93-11.63,7.93-7.41,0-13-6.11-13-14.11Zm19.24-6.11c.06-4.55-1.88-8.38-5.85-8.38-3.58,0-7.09,3.71-8.19,8.45l14.04-.06Z"/>
      <path class="cls-8" d="m526.08,179.27l1.76-.07c1.69-.13,2.28-.26,2.28-.97v-34.91c0-3.05-.39-3.64-2.08-3.96l-2.47-.52.06-.65,8.97-2.14v42.32c0,.52.26.65,2.67.84l1.62.07.2.97h-13.13l.13-.97Z"/>
      <path class="cls-8" d="m539.89,187.98c2.54-1.43,5.13-3.96,5.13-7.28s-3.25-4.49-4.68-3.58c-.65-1.75.52-4.03,3.32-4.03s4.94,2.02,4.94,5.27c0,4.09-3.96,8.19-8.12,10.14l-.58-.52Z"/>
      <path class="cls-8" d="m562.12,195.59l1.76-.06c1.62-.13,2.34-.26,2.34-.91v-35.49c0-3.45-.46-4.09-2.34-4.42l-2.08-.32.06-.65,8.84-2.21-.07,5.46.2.13c2.54-2.93,5.79-5.4,9.95-5.4,6.63,0,11.63,5.66,11.63,13.72,0,9.49-7.02,15.73-14.37,15.73-2.86,0-5.46-.78-7.28-1.62h-.13v15.21c0,.46.33.65,2.67.78l2.79.06.2.97h-14.37l.19-.97Zm25.29-28.6c0-6.89-3.58-12.15-9.1-12.15-3.25,0-5.79,1.75-7.67,3.83v16.19c1.69,2.67,4.68,5.01,8.12,5.01,5.33,0,8.65-5.46,8.65-12.87Z"/>
      <path class="cls-8" d="m594.9,166.4c0-8.38,6.37-15.02,14.69-15.02s14.37,6.3,14.37,14.56-6.31,15.21-14.56,15.21-14.5-6.37-14.5-14.76Zm23.86.52c0-4.94-1.11-9.43-3.58-11.89-1.43-1.43-3.32-2.54-5.85-2.54-5.59,0-9.23,5.98-9.23,12.94,0,5.13,1.17,9.69,3.71,12.22,1.36,1.43,3.31,2.4,5.79,2.4,5.39,0,9.17-5.98,9.17-13.13Z"/>
      <path class="cls-8" d="m648.23,175.89l-.2-.06c-2.47,2.86-5.72,5.26-9.88,5.26-6.57,0-11.7-5.72-11.7-13.91,0-9.55,7.15-15.47,14.69-15.47,2.79,0,4.94.59,6.96,1.56h.13v-11.38c0-1.95-.33-2.6-2.01-2.79l-3.12-.52.13-.71,9.42-1.88v40.63c0,1.23.26,1.69,1.3,1.82l3.25.52-.07.71-8.91,1.62v-5.39Zm0-1.56v-16.19c-1.62-2.86-4.68-5.2-8.06-5.2-5.4,0-8.71,5.39-8.71,12.67s3.64,12.42,9.23,12.42c3.38,0,5.59-1.69,7.54-3.71Z"/>
      <path class="cls-8" d="m657.33,166.98c0-8.64,5.85-15.6,14.04-15.6,6.44,0,10.14,3.96,10.14,8.97,0,.58-.07,1.1-.13,1.69l-18.98-.13c-.13.78-.26,2.21-.26,3.12,0,7.54,4.42,12.68,10.27,12.68,3.71,0,6.44-1.3,8.84-4.94l.72.39c-2.73,4.94-6.5,7.93-11.64,7.93-7.41,0-13-6.11-13-14.11Zm19.24-6.11c.07-4.55-1.88-8.38-5.85-8.38-3.58,0-7.08,3.71-8.19,8.45l14.04-.06Zm-2.01-24.96h5.39l-11.57,12.03h-.65l6.83-12.03Z"/>
      <path class="cls-8" d="m685.16,179.66l-.58-7.87h1.1l1.37,3.77c1.62,2.86,4.1,4.48,6.89,4.48,3.77,0,6.5-2.34,6.5-5.66,0-3.57-2.92-5.2-7.21-6.63-3.9-1.37-7.93-3.25-7.93-8.26,0-4.62,3.96-8.12,9.43-8.12,2.27,0,4.16.46,5.85,1.11l2.08-.65.39,7.8h-1.11l-2.67-5.46c-1.11-.85-2.73-1.69-4.75-1.69-3.51,0-5.59,1.95-5.59,4.88,0,3.45,2.79,4.62,6.83,6.04,4.35,1.56,8.51,3.31,8.51,8.78,0,4.74-4.03,8.97-10.79,8.97-3.19,0-5.92-.59-8.32-1.5Z"/>
      <path class="cls-8" d="m718.69,179.27l1.62-.07c1.62-.13,2.28-.26,2.28-.97v-35.88c0-2.08-.33-2.67-2.02-2.99l-2.41-.52.07-.65,8.84-2.14v20.8l.13.06c2.8-2.28,6.5-5.46,10.86-5.46,2.02,0,3.77.65,5.07,1.88,1.5,1.56,2.15,3.71,2.15,6.5v18.46c0,.46.06.71,2.73.91l1.56.07.2.97h-13.2l.2-.97,1.75-.07c1.95-.13,2.28-.46,2.28-.97v-16.9c0-4.62-2.08-6.5-5.85-6.5-3.12,0-5.85,1.56-7.87,3.38v20.15c0,.52.33.65,2.73.84l1.69.07.19.97h-13.2l.2-.97Z"/>
      <path class="cls-8" d="m766.29,176.35l-.13-.06c-2.4,2.47-5.13,4.68-8.25,4.68-3.9,0-6.96-2.86-6.96-6.5,0-4.62,3.71-7.67,15.73-10.6l.07-2.21c.19-6.56-2.73-8.45-6.44-8.45-2.6,0-5.4,1.49-5.4,2.21,0,.46,1.5,1.5,1.5,3.12,0,1.37-1.1,2.6-2.86,2.6-1.62,0-2.86-.97-2.86-2.54,0-3.19,7.21-7.21,12.29-7.21,5.85,0,8.65,2.28,8.25,10.27l-.65,13.85c-.07,1.95.65,2.67,1.95,2.67.97,0,2.01-.85,3.05-1.82l.52.58c-1.37,1.69-3.32,4.1-5.72,4.1-2.28,0-3.96-1.62-4.09-4.68Zm0-1.23l.32-10.21c-9.04,2.21-11.12,4.88-11.12,8.32,0,2.99,2.02,4.81,4.62,4.81,2.34,0,4.23-1.11,6.18-2.92Z"/>
      <path class="cls-8" d="m776.1,166.98c0-8.71,6.18-15.6,14.63-15.6,5.33,0,9.3,2.54,9.3,5.98,0,1.88-1.43,3.12-2.93,3.12-1.88,0-3.25-1.56-2.92-3.57,0-1.43.91-1.95.91-2.34-.26-.78-2.28-2.08-4.55-2.08-5.26,0-9.62,5.13-9.62,12.48s4.42,12.74,10.27,12.74c3.71,0,6.31-1.3,8.65-4.94l.78.39c-2.67,4.94-6.37,7.93-11.57,7.93-7.34,0-12.94-6.11-12.94-14.11Z"/>
      <path class="cls-8" d="m802.23,166.98c0-8.64,5.85-15.6,14.04-15.6,6.44,0,10.14,3.96,10.14,8.97,0,.58-.07,1.1-.13,1.69l-18.98-.13c-.13.78-.26,2.21-.26,3.12,0,7.54,4.42,12.68,10.27,12.68,3.71,0,6.44-1.3,8.84-4.94l.71.39c-2.73,4.94-6.5,7.93-11.64,7.93-7.41,0-13-6.11-13-14.11Zm19.24-6.11c.07-4.55-1.88-8.38-5.85-8.38-3.58,0-7.08,3.71-8.19,8.45l14.04-.06Z"/>
      <path class="cls-8" d="m828.13,179.27l1.69-.07c1.69-.13,2.34-.26,2.34-.97v-19.04c0-3.51-.46-4.16-2.34-4.49l-2.01-.32.07-.65,8.77-2.21-.13,10.14h.13c2.41-6.7,5.07-10.27,8.78-10.27,2.28,0,3.71,1.56,3.71,3.25s-1.1,3.19-2.99,3.19c-1.56,0-3.06-1.11-3.32-3.32-2.6.78-4.49,3.84-6.24,9.36v14.5c0,.52.26.71,2.54.84l2.67.07.2.97h-14.04l.2-.97Z"/>
      <path class="cls-8" d="m848.53,179.27l1.75-.07c1.69-.13,2.27-.26,2.27-.97v-34.91c0-3.05-.39-3.64-2.08-3.96l-2.47-.52.07-.65,8.97-2.14v42.32c0,.52.26.65,2.67.84l1.62.07.2.97h-13.13l.13-.97Z"/>
      <path class="cls-8" d="m861.76,166.4c0-8.38,6.37-15.02,14.69-15.02s14.37,6.3,14.37,14.56-6.31,15.21-14.56,15.21-14.5-6.37-14.5-14.76Zm23.86.52c0-4.94-1.11-9.43-3.58-11.89-1.43-1.43-3.32-2.54-5.85-2.54-5.59,0-9.23,5.98-9.23,12.94,0,5.13,1.17,9.69,3.71,12.22,1.36,1.43,3.31,2.4,5.79,2.4,5.39,0,9.17-5.98,9.17-13.13Z"/>
      <path class="cls-8" d="m316.69,241.35l-.13-.06c-2.41,2.47-5.13,4.68-8.26,4.68-3.9,0-6.96-2.86-6.96-6.5,0-4.62,3.71-7.67,15.73-10.6l.07-2.21c.2-6.56-2.73-8.45-6.43-8.45-2.6,0-5.4,1.49-5.4,2.21,0,.46,1.5,1.5,1.5,3.12,0,1.37-1.11,2.6-2.86,2.6-1.62,0-2.86-.97-2.86-2.54,0-3.19,7.21-7.21,12.29-7.21,5.85,0,8.65,2.28,8.26,10.27l-.65,13.85c-.06,1.95.65,2.67,1.95,2.67.98,0,2.01-.85,3.06-1.82l.52.58c-1.37,1.69-3.31,4.1-5.72,4.1-2.27,0-3.96-1.62-4.09-4.68Zm0-1.23l.33-10.21c-9.04,2.21-11.12,4.88-11.12,8.32,0,2.99,2.01,4.81,4.62,4.81,2.34,0,4.22-1.11,6.17-2.92Z"/>
      <path class="cls-8" d="m343.07,239.33l.33-19.37-5.07-.13.19-1.11,8.71-7.28.78.19-.07,5.72h9.62l-.78,2.47h-8.84s-.45,18.79-.45,18.85c-.07,3.12,1.62,4.55,4.42,4.55,2.27,0,3.97-1.11,5.53-2.28l.39.65c-2.4,2.34-5.13,4.55-8.32,4.55-3.64,0-6.5-1.76-6.44-6.83Z"/>
      <path class="cls-8" d="m359.56,244.27l1.69-.07c1.69-.13,2.34-.26,2.34-.97v-19.04c0-3.51-.46-4.16-2.34-4.49l-2.01-.32.06-.65,8.78-2.21-.13,10.14h.13c2.41-6.7,5.07-10.27,8.78-10.27,2.28,0,3.71,1.56,3.71,3.25s-1.11,3.19-2.99,3.19c-1.56,0-3.05-1.11-3.31-3.32-2.6.78-4.49,3.84-6.24,9.36v14.5c0,.52.26.71,2.54.84l2.66.07.2.97h-14.04l.2-.97Z"/>
      <path class="cls-8" d="m397.67,241.35l-.13-.06c-2.41,2.47-5.13,4.68-8.26,4.68-3.9,0-6.96-2.86-6.96-6.5,0-4.62,3.71-7.67,15.73-10.6l.07-2.21c.2-6.56-2.73-8.45-6.43-8.45-2.6,0-5.4,1.49-5.4,2.21,0,.46,1.5,1.5,1.5,3.12,0,1.37-1.11,2.6-2.86,2.6-1.62,0-2.86-.97-2.86-2.54,0-3.19,7.21-7.21,12.29-7.21,5.85,0,8.65,2.28,8.26,10.27l-.65,13.85c-.06,1.95.65,2.67,1.95,2.67.98,0,2.01-.85,3.06-1.82l.52.58c-1.37,1.69-3.31,4.1-5.72,4.1-2.27,0-3.96-1.62-4.09-4.68Zm0-1.23l.33-10.21c-9.04,2.21-11.12,4.88-11.12,8.32,0,2.99,2.01,4.81,4.62,4.81,2.34,0,4.22-1.11,6.17-2.92Z"/>
      <path class="cls-8" d="m409.54,221.71c-1.17-2.67-1.37-3.05-3.19-3.25l-1.56-.2-.19-.91h13.13l-.13.91-1.62.13c-2.02.13-2.34.84-1.56,2.86l7.35,18.53,5.85-15.41c1.82-4.88,1.56-5.65-1.88-5.91l-1.5-.2-.2-.91h11.05l-.2.91-1.24.13c-2.4.26-2.66,1.04-4.88,6.5l-8.12,20.93h-1.43l-9.69-24.12Z"/>
      <path class="cls-8" d="m433.56,231.98c0-8.64,5.85-15.6,14.04-15.6,6.44,0,10.14,3.96,10.14,8.97,0,.58-.07,1.1-.13,1.69l-18.98-.13c-.13.78-.26,2.21-.26,3.12,0,7.54,4.42,12.68,10.27,12.68,3.71,0,6.43-1.3,8.84-4.94l.71.39c-2.73,4.94-6.5,7.93-11.64,7.93-7.41,0-13-6.11-13-14.11Zm19.24-6.11c.07-4.55-1.89-8.38-5.85-8.38-3.57,0-7.08,3.71-8.19,8.45l14.04-.06Zm-2.01-24.96h5.39l-11.57,12.03h-.65l6.83-12.03Z"/>
      <path class="cls-8" d="m461.38,244.66l-.58-7.87h1.1l1.37,3.77c1.62,2.86,4.09,4.48,6.89,4.48,3.77,0,6.5-2.34,6.5-5.66,0-3.57-2.92-5.2-7.21-6.63-3.9-1.37-7.93-3.25-7.93-8.26,0-4.62,3.96-8.12,9.42-8.12,2.28,0,4.16.46,5.85,1.11l2.08-.65.39,7.8h-1.1l-2.67-5.46c-1.1-.85-2.73-1.69-4.74-1.69-3.51,0-5.59,1.95-5.59,4.88,0,3.45,2.79,4.62,6.83,6.04,4.36,1.56,8.52,3.31,8.52,8.78,0,4.74-4.03,8.97-10.79,8.97-3.18,0-5.92-.59-8.32-1.5Z"/>
      <path class="cls-8" d="m517.48,240.89l-.2-.06c-2.47,2.86-5.72,5.26-9.88,5.26-6.56,0-11.7-5.72-11.7-13.91,0-9.55,7.15-15.47,14.69-15.47,2.79,0,4.94.59,6.96,1.56h.13v-11.38c0-1.95-.33-2.6-2.02-2.79l-3.12-.52.13-.71,9.43-1.88v40.63c0,1.23.26,1.69,1.3,1.82l3.25.52-.07.71-8.9,1.62v-5.39Zm0-1.56v-16.19c-1.62-2.86-4.68-5.2-8.06-5.2-5.4,0-8.71,5.39-8.71,12.67s3.64,12.42,9.23,12.42c3.38,0,5.59-1.69,7.54-3.71Z"/>
      <path class="cls-8" d="m526.58,231.98c0-8.64,5.85-15.6,14.04-15.6,6.43,0,10.14,3.96,10.14,8.97,0,.58-.06,1.1-.13,1.69l-18.98-.13c-.13.78-.26,2.21-.26,3.12,0,7.54,4.42,12.68,10.27,12.68,3.71,0,6.44-1.3,8.84-4.94l.71.39c-2.73,4.94-6.5,7.93-11.64,7.93-7.41,0-13-6.11-13-14.11Zm19.24-6.11c.07-4.55-1.88-8.38-5.85-8.38-3.58,0-7.09,3.71-8.19,8.45l14.04-.06Z"/>
      <path class="cls-8" d="m565.97,231.98c0-8.64,5.85-15.6,14.04-15.6,6.44,0,10.14,3.96,10.14,8.97,0,.58-.07,1.1-.13,1.69l-18.98-.13c-.13.78-.26,2.21-.26,3.12,0,7.54,4.42,12.68,10.27,12.68,3.71,0,6.44-1.3,8.84-4.94l.71.39c-2.73,4.94-6.5,7.93-11.64,7.93-7.41,0-13-6.11-13-14.11Zm19.24-6.11c.07-4.55-1.88-8.38-5.85-8.38-3.58,0-7.08,3.71-8.19,8.45l14.04-.06Z"/>
      <path class="cls-8" d="m593.79,244.66l-.58-7.87h1.1l1.37,3.77c1.62,2.86,4.1,4.48,6.89,4.48,3.77,0,6.5-2.34,6.5-5.66,0-3.57-2.92-5.2-7.21-6.63-3.9-1.37-7.93-3.25-7.93-8.26,0-4.62,3.96-8.12,9.43-8.12,2.27,0,4.16.46,5.85,1.11l2.08-.65.39,7.8h-1.11l-2.67-5.46c-1.11-.85-2.73-1.69-4.75-1.69-3.51,0-5.59,1.95-5.59,4.88,0,3.45,2.79,4.62,6.83,6.04,4.35,1.56,8.51,3.31,8.51,8.78,0,4.74-4.03,8.97-10.79,8.97-3.19,0-5.92-.59-8.32-1.5Z"/>
      <path class="cls-8" d="m618.85,239.33l.33-19.37-5.07-.13.2-1.11,8.71-7.28.78.19-.07,5.72h9.62l-.78,2.47h-8.84s-.46,18.79-.46,18.85c-.06,3.12,1.62,4.55,4.42,4.55,2.27,0,3.96-1.11,5.52-2.28l.39.65c-2.41,2.34-5.14,4.55-8.32,4.55-3.64,0-6.5-1.76-6.44-6.83Z"/>
      <path class="cls-8" d="m650.92,241.35l-.13-.06c-2.4,2.47-5.13,4.68-8.25,4.68-3.9,0-6.96-2.86-6.96-6.5,0-4.62,3.71-7.67,15.73-10.6l.07-2.21c.19-6.56-2.73-8.45-6.44-8.45-2.6,0-5.4,1.49-5.4,2.21,0,.46,1.5,1.5,1.5,3.12,0,1.37-1.1,2.6-2.86,2.6-1.62,0-2.86-.97-2.86-2.54,0-3.19,7.21-7.21,12.29-7.21,5.85,0,8.65,2.28,8.25,10.27l-.65,13.85c-.07,1.95.65,2.67,1.95,2.67.97,0,2.01-.85,3.05-1.82l.52.58c-1.37,1.69-3.32,4.1-5.72,4.1-2.28,0-3.96-1.62-4.09-4.68Zm0-1.23l.32-10.21c-9.04,2.21-11.12,4.88-11.12,8.32,0,2.99,2.02,4.81,4.62,4.81,2.34,0,4.23-1.11,6.18-2.92Z"/>
      <path class="cls-8" d="m673.66,231.98c0-8.71,6.17-15.6,14.62-15.6,5.33,0,9.29,2.54,9.29,5.98,0,1.88-1.43,3.12-2.92,3.12-1.88,0-3.25-1.56-2.92-3.57,0-1.43.91-1.95.91-2.34-.26-.78-2.28-2.08-4.55-2.08-5.26,0-9.62,5.13-9.62,12.48s4.42,12.74,10.27,12.74c3.71,0,6.31-1.3,8.65-4.94l.78.39c-2.67,4.94-6.37,7.93-11.57,7.93-7.34,0-12.93-6.11-12.93-14.11Z"/>
      <path class="cls-8" d="m721.16,240.69h-.13c-2.79,2.4-6.44,5.46-10.73,5.46-2.14,0-3.83-.65-5.26-1.95-1.43-1.56-2.02-3.77-2.02-6.56v-18.4c0-.58-.06-.65-2.79-.84l-1.56-.2-.2-.91h9.1l-.13,18.92c0,4.68,2.14,6.56,5.98,6.56,3.12,0,5.66-1.56,7.61-3.31v-18.59c0-1.95-.46-2.34-2.73-2.47l-1.69-.2-.2-.91h9.17v24.05c0,1.17.19,1.62,1.3,1.75l3.18.52-.06.71-8.91,1.95.06-5.59Z"/>
      <path class="cls-8" d="m730.17,231.98c0-8.64,5.85-15.6,14.04-15.6,6.44,0,10.14,3.96,10.14,8.97,0,.58-.07,1.1-.13,1.69l-18.98-.13c-.13.78-.26,2.21-.26,3.12,0,7.54,4.42,12.68,10.27,12.68,3.71,0,6.44-1.3,8.84-4.94l.72.39c-2.73,4.94-6.5,7.93-11.64,7.93-7.41,0-13-6.11-13-14.11Zm19.24-6.11c.07-4.55-1.88-8.38-5.85-8.38-3.58,0-7.08,3.71-8.19,8.45l14.04-.06Z"/>
      <path class="cls-8" d="m756.11,244.27l1.69-.07c1.69-.13,2.34-.26,2.34-.97v-19.04c0-3.51-.46-4.16-2.34-4.49l-2.08-.32.07-.65,8.84-2.21-.13,5.4.2.06c2.79-2.34,6.5-5.53,10.86-5.53,2.01,0,3.83.59,5.07,1.88,1.5,1.5,2.14,3.71,2.14,6.57v18.39c0,.46.13.65,2.73.91l1.62.07.2.97h-13.13l.2-.97,1.69-.07c1.95-.13,2.27-.46,2.27-.97v-16.9c0-4.62-2.08-6.5-5.92-6.5-3.05,0-5.79,1.56-7.87,3.38v20.15c0,.52.39.65,2.73.84l1.69.07.2.97h-13.26l.2-.97Z"/>
      <path class="cls-8" d="m790.5,239.33l.33-19.37-5.07-.13.2-1.11,8.71-7.28.78.19-.07,5.72h9.62l-.78,2.47h-8.84s-.46,18.79-.46,18.85c-.06,3.12,1.62,4.55,4.42,4.55,2.28,0,3.97-1.11,5.53-2.28l.39.65c-2.41,2.34-5.14,4.55-8.32,4.55-3.64,0-6.5-1.76-6.44-6.83Z"/>
      <path class="cls-8" d="m822.56,241.35l-.13-.06c-2.4,2.47-5.13,4.68-8.25,4.68-3.9,0-6.96-2.86-6.96-6.5,0-4.62,3.71-7.67,15.73-10.6l.07-2.21c.19-6.56-2.73-8.45-6.44-8.45-2.6,0-5.4,1.49-5.4,2.21,0,.46,1.5,1.5,1.5,3.12,0,1.37-1.1,2.6-2.86,2.6-1.62,0-2.86-.97-2.86-2.54,0-3.19,7.21-7.21,12.29-7.21,5.85,0,8.65,2.28,8.25,10.27l-.65,13.85c-.07,1.95.65,2.67,1.95,2.67.97,0,2.01-.85,3.05-1.82l.52.58c-1.37,1.69-3.32,4.1-5.72,4.1-2.28,0-3.96-1.62-4.09-4.68Zm0-1.23l.32-10.21c-9.04,2.21-11.12,4.88-11.12,8.32,0,2.99,2.02,4.81,4.62,4.81,2.34,0,4.23-1.11,6.18-2.92Z"/>
      <path class="cls-8" d="m834.63,222.56c0-1.76,1.56-3.32,3.64-3.32s3.51,1.56,3.51,3.32-1.43,3.57-3.51,3.57-3.64-1.76-3.64-3.57Zm0,20.02c0-1.75,1.56-3.31,3.64-3.31s3.51,1.56,3.51,3.31c0,1.88-1.43,3.51-3.51,3.51s-3.64-1.62-3.64-3.51Z"/>
      <path class="cls-8" d="m203.1,634.27l3.45-.26c1.88-.19,2.6-.52,2.6-.97v-36.4c0-.46-.32-.59-2.99-.85l-2.99-.2-.2-.97h17.23c10.14,0,15.15,3.96,15.15,10.08,0,7.15-6.5,11.76-15.41,11.76-2.02,0-4.16-.19-5.66-.39v17.16c0,.46.33.65,2.99.85l3.77.2.2.97h-18.33l.2-.97Zm26.78-28.67c0-6.31-3.19-10.01-10.99-9.82h-4.62v18.85c1.43.39,3.06.71,5.59.71,6.3,0,10.01-3.58,10.01-9.75Z"/>
      <path class="cls-8" d="m237.18,634.66l-.58-7.87h1.1l1.37,3.77c1.62,2.86,4.09,4.48,6.89,4.48,3.77,0,6.5-2.34,6.5-5.66,0-3.57-2.92-5.2-7.21-6.63-3.9-1.37-7.93-3.25-7.93-8.26,0-4.62,3.96-8.12,9.42-8.12,2.28,0,4.16.46,5.85,1.11l2.08-.65.39,7.8h-1.1l-2.67-5.46c-1.1-.85-2.73-1.69-4.74-1.69-3.51,0-5.59,1.95-5.59,4.88,0,3.45,2.79,4.62,6.83,6.04,4.36,1.56,8.52,3.31,8.52,8.78,0,4.74-4.03,8.97-10.79,8.97-3.18,0-5.92-.59-8.32-1.5Z"/>
      <path class="cls-8" d="m259.98,634.66l-.58-7.87h1.1l1.37,3.77c1.62,2.86,4.09,4.48,6.89,4.48,3.77,0,6.5-2.34,6.5-5.66,0-3.57-2.92-5.2-7.21-6.63-3.9-1.37-7.93-3.25-7.93-8.26,0-4.62,3.96-8.12,9.42-8.12,2.28,0,4.16.46,5.85,1.11l2.08-.65.39,7.8h-1.1l-2.67-5.46c-1.1-.85-2.73-1.69-4.74-1.69-3.51,0-5.59,1.95-5.59,4.88,0,3.45,2.79,4.62,6.83,6.04,4.36,1.56,8.52,3.31,8.52,8.78,0,4.74-4.03,8.97-10.79,8.97-3.18,0-5.92-.59-8.32-1.5Z"/>
      <path class="cls-8" d="m285.04,629.33l.33-19.37-5.07-.13.2-1.11,8.71-7.28.78.19-.07,5.72h9.62l-.78,2.47h-8.84s-.46,18.79-.46,18.85c-.07,3.12,1.63,4.55,4.42,4.55,2.27,0,3.96-1.11,5.53-2.28l.39.65c-2.4,2.34-5.13,4.55-8.32,4.55-3.64,0-6.5-1.76-6.43-6.83Z"/>
      <path class="cls-8" d="m303.25,632.77c0-1.76,1.56-3.31,3.64-3.31,1.95,0,3.38,1.56,3.38,3.31s-1.43,3.45-3.38,3.45c-2.08,0-3.64-1.69-3.64-3.45Zm.78-35.88c-.19-1.56-.07-3.25,2.6-3.25h.52c2.67,0,2.67,1.69,2.54,3.25l-2.41,26.39c-.07.39-.71.39-.78,0l-2.47-26.39Z"/>
      <path class="cls-8" d="m335.81,599.04h-.13l.07,31.53c0,2.47,1.04,3.18,4.22,3.51l2.21.2.2.97h-14.11l.2-.97,2.28-.2c2.34-.26,3.71-.91,3.71-3.64l.06-31.46c-.65-1.3-1.95-2.67-4.68-3.19l-1.82-.26-.19-.97h10.92l24.9,32.83h.13l-.07-28.15c0-2.47-1.04-3.05-4.23-3.45l-2.21-.2-.2-.97h14.04l-.2.97-2.21.2c-2.4.26-3.71.91-3.71,3.58l-.06,36.21h-1.24l-27.89-36.53Z"/>
      <path class="cls-8" d="m371.15,621.4c0-8.38,6.37-15.02,14.69-15.02s14.37,6.3,14.37,14.56-6.3,15.21-14.56,15.21-14.5-6.37-14.5-14.76Zm23.86.52c0-4.94-1.11-9.43-3.58-11.89-1.43-1.43-3.31-2.54-5.85-2.54-5.59,0-9.23,5.98-9.23,12.94,0,5.13,1.17,9.69,3.71,12.22,1.37,1.43,3.32,2.4,5.79,2.4,5.4,0,9.17-5.98,9.17-13.13Z"/>
      <path class="cls-8" d="m418.66,629.33l.32-19.37-5.07-.13.2-1.11,8.71-7.28.78.19-.06,5.72h9.62l-.78,2.47h-8.84s-.46,18.79-.46,18.85c-.07,3.12,1.62,4.55,4.42,4.55,2.28,0,3.96-1.11,5.53-2.28l.39.65c-2.41,2.34-5.13,4.55-8.32,4.55-3.64,0-6.5-1.76-6.43-6.83Z"/>
      <path class="cls-8" d="m434.01,621.98c0-8.64,5.85-15.6,14.04-15.6,6.43,0,10.14,3.96,10.14,8.97,0,.58-.07,1.1-.13,1.69l-18.98-.13c-.13.78-.26,2.21-.26,3.12,0,7.54,4.42,12.68,10.27,12.68,3.71,0,6.44-1.3,8.84-4.94l.71.39c-2.73,4.94-6.5,7.93-11.64,7.93-7.41,0-13-6.11-13-14.11Zm19.24-6.11c.07-4.55-1.88-8.38-5.85-8.38-3.58,0-7.09,3.71-8.19,8.45l14.04-.06Z"/>
      <path class="cls-8" d="m476.19,611.71c-1.17-2.67-1.36-3.05-3.18-3.25l-1.56-.2-.2-.91h13.13l-.13.91-1.62.13c-2.01.13-2.34.84-1.56,2.86l7.34,18.53,5.85-15.41c1.82-4.88,1.56-5.65-1.88-5.91l-1.5-.2-.2-.91h11.05l-.2.91-1.23.13c-2.41.26-2.67,1.04-4.88,6.5l-8.12,20.93h-1.43l-9.69-24.12Z"/>
      <path class="cls-8" d="m517.28,631.35l-.13-.06c-2.4,2.47-5.13,4.68-8.25,4.68-3.9,0-6.96-2.86-6.96-6.5,0-4.62,3.71-7.67,15.73-10.6l.07-2.21c.19-6.56-2.73-8.45-6.44-8.45-2.6,0-5.4,1.49-5.4,2.21,0,.46,1.5,1.5,1.5,3.12,0,1.37-1.11,2.6-2.86,2.6-1.62,0-2.86-.97-2.86-2.54,0-3.19,7.22-7.21,12.29-7.21,5.85,0,8.65,2.28,8.25,10.27l-.65,13.85c-.07,1.95.65,2.67,1.95,2.67.97,0,2.01-.85,3.05-1.82l.52.58c-1.36,1.69-3.31,4.1-5.72,4.1-2.27,0-3.96-1.62-4.09-4.68Zm0-1.23l.32-10.21c-9.04,2.21-11.12,4.88-11.12,8.32,0,2.99,2.02,4.81,4.62,4.81,2.34,0,4.23-1.11,6.18-2.92Z"/>
      <path class="cls-8" d="m526.65,648.96c0-1.69,1.24-2.99,2.99-2.99s2.99,1.24,3.38,2.99c2.02-.52,3.06-2.86,4.55-7.35l1.88-5.79v-.06l-10.34-24.05c-1.17-2.67-1.36-3.05-3.18-3.25l-1.56-.2-.2-.91h13.07l-.13.91-1.5.13c-2.01.13-2.34.84-1.56,2.86l7.6,18.4,5.59-15.41c1.69-4.75,1.36-5.46-2.08-5.79l-1.5-.2-.2-.91h11.12l-.2.91-1.36.13c-2.41.26-2.67,1.04-4.68,6.5l-7.54,20.15-2.41,7.67c-1.95,6.24-4.03,9.29-7.93,9.29-2.14,0-3.83-1.37-3.83-3.05Z"/>
      <path class="cls-8" d="m570.01,631.35l-.13-.06c-2.4,2.47-5.13,4.68-8.25,4.68-3.9,0-6.96-2.86-6.96-6.5,0-4.62,3.71-7.67,15.73-10.6l.07-2.21c.19-6.56-2.73-8.45-6.44-8.45-2.6,0-5.4,1.49-5.4,2.21,0,.46,1.5,1.5,1.5,3.12,0,1.37-1.1,2.6-2.86,2.6-1.62,0-2.86-.97-2.86-2.54,0-3.19,7.21-7.21,12.29-7.21,5.85,0,8.65,2.28,8.25,10.27l-.65,13.85c-.07,1.95.65,2.67,1.95,2.67.97,0,2.01-.85,3.05-1.82l.52.58c-1.37,1.69-3.32,4.1-5.72,4.1-2.28,0-3.96-1.62-4.09-4.68Zm0-1.23l.32-10.21c-9.04,2.21-11.12,4.88-11.12,8.32,0,2.99,2.02,4.81,4.62,4.81,2.34,0,4.23-1.11,6.18-2.92Z"/>
      <path class="cls-8" d="m581.88,634.66l-.58-7.87h1.1l1.37,3.77c1.62,2.86,4.1,4.48,6.89,4.48,3.77,0,6.5-2.34,6.5-5.66,0-3.57-2.92-5.2-7.21-6.63-3.9-1.37-7.93-3.25-7.93-8.26,0-4.62,3.96-8.12,9.43-8.12,2.27,0,4.16.46,5.85,1.11l2.08-.65.39,7.8h-1.11l-2.67-5.46c-1.11-.85-2.73-1.69-4.75-1.69-3.51,0-5.59,1.95-5.59,4.88,0,3.45,2.79,4.62,6.83,6.04,4.35,1.56,8.51,3.31,8.51,8.78,0,4.74-4.03,8.97-10.79,8.97-3.19,0-5.92-.59-8.32-1.5Z"/>
      <path class="cls-8" d="m604.84,632.58c0-1.82,1.56-3.45,3.64-3.45s3.51,1.62,3.51,3.45-1.43,3.51-3.51,3.51-3.64-1.62-3.64-3.51Z"/>
      <path class="cls-8" d="m629.8,634.08l-.71-9.88h1.04l1.75,4.94c2.15,4.03,5.72,5.85,10.14,5.85,5.92,0,9.69-3.9,9.69-8.97,0-5.33-3.64-7.8-10.14-10.01-6.04-2.08-10.99-4.88-10.99-11.25,0-5.92,4.68-11.05,12.54-11.05,3.32,0,5.85.59,7.87,1.23l2.86-.78.39,10.72h-.98l-3.51-7.93c-1.82-1.17-4.1-2.08-6.89-2.08-5.07,0-8.25,3.31-8.25,7.47,0,5.01,4.09,7.02,9.62,9.04,6.7,2.34,11.9,5.26,11.9,12.29,0,6.56-5.92,12.48-14.43,12.48-3.9.06-8.45-.91-11.9-2.08Z"/>
      <path class="cls-8" d="m674.56,631.35l-.13-.06c-2.41,2.47-5.14,4.68-8.26,4.68-3.9,0-6.96-2.86-6.96-6.5,0-4.62,3.71-7.67,15.73-10.6l.07-2.21c.19-6.56-2.73-8.45-6.44-8.45-2.6,0-5.4,1.49-5.4,2.21,0,.46,1.5,1.5,1.5,3.12,0,1.37-1.1,2.6-2.86,2.6-1.62,0-2.86-.97-2.86-2.54,0-3.19,7.21-7.21,12.29-7.21,5.85,0,8.65,2.28,8.25,10.27l-.65,13.85c-.07,1.95.65,2.67,1.95,2.67.97,0,2.01-.85,3.05-1.82l.52.58c-1.37,1.69-3.32,4.1-5.72,4.1-2.28,0-3.96-1.62-4.09-4.68Zm0-1.23l.32-10.21c-9.04,2.21-11.12,4.88-11.12,8.32,0,2.99,2.02,4.81,4.62,4.81,2.34,0,4.23-1.11,6.18-2.92Z"/>
      <path class="cls-8" d="m686.75,597.22c0-1.95-.39-2.54-2.01-2.86l-2.54-.52.06-.71,8.91-2.15v21l.2.13c2.54-2.93,5.85-5.4,10.01-5.4,6.56,0,11.63,5.66,11.63,13.72,0,9.49-7.08,15.73-14.37,15.73-3.06,0-6.31-1.04-8.26-2.08h-.13l-2.99,2.47h-.52v-39.33Zm21.26,24.77c0-6.89-3.64-12.15-9.1-12.15-3.25,0-5.79,1.75-7.74,3.83v15.99c1.69,2.86,4.75,5.2,8.19,5.2,5.27,0,8.65-5.46,8.65-12.87Z"/>
      <path class="cls-8" d="m715.5,621.98c0-8.64,5.85-15.6,14.04-15.6,6.44,0,10.14,3.96,10.14,8.97,0,.58-.07,1.1-.13,1.69l-18.98-.13c-.13.78-.26,2.21-.26,3.12,0,7.54,4.42,12.68,10.27,12.68,3.71,0,6.44-1.3,8.84-4.94l.71.39c-2.73,4.94-6.5,7.93-11.64,7.93-7.41,0-13-6.11-13-14.11Zm19.24-6.11c.07-4.55-1.88-8.38-5.85-8.38-3.58,0-7.08,3.71-8.19,8.45l14.04-.06Z"/>
      <path class="cls-8" d="m741.44,634.27l1.69-.07c1.69-.13,2.34-.26,2.34-.97v-18.98c0-3.58-.46-4.22-2.41-4.55l-2.02-.32.07-.65,8.84-2.21-.2,5.27.2.07c2.47-2.34,5.79-5.46,9.95-5.46,2.14,0,3.9.78,5.13,1.95.78.85,1.5,2.15,1.75,3.64l.07.06c2.6-2.6,6.04-5.65,10.21-5.65,2.21,0,3.83.65,5.2,2.02,1.37,1.43,2.08,3.83,2.08,6.56v18.33c0,.46.07.65,2.73.91l1.5.07.19.97h-13.07l.2-.97,1.69-.07c1.88-.13,2.27-.46,2.27-.97v-16.96c0-4.55-1.88-6.44-5.66-6.44-2.79,0-5.85,1.56-7.02,3.31,0,.13-.07,1.69-.07,1.76v18.39c0,.46.07.65,2.73.91l1.62.07.19.97h-13.13l.19-.97,1.69-.07c1.88-.13,2.21-.46,2.21-.97v-16.96c0-4.55-1.88-6.44-5.53-6.44-2.86,0-5.33,1.49-7.21,3.12v20.41c0,.52.39.65,2.73.84l1.75.07.13.97h-13.26l.2-.97Z"/>
      <path class="cls-8" d="m788.98,621.4c0-8.38,6.37-15.02,14.69-15.02s14.37,6.3,14.37,14.56-6.31,15.21-14.56,15.21-14.5-6.37-14.5-14.76Zm23.86.52c0-4.94-1.11-9.43-3.58-11.89-1.43-1.43-3.32-2.54-5.85-2.54-5.59,0-9.23,5.98-9.23,12.94,0,5.13,1.17,9.69,3.71,12.22,1.36,1.43,3.31,2.4,5.79,2.4,5.39,0,9.17-5.98,9.17-13.13Z"/>
      <path class="cls-8" d="m821.15,634.66l-.58-7.87h1.1l1.37,3.77c1.62,2.86,4.1,4.48,6.89,4.48,3.77,0,6.5-2.34,6.5-5.66,0-3.57-2.92-5.2-7.21-6.63-3.9-1.37-7.93-3.25-7.93-8.26,0-4.62,3.96-8.12,9.43-8.12,2.27,0,4.16.46,5.85,1.11l2.08-.65.39,7.8h-1.11l-2.67-5.46c-1.11-.85-2.73-1.69-4.75-1.69-3.51,0-5.59,1.95-5.59,4.88,0,3.45,2.79,4.62,6.83,6.04,4.35,1.56,8.51,3.31,8.51,8.78,0,4.74-4.03,8.97-10.79,8.97-3.19,0-5.92-.59-8.32-1.5Z"/>
      <path class="cls-8" d="m871.84,650.59l2.73-.06c2.34-.13,2.67-.33,2.67-.85v-18.79l-.2-.06c-2.47,2.86-5.72,5.26-9.88,5.26-6.57,0-11.7-5.72-11.7-13.91,0-9.55,7.15-15.47,14.69-15.47,3.05,0,5.98.91,8.06,2.15h.13l2.86-2.73h.46v43.49c0,.65.65.71,2.41.91l1.75.06.2.97h-14.37l.19-.97Zm5.4-21.26v-16.05c-1.62-2.93-4.68-5.33-8.06-5.33-5.4,0-8.71,5.33-8.71,12.54s3.64,12.54,9.23,12.54c3.38,0,5.59-1.69,7.54-3.71Z"/>
      <path class="cls-8" d="m907.1,630.69h-.13c-2.79,2.4-6.43,5.46-10.73,5.46-2.14,0-3.83-.65-5.26-1.95-1.43-1.56-2.02-3.77-2.02-6.56v-18.4c0-.58-.06-.65-2.79-.84l-1.56-.2-.2-.91h9.1l-.13,18.92c0,4.68,2.14,6.56,5.98,6.56,3.12,0,5.66-1.56,7.61-3.31v-18.59c0-1.95-.46-2.34-2.73-2.47l-1.69-.2-.2-.91h9.17v24.05c0,1.17.19,1.62,1.3,1.75l3.18.52-.06.71-8.91,1.95.06-5.59Z"/>
      <path class="cls-8" d="m916.1,621.98c0-8.64,5.85-15.6,14.04-15.6,6.44,0,10.14,3.96,10.14,8.97,0,.58-.07,1.1-.13,1.69l-18.98-.13c-.13.78-.26,2.21-.26,3.12,0,7.54,4.42,12.68,10.27,12.68,3.71,0,6.44-1.3,8.84-4.94l.72.39c-2.73,4.94-6.5,7.93-11.64,7.93-7.41,0-13-6.11-13-14.11Zm19.24-6.11c.07-4.55-1.88-8.38-5.85-8.38-3.58,0-7.08,3.71-8.19,8.45l14.04-.06Z"/>
      <path class="cls-8" d="m215.26,686.98c0-8.64,5.85-15.6,14.04-15.6,6.43,0,10.14,3.96,10.14,8.97,0,.58-.07,1.1-.13,1.69l-18.98-.13c-.13.78-.26,2.21-.26,3.12,0,7.54,4.42,12.68,10.27,12.68,3.71,0,6.44-1.3,8.84-4.94l.71.39c-2.73,4.94-6.5,7.93-11.64,7.93-7.41,0-13-6.11-13-14.11Zm19.24-6.11c.07-4.55-1.88-8.38-5.85-8.38-3.58,0-7.09,3.71-8.19,8.45l14.04-.06Z"/>
      <path class="cls-8" d="m243.09,699.66l-.58-7.87h1.1l1.37,3.77c1.62,2.86,4.1,4.48,6.89,4.48,3.77,0,6.5-2.34,6.5-5.66,0-3.57-2.92-5.2-7.21-6.63-3.9-1.37-7.93-3.25-7.93-8.26,0-4.62,3.97-8.12,9.42-8.12,2.28,0,4.16.46,5.85,1.11l2.08-.65.39,7.8h-1.1l-2.67-5.46c-1.11-.85-2.73-1.69-4.75-1.69-3.51,0-5.59,1.95-5.59,4.88,0,3.45,2.8,4.62,6.83,6.04,4.36,1.56,8.52,3.31,8.52,8.78,0,4.74-4.03,8.97-10.79,8.97-3.19,0-5.92-.59-8.32-1.5Z"/>
      <path class="cls-8" d="m299.19,695.89l-.2-.06c-2.47,2.86-5.72,5.26-9.88,5.26-6.57,0-11.7-5.72-11.7-13.91,0-9.55,7.15-15.47,14.69-15.47,2.79,0,4.94.59,6.96,1.56h.13v-11.38c0-1.95-.33-2.6-2.01-2.79l-3.12-.52.13-.71,9.42-1.88v40.63c0,1.23.26,1.69,1.3,1.82l3.25.52-.06.71-8.91,1.62v-5.39Zm0-1.56v-16.19c-1.62-2.86-4.68-5.2-8.06-5.2-5.4,0-8.71,5.39-8.71,12.67s3.64,12.42,9.23,12.42c3.38,0,5.59-1.69,7.54-3.71Z"/>
      <path class="cls-8" d="m309.75,699.27l1.82-.07c1.62-.13,2.27-.26,2.27-.97v-19.04c0-3.51-.45-4.16-2.4-4.49l-2.02-.32.13-.65,8.78-2.21v26.85c0,.52.32.65,2.66.84l1.62.07.2.97h-13.26l.19-.97Zm2.47-36.92c0-1.5,1.04-3.38,3.25-3.38s3.18,1.88,3.18,3.32-1.04,3.31-3.18,3.31-3.25-1.88-3.25-3.25Z"/>
      <path class="cls-8" d="m324.84,699.27l1.75-.07c1.63-.13,2.28-.2,2.28-.91v-23.4l-5-.13.78-2.41h4.1l.13-1.69c.65-9.29,6.63-14.17,12.35-14.17,2.79,0,4.48,1.43,4.48,3.19,0,1.43-1.17,2.67-2.79,2.67s-3.31-1.56-3.71-3.71l-.13-.39-1.04-.13c-3.51,1.23-4.68,5.39-4.68,11.63v2.6h7.67l-.78,2.54h-6.89v23.47c0,.52.2.71,2.54.84l2.92.07.19.97h-14.37l.2-.97Z"/>
      <path class="cls-8" d="m342.96,699.27l1.82-.07c1.62-.13,2.28-.26,2.28-.97v-19.04c0-3.51-.46-4.16-2.4-4.49l-2.02-.32.13-.65,8.78-2.21v26.85c0,.52.33.65,2.67.84l1.62.07.2.97h-13.26l.2-.97Zm10.33-43.36h5.4l-11.57,12.03h-.65l6.83-12.03Z"/>
      <path class="cls-8" d="m356.23,686.98c0-8.71,6.18-15.6,14.62-15.6,5.33,0,9.3,2.54,9.3,5.98,0,1.88-1.43,3.12-2.92,3.12-1.88,0-3.25-1.56-2.93-3.57,0-1.43.91-1.95.91-2.34-.26-.78-2.28-2.08-4.55-2.08-5.26,0-9.62,5.13-9.62,12.48s4.42,12.74,10.27,12.74c3.71,0,6.31-1.3,8.65-4.94l.78.39c-2.67,4.94-6.37,7.93-11.57,7.93-7.35,0-12.94-6.11-12.94-14.11Z"/>
      <path class="cls-8" d="m382.14,699.27l1.82-.07c1.62-.13,2.28-.26,2.28-.97v-19.04c0-3.51-.46-4.16-2.41-4.49l-2.01-.32.13-.65,8.78-2.21v26.85c0,.52.33.65,2.67.84l1.62.07.2.97h-13.26l.2-.97Zm2.47-36.92c0-1.5,1.04-3.38,3.25-3.38s3.19,1.88,3.19,3.32-1.04,3.31-3.19,3.31-3.25-1.88-3.25-3.25Z"/>
      <path class="cls-8" d="m396.96,699.27l1.75-.07c1.69-.13,2.28-.26,2.28-.97v-34.91c0-3.05-.39-3.64-2.08-3.96l-2.47-.52.07-.65,8.97-2.14v42.32c0,.52.26.65,2.67.84l1.62.07.2.97h-13.13l.13-.97Z"/>
      <path class="cls-8" d="m423.54,699.27l1.75-.07c1.69-.13,2.28-.26,2.28-.97v-34.91c0-3.05-.39-3.64-2.08-3.96l-2.47-.52.07-.65,8.97-2.14v42.32c0,.52.26.65,2.67.84l1.62.07.2.97h-13.13l.13-.97Z"/>
      <path class="cls-8" d="m438.32,699.27l1.75-.07c1.69-.13,2.28-.26,2.28-.97v-34.91c0-3.05-.39-3.64-2.08-3.96l-2.47-.52.06-.65,8.97-2.14v42.32c0,.52.26.65,2.67.84l1.62.07.19.97h-13.13l.13-.97Z"/>
      <path class="cls-8" d="m451.76,686.98c0-8.64,5.85-15.6,14.04-15.6,6.43,0,10.14,3.96,10.14,8.97,0,.58-.07,1.1-.13,1.69l-18.98-.13c-.13.78-.26,2.21-.26,3.12,0,7.54,4.42,12.68,10.27,12.68,3.71,0,6.44-1.3,8.84-4.94l.71.39c-2.73,4.94-6.5,7.93-11.63,7.93-7.41,0-13-6.11-13-14.11Zm19.24-6.11c.06-4.55-1.88-8.38-5.85-8.38-3.58,0-7.09,3.71-8.19,8.45l14.04-.06Z"/>
      <path class="cls-8" d="m477.42,709.22c0-3.84,4.03-6.7,7.28-8v-.13c-3.71-.39-6.31-2.14-6.31-4.62,0-3.12,3.64-5.59,6.83-6.43,0,0,.06-.07.06-.13-3.18-1.17-5.91-4.29-5.91-8.38,0-5.72,4.81-10.08,10.92-10.08,2.79,0,5.2.91,7.08,2.21l8-1.04-.39,3.05-6.31-.78-.06.26c1.43,1.37,2.54,3.51,2.54,5.92,0,5.46-4.88,9.75-11.12,9.75-1.3,0-2.86-.26-3.58-.39-2.01.46-3.97,1.82-3.97,3.64,0,1.95,1.69,2.86,5.07,2.86,1.69,0,5.4-.19,7.35-.19,6.04,0,9.55,2.99,9.55,7.41,0,7.02-6.7,12.29-16.25,12.29-6.63,0-10.79-2.79-10.79-7.21Zm23.86-2.28c0-3.45-2.27-5.66-7.93-5.85-2.08-.06-4.22.13-7.34.33-2.01.78-4.88,3.38-4.88,6.5,0,4.22,4.23,7.02,9.88,7.02s10.27-3.57,10.27-7.99Zm-4.68-25.42c0-5.4-2.08-9.1-6.37-9.1-3.58,0-6.18,3.51-6.18,8.39,0,5.46,2.54,9.04,6.18,9.04s6.37-3.25,6.37-8.32Z"/>
      <path class="cls-8" d="m522.16,696.35l-.13-.06c-2.41,2.47-5.14,4.68-8.26,4.68-3.9,0-6.96-2.86-6.96-6.5,0-4.62,3.71-7.67,15.73-10.6l.06-2.21c.2-6.56-2.73-8.45-6.43-8.45-2.6,0-5.4,1.49-5.4,2.21,0,.46,1.5,1.5,1.5,3.12,0,1.37-1.1,2.6-2.86,2.6-1.62,0-2.86-.97-2.86-2.54,0-3.19,7.21-7.21,12.29-7.21,5.85,0,8.65,2.28,8.26,10.27l-.65,13.85c-.07,1.95.65,2.67,1.95,2.67.98,0,2.02-.85,3.06-1.82l.52.58c-1.37,1.69-3.32,4.1-5.72,4.1-2.28,0-3.96-1.62-4.1-4.68Zm0-1.23l.33-10.21c-9.04,2.21-11.12,4.88-11.12,8.32,0,2.99,2.01,4.81,4.62,4.81,2.34,0,4.23-1.11,6.17-2.92Z"/>
      <path class="cls-8" d="m532.76,699.27l1.69-.07c1.69-.13,2.34-.26,2.34-.97v-19.04c0-3.51-.46-4.16-2.34-4.49l-2.02-.32.07-.65,8.78-2.21-.13,10.14h.13c2.41-6.7,5.07-10.27,8.78-10.27,2.28,0,3.71,1.56,3.71,3.25s-1.11,3.19-2.99,3.19c-1.56,0-3.05-1.11-3.32-3.32-2.6.78-4.48,3.84-6.24,9.36v14.5c0,.52.26.71,2.54.84l2.67.07.2.97h-14.04l.2-.97Z"/>
      <path class="cls-8" d="m583.2,696.35l-.13-.06c-2.4,2.47-5.13,4.68-8.25,4.68-3.9,0-6.96-2.86-6.96-6.5,0-4.62,3.71-7.67,15.73-10.6l.07-2.21c.19-6.56-2.73-8.45-6.44-8.45-2.6,0-5.4,1.49-5.4,2.21,0,.46,1.5,1.5,1.5,3.12,0,1.37-1.1,2.6-2.86,2.6-1.62,0-2.86-.97-2.86-2.54,0-3.19,7.21-7.21,12.29-7.21,5.85,0,8.65,2.28,8.25,10.27l-.65,13.85c-.07,1.95.65,2.67,1.95,2.67.97,0,2.01-.85,3.05-1.82l.52.58c-1.37,1.69-3.32,4.1-5.72,4.1-2.28,0-3.96-1.62-4.09-4.68Zm0-1.23l.32-10.21c-9.04,2.21-11.12,4.88-11.12,8.32,0,2.99,2.02,4.81,4.62,4.81,2.34,0,4.23-1.11,6.18-2.92Z"/>
      <path class="cls-8" d="m593.69,699.27l1.75-.07c1.69-.13,2.27-.26,2.27-.97v-34.91c0-3.05-.39-3.64-2.08-3.96l-2.47-.52.07-.65,8.97-2.14v42.32c0,.52.26.65,2.67.84l1.62.07.2.97h-13.13l.13-.97Z"/>
      <path class="cls-8" d="m621.71,699.66l-.58-7.87h1.1l1.37,3.77c1.62,2.86,4.1,4.48,6.89,4.48,3.77,0,6.5-2.34,6.5-5.66,0-3.57-2.92-5.2-7.21-6.63-3.9-1.37-7.93-3.25-7.93-8.26,0-4.62,3.96-8.12,9.43-8.12,2.27,0,4.16.46,5.85,1.11l2.08-.65.39,7.8h-1.11l-2.67-5.46c-1.11-.85-2.73-1.69-4.75-1.69-3.51,0-5.59,1.95-5.59,4.88,0,3.45,2.79,4.62,6.83,6.04,4.35,1.56,8.51,3.31,8.51,8.78,0,4.74-4.03,8.97-10.79,8.97-3.19,0-5.92-.59-8.32-1.5Z"/>
      <path class="cls-8" d="m659.11,696.35l-.13-.06c-2.41,2.47-5.14,4.68-8.26,4.68-3.9,0-6.96-2.86-6.96-6.5,0-4.62,3.71-7.67,15.73-10.6l.07-2.21c.19-6.56-2.73-8.45-6.44-8.45-2.6,0-5.4,1.49-5.4,2.21,0,.46,1.5,1.5,1.5,3.12,0,1.37-1.1,2.6-2.86,2.6-1.62,0-2.86-.97-2.86-2.54,0-3.19,7.21-7.21,12.29-7.21,5.85,0,8.65,2.28,8.25,10.27l-.65,13.85c-.07,1.95.65,2.67,1.95,2.67.97,0,2.01-.85,3.05-1.82l.52.58c-1.37,1.69-3.32,4.1-5.72,4.1-2.28,0-3.96-1.62-4.09-4.68Zm0-1.23l.32-10.21c-9.04,2.21-11.12,4.88-11.12,8.32,0,2.99,2.02,4.81,4.62,4.81,2.34,0,4.23-1.11,6.18-2.92Z"/>
      <path class="cls-8" d="m669.6,699.27l1.75-.07c1.69-.13,2.27-.26,2.27-.97v-34.91c0-3.05-.39-3.64-2.08-3.96l-2.47-.52.07-.65,8.97-2.14v42.32c0,.52.26.65,2.67.84l1.62.07.2.97h-13.13l.13-.97Z"/>
      <path class="cls-8" d="m682.83,686.4c0-8.38,6.37-15.02,14.69-15.02s14.37,6.3,14.37,14.56-6.31,15.21-14.56,15.21-14.5-6.37-14.5-14.76Zm23.86.52c0-4.94-1.11-9.43-3.58-11.89-1.43-1.43-3.32-2.54-5.85-2.54-5.59,0-9.23,5.98-9.23,12.94,0,5.13,1.17,9.69,3.71,12.22,1.36,1.43,3.31,2.4,5.79,2.4,5.39,0,9.17-5.98,9.17-13.13Zm-4.55-31.01h5.39l-11.57,12.03h-.65l6.83-12.03Z"/>
      <path class="cls-8" d="m712.88,699.27l1.69-.07c1.69-.13,2.34-.26,2.34-.97v-19.04c0-3.51-.46-4.16-2.34-4.49l-2.08-.32.07-.65,8.84-2.21-.13,5.4.2.06c2.79-2.34,6.5-5.53,10.86-5.53,2.01,0,3.83.59,5.07,1.88,1.5,1.5,2.14,3.71,2.14,6.57v18.39c0,.46.13.65,2.73.91l1.62.07.2.97h-13.13l.2-.97,1.69-.07c1.95-.13,2.27-.46,2.27-.97v-16.9c0-4.62-2.08-6.5-5.92-6.5-3.05,0-5.79,1.56-7.87,3.38v20.15c0,.52.39.65,2.73.84l1.69.07.2.97h-13.26l.2-.97Z"/>
      <path class="cls-8" d="m744.54,707.98c2.54-1.43,5.13-3.96,5.13-7.28s-3.25-4.49-4.68-3.58c-.65-1.75.52-4.03,3.32-4.03s4.94,2.02,4.94,5.27c0,4.09-3.96,8.19-8.12,10.14l-.58-.52Z"/>
      <path class="cls-8" d="m783.67,696.35l-.13-.06c-2.4,2.47-5.13,4.68-8.25,4.68-3.9,0-6.96-2.86-6.96-6.5,0-4.62,3.71-7.67,15.73-10.6l.07-2.21c.19-6.56-2.73-8.45-6.44-8.45-2.6,0-5.4,1.49-5.4,2.21,0,.46,1.5,1.5,1.5,3.12,0,1.37-1.1,2.6-2.86,2.6-1.62,0-2.86-.97-2.86-2.54,0-3.19,7.21-7.21,12.29-7.21,5.85,0,8.65,2.28,8.25,10.27l-.65,13.85c-.07,1.95.65,2.67,1.95,2.67.97,0,2.01-.85,3.05-1.82l.52.58c-1.37,1.69-3.32,4.1-5.72,4.1-2.28,0-3.96-1.62-4.09-4.68Zm0-1.23l.32-10.21c-9.04,2.21-11.12,4.88-11.12,8.32,0,2.99,2.02,4.81,4.62,4.81,2.34,0,4.23-1.11,6.18-2.92Z"/>
      <path class="cls-8" d="m795.55,699.66l-.58-7.87h1.1l1.37,3.77c1.62,2.86,4.1,4.48,6.89,4.48,3.77,0,6.5-2.34,6.5-5.66,0-3.57-2.92-5.2-7.21-6.63-3.9-1.37-7.93-3.25-7.93-8.26,0-4.62,3.96-8.12,9.43-8.12,2.27,0,4.16.46,5.85,1.11l2.08-.65.39,7.8h-1.11l-2.67-5.46c-1.11-.85-2.73-1.69-4.75-1.69-3.51,0-5.59,1.95-5.59,4.88,0,3.45,2.79,4.62,6.83,6.04,4.35,1.56,8.51,3.31,8.51,8.78,0,4.74-4.03,8.97-10.79,8.97-3.19,0-5.92-.59-8.32-1.5Z"/>
      <path class="cls-8" d="m816.39,699.27l1.82-.07c1.62-.13,2.28-.26,2.28-.97v-19.04c0-3.51-.46-4.16-2.41-4.49l-2.02-.32.13-.65,8.78-2.21v26.85c0,.52.32.65,2.67.84l1.62.07.19.97h-13.26l.19-.97Zm10.34-43.36h5.39l-11.57,12.03h-.65l6.83-12.03Z"/>
      <path class="cls-8" d="m859.81,715.59l2.73-.06c2.34-.13,2.67-.33,2.67-.85v-18.79l-.2-.06c-2.47,2.86-5.72,5.26-9.88,5.26-6.57,0-11.7-5.72-11.7-13.91,0-9.55,7.15-15.47,14.69-15.47,3.05,0,5.98.91,8.06,2.15h.13l2.86-2.73h.46v43.49c0,.65.65.71,2.41.91l1.75.06.2.97h-14.37l.19-.97Zm5.4-21.26v-16.05c-1.62-2.93-4.68-5.33-8.06-5.33-5.39,0-8.71,5.33-8.71,12.54s3.64,12.54,9.23,12.54c3.38,0,5.59-1.69,7.54-3.71Z"/>
      <path class="cls-8" d="m895.06,695.69h-.13c-2.79,2.4-6.44,5.46-10.73,5.46-2.14,0-3.83-.65-5.26-1.95-1.43-1.56-2.02-3.77-2.02-6.56v-18.4c0-.58-.06-.65-2.79-.84l-1.56-.2-.2-.91h9.1l-.13,18.92c0,4.68,2.14,6.56,5.98,6.56,3.12,0,5.66-1.56,7.61-3.31v-18.59c0-1.95-.46-2.34-2.73-2.47l-1.69-.2-.2-.91h9.17v24.05c0,1.17.19,1.62,1.3,1.75l3.18.52-.06.71-8.91,1.95.06-5.59Z"/>
      <path class="cls-8" d="m904.07,686.98c0-8.64,5.85-15.6,14.04-15.6,6.44,0,10.14,3.96,10.14,8.97,0,.58-.07,1.1-.13,1.69l-18.98-.13c-.13.78-.26,2.21-.26,3.12,0,7.54,4.42,12.68,10.27,12.68,3.71,0,6.44-1.3,8.84-4.94l.71.39c-2.73,4.94-6.5,7.93-11.64,7.93-7.41,0-13-6.11-13-14.11Zm19.24-6.11c.07-4.55-1.88-8.38-5.85-8.38-3.58,0-7.08,3.71-8.19,8.45l14.04-.06Z"/>
      <path class="cls-8" d="m196.1,759.33l.32-19.37-5.07-.13.2-1.11,8.71-7.28.78.19-.06,5.72h9.62l-.78,2.47h-8.84s-.46,18.79-.46,18.85c-.07,3.12,1.62,4.55,4.42,4.55,2.28,0,3.96-1.11,5.53-2.28l.39.65c-2.41,2.34-5.13,4.55-8.32,4.55-3.64,0-6.5-1.76-6.43-6.83Z"/>
      <path class="cls-8" d="m211.45,751.98c0-8.64,5.85-15.6,14.04-15.6,6.43,0,10.14,3.96,10.14,8.97,0,.58-.07,1.1-.13,1.69l-18.98-.13c-.13.78-.26,2.21-.26,3.12,0,7.54,4.42,12.68,10.27,12.68,3.71,0,6.44-1.3,8.84-4.94l.71.39c-2.73,4.94-6.5,7.93-11.64,7.93-7.41,0-13-6.11-13-14.11Zm19.24-6.11c.07-4.55-1.88-8.38-5.85-8.38-3.58,0-7.09,3.71-8.19,8.45l14.04-.06Z"/>
      <path class="cls-8" d="m272.61,760.89l-.2-.06c-2.47,2.86-5.72,5.26-9.88,5.26-6.57,0-11.7-5.72-11.7-13.91,0-9.55,7.15-15.47,14.69-15.47,2.79,0,4.94.59,6.96,1.56h.13v-11.38c0-1.95-.33-2.6-2.01-2.79l-3.12-.52.13-.71,9.42-1.88v40.63c0,1.23.26,1.69,1.3,1.82l3.25.52-.06.71-8.91,1.62v-5.39Zm0-1.56v-16.19c-1.62-2.86-4.68-5.2-8.06-5.2-5.4,0-8.71,5.39-8.71,12.67s3.64,12.42,9.23,12.42c3.38,0,5.59-1.69,7.54-3.71Z"/>
      <path class="cls-8" d="m281.71,751.98c0-8.64,5.85-15.6,14.04-15.6,6.43,0,10.14,3.96,10.14,8.97,0,.58-.07,1.1-.13,1.69l-18.98-.13c-.13.78-.26,2.21-.26,3.12,0,7.54,4.42,12.68,10.27,12.68,3.71,0,6.44-1.3,8.84-4.94l.71.39c-2.73,4.94-6.5,7.93-11.63,7.93-7.41,0-13-6.11-13-14.11Zm19.24-6.11c.06-4.55-1.88-8.38-5.85-8.38-3.58,0-7.09,3.71-8.19,8.45l14.04-.06Z"/>
      <path class="cls-8" d="m301.39,778.31c0-1.62,1.37-2.73,2.86-2.73,1.88,0,3.38,1.63,3.96,4.23,2.41-.59,3.32-3.71,3.32-8.78v-26.85c0-3.51-.39-4.16-2.41-4.49l-2.02-.32.13-.65,8.78-2.21v30.75c-.13,7.61-5.01,14.43-10.14,14.43-2.79,0-4.49-1.43-4.49-3.38Zm8.52-50.96c0-1.5,1.04-3.38,3.25-3.38s3.18,1.88,3.18,3.32-1.04,3.31-3.18,3.31-3.25-1.88-3.25-3.25Z"/>
      <path class="cls-8" d="m336.32,761.35l-.13-.06c-2.41,2.47-5.14,4.68-8.26,4.68-3.9,0-6.96-2.86-6.96-6.5,0-4.62,3.71-7.67,15.73-10.6l.06-2.21c.2-6.56-2.73-8.45-6.43-8.45-2.6,0-5.4,1.49-5.4,2.21,0,.46,1.5,1.5,1.5,3.12,0,1.37-1.1,2.6-2.86,2.6-1.62,0-2.86-.97-2.86-2.54,0-3.19,7.21-7.21,12.29-7.21,5.85,0,8.65,2.28,8.26,10.27l-.65,13.85c-.07,1.95.65,2.67,1.95,2.67.98,0,2.02-.85,3.06-1.82l.52.58c-1.37,1.69-3.32,4.1-5.72,4.1-2.28,0-3.96-1.62-4.1-4.68Zm0-1.23l.33-10.21c-9.04,2.21-11.12,4.88-11.12,8.32,0,2.99,2.01,4.81,4.62,4.81,2.34,0,4.23-1.11,6.17-2.92Z"/>
      <path class="cls-8" d="m346.93,764.27l1.69-.07c1.69-.13,2.34-.26,2.34-.97v-18.98c0-3.58-.45-4.22-2.4-4.55l-2.02-.32.07-.65,8.84-2.21-.2,5.27.2.07c2.47-2.34,5.79-5.46,9.95-5.46,2.14,0,3.9.78,5.13,1.95.78.85,1.5,2.15,1.75,3.64l.07.06c2.6-2.6,6.04-5.65,10.21-5.65,2.21,0,3.83.65,5.2,2.02,1.37,1.43,2.08,3.83,2.08,6.56v18.33c0,.46.07.65,2.73.91l1.5.07.2.97h-13.07l.2-.97,1.69-.07c1.89-.13,2.28-.46,2.28-.97v-16.96c0-4.55-1.88-6.44-5.65-6.44-2.8,0-5.85,1.56-7.02,3.31,0,.13-.06,1.69-.06,1.76v18.39c0,.46.06.65,2.73.91l1.62.07.2.97h-13.13l.2-.97,1.69-.07c1.88-.13,2.21-.46,2.21-.97v-16.96c0-4.55-1.88-6.44-5.52-6.44-2.86,0-5.33,1.49-7.22,3.12v20.41c0,.52.39.65,2.73.84l1.76.07.13.97h-13.26l.2-.97Z"/>
      <path class="cls-8" d="m394.47,751.4c0-8.38,6.37-15.02,14.69-15.02s14.37,6.3,14.37,14.56-6.31,15.21-14.56,15.21-14.5-6.37-14.5-14.76Zm23.86.52c0-4.94-1.11-9.43-3.58-11.89-1.43-1.43-3.32-2.54-5.85-2.54-5.59,0-9.23,5.98-9.23,12.94,0,5.13,1.17,9.69,3.71,12.22,1.37,1.43,3.32,2.4,5.79,2.4,5.4,0,9.17-5.98,9.17-13.13Z"/>
      <path class="cls-8" d="m426.63,764.66l-.58-7.87h1.11l1.36,3.77c1.63,2.86,4.09,4.48,6.89,4.48,3.77,0,6.5-2.34,6.5-5.66,0-3.57-2.92-5.2-7.22-6.63-3.9-1.37-7.93-3.25-7.93-8.26,0-4.62,3.96-8.12,9.43-8.12,2.28,0,4.16.46,5.85,1.11l2.08-.65.39,7.8h-1.11l-2.67-5.46c-1.1-.85-2.73-1.69-4.75-1.69-3.51,0-5.59,1.95-5.59,4.88,0,3.45,2.79,4.62,6.82,6.04,4.36,1.56,8.52,3.31,8.52,8.78,0,4.74-4.03,8.97-10.79,8.97-3.18,0-5.92-.59-8.32-1.5Z"/>
      <path class="cls-8" d="m460.95,751.98c0-8.64,5.85-15.6,14.04-15.6,6.43,0,10.14,3.96,10.14,8.97,0,.58-.07,1.1-.13,1.69l-18.98-.13c-.13.78-.26,2.21-.26,3.12,0,7.54,4.42,12.68,10.27,12.68,3.71,0,6.44-1.3,8.84-4.94l.71.39c-2.73,4.94-6.5,7.93-11.63,7.93-7.41,0-13-6.11-13-14.11Zm19.24-6.11c.06-4.55-1.88-8.38-5.85-8.38-3.58,0-7.09,3.71-8.19,8.45l14.04-.06Z"/>
      <path class="cls-8" d="m486.25,764.27l1.76-.07c1.69-.13,2.28-.26,2.28-.97v-34.91c0-3.05-.39-3.64-2.08-3.96l-2.47-.52.06-.65,8.97-2.14v42.32c0,.52.26.65,2.67.84l1.62.07.19.97h-13.13l.13-.97Z"/>
      <path class="cls-8" d="m512.83,764.27l1.75-.07c1.69-.13,2.28-.26,2.28-.97v-34.91c0-3.05-.39-3.64-2.08-3.96l-2.47-.52.06-.65,8.97-2.14v42.32c0,.52.26.65,2.67.84l1.62.07.19.97h-13.13l.13-.97Z"/>
      <path class="cls-8" d="m527.74,764.27l1.82-.07c1.62-.13,2.27-.26,2.27-.97v-19.04c0-3.51-.46-4.16-2.41-4.49l-2.01-.32.13-.65,8.78-2.21v26.85c0,.52.33.65,2.67.84l1.62.07.2.97h-13.26l.2-.97Zm2.47-36.92c0-1.5,1.04-3.38,3.25-3.38s3.19,1.88,3.19,3.32-1.04,3.31-3.19,3.31-3.25-1.88-3.25-3.25Z"/>
      <path class="cls-8" d="m542.71,764.27l1.69-.07c1.69-.13,2.34-.26,2.34-.97v-19.04c0-3.51-.46-4.16-2.34-4.49l-2.08-.32.07-.65,8.84-2.21-.13,5.4.2.06c2.79-2.34,6.5-5.53,10.86-5.53,2.01,0,3.83.59,5.07,1.88,1.5,1.5,2.14,3.71,2.14,6.57v18.39c0,.46.13.65,2.73.91l1.62.07.2.97h-13.13l.2-.97,1.69-.07c1.95-.13,2.28-.46,2.28-.97v-16.9c0-4.62-2.08-6.5-5.92-6.5-3.05,0-5.79,1.56-7.87,3.38v20.15c0,.52.39.65,2.73.84l1.69.07.2.97h-13.26l.2-.97Z"/>
      <path class="cls-8" d="m575.44,764.27l1.62-.07c1.62-.13,2.28-.26,2.28-.97v-35.88c0-2.08-.33-2.67-2.02-2.99l-2.41-.52.07-.65,8.84-2.14v31.01l7.02-6.83c2.21-2.08,4.03-4.22,4.03-5.27,0-.91-.91-1.43-2.79-1.56l-1.43-.13-.13-.91h12.55l-.2.91-1.62.2c-2.47.2-3.83,1.95-8.19,6.3,0,0-2.99,2.67-2.92,2.67l8.65,13.32c1.62,2.6,2.14,3.19,4.29,3.38l1.3.13.2.97h-8.65l-1.24-2.15-7.8-12.54-3.06,2.93v9.88c0,.52.33.65,2.67.84l1.62.07.2.97h-13.07l.2-.97Z"/>
      <path class="cls-8" d="m633.81,761.35l-.13-.06c-2.4,2.47-5.13,4.68-8.25,4.68-3.9,0-6.96-2.86-6.96-6.5,0-4.62,3.71-7.67,15.73-10.6l.07-2.21c.19-6.56-2.73-8.45-6.44-8.45-2.6,0-5.4,1.49-5.4,2.21,0,.46,1.5,1.5,1.5,3.12,0,1.37-1.1,2.6-2.86,2.6-1.62,0-2.86-.97-2.86-2.54,0-3.19,7.21-7.21,12.29-7.21,5.85,0,8.65,2.28,8.25,10.27l-.65,13.85c-.07,1.95.65,2.67,1.95,2.67.97,0,2.01-.85,3.05-1.82l.52.58c-1.37,1.69-3.32,4.1-5.72,4.1-2.28,0-3.96-1.62-4.09-4.68Zm0-1.23l.32-10.21c-9.04,2.21-11.12,4.88-11.12,8.32,0,2.99,2.02,4.81,4.62,4.81,2.34,0,4.23-1.11,6.18-2.92Z"/>
      <path class="cls-8" d="m655.58,774.22c0-3.84,4.03-6.7,7.28-8v-.13c-3.71-.39-6.3-2.14-6.3-4.62,0-3.12,3.64-5.59,6.83-6.43,0,0,.06-.07.06-.13-3.18-1.17-5.92-4.29-5.92-8.38,0-5.72,4.81-10.08,10.92-10.08,2.8,0,5.2.91,7.09,2.21l8-1.04-.39,3.05-6.31-.78-.07.26c1.43,1.37,2.54,3.51,2.54,5.92,0,5.46-4.88,9.75-11.12,9.75-1.3,0-2.86-.26-3.58-.39-2.01.46-3.96,1.82-3.96,3.64,0,1.95,1.69,2.86,5.07,2.86,1.69,0,5.4-.19,7.34-.19,6.05,0,9.56,2.99,9.56,7.41,0,7.02-6.7,12.29-16.25,12.29-6.63,0-10.79-2.79-10.79-7.21Zm23.86-2.28c0-3.45-2.28-5.66-7.93-5.85-2.08-.06-4.23.13-7.35.33-2.01.78-4.88,3.38-4.88,6.5,0,4.22,4.23,7.02,9.88,7.02s10.27-3.57,10.27-7.99Zm-4.68-25.42c0-5.4-2.08-9.1-6.37-9.1-3.58,0-6.18,3.51-6.18,8.39,0,5.46,2.54,9.04,6.18,9.04s6.37-3.25,6.37-8.32Z"/>
      <path class="cls-8" d="m683.21,751.4c0-8.38,6.37-15.02,14.69-15.02s14.37,6.3,14.37,14.56-6.31,15.21-14.56,15.21-14.5-6.37-14.5-14.76Zm23.86.52c0-4.94-1.11-9.43-3.58-11.89-1.43-1.43-3.32-2.54-5.85-2.54-5.59,0-9.23,5.98-9.23,12.94,0,5.13,1.17,9.69,3.71,12.22,1.36,1.43,3.31,2.4,5.79,2.4,5.39,0,9.17-5.98,9.17-13.13Z"/>
      <path class="cls-8" d="m714.61,751.4c0-8.38,6.37-15.02,14.69-15.02s14.37,6.3,14.37,14.56-6.31,15.21-14.56,15.21-14.5-6.37-14.5-14.76Zm23.86.52c0-4.94-1.11-9.43-3.58-11.89-1.43-1.43-3.32-2.54-5.85-2.54-5.59,0-9.23,5.98-9.23,12.94,0,5.13,1.17,9.69,3.71,12.22,1.36,1.43,3.31,2.4,5.79,2.4,5.39,0,9.17-5.98,9.17-13.13Z"/>
      <path class="cls-8" d="m744.7,774.22c0-3.84,4.03-6.7,7.28-8v-.13c-3.71-.39-6.31-2.14-6.31-4.62,0-3.12,3.64-5.59,6.83-6.43,0,0,.06-.07.06-.13-3.18-1.17-5.92-4.29-5.92-8.38,0-5.72,4.81-10.08,10.92-10.08,2.8,0,5.2.91,7.09,2.21l8-1.04-.39,3.05-6.31-.78-.07.26c1.43,1.37,2.54,3.51,2.54,5.92,0,5.46-4.88,9.75-11.12,9.75-1.3,0-2.86-.26-3.58-.39-2.01.46-3.96,1.82-3.96,3.64,0,1.95,1.69,2.86,5.07,2.86,1.69,0,5.39-.19,7.34-.19,6.05,0,9.56,2.99,9.56,7.41,0,7.02-6.7,12.29-16.25,12.29-6.63,0-10.79-2.79-10.79-7.21Zm23.86-2.28c0-3.45-2.27-5.66-7.93-5.85-2.08-.06-4.23.13-7.35.33-2.01.78-4.88,3.38-4.88,6.5,0,4.22,4.23,7.02,9.88,7.02s10.27-3.57,10.27-7.99Zm-4.68-25.42c0-5.4-2.08-9.1-6.37-9.1-3.58,0-6.18,3.51-6.18,8.39,0,5.46,2.54,9.04,6.18,9.04s6.37-3.25,6.37-8.32Z"/>
      <path class="cls-8" d="m773.43,764.27l1.75-.07c1.69-.13,2.27-.26,2.27-.97v-34.91c0-3.05-.39-3.64-2.08-3.96l-2.47-.52.07-.65,8.97-2.14v42.32c0,.52.26.65,2.67.84l1.62.07.2.97h-13.13l.13-.97Z"/>
      <path class="cls-8" d="m786.87,751.98c0-8.64,5.85-15.6,14.04-15.6,6.44,0,10.14,3.96,10.14,8.97,0,.58-.07,1.1-.13,1.69l-18.98-.13c-.13.78-.26,2.21-.26,3.12,0,7.54,4.42,12.68,10.27,12.68,3.71,0,6.44-1.3,8.84-4.94l.71.39c-2.73,4.94-6.5,7.93-11.64,7.93-7.41,0-13-6.11-13-14.11Zm19.24-6.11c.07-4.55-1.88-8.38-5.85-8.38-3.58,0-7.08,3.71-8.19,8.45l14.04-.06Z"/>
      <path class="cls-8" d="m826.07,764.27l1.69-.07c1.69-.13,2.34-.26,2.34-.97v-18.98c0-3.58-.46-4.22-2.41-4.55l-2.02-.32.07-.65,8.84-2.21-.2,5.27.2.07c2.47-2.34,5.79-5.46,9.95-5.46,2.14,0,3.9.78,5.13,1.95.78.85,1.5,2.15,1.75,3.64l.07.06c2.6-2.6,6.04-5.65,10.21-5.65,2.21,0,3.83.65,5.2,2.02,1.37,1.43,2.08,3.83,2.08,6.56v18.33c0,.46.07.65,2.73.91l1.5.07.19.97h-13.07l.2-.97,1.69-.07c1.88-.13,2.27-.46,2.27-.97v-16.96c0-4.55-1.88-6.44-5.66-6.44-2.79,0-5.85,1.56-7.02,3.31,0,.13-.07,1.69-.07,1.76v18.39c0,.46.07.65,2.73.91l1.62.07.19.97h-13.13l.19-.97,1.69-.07c1.88-.13,2.21-.46,2.21-.97v-16.96c0-4.55-1.88-6.44-5.53-6.44-2.86,0-5.33,1.49-7.21,3.12v20.41c0,.52.39.65,2.73.84l1.75.07.13.97h-13.26l.2-.97Z"/>
      <path class="cls-8" d="m890.04,761.35l-.13-.06c-2.4,2.47-5.13,4.68-8.25,4.68-3.9,0-6.96-2.86-6.96-6.5,0-4.62,3.71-7.67,15.73-10.6l.07-2.21c.19-6.56-2.73-8.45-6.44-8.45-2.6,0-5.4,1.49-5.4,2.21,0,.46,1.5,1.5,1.5,3.12,0,1.37-1.1,2.6-2.86,2.6-1.62,0-2.86-.97-2.86-2.54,0-3.19,7.21-7.21,12.29-7.21,5.85,0,8.65,2.28,8.25,10.27l-.65,13.85c-.07,1.95.65,2.67,1.95,2.67.97,0,2.01-.85,3.05-1.82l.52.58c-1.37,1.69-3.32,4.1-5.72,4.1-2.28,0-3.96-1.62-4.09-4.68Zm0-1.23l.32-10.21c-9.04,2.21-11.12,4.88-11.12,8.32,0,2.99,2.02,4.81,4.62,4.81,2.34,0,4.23-1.11,6.18-2.92Z"/>
      <path class="cls-8" d="m898.54,780.59l1.76-.06c1.62-.13,2.34-.26,2.34-.91v-35.49c0-3.45-.46-4.09-2.34-4.42l-2.08-.32.06-.65,8.84-2.21-.07,5.46.2.13c2.54-2.93,5.79-5.4,9.95-5.4,6.63,0,11.63,5.66,11.63,13.72,0,9.49-7.02,15.73-14.37,15.73-2.86,0-5.46-.78-7.28-1.62h-.13v15.21c0,.46.33.65,2.67.78l2.79.06.2.97h-14.37l.19-.97Zm25.29-28.6c0-6.89-3.58-12.15-9.1-12.15-3.25,0-5.79,1.75-7.67,3.83v16.19c1.69,2.67,4.68,5.01,8.12,5.01,5.33,0,8.65-5.46,8.65-12.87Z"/>
      <path class="cls-8" d="m931.94,764.66l-.58-7.87h1.1l1.37,3.77c1.62,2.86,4.1,4.48,6.89,4.48,3.77,0,6.5-2.34,6.5-5.66,0-3.57-2.92-5.2-7.21-6.63-3.9-1.37-7.93-3.25-7.93-8.26,0-4.62,3.96-8.12,9.43-8.12,2.27,0,4.16.46,5.85,1.11l2.08-.65.39,7.8h-1.11l-2.67-5.46c-1.11-.85-2.73-1.69-4.75-1.69-3.51,0-5.59,1.95-5.59,4.88,0,3.45,2.79,4.62,6.83,6.04,4.35,1.56,8.51,3.31,8.51,8.78,0,4.74-4.03,8.97-10.79,8.97-3.19,0-5.92-.59-8.32-1.5Z"/>
      <path class="cls-8" d="m309.06,845.59l1.75-.06c1.62-.13,2.34-.26,2.34-.91v-35.49c0-3.45-.46-4.09-2.34-4.42l-2.08-.32.07-.65,8.84-2.21-.07,5.46.2.13c2.53-2.93,5.79-5.4,9.95-5.4,6.63,0,11.64,5.66,11.64,13.72,0,9.49-7.02,15.73-14.37,15.73-2.86,0-5.46-.78-7.28-1.62h-.13v15.21c0,.46.33.65,2.67.78l2.79.06.2.97h-14.37l.2-.97Zm25.29-28.6c0-6.89-3.58-12.15-9.1-12.15-3.25,0-5.79,1.75-7.67,3.83v16.19c1.69,2.67,4.68,5.01,8.13,5.01,5.33,0,8.64-5.46,8.64-12.87Z"/>
      <path class="cls-8" d="m357.19,826.35l-.13-.06c-2.41,2.47-5.14,4.68-8.26,4.68-3.9,0-6.96-2.86-6.96-6.5,0-4.62,3.71-7.67,15.73-10.6l.06-2.21c.2-6.56-2.73-8.45-6.43-8.45-2.6,0-5.4,1.49-5.4,2.21,0,.46,1.5,1.5,1.5,3.12,0,1.37-1.1,2.6-2.86,2.6-1.62,0-2.86-.97-2.86-2.54,0-3.19,7.21-7.21,12.29-7.21,5.85,0,8.65,2.28,8.26,10.27l-.65,13.85c-.07,1.95.65,2.67,1.95,2.67.98,0,2.02-.85,3.06-1.82l.52.58c-1.37,1.69-3.32,4.1-5.72,4.1-2.28,0-3.96-1.62-4.1-4.68Zm0-1.23l.33-10.21c-9.04,2.21-11.12,4.88-11.12,8.32,0,2.99,2.01,4.81,4.62,4.81,2.34,0,4.23-1.11,6.17-2.92Z"/>
      <path class="cls-8" d="m367.8,829.27l1.69-.07c1.69-.13,2.34-.26,2.34-.97v-19.04c0-3.51-.45-4.16-2.34-4.49l-2.01-.32.07-.65,8.78-2.21-.13,10.14h.13c2.4-6.7,5.07-10.27,8.78-10.27,2.27,0,3.71,1.56,3.71,3.25s-1.11,3.19-2.99,3.19c-1.56,0-3.06-1.11-3.32-3.32-2.6.78-4.49,3.84-6.24,9.36v14.5c0,.52.26.71,2.54.84l2.67.07.2.97h-14.04l.2-.97Z"/>
      <path class="cls-8" d="m405.91,826.35l-.13-.06c-2.41,2.47-5.14,4.68-8.26,4.68-3.9,0-6.96-2.86-6.96-6.5,0-4.62,3.71-7.67,15.73-10.6l.06-2.21c.2-6.56-2.73-8.45-6.43-8.45-2.6,0-5.4,1.49-5.4,2.21,0,.46,1.5,1.5,1.5,3.12,0,1.37-1.1,2.6-2.86,2.6-1.62,0-2.86-.97-2.86-2.54,0-3.19,7.21-7.21,12.29-7.21,5.85,0,8.65,2.28,8.26,10.27l-.65,13.85c-.07,1.95.65,2.67,1.95,2.67.98,0,2.02-.85,3.06-1.82l.52.58c-1.37,1.69-3.32,4.1-5.72,4.1-2.28,0-3.96-1.62-4.1-4.68Zm0-1.23l.33-10.21c-9.04,2.21-11.12,4.88-11.12,8.32,0,2.99,2.01,4.81,4.62,4.81,2.34,0,4.23-1.11,6.17-2.92Z"/>
      <path class="cls-8" d="m445.03,845.59l2.73-.06c2.34-.13,2.67-.33,2.67-.85v-18.79l-.2-.06c-2.47,2.86-5.72,5.26-9.88,5.26-6.57,0-11.7-5.72-11.7-13.91,0-9.55,7.15-15.47,14.69-15.47,3.05,0,5.98.91,8.06,2.15h.13l2.86-2.73h.46v43.49c0,.65.65.71,2.41.91l1.75.06.2.97h-14.37l.2-.97Zm5.4-21.26v-16.05c-1.62-2.93-4.68-5.33-8.06-5.33-5.4,0-8.71,5.33-8.71,12.54s3.64,12.54,9.23,12.54c3.38,0,5.59-1.69,7.54-3.71Z"/>
      <path class="cls-8" d="m480.29,825.69h-.13c-2.79,2.4-6.44,5.46-10.73,5.46-2.15,0-3.83-.65-5.26-1.95-1.43-1.56-2.02-3.77-2.02-6.56v-18.4c0-.58-.06-.65-2.79-.84l-1.56-.2-.2-.91h9.1l-.13,18.92c0,4.68,2.14,6.56,5.98,6.56,3.12,0,5.66-1.56,7.61-3.31v-18.59c0-1.95-.46-2.34-2.73-2.47l-1.69-.2-.2-.91h9.17v24.05c0,1.17.2,1.62,1.3,1.75l3.19.52-.06.71-8.91,1.95.07-5.59Z"/>
      <path class="cls-8" d="m489.29,816.98c0-8.64,5.85-15.6,14.04-15.6,6.43,0,10.14,3.96,10.14,8.97,0,.58-.07,1.1-.13,1.69l-18.98-.13c-.13.78-.26,2.21-.26,3.12,0,7.54,4.42,12.68,10.27,12.68,3.71,0,6.44-1.3,8.84-4.94l.71.39c-2.73,4.94-6.5,7.93-11.64,7.93-7.41,0-13-6.11-13-14.11Zm19.24-6.11c.07-4.55-1.88-8.38-5.85-8.38-3.58,0-7.09,3.71-8.19,8.45l14.04-.06Z"/>
      <path class="cls-8" d="m529.66,829.66l-.58-7.87h1.11l1.36,3.77c1.63,2.86,4.09,4.48,6.89,4.48,3.77,0,6.5-2.34,6.5-5.66,0-3.57-2.92-5.2-7.22-6.63-3.9-1.37-7.93-3.25-7.93-8.26,0-4.62,3.96-8.12,9.43-8.12,2.27,0,4.16.46,5.85,1.11l2.08-.65.39,7.8h-1.11l-2.67-5.46c-1.11-.85-2.73-1.69-4.75-1.69-3.51,0-5.59,1.95-5.59,4.88,0,3.45,2.79,4.62,6.83,6.04,4.35,1.56,8.51,3.31,8.51,8.78,0,4.74-4.03,8.97-10.79,8.97-3.18,0-5.92-.59-8.32-1.5Z"/>
      <path class="cls-8" d="m551.25,816.98c0-8.64,5.85-15.6,14.04-15.6,6.44,0,10.14,3.96,10.14,8.97,0,.58-.07,1.1-.13,1.69l-18.98-.13c-.13.78-.26,2.21-.26,3.12,0,7.54,4.42,12.68,10.27,12.68,3.71,0,6.44-1.3,8.84-4.94l.72.39c-2.73,4.94-6.5,7.93-11.64,7.93-7.41,0-13-6.11-13-14.11Zm19.24-6.11c.07-4.55-1.88-8.38-5.85-8.38-3.58,0-7.08,3.71-8.19,8.45l14.04-.06Z"/>
      <path class="cls-8" d="m593.82,826.35l-.13-.06c-2.41,2.47-5.14,4.68-8.26,4.68-3.9,0-6.96-2.86-6.96-6.5,0-4.62,3.71-7.67,15.73-10.6l.07-2.21c.19-6.56-2.73-8.45-6.44-8.45-2.6,0-5.4,1.49-5.4,2.21,0,.46,1.5,1.5,1.5,3.12,0,1.37-1.1,2.6-2.86,2.6-1.62,0-2.86-.97-2.86-2.54,0-3.19,7.21-7.21,12.29-7.21,5.85,0,8.65,2.28,8.25,10.27l-.65,13.85c-.07,1.95.65,2.67,1.95,2.67.97,0,2.01-.85,3.05-1.82l.52.58c-1.37,1.69-3.32,4.1-5.72,4.1-2.28,0-3.96-1.62-4.09-4.68Zm0-1.23l.32-10.21c-9.04,2.21-11.12,4.88-11.12,8.32,0,2.99,2.02,4.81,4.62,4.81,2.34,0,4.23-1.11,6.18-2.92Z"/>
      <path class="cls-8" d="m616.38,829.27l1.69-.07c1.69-.13,2.34-.26,2.34-.97v-18.98c0-3.58-.46-4.22-2.41-4.55l-2.02-.32.07-.65,8.84-2.21-.19,5.27.19.07c2.47-2.34,5.79-5.46,9.95-5.46,2.14,0,3.9.78,5.13,1.95.78.85,1.5,2.15,1.75,3.64l.07.06c2.6-2.6,6.04-5.65,10.21-5.65,2.21,0,3.83.65,5.2,2.02,1.37,1.43,2.08,3.83,2.08,6.56v18.33c0,.46.07.65,2.73.91l1.5.07.19.97h-13.07l.2-.97,1.69-.07c1.88-.13,2.27-.46,2.27-.97v-16.96c0-4.55-1.88-6.44-5.66-6.44-2.79,0-5.85,1.56-7.02,3.31,0,.13-.07,1.69-.07,1.76v18.39c0,.46.07.65,2.73.91l1.62.07.19.97h-13.13l.19-.97,1.69-.07c1.88-.13,2.21-.46,2.21-.97v-16.96c0-4.55-1.88-6.44-5.53-6.44-2.86,0-5.33,1.49-7.21,3.12v20.41c0,.52.39.65,2.73.84l1.75.07.13.97h-13.26l.2-.97Z"/>
      <path class="cls-8" d="m680.35,826.35l-.13-.06c-2.4,2.47-5.13,4.68-8.25,4.68-3.9,0-6.96-2.86-6.96-6.5,0-4.62,3.71-7.67,15.73-10.6l.07-2.21c.19-6.56-2.73-8.45-6.44-8.45-2.6,0-5.4,1.49-5.4,2.21,0,.46,1.5,1.5,1.5,3.12,0,1.37-1.1,2.6-2.86,2.6-1.62,0-2.86-.97-2.86-2.54,0-3.19,7.21-7.21,12.29-7.21,5.85,0,8.65,2.28,8.25,10.27l-.65,13.85c-.07,1.95.65,2.67,1.95,2.67.97,0,2.01-.85,3.05-1.82l.52.58c-1.37,1.69-3.32,4.1-5.72,4.1-2.28,0-3.96-1.62-4.09-4.68Zm0-1.23l.32-10.21c-9.04,2.21-11.12,4.88-11.12,8.32,0,2.99,2.02,4.81,4.62,4.81,2.34,0,4.23-1.11,6.18-2.92Zm.26-39.2h5.4l-11.57,12.03h-.65l6.83-12.03Z"/>
      <path class="cls-8" d="m692.23,829.66l-.58-7.87h1.1l1.37,3.77c1.62,2.86,4.1,4.48,6.89,4.48,3.77,0,6.5-2.34,6.5-5.66,0-3.57-2.92-5.2-7.21-6.63-3.9-1.37-7.93-3.25-7.93-8.26,0-4.62,3.96-8.12,9.43-8.12,2.27,0,4.16.46,5.85,1.11l2.08-.65.39,7.8h-1.11l-2.67-5.46c-1.11-.85-2.73-1.69-4.75-1.69-3.51,0-5.59,1.95-5.59,4.88,0,3.45,2.79,4.62,6.83,6.04,4.35,1.56,8.51,3.31,8.51,8.78,0,4.74-4.03,8.97-10.79,8.97-3.19,0-5.92-.59-8.32-1.5Z"/>
      <path class="cls-8" d="m726.61,829.27l1.75-.07c1.62-.13,2.28-.2,2.28-.91v-23.4l-5-.13.78-2.41h4.1l.13-1.69c.65-9.29,6.63-14.17,12.35-14.17,2.79,0,4.49,1.43,4.49,3.19,0,1.43-1.17,2.67-2.8,2.67s-3.31-1.56-3.71-3.71l-.13-.39-1.04-.13c-3.51,1.23-4.68,5.39-4.68,11.63v2.6h7.67l-.78,2.54h-6.89v23.47c0,.52.19.71,2.54.84l2.92.07.2.97h-14.37l.2-.97Z"/>
      <path class="cls-8" d="m759.21,826.35l-.13-.06c-2.4,2.47-5.13,4.68-8.25,4.68-3.9,0-6.96-2.86-6.96-6.5,0-4.62,3.71-7.67,15.73-10.6l.07-2.21c.19-6.56-2.73-8.45-6.44-8.45-2.6,0-5.4,1.49-5.4,2.21,0,.46,1.5,1.5,1.5,3.12,0,1.37-1.1,2.6-2.86,2.6-1.62,0-2.86-.97-2.86-2.54,0-3.19,7.21-7.21,12.29-7.21,5.85,0,8.65,2.28,8.25,10.27l-.65,13.85c-.07,1.95.65,2.67,1.95,2.67.97,0,2.01-.85,3.05-1.82l.52.58c-1.37,1.69-3.32,4.1-5.72,4.1-2.28,0-3.96-1.62-4.09-4.68Zm0-1.23l.32-10.21c-9.04,2.21-11.12,4.88-11.12,8.32,0,2.99,2.02,4.81,4.62,4.81,2.34,0,4.23-1.11,6.18-2.92Zm.26-39.2h5.4l-11.57,12.03h-.65l6.83-12.03Z"/>
      <path class="cls-8" d="m769.02,816.98c0-8.71,6.17-15.6,14.62-15.6,5.33,0,9.29,2.54,9.29,5.98,0,1.88-1.43,3.12-2.92,3.12-1.88,0-3.25-1.56-2.92-3.57,0-1.43.91-1.95.91-2.34-.26-.78-2.28-2.08-4.55-2.08-5.26,0-9.62,5.13-9.62,12.48s4.42,12.74,10.27,12.74c3.71,0,6.31-1.3,8.65-4.94l.78.39c-2.67,4.94-6.37,7.93-11.57,7.93-7.34,0-12.93-6.11-12.93-14.11Z"/>
      <path class="cls-8" d="m794.93,829.27l1.82-.07c1.62-.13,2.28-.26,2.28-.97v-19.04c0-3.51-.46-4.16-2.41-4.49l-2.02-.32.13-.65,8.78-2.21v26.85c0,.52.32.65,2.67.84l1.62.07.19.97h-13.26l.19-.97Zm2.47-36.92c0-1.5,1.04-3.38,3.25-3.38s3.18,1.88,3.18,3.32-1.04,3.31-3.18,3.31-3.25-1.88-3.25-3.25Z"/>
      <path class="cls-8" d="m809.74,829.27l1.75-.07c1.69-.13,2.27-.26,2.27-.97v-34.91c0-3.05-.39-3.64-2.08-3.96l-2.47-.52.07-.65,8.97-2.14v42.32c0,.52.26.65,2.67.84l1.62.07.2.97h-13.13l.13-.97Z"/>
      <path class="cls-8" d="m825.35,807.56c0-1.76,1.56-3.32,3.64-3.32s3.51,1.56,3.51,3.32-1.43,3.57-3.51,3.57-3.64-1.76-3.64-3.57Zm0,20.02c0-1.75,1.56-3.31,3.64-3.31s3.51,1.56,3.51,3.31c0,1.88-1.43,3.51-3.51,3.51s-3.64-1.62-3.64-3.51Z"/>
    </g>
  </g>
</svg>