<?xml version="1.0" encoding="UTF-8"?>
<svg id="hoja_2" data-name="hoja 2" xmlns="http://www.w3.org/2000/svg" viewBox="0 0 1125 409.5">
  <defs>
    <style>
      .cls-1 {
        fill: #181818;
      }
    </style>
  </defs>
  <g id="text-2" data-name="text">
    <g>
      <g>
        <path class="cls-1" d="m100.66,393.78h-2.1l-.06.12v4.02l1.71.3v1.59c-2.25.63-5.34,1.26-8.25,1.26-6.48,0-8.64-2.4-8.64-9.27,0-7.26,2.7-10.26,9-10.26,2.4,0,3.84.45,4.77.84l1.89-.87v5.82h-1.86l-.75-2.67c-1.11-.54-2.31-.84-4.5-.84-4.62,0-5.94,2.1-5.94,7.02,0,6.36,1.05,7.98,6.24,7.98,1.77,0,3.06-.3,4.02-.57v-4.11l-.06-.12-2.85-.81v-1.59h7.38v2.16Z"/>
        <path class="cls-1" d="m127.89,400.68h-14.85v-2.16h2.34l.06-.12v-13.95l-.06-.12-2.67-.78v-1.62h15.39v5.58h-1.71l-.75-2.79c-.18-.6-.33-.63-4.14-.63h-3.63v6.27h1.65c1.95,0,2.01-.06,2.31-.6l.81-1.98h1.47l-.66,6.54h-1.47l-.36-2.01c-.03-.21-.12-.27-2.1-.27h-1.65v6.48h3.54c3.51,0,3.96-.09,4.44-1.05l.93-2.28h1.71l-.6,5.49Z"/>
        <path class="cls-1" d="m161.39,384.09h-2.43l-.06.12v16.83h-3.69l-9-16.44h-.51v13.56l.06.12,2.58.78v1.62h-7.23v-2.16h2.34l.06-.12v-13.95l-.06-.12-2.7-.78v-1.62h6.72l8.73,16.08h.51v-13.56l-.06-.12-2.58-.78v-1.62h7.32v2.16Z"/>
        <path class="cls-1" d="m188.74,400.68h-14.85v-2.16h2.34l.06-.12v-13.95l-.06-.12-2.67-.78v-1.62h15.39v5.58h-1.71l-.75-2.79c-.18-.6-.33-.63-4.14-.63h-3.63v6.27h1.65c1.95,0,2.01-.06,2.31-.6l.81-1.98h1.47l-.66,6.54h-1.47l-.36-2.01c-.03-.21-.12-.27-2.1-.27h-1.65v6.48h3.54c3.51,0,3.96-.09,4.44-1.05l.93-2.28h1.71l-.6,5.49Z"/>
        <path class="cls-1" d="m213.91,400.68l-1.17-2.52-2.67-5.16-3.27.21v4.95l.06.12,2.64.78v1.62h-7.53v-2.16h2.34l.06-.12v-13.89l-.06-.18-2.67-.78v-1.62h8.25c5.31,0,6.87,1.92,6.87,5.04,0,3.3-1.44,5.01-4.41,5.82l3.18,5.37.15.12,2.49.78v1.62h-4.26Zm-4.05-16.59h-3.06v7.02l2.82.27c2.94-.36,4.53-1.5,4.53-3.87s-.78-3.42-4.29-3.42Z"/>
        <path class="cls-1" d="m241.43,400.68v-2.16h2.13l.06-.12-1.29-3.9h-6.84l-1.17,3.66.06.12,2.28.78v1.62h-6.75v-2.16h2.07l.03-.12,5.19-15.12v-1.05l3.36-.81,5.58,16.74.12.15,2.4.75v1.62h-7.23Zm-2.22-16.32h-.45l-2.61,8.22h5.55l-2.49-8.22Z"/>
        <path class="cls-1" d="m274.56,400.68h-14.01v-2.16h2.34l.06-.12v-13.95l-.06-.12-2.67-.78v-1.62h8.13v2.16h-2.91l-.06.12v14.31h3.03c3.57,0,3.72-.21,3.9-.63l1.14-3.12h1.71l-.6,5.91Z"/>
        <path class="cls-1" d="m311.46,401.07c-1.83,0-4.2-.39-5.85-.99l-.48-5.04h1.92l.93,3.18c1.05.3,2.43.6,3.75.6,3.21,0,4.56-.87,4.56-3.06s-1.23-2.76-4.95-3.54c-3.48-.72-6.24-1.56-6.24-5.22,0-3.39,2.19-5.46,6.9-5.46,1.56,0,3.06.33,4.47.75l1.89-.81v5.79h-1.86l-.78-2.76c-.9-.42-2.22-.69-3.72-.69-3.18,0-4.35.93-4.35,2.94s1.47,2.58,5.1,3.3c3.66.72,6.12,1.65,6.12,5.46,0,3.42-2.13,5.55-7.41,5.55Z"/>
        <path class="cls-1" d="m342.23,400.68v-2.16h2.13l.06-.12-1.29-3.9h-6.84l-1.17,3.66.06.12,2.28.78v1.62h-6.75v-2.16h2.07l.03-.12,5.19-15.12v-1.05l3.36-.81,5.58,16.74.12.15,2.4.75v1.62h-7.23Zm-2.22-16.32h-.45l-2.61,8.22h5.55l-2.49-8.22Z"/>
        <path class="cls-1" d="m375.77,384.09h-2.04l-.06.12-5.67,16.62h-3.03l-5.46-16.38-.12-.15-2.4-.75v-1.62h7.23v2.16h-2.13l-.06.12,4.38,14.34h.45l4.53-14.1-.06-.12-2.31-.78v-1.62h6.75v2.16Z"/>
        <path class="cls-1" d="m387.88,400.68v-2.16h2.7l.06-.12v-13.95l-.06-.12-3.03-.78v-1.62h8.28v2.16h-2.7l-.06.12v13.95l.06.12,3.03.78v1.62h-8.28Z"/>
        <path class="cls-1" d="m416.13,401.07c-6.03,0-8.16-2.49-8.16-9.27,0-7.14,2.43-10.26,9.03-10.26,6.03,0,8.25,2.49,8.25,9.27,0,7.14-2.52,10.26-9.12,10.26Zm.36-17.25c-4.23,0-5.91,1.53-5.91,7.08,0,6.63,1.14,7.92,6.12,7.92,4.23,0,5.94-1.56,5.94-7.11,0-6.63-1.14-7.89-6.15-7.89Z"/>
        <path class="cls-1" d="m457.65,400.68v-2.16h3.75l.06-.12v-13.77l-4.35-.33v-1.29l6.72-1.53v16.71c0,.06.03.09.09.15l3.69.72v1.62h-9.96Z"/>
        <path class="cls-1" d="m486.07,401.07c-3.93,0-6.36-2.31-6.36-9.66,0-7.77,2.82-9.84,6.54-9.84,3.93,0,6.36,2.34,6.36,9.66,0,7.77-2.82,9.84-6.54,9.84Zm.06-17.31c-2.88,0-3.96,2.01-3.96,7.56s.87,7.59,3.99,7.59c2.91,0,3.99-2.04,3.99-7.56s-.84-7.59-4.02-7.59Z"/>
        <path class="cls-1" d="m511.25,401.07c-4.62,0-6.45-1.8-6.45-5.1,0-2.58,1.5-3.87,3.72-4.5v-.36c-1.98-.45-3.27-1.86-3.27-4.38,0-3.18,2.04-5.19,6.18-5.19s5.94,1.56,5.94,4.86c0,2.31-1.23,3.54-3.33,4.17v.36c2.34.6,3.75,2.01,3.75,4.89,0,3.03-2.01,5.25-6.54,5.25Zm-1.56-9.48c-2.13,1.14-2.64,3.03-2.64,4.11,0,2.37,1.5,3.33,4.47,3.33,3.57,0,4.02-1.62,4.02-2.91,0-2.82-1.8-3.45-5.85-4.53Zm1.44-7.98c-3,0-3.63,1.23-3.63,2.82,0,2.43,1.2,3.03,5.34,4.02,1.62-1.11,2.28-2.79,2.28-3.75,0-2.1-1.02-3.09-3.99-3.09Z"/>
        <path class="cls-1" d="m536.38,401.07c-3.93,0-6.36-2.31-6.36-9.66,0-7.77,2.82-9.84,6.54-9.84,3.93,0,6.36,2.34,6.36,9.66,0,7.77-2.82,9.84-6.54,9.84Zm.06-17.31c-2.88,0-3.96,2.01-3.96,7.56s.87,7.59,3.99,7.59c2.91,0,3.99-2.04,3.99-7.56s-.84-7.59-4.02-7.59Z"/>
        <path class="cls-1" d="m555.16,405.63l-.51-.48c1.62-1.95,2.67-3.42,2.67-4.56,0-1.02-.78-1.62-2.46-1.98,0-1.41.63-2.1,2.07-2.1,1.56,0,2.94.87,2.94,3s-1.53,3.84-4.71,6.12Z"/>
        <path class="cls-1" d="m602.77,387.51l-.72-2.61c-.21-.72-.42-.81-4.14-.81h-3.18v6.69h1.44c1.98,0,2.07-.06,2.34-.57l.87-1.98h1.47l-.63,6.54h-1.47l-.42-2.01c-.06-.24-.24-.3-2.16-.3h-1.44v5.7l.06.12,2.85.78v1.62h-7.74v-2.16h2.34l.06-.12v-13.95l-.06-.12-2.67-.78v-1.62h14.88v5.58h-1.68Z"/>
        <path class="cls-1" d="m629.11,400.68l-1.17-2.52-2.67-5.16-3.27.21v4.95l.06.12,2.64.78v1.62h-7.53v-2.16h2.34l.06-.12v-13.89l-.06-.18-2.67-.78v-1.62h8.25c5.31,0,6.87,1.92,6.87,5.04,0,3.3-1.44,5.01-4.41,5.82l3.18,5.37.15.12,2.49.78v1.62h-4.26Zm-4.05-16.59h-3.06v7.02l2.82.27c2.94-.36,4.53-1.5,4.53-3.87s-.78-3.42-4.29-3.42Z"/>
        <path class="cls-1" d="m656.62,400.68v-2.16h2.13l.06-.12-1.29-3.9h-6.84l-1.17,3.66.06.12,2.28.78v1.62h-6.75v-2.16h2.07l.03-.12,5.19-15.12v-1.05l3.36-.81,5.58,16.74.12.15,2.4.75v1.62h-7.23Zm-2.22-16.32h-.45l-2.61,8.22h5.55l-2.49-8.22Z"/>
        <path class="cls-1" d="m696,384.09h-2.43l-.06.12v16.83h-3.69l-9-16.44h-.51v13.56l.06.12,2.58.78v1.62h-7.23v-2.16h2.34l.06-.12v-13.95l-.06-.12-2.7-.78v-1.62h6.72l8.73,16.08h.51v-13.56l-.06-.12-2.58-.78v-1.62h7.32v2.16Z"/>
        <path class="cls-1" d="m723.06,400.68l-1.56-.63c-1.2.54-3.15,1.02-5.52,1.02-6.18,0-8.34-2.52-8.34-9.36s2.7-10.17,9-10.17c2.4,0,3.84.45,4.77.84l1.89-.87v5.82h-1.86l-.75-2.67c-1.11-.54-2.31-.84-4.5-.84-4.14,0-5.94,1.59-5.94,7.02,0,6.6,1.2,7.98,6.24,7.98,1.8,0,3.36-.39,4.32-.93l.96-2.97h1.86l-.57,5.76Z"/>
        <path class="cls-1" d="m736.41,400.68v-2.16h2.7l.06-.12v-13.95l-.06-.12-3.03-.78v-1.62h8.28v2.16h-2.7l-.06.12v13.95l.06.12,3.03.78v1.62h-8.28Z"/>
        <path class="cls-1" d="m763.32,401.07c-1.83,0-4.2-.39-5.85-.99l-.48-5.04h1.92l.93,3.18c1.05.3,2.43.6,3.75.6,3.21,0,4.56-.87,4.56-3.06s-1.23-2.76-4.95-3.54c-3.48-.72-6.24-1.56-6.24-5.22,0-3.39,2.19-5.46,6.9-5.46,1.56,0,3.06.33,4.47.75l1.89-.81v5.79h-1.86l-.78-2.76c-.9-.42-2.22-.69-3.72-.69-3.18,0-4.35.93-4.35,2.94s1.47,2.58,5.1,3.3c3.66.72,6.12,1.65,6.12,5.46,0,3.42-2.13,5.55-7.41,5.55Z"/>
        <path class="cls-1" d="m798.93,400.68l-1.56-.63c-1.2.54-3.15,1.02-5.52,1.02-6.18,0-8.34-2.52-8.34-9.36s2.7-10.17,9-10.17c2.4,0,3.84.45,4.77.84l1.89-.87v5.82h-1.86l-.75-2.67c-1.11-.54-2.31-.84-4.5-.84-4.14,0-5.94,1.59-5.94,7.02,0,6.6,1.2,7.98,6.24,7.98,1.8,0,3.36-.39,4.32-.93l.96-2.97h1.86l-.57,5.76Z"/>
        <path class="cls-1" d="m820.51,401.07c-6.03,0-8.16-2.49-8.16-9.27,0-7.14,2.43-10.26,9.03-10.26,6.03,0,8.25,2.49,8.25,9.27,0,7.14-2.52,10.26-9.12,10.26Zm.36-17.25c-4.23,0-5.91,1.53-5.91,7.08,0,6.63,1.14,7.92,6.12,7.92,4.23,0,5.94-1.56,5.94-7.11,0-6.63-1.14-7.89-6.15-7.89Z"/>
        <path class="cls-1" d="m870.52,400.68v-2.16h2.13l.06-.12-1.29-3.9h-6.84l-1.17,3.66.06.12,2.28.78v1.62h-6.75v-2.16h2.07l.03-.12,5.19-15.12v-1.05l3.36-.81,5.58,16.74.12.15,2.4.75v1.62h-7.23Zm-2.22-16.32h-.45l-2.61,8.22h5.55l-2.49-8.22Zm.27-4.23h-1.71l2.94-5.37h3.33l-4.56,5.37Z"/>
        <path class="cls-1" d="m903.65,400.68h-14.01v-2.16h2.34l.06-.12v-13.95l-.06-.12-2.67-.78v-1.62h8.13v2.16h-2.91l-.06.12v14.31h3.03c3.57,0,3.72-.21,3.9-.63l1.14-3.12h1.71l-.6,5.91Z"/>
        <path class="cls-1" d="m931.74,384.09h-2.04l-.06.12-5.67,16.62h-3.03l-5.46-16.38-.12-.15-2.4-.75v-1.62h7.23v2.16h-2.13l-.06.12,4.38,14.34h.45l4.53-14.1-.06-.12-2.31-.78v-1.62h6.75v2.16Z"/>
        <path class="cls-1" d="m951.03,400.68v-2.16h2.13l.06-.12-1.29-3.9h-6.84l-1.17,3.66.06.12,2.28.78v1.62h-6.75v-2.16h2.07l.03-.12,5.19-15.12v-1.05l3.36-.81,5.58,16.74.12.15,2.4.75v1.62h-7.23Zm-2.22-16.32h-.45l-2.61,8.22h5.55l-2.49-8.22Z"/>
        <path class="cls-1" d="m982.1,400.68l-1.17-2.52-2.67-5.16-3.27.21v4.95l.06.12,2.64.78v1.62h-7.53v-2.16h2.34l.06-.12v-13.89l-.06-.18-2.67-.78v-1.62h8.25c5.31,0,6.87,1.92,6.87,5.04,0,3.3-1.44,5.01-4.41,5.82l3.18,5.37.15.12,2.49.78v1.62h-4.26Zm-4.05-16.59h-3.06v7.02l2.82.27c2.94-.36,4.53-1.5,4.53-3.87s-.78-3.42-4.29-3.42Z"/>
        <path class="cls-1" d="m1013.55,400.68h-14.85v-2.16h2.34l.06-.12v-13.95l-.06-.12-2.67-.78v-1.62h15.39v5.58h-1.71l-.75-2.79c-.18-.6-.33-.63-4.14-.63h-3.63v6.27h1.65c1.95,0,2.01-.06,2.31-.6l.81-1.98h1.47l-.66,6.54h-1.47l-.36-2.01c-.03-.21-.12-.27-2.1-.27h-1.65v6.48h3.54c3.51,0,3.96-.09,4.44-1.05l.93-2.28h1.71l-.6,5.49Z"/>
        <path class="cls-1" d="m1040.85,400.68h-14.22v-1.86l11.52-14.55v-.24h-4.47c-3.75,0-3.9.06-4.08.6l-.78,2.88h-1.8v-5.58h14.37v1.89l-11.52,14.52v.24h4.56c3.9,0,3.99-.18,4.17-.63l1.17-3.18h1.71l-.63,5.91Z"/>
      </g>
      <g>
        <path class="cls-1" d="m204.71,175.25v-21.52h12.79l.61-.81-1.22-83.03h-3.05l-32.07,101.3h-31.26l-28.42-101.3h-3.04l-1.42,81.4.41.81,12.99,4.47v18.68h-50.14v-21.52h11.98l.61-.81,1.22-79.98-.41-.81-12.79-5.07v-18.68h69.43l18.68,95.21h3.04l22.74-95.21h66.99v21.52h-11.98l-.61.61,1.22,80.79.41.81,13.2,4.47v18.68h-59.89Z"/>
        <path class="cls-1" d="m349.32,175.25v-21.52h9.95l.61-.81-3.25-16.85h-40.6l-3.25,15.23.41.81,12.38,4.47v18.68h-51.77v-21.52h11.98l1.01-.81,29.84-92.98v-7.92l44.86-6.7,33.7,105.97.61,1.01,13.8,4.26v18.68h-60.29Zm-11.37-105.56h-3.04l-12.38,47.3h27.2l-11.77-47.3Z"/>
        <path class="cls-1" d="m560.56,69.89h-11.98l-.61.81v106.37h-39.38l-48.92-97.85h-3.04v71.46l.41.81,16.85,5.07v18.68h-55.01v-21.52h11.98l.61-.81v-79.98l-.41-.81-12.99-5.07v-18.68h55.62l45.88,93.38h3.04v-68.82l-.41-.81-16.85-5.07v-18.68h55.22v21.52Z"/>
        <path class="cls-1" d="m627.06,178.5c-17.66,0-38.16-3.25-50.55-7.31l-2.84-36.54h24.56l4.67,18.68c5.89,1.22,15.02,2.84,24.36,2.84,16.65,0,22.94-5.08,22.94-16.04,0-11.57-7.51-13.8-29.03-17.05-32.68-4.47-49.13-11.57-49.13-35.73,0-30.45,24.77-41.82,54.2-41.82,11.77,0,22.53,1.83,37.35,5.28l14.62-5.89v43.24h-23.55l-4.06-16.24c-5.48-2.84-14.62-4.47-22.74-4.47-16.04,0-23.75,4.87-23.75,13.8,0,10.15,3.65,12.59,27,16.04,36.34,4.67,51.36,12.38,51.36,37.56,0,28.62-19.69,43.65-55.42,43.65Z"/>
        <path class="cls-1" d="m694.7,175.25v-21.52h12.99l.61-.81v-79.98l-.41-.81-14.01-5.07v-18.68h61.71v21.52h-13.8l-.61.81v80.59l.41.81,14.21,4.47v18.68h-61.1Z"/>
        <path class="cls-1" d="m827.52,178.5c-46.69,0-61.31-22.74-61.31-63.54,0-56.03,28.62-69.43,67.8-69.43,46.69,0,61.31,22.74,61.31,63.54,0,56.03-28.62,69.43-67.8,69.43Zm3.04-111.04c-23.14,0-30.25,12.18-30.25,41.01,0,40.4,5.08,47.91,30.65,47.91,23.14,0,30.25-12.18,30.25-41.01,0-40.19-4.67-47.91-30.65-47.91Zm11.37-31.87h-24.16L838.49-.34h37.96l-34.51,35.93Z"/>
        <path class="cls-1" d="m1048.73,69.89h-11.98l-.61.81v106.37h-39.38l-48.92-97.85h-3.04v71.46l.41.81,16.85,5.07v18.68h-55.01v-21.52h11.98l.61-.81v-79.98l-.41-.81-12.99-5.07v-18.68h55.62l45.88,93.38h3.04v-68.82l-.41-.81-16.85-5.07v-18.68h55.22v21.52Z"/>
        <path class="cls-1" d="m138.76,325.25h-58.6v-21.2h11.8l.6-.8v-78.8l-.4-.8-12.8-5v-18.4l59.8-1c51-.6,65,21.6,65,61.4,0,45.6-17.6,64.6-65.4,64.6Zm-3.8-103.8h-10v79.4l15.4,3.2c21,0,30-9.2,30-37.8,0-39.8-8.8-44.8-35.4-44.8Z"/>
        <path class="cls-1" d="m332.7,325.25h-117v-21.2h11.8l.6-.8v-78.8l-.4-.8-12.8-5v-18.4h119.4v46.6h-23.2l-2.6-14.2c-2.2-10.2-4.6-11.2-42.2-11.2h-5.8v33h8.4c6.8,0,8.2-.8,9.8-6l2.2-8.6h18.4l-4.8,45.2h-15.4l-2.2-9c-1.6-4.4-3-5.2-8-5.2h-8.4v33.2h5.8c36.4,0,38-.8,41.6-12.2l4.2-13h24.4l-3.8,46.4Z"/>
        <path class="cls-1" d="m455.55,325.25h-105v-21.2h11.8l.6-.8v-78.8l-.4-.8-12.8-5v-18.4h63.8v21.2h-17.6l-.6.8v81.8h4.6c24.6,0,27.6-2.2,30.8-11.2l4.2-15h24.4l-3.8,47.4Z"/>
        <path class="cls-1" d="m635.15,325.25h-105v-21.2h11.8l.6-.8v-78.8l-.4-.8-12.8-5v-18.4h63.8v21.2h-17.6l-.6.8v81.8h4.6c24.6,0,27.6-2.2,30.8-11.2l4.2-15h24.4l-3.8,47.4Z"/>
        <path class="cls-1" d="m720.39,325.25v-21.2h9.8l.6-.8-3.2-16.6h-40l-3.2,15,.4.8,12.2,4.4v18.4h-51v-21.2h11.8l1-.8,29.4-91.6v-7.8l44.2-6.6,33.2,104.4.6,1,13.6,4.2v18.4h-59.4Zm-11.2-104h-3l-12.2,46.6h26.8l-11.6-46.6Z"/>
        <path class="cls-1" d="m908.78,281.45h-12.8l-.6.8v15l12.2,3.8v16.6c-18.2,6-37.8,10.8-61.6,10.8-46.2,0-61.4-21.8-61.4-62.6,0-54.6,27.4-68.4,65.6-68.4,12.6,0,18,1.8,24.4,3.8l21.8-5.8v47h-21.6l-5.8-18.8c-7-3-12.6-4.6-22.2-4.6-20.4,0-28.6,13-28.6,40.4,0,39.2,5.8,47,31.2,47,6.6,0,12.2-1,16.6-2.6v-20.4l-.4-.8-17-4v-18.4h60.2v21.2Z"/>
        <path class="cls-1" d="m983.24,328.45c-46,0-60.4-22.4-60.4-62.6,0-55.2,28.2-68.4,66.8-68.4,46,0,60.4,22.4,60.4,62.6,0,55.2-28.2,68.4-66.8,68.4Zm3-109.4c-22.8,0-29.8,12-29.8,40.4,0,39.8,5,47.2,30.2,47.2,22.8,0,29.8-12,29.8-40.4,0-39.6-4.6-47.2-30.2-47.2Z"/>
      </g>
    </g>
  </g>
</svg>
