<?xml version="1.0" encoding="UTF-8"?>
<svg id="individuales" xmlns="http://www.w3.org/2000/svg" viewBox="0 0 582 38.5">
  <defs>
    <style>
      .cls-1 {
        fill: #f2f2f3;
      }
    </style>
  </defs>
  <path class="cls-1" d="m0,5.09c.04-.92.24-1.52,1.4-1.52h1.44l15.8,20.04h.32c0-1.92-.16-17.64-.16-18.88,0-.44,0-1.16,1.04-1.16h1.16c1.12,0,1.16,1.04,1.16,1.88,0,2.2-.08,21.84,0,23.2.04.88.44,2.12-1.04,2.12h-1.16c-1,0-1.04-1.04-1.16-1.72-.2-1.24-13.2-17.04-15.28-19.88h-.4c0,2.68.2,18.96.24,19.48,0,.88.4,2.12-1.08,2.12h-1.12C.04,30.77,0,29.69.04,28.85.08,26.77,0,5.73,0,5.09Z"/>
  <path class="cls-1" d="m38.4,8.37c6.48,0,9.88,4.96,9.8,11.24-.08,6.6-3.32,11.6-9.76,11.6s-9.84-4.92-9.76-11.56c.12-6.24,3.24-11.28,9.72-11.28Zm6.6,11.28c0-4.68-1.84-8.64-6.56-8.64-5.08,0-6.52,4-6.52,8.64s1.44,8.92,6.48,8.92,6.6-4.2,6.6-8.92Z"/>
  <path class="cls-1" d="m54.2,24.77c-.04-4.76.04-13.68.04-14.64,0-.88-.36-1.76,1.32-1.76s1.92,1,1.92,2.04c0,.48-.08,1.28-.08,2.08h.24c.28-.68,1.88-4.12,6.6-4.12,3.72,0,5.64,1.72,6.6,4.12h.2c.32-.68,2.44-4.12,6.92-4.12,5.44,0,7.52,3.64,7.52,8.6,0,3.2-.2,6.68-.16,12.24-.04.92.44,1.96-1.36,1.96s-1.88-.84-1.88-1.76c0-3.88.08-7.88.08-12.48,0-3.36-1.52-5.92-4.68-5.92s-5.16,2.16-6.04,3.88c.04.44.12,1.2.12,2.12,0,3.24-.16,6.8-.16,12.32,0,1.08-.2,1.44-1.08,1.44h-1.08c-1.08,0-1.16-.64-1.16-1.4,0-3.28.24-8.92.24-12.44s-1.32-5.92-4.52-5.92c-4,0-5.68,3.24-6.4,5.16-.04,3-.12,7.08-.12,9.24,0,1.48,0,2.88.04,3.32.08,1.4-.08,2.04-1.08,2.04h-1.04c-1.08,0-1.16-.92-1.12-1.88.04-.76.12-2.52.12-4.12Z"/>
  <path class="cls-1" d="m92.44,4.13c-.08-1.16-.08-1.76,1.44-1.76s1.88.72,1.8,1.76c0,.44-.08,3.12-.12,7.36h.36c.92-1.28,2.96-3.12,6.56-3.12,5.48,0,8.36,4.24,8.36,11.04s-4.36,11.76-10.52,11.76-7.84-3.32-7.84-7.2c0-3.52,0-19.2-.04-19.84Zm7.84,24.44c4.48,0,7.28-3.44,7.28-9.16s-2.2-8.4-5.76-8.4c-3.76,0-5.72,3.08-6.24,4.64,0,2.76,0,7.28.04,8.92.12,2.12,1.4,4,4.68,4Z"/>
  <path class="cls-1" d="m116.64,25.53c0-3.4.04-9.04.04-12.4,0-1.04,0-2.12-.04-2.56-.04-1.32-.16-2.2,1.4-2.2,1.64,0,1.76.84,1.64,4.08h.32c.8-2.32,2.92-4.08,5.52-4.08,3.48,0,4.88,2.28,4.88,4.96,0,1.68-.52,2.2-2.04,2.2-1.32,0-1.08-.48-1.08-1.72,0-1.48-.76-2.8-2.72-2.8-2.68,0-4.52,3.88-4.76,6.24-.08,3.2-.12,7.88-.04,11.48.04,1,.4,2.04-1.04,2.04h-1c-1.04,0-1.2-.84-1.16-1.88,0-.48.08-2.08.08-3.36Z"/>
  <path class="cls-1" d="m143.16,8.37c5.4,0,8.4,3.96,8.4,7.96,0,3.48-.72,3.72-1.88,3.72h-13.12l-.08.12c0,4.4,2.12,8.4,7.12,8.4,3.48,0,5.92-2,6.12-2.16,0,0,.52.2.84.88s.2,1.4-.4,1.88c-.64.56-3.16,2-6.56,2-7.24,0-10.24-4.92-10.24-11.52s3.68-11.28,9.8-11.28Zm5.2,9.36s.08-.72.08-1.4c0-2.92-1.76-5.32-5.32-5.32-4.76,0-6.36,4.32-6.48,6.72h11.72Z"/>
  <path class="cls-1" d="m171.24,33.77c.92.48,1.92.8,3.16.8,2.12,0,3.32-1.52,4.48-5.56h-.8c-.92,0-1.32-.28-1.64-1.16-.72-2.08-6.92-16-7.52-17.44-.28-.76-.48-1.64.68-1.64h.88c1.2,0,1.28.44,1.56,1.2.52,1.32,5.88,13.8,7.2,17.24h.24c1.2-3.92,4.28-14.24,5.12-17.16.24-.8.32-1.28,1.48-1.28h1.12c1.08,0,1,.68.72,1.6-.76,2.6-4.6,14.4-6,18.88-1.56,4.96-3.16,7.92-7.44,7.92-1.68,0-3.12-.36-4-.84-.8-.4-.72-.64-.6-1.24l.24-.92c.16-.68.64-.64,1.12-.4Z"/>
  <path class="cls-1" d="m212.88,17.73c3,0,5.8.88,6.36,1.16v-2.44c0-3.64-2.08-5.24-5.36-5.24-3.8,0-6.44,1.8-6.44,1.8-.12-.08-1.64-1.72-.24-2.92,1.08-.92,3.56-1.72,7-1.72,5.36,0,8.2,3.16,8.12,8.08-.04,3.52-.12,10.48.04,12.72.08,1.2.44,2-1.6,2-1.64,0-1.68-1.72-1.44-3.48h-.2s-2.88,3.48-7.24,3.48c-4.8,0-6.96-3.2-6.88-6.76.08-4.04,3.04-6.6,7.88-6.68Zm-.2,10.84c3.12,0,5.72-2.04,6.52-3.8v-3.68c-.56-.24-2.84-.92-5.64-.92-3.12,0-5.32,1.48-5.36,4.16,0,2.56,1.64,4.24,4.48,4.24Z"/>
  <path class="cls-1" d="m229.48,10.49c-.04-.68-.36-1.68.32-1.96.28-.08.84-.16,1.24-.16,1.52,0,1.64,1.68,1.44,3.76h.24s1.88-3.76,6.76-3.76c5.12,0,8.56,4.72,8.56,11.84,0,6.68-3.88,10.96-8.44,10.96s-6.4-3.16-6.8-4.16h-.28c.04,3,0,7.4.04,8.32.08,1.32-.4,1.44-1.2,1.44h-.88c-.88,0-1.24-.36-1.2-1.4.08-.76.36-18.4.2-24.88Zm9.56,18.04c3.04,0,5.76-2.68,5.76-8.24s-2.4-9.28-6.2-9.28c-3.28,0-6.08,2.96-6.08,6.96v4.88c.36,1.16,2.32,5.68,6.52,5.68Z"/>
  <path class="cls-1" d="m262.56,8.37c5.4,0,8.4,3.96,8.4,7.96,0,3.48-.72,3.72-1.88,3.72h-13.12l-.08.12c0,4.4,2.12,8.4,7.12,8.4,3.48,0,5.92-2,6.12-2.16,0,0,.52.2.84.88s.2,1.4-.4,1.88c-.64.56-3.16,2-6.56,2-7.24,0-10.24-4.92-10.24-11.52s3.68-11.28,9.8-11.28Zm5.2,9.36s.08-.72.08-1.4c0-2.92-1.76-5.32-5.32-5.32-4.76,0-6.36,4.32-6.48,6.72h11.72Z"/>
  <path class="cls-1" d="m277.48,4.13c-.08-1.32,0-1.76,1.36-1.76,1.88,0,1.92.92,1.84,1.92-.08,2.08-.4,17.08-.36,22.92.04,1.44.68,1.4,2.32,1.2.56-.08.8.12.84.48l.08.92c0,.48-.04.64-.48.84-.56.24-1.76.52-2.64.52-2.04,0-3.16-1.12-3.16-3.76-.04-2.96.28-21.88.2-23.28Z"/>
  <path class="cls-1" d="m289.8,4.13c-.08-1.32,0-1.76,1.36-1.76,1.88,0,1.92.92,1.84,1.92-.08,2.08-.4,17.08-.36,22.92.04,1.44.68,1.4,2.32,1.2.56-.08.8.12.84.48l.08.92c0,.48-.04.64-.48.84-.56.24-1.76.52-2.64.52-2.04,0-3.16-1.12-3.16-3.76-.04-2.96.28-21.88.2-23.28Z"/>
  <path class="cls-1" d="m302.2,3.49c-.04-1.88.8-2.16,1.92-2.16s2.04.24,2.08,2.16c.04,1.88-.84,2.08-1.92,2.08-1.24,0-2.04-.2-2.08-2.08Zm.28,21.28c.08-4.68.04-11.68.04-14.24,0-.88-.24-1.76,1.36-1.76s1.92.28,1.84,1.44c-.2,5.24-.12,11.92-.12,15.2,0,1.48,0,2.84.04,3.32.08,1.28-.08,2.04-1.08,2.04h-.96c-1.2,0-1.24-.92-1.2-1.92.04-.76.08-2.48.08-4.08Z"/>
  <path class="cls-1" d="m312.2,19.33c.04-6.72,3.88-10.96,8.48-10.96s6.4,3.24,6.84,4.24h.28c-.08-3-.04-7.8-.12-8.52-.08-1.16.04-1.72,1.32-1.72,1.6,0,2,.72,1.96,1.72-.08.92-.28,18.48-.12,24.96,0,.68.32,1.68-.4,1.96-.24.12-.76.16-1.2.16-1.72,0-1.56-1.84-1.44-3.72h-.2s-1.84,3.72-6.8,3.72-8.64-4.76-8.6-11.84Zm15.6,2.52v-5.16c-.36-1.08-2.28-5.68-6.56-5.68-3,0-5.84,2.64-5.84,8.28s2.44,9.28,6.24,9.28c3.4,0,6.16-3,6.16-6.72Z"/>
  <path class="cls-1" d="m346.55,8.37c6.48,0,9.88,4.96,9.8,11.24-.08,6.6-3.32,11.6-9.76,11.6s-9.84-4.92-9.76-11.56c.12-6.24,3.24-11.28,9.72-11.28Zm6.6,11.28c0-4.68-1.84-8.64-6.56-8.64-5.08,0-6.52,4-6.52,8.64s1.44,8.92,6.48,8.92,6.6-4.2,6.6-8.92Z"/>
  <path class="cls-1" d="m370.72,16.09c-2.28-1.12.4-3.28,1.64-5.08l-.16-.2c-1.04.04-5.4,2-5.4-1.12,0-3.28,4.32-1.44,5.2-1.4l.16-.24c-1.16-1.4-4.16-3.64-2.2-4.84l.72-.4c1.88-1.12,2.6,2.4,3.44,4h.32c.84-2.2,1.2-5.16,3.24-3.92l.48.32c1.92,1.16-.4,3.2-1.52,4.8l.24.28c1.24-.12,5.36-2.4,5.36,1.2,0,2.52-1.92,1.48-5.24,1.24l-.08.32c1.48,1.68,4.4,3.16,2.2,4.8l-.44.32c-1.84,1.32-2.84-1.72-3.76-3.92h-.48c-.4,1.96-.48,5.48-3.32,4.08l-.4-.24Z"/>
</svg>