<?xml version="1.0" encoding="UTF-8"?>
<svg id="hoja_2" data-name="hoja 2" xmlns="http://www.w3.org/2000/svg" viewBox="0 0 20 20.5">
  <defs>
    <style>
      .cls-1 {
        fill: #f2f2f3;
      }
    </style>
  </defs>
  <g id="text-2" data-name="text">
    <path class="cls-1" d="m6.68,12.89h-3.52c-2.4,0-2.56-.16-2.6-2.04l-.04-1.64c-.04-1.92.88-1.84,3-1.76.92.04,2.04.08,3.16.08V3.17c0-2.28.28-2.84,2.2-2.84h1.72c1.8,0,2.48.8,2.36,2.88-.08.8-.12,2.44-.12,4.28,1.68,0,3.08-.04,3.68-.08,2.32-.08,2.88.16,2.92,2.04l.04,1.68c.04,1.68-.88,1.8-2.96,1.72-.76-.04-2.2-.04-3.68-.04,0,1.84,0,3.56.04,4.72.04,2.28-.4,2.6-2.36,2.6h-1.72c-1.96,0-2.28-.88-2.16-2.96.04-1.12.04-2.64.04-4.28Z"/>
  </g>
</svg>