<?xml version="1.0" encoding="UTF-8"?>
<svg id="hoja_4" data-name="hoja 4" xmlns="http://www.w3.org/2000/svg" viewBox="0 0 1125 309.5">
  <defs>
    <style>
      .cls-1 {
        fill: #181818;
      }
    </style>
  </defs>
  <g id="text-3" data-name="text">
    <g>
      <path class="cls-1" d="m197.79,77.38l3.71-.26c1.89-.19,2.6-.52,2.6-.97v-15.67l-10.4-17.74c-1.5-2.67-2.41-3.64-4.75-3.84l-2.21-.2-.2-.97h16.64l-.19.97-2.47.13c-2.73.13-2.79,1.17-.97,4.29l8.78,15.34h.2l7.02-12.74c2.79-5.2,2.67-6.37-1.23-6.89l-2.08-.13-.2-.97h13.97l-.19.97-1.82.13c-2.73.32-3.77.97-6.83,6.63l-8,14.17v16.71c0,.46.39.59,3.12.85l3.19.2.19.97h-18.07l.19-.97Z"/>
      <path class="cls-1" d="m237.13,74.45l-.13-.06c-2.41,2.47-5.13,4.68-8.26,4.68-3.9,0-6.96-2.86-6.96-6.5,0-4.62,3.71-7.67,15.73-10.6l.07-2.21c.2-6.56-2.73-8.45-6.43-8.45-2.6,0-5.4,1.49-5.4,2.21,0,.46,1.5,1.5,1.5,3.12,0,1.37-1.11,2.6-2.86,2.6-1.62,0-2.86-.97-2.86-2.54,0-3.19,7.21-7.21,12.29-7.21,5.85,0,8.65,2.28,8.26,10.27l-.65,13.85c-.06,1.95.65,2.67,1.95,2.67.98,0,2.01-.85,3.06-1.82l.52.58c-1.37,1.69-3.31,4.1-5.72,4.1-2.27,0-3.96-1.62-4.09-4.68Zm0-1.23l.33-10.21c-9.04,2.21-11.12,4.88-11.12,8.32,0,2.99,2.01,4.81,4.62,4.81,2.34,0,4.22-1.11,6.17-2.92Z"/>
      <path class="cls-1" d="m263.52,72.44l.33-19.37-5.07-.13.19-1.11,8.71-7.28.78.19-.07,5.72h9.62l-.78,2.47h-8.84s-.45,18.79-.45,18.85c-.07,3.12,1.62,4.55,4.42,4.55,2.27,0,3.97-1.11,5.53-2.28l.39.65c-2.4,2.34-5.13,4.55-8.32,4.55-3.64,0-6.5-1.76-6.44-6.83Z"/>
      <path class="cls-1" d="m278.87,65.09c0-8.64,5.85-15.6,14.04-15.6,6.44,0,10.14,3.96,10.14,8.97,0,.58-.06,1.1-.13,1.69l-18.98-.13c-.13.78-.26,2.21-.26,3.12,0,7.54,4.42,12.68,10.27,12.68,3.71,0,6.43-1.3,8.84-4.94l.71.39c-2.73,4.94-6.5,7.93-11.63,7.93-7.41,0-13-6.11-13-14.11Zm19.24-6.11c.06-4.55-1.89-8.38-5.85-8.38-3.58,0-7.08,3.71-8.19,8.45l14.04-.06Z"/>
      <path class="cls-1" d="m304.81,77.38l1.69-.07c1.69-.13,2.34-.26,2.34-.97v-19.04c0-3.51-.46-4.16-2.34-4.49l-2.08-.32.06-.65,8.84-2.21-.13,5.4.19.06c2.79-2.34,6.5-5.53,10.86-5.53,2.01,0,3.83.59,5.07,1.88,1.5,1.5,2.15,3.71,2.15,6.57v18.39c0,.46.13.65,2.73.91l1.62.07.2.97h-13.13l.2-.97,1.69-.07c1.95-.13,2.27-.46,2.27-.97v-16.9c0-4.62-2.08-6.5-5.92-6.5-3.05,0-5.79,1.56-7.87,3.38v20.15c0,.52.39.65,2.73.84l1.69.07.2.97h-13.26l.2-.97Z"/>
      <path class="cls-1" d="m336.1,65.09c0-8.64,5.85-15.6,14.04-15.6,6.44,0,10.14,3.96,10.14,8.97,0,.58-.07,1.1-.13,1.69l-18.98-.13c-.13.78-.26,2.21-.26,3.12,0,7.54,4.42,12.68,10.27,12.68,3.71,0,6.43-1.3,8.84-4.94l.71.39c-2.73,4.94-6.5,7.93-11.64,7.93-7.41,0-13-6.11-13-14.11Zm19.24-6.11c.07-4.55-1.89-8.38-5.85-8.38-3.57,0-7.08,3.71-8.19,8.45l14.04-.06Z"/>
      <path class="cls-1" d="m362.04,77.38l1.69-.07c1.69-.13,2.34-.26,2.34-.97v-18.98c0-3.58-.46-4.22-2.41-4.55l-2.01-.32.07-.65,8.84-2.21-.2,5.27.2.07c2.47-2.34,5.79-5.46,9.95-5.46,2.14,0,3.9.78,5.13,1.95.78.85,1.5,2.15,1.76,3.64l.06.06c2.6-2.6,6.04-5.65,10.21-5.65,2.21,0,3.84.65,5.2,2.02,1.37,1.43,2.08,3.83,2.08,6.56v18.33c0,.46.06.65,2.73.91l1.5.07.2.97h-13.07l.19-.97,1.69-.07c1.89-.13,2.28-.46,2.28-.97v-16.96c0-4.55-1.89-6.44-5.66-6.44-2.79,0-5.85,1.56-7.02,3.31,0,.13-.07,1.69-.07,1.76v18.39c0,.46.07.65,2.73.91l1.62.07.2.97h-13.13l.2-.97,1.69-.07c1.89-.13,2.21-.46,2.21-.97v-16.96c0-4.55-1.88-6.44-5.53-6.44-2.86,0-5.33,1.49-7.21,3.12v20.41c0,.52.39.65,2.73.84l1.75.07.13.97h-13.26l.2-.97Z"/>
      <path class="cls-1" d="m409.58,64.51c0-8.38,6.37-15.02,14.69-15.02s14.37,6.3,14.37,14.56-6.31,15.21-14.56,15.21-14.5-6.37-14.5-14.76Zm23.86.52c0-4.94-1.1-9.43-3.57-11.89-1.43-1.43-3.32-2.54-5.85-2.54-5.59,0-9.23,5.98-9.23,12.94,0,5.13,1.17,9.69,3.71,12.22,1.37,1.43,3.32,2.4,5.79,2.4,5.4,0,9.17-5.98,9.17-13.13Z"/>
      <path class="cls-1" d="m441.74,77.77l-.59-7.87h1.11l1.37,3.77c1.62,2.86,4.09,4.48,6.89,4.48,3.77,0,6.5-2.34,6.5-5.66,0-3.57-2.93-5.2-7.22-6.63-3.9-1.37-7.93-3.25-7.93-8.26,0-4.62,3.97-8.12,9.43-8.12,2.28,0,4.16.46,5.85,1.11l2.08-.65.39,7.8h-1.11l-2.66-5.46c-1.11-.85-2.73-1.69-4.75-1.69-3.51,0-5.59,1.95-5.59,4.88,0,3.45,2.79,4.62,6.83,6.04,4.36,1.56,8.52,3.31,8.52,8.78,0,4.74-4.03,8.97-10.79,8.97-3.19,0-5.92-.59-8.32-1.5Z"/>
      <path class="cls-1" d="m479.7,72.44l.32-19.37-5.07-.13.2-1.11,8.71-7.28.78.19-.06,5.72h9.62l-.78,2.47h-8.84s-.46,18.79-.46,18.85c-.07,3.12,1.62,4.55,4.42,4.55,2.28,0,3.96-1.11,5.53-2.28l.39.65c-2.41,2.34-5.13,4.55-8.32,4.55-3.64,0-6.5-1.76-6.43-6.83Z"/>
      <path class="cls-1" d="m494.83,64.51c0-8.38,6.37-15.02,14.69-15.02s14.37,6.3,14.37,14.56-6.3,15.21-14.56,15.21-14.5-6.37-14.5-14.76Zm23.86.52c0-4.94-1.1-9.43-3.58-11.89-1.43-1.43-3.31-2.54-5.85-2.54-5.59,0-9.23,5.98-9.23,12.94,0,5.13,1.17,9.69,3.71,12.22,1.37,1.43,3.31,2.4,5.79,2.4,5.39,0,9.17-5.98,9.17-13.13Z"/>
      <path class="cls-1" d="m548.16,74l-.2-.06c-2.47,2.86-5.72,5.26-9.88,5.26-6.57,0-11.7-5.72-11.7-13.91,0-9.55,7.15-15.47,14.69-15.47,2.79,0,4.94.59,6.96,1.56h.13v-11.38c0-1.95-.33-2.6-2.01-2.79l-3.12-.52.13-.71,9.42-1.88v40.63c0,1.23.26,1.69,1.3,1.82l3.25.52-.07.71-8.91,1.62v-5.39Zm0-1.56v-16.19c-1.62-2.86-4.68-5.2-8.06-5.2-5.4,0-8.71,5.39-8.71,12.67s3.64,12.42,9.23,12.42c3.38,0,5.59-1.69,7.54-3.71Z"/>
      <path class="cls-1" d="m557.04,64.51c0-8.38,6.37-15.02,14.69-15.02s14.37,6.3,14.37,14.56-6.31,15.21-14.56,15.21-14.5-6.37-14.5-14.76Zm23.86.52c0-4.94-1.11-9.43-3.58-11.89-1.43-1.43-3.32-2.54-5.85-2.54-5.59,0-9.23,5.98-9.23,12.94,0,5.13,1.17,9.69,3.71,12.22,1.36,1.43,3.31,2.4,5.79,2.4,5.39,0,9.17-5.98,9.17-13.13Z"/>
      <path class="cls-1" d="m587.54,86.09c2.54-1.43,5.14-3.96,5.14-7.28s-3.25-4.49-4.68-3.58c-.65-1.75.52-4.03,3.32-4.03s4.94,2.02,4.94,5.27c0,4.09-3.96,8.19-8.12,10.14l-.58-.52Z"/>
      <path class="cls-1" d="m609.77,93.69l1.76-.06c1.62-.13,2.34-.26,2.34-.91v-35.49c0-3.45-.46-4.09-2.34-4.42l-2.08-.32.06-.65,8.84-2.21-.07,5.46.2.13c2.54-2.93,5.79-5.4,9.95-5.4,6.63,0,11.63,5.66,11.63,13.72,0,9.49-7.02,15.73-14.37,15.73-2.86,0-5.46-.78-7.28-1.62h-.13v15.21c0,.46.33.65,2.67.78l2.79.06.2.97h-14.37l.19-.97Zm25.29-28.6c0-6.89-3.58-12.15-9.1-12.15-3.25,0-5.79,1.75-7.67,3.83v16.19c1.69,2.67,4.68,5.01,8.12,5.01,5.33,0,8.65-5.46,8.65-12.87Z"/>
      <path class="cls-1" d="m642.55,65.09c0-8.64,5.85-15.6,14.04-15.6,6.44,0,10.14,3.96,10.14,8.97,0,.58-.07,1.1-.13,1.69l-18.98-.13c-.13.78-.26,2.21-.26,3.12,0,7.54,4.42,12.68,10.27,12.68,3.71,0,6.44-1.3,8.84-4.94l.71.39c-2.73,4.94-6.5,7.93-11.64,7.93-7.41,0-13-6.11-13-14.11Zm19.24-6.11c.07-4.55-1.88-8.38-5.85-8.38-3.58,0-7.08,3.71-8.19,8.45l14.04-.06Z"/>
      <path class="cls-1" d="m668.46,77.38l1.69-.07c1.69-.13,2.34-.26,2.34-.97v-19.04c0-3.51-.46-4.16-2.34-4.49l-2.01-.32.07-.65,8.78-2.21-.13,10.14h.13c2.4-6.7,5.07-10.27,8.77-10.27,2.28,0,3.71,1.56,3.71,3.25s-1.11,3.19-2.99,3.19c-1.56,0-3.06-1.11-3.32-3.32-2.6.78-4.49,3.84-6.24,9.36v14.5c0,.52.26.71,2.54.84l2.67.07.2.97h-14.04l.2-.97Z"/>
      <path class="cls-1" d="m689.56,64.51c0-8.38,6.37-15.02,14.69-15.02s14.37,6.3,14.37,14.56-6.31,15.21-14.56,15.21-14.5-6.37-14.5-14.76Zm23.86.52c0-4.94-1.11-9.43-3.58-11.89-1.43-1.43-3.32-2.54-5.85-2.54-5.59,0-9.23,5.98-9.23,12.94,0,5.13,1.17,9.69,3.71,12.22,1.36,1.43,3.31,2.4,5.79,2.4,5.39,0,9.17-5.98,9.17-13.13Z"/>
      <path class="cls-1" d="m734.41,77.77l-.58-7.87h1.1l1.37,3.77c1.62,2.86,4.1,4.48,6.89,4.48,3.77,0,6.5-2.34,6.5-5.66,0-3.57-2.92-5.2-7.21-6.63-3.9-1.37-7.93-3.25-7.93-8.26,0-4.62,3.96-8.12,9.43-8.12,2.27,0,4.16.46,5.85,1.11l2.08-.65.39,7.8h-1.11l-2.67-5.46c-1.11-.85-2.73-1.69-4.75-1.69-3.51,0-5.59,1.95-5.59,4.88,0,3.45,2.79,4.62,6.83,6.04,4.35,1.56,8.51,3.31,8.51,8.78,0,4.74-4.03,8.97-10.79,8.97-3.19,0-5.92-.59-8.32-1.5Z"/>
      <path class="cls-1" d="m755.25,77.38l1.82-.07c1.62-.13,2.28-.26,2.28-.97v-19.04c0-3.51-.46-4.16-2.41-4.49l-2.02-.32.13-.65,8.77-2.21v26.85c0,.52.33.65,2.67.84l1.62.07.19.97h-13.26l.19-.97Zm2.47-36.92c0-1.5,1.04-3.38,3.25-3.38s3.18,1.88,3.18,3.32-1.04,3.31-3.18,3.31-3.25-1.88-3.25-3.25Z"/>
      <path class="cls-1" d="m798.67,93.69l2.73-.06c2.34-.13,2.67-.33,2.67-.85v-18.79l-.2-.06c-2.47,2.86-5.72,5.26-9.88,5.26-6.57,0-11.7-5.72-11.7-13.91,0-9.55,7.15-15.47,14.69-15.47,3.05,0,5.98.91,8.06,2.15h.13l2.86-2.73h.46v43.49c0,.65.65.71,2.41.91l1.75.06.2.97h-14.37l.19-.97Zm5.4-21.26v-16.05c-1.62-2.93-4.68-5.33-8.06-5.33-5.4,0-8.71,5.33-8.71,12.54s3.64,12.54,9.23,12.54c3.38,0,5.59-1.69,7.54-3.71Z"/>
      <path class="cls-1" d="m833.93,73.8h-.13c-2.79,2.4-6.43,5.46-10.73,5.46-2.14,0-3.83-.65-5.26-1.95-1.43-1.56-2.02-3.77-2.02-6.56v-18.4c0-.58-.06-.65-2.79-.84l-1.56-.2-.2-.91h9.1l-.13,18.92c0,4.68,2.14,6.56,5.98,6.56,3.12,0,5.66-1.56,7.61-3.31v-18.59c0-1.95-.46-2.34-2.73-2.47l-1.69-.2-.2-.91h9.17v24.05c0,1.17.19,1.62,1.3,1.75l3.18.52-.06.71-8.91,1.95.06-5.59Z"/>
      <path class="cls-1" d="m842.93,65.09c0-8.64,5.85-15.6,14.04-15.6,6.44,0,10.14,3.96,10.14,8.97,0,.58-.07,1.1-.13,1.69l-18.98-.13c-.13.78-.26,2.21-.26,3.12,0,7.54,4.42,12.68,10.27,12.68,3.71,0,6.44-1.3,8.84-4.94l.72.39c-2.73,4.94-6.5,7.93-11.64,7.93-7.41,0-13-6.11-13-14.11Zm19.24-6.11c.07-4.55-1.88-8.38-5.85-8.38-3.58,0-7.08,3.71-8.19,8.45l14.04-.06Z"/>
      <path class="cls-1" d="m868.83,77.38l1.69-.07c1.69-.13,2.34-.26,2.34-.97v-19.04c0-3.51-.46-4.16-2.34-4.49l-2.01-.32.07-.65,8.78-2.21-.13,10.14h.13c2.4-6.7,5.07-10.27,8.77-10.27,2.28,0,3.71,1.56,3.71,3.25s-1.11,3.19-2.99,3.19c-1.56,0-3.06-1.11-3.32-3.32-2.6.78-4.49,3.84-6.24,9.36v14.5c0,.52.26.71,2.54.84l2.67.07.2.97h-14.04l.2-.97Z"/>
      <path class="cls-1" d="m889.94,65.09c0-8.64,5.85-15.6,14.04-15.6,6.44,0,10.14,3.96,10.14,8.97,0,.58-.07,1.1-.13,1.69l-18.98-.13c-.13.78-.26,2.21-.26,3.12,0,7.54,4.42,12.68,10.27,12.68,3.71,0,6.44-1.3,8.84-4.94l.72.39c-2.73,4.94-6.5,7.93-11.64,7.93-7.41,0-13-6.11-13-14.11Zm19.24-6.11c.07-4.55-1.88-8.38-5.85-8.38-3.58,0-7.08,3.71-8.19,8.45l14.04-.06Zm-2.01-24.96h5.39l-11.57,12.03h-.65l6.83-12.03Z"/>
      <path class="cls-1" d="m917.76,77.77l-.58-7.87h1.1l1.37,3.77c1.62,2.86,4.1,4.48,6.89,4.48,3.77,0,6.5-2.34,6.5-5.66,0-3.57-2.92-5.2-7.21-6.63-3.9-1.37-7.93-3.25-7.93-8.26,0-4.62,3.96-8.12,9.43-8.12,2.27,0,4.16.46,5.85,1.11l2.08-.65.39,7.8h-1.11l-2.67-5.46c-1.11-.85-2.73-1.69-4.75-1.69-3.51,0-5.59,1.95-5.59,4.88,0,3.45,2.79,4.62,6.83,6.04,4.35,1.56,8.51,3.31,8.51,8.78,0,4.74-4.03,8.97-10.79,8.97-3.19,0-5.92-.59-8.32-1.5Z"/>
      <path class="cls-1" d="m231.01,139l-.2-.06c-2.47,2.86-5.72,5.26-9.88,5.26-6.57,0-11.7-5.72-11.7-13.91,0-9.55,7.15-15.47,14.69-15.47,2.79,0,4.94.59,6.96,1.56h.13v-11.38c0-1.95-.33-2.6-2.01-2.79l-3.12-.52.13-.71,9.42-1.88v40.63c0,1.23.26,1.69,1.3,1.82l3.25.52-.06.71-8.91,1.62v-5.39Zm0-1.56v-16.19c-1.62-2.86-4.68-5.2-8.06-5.2-5.4,0-8.71,5.39-8.71,12.67s3.64,12.42,9.23,12.42c3.38,0,5.59-1.69,7.54-3.71Z"/>
      <path class="cls-1" d="m256.64,139.45l-.13-.06c-2.41,2.47-5.14,4.68-8.26,4.68-3.9,0-6.96-2.86-6.96-6.5,0-4.62,3.71-7.67,15.73-10.6l.06-2.21c.2-6.56-2.73-8.45-6.43-8.45-2.6,0-5.4,1.49-5.4,2.21,0,.46,1.5,1.5,1.5,3.12,0,1.37-1.1,2.6-2.86,2.6-1.62,0-2.86-.97-2.86-2.54,0-3.19,7.21-7.21,12.29-7.21,5.85,0,8.65,2.28,8.26,10.27l-.65,13.85c-.07,1.95.65,2.67,1.95,2.67.98,0,2.02-.85,3.06-1.82l.52.58c-1.37,1.69-3.32,4.1-5.72,4.1-2.28,0-3.96-1.62-4.1-4.68Zm0-1.23l.33-10.21c-9.04,2.21-11.12,4.88-11.12,8.32,0,2.99,2.01,4.81,4.62,4.81,2.34,0,4.23-1.11,6.17-2.92Z"/>
      <path class="cls-1" d="m267.25,142.38l1.69-.07c1.69-.13,2.34-.26,2.34-.97v-19.04c0-3.51-.45-4.16-2.34-4.49l-2.01-.32.07-.65,8.78-2.21-.13,10.14h.13c2.4-6.7,5.07-10.27,8.78-10.27,2.27,0,3.71,1.56,3.71,3.25s-1.11,3.19-2.99,3.19c-1.56,0-3.06-1.11-3.32-3.32-2.6.78-4.49,3.84-6.24,9.36v14.5c0,.52.26.71,2.54.84l2.67.07.2.97h-14.04l.2-.97Z"/>
      <path class="cls-1" d="m290.17,142.38l1.69-.07c1.69-.13,2.34-.26,2.34-.97v-19.04c0-3.51-.46-4.16-2.34-4.49l-2.08-.32.06-.65,8.84-2.21-.13,5.4.2.06c2.79-2.34,6.5-5.53,10.86-5.53,2.01,0,3.83.59,5.07,1.88,1.49,1.5,2.14,3.71,2.14,6.57v18.39c0,.46.13.65,2.73.91l1.62.07.2.97h-13.13l.2-.97,1.69-.07c1.95-.13,2.28-.46,2.28-.97v-16.9c0-4.62-2.08-6.5-5.92-6.5-3.05,0-5.79,1.56-7.87,3.38v20.15c0,.52.39.65,2.73.84l1.69.07.2.97h-13.26l.2-.97Z"/>
      <path class="cls-1" d="m321.46,129.51c0-8.38,6.37-15.02,14.69-15.02s14.37,6.3,14.37,14.56-6.3,15.21-14.56,15.21-14.5-6.37-14.5-14.76Zm23.86.52c0-4.94-1.11-9.43-3.58-11.89-1.43-1.43-3.31-2.54-5.85-2.54-5.59,0-9.23,5.98-9.23,12.94,0,5.13,1.17,9.69,3.71,12.22,1.37,1.43,3.32,2.4,5.79,2.4,5.4,0,9.17-5.98,9.17-13.13Z"/>
      <path class="cls-1" d="m353.62,142.77l-.58-7.87h1.1l1.37,3.77c1.62,2.86,4.09,4.48,6.89,4.48,3.77,0,6.5-2.34,6.5-5.66,0-3.57-2.92-5.2-7.21-6.63-3.9-1.37-7.93-3.25-7.93-8.26,0-4.62,3.96-8.12,9.42-8.12,2.28,0,4.16.46,5.85,1.11l2.08-.65.39,7.8h-1.1l-2.67-5.46c-1.1-.85-2.73-1.69-4.74-1.69-3.51,0-5.59,1.95-5.59,4.88,0,3.45,2.79,4.62,6.83,6.04,4.36,1.56,8.52,3.31,8.52,8.78,0,4.74-4.03,8.97-10.79,8.97-3.18,0-5.92-.59-8.32-1.5Z"/>
      <path class="cls-1" d="m409.07,138.8h-.13c-2.79,2.4-6.43,5.46-10.72,5.46-2.14,0-3.84-.65-5.27-1.95-1.43-1.56-2.01-3.77-2.01-6.56v-18.4c0-.58-.07-.65-2.8-.84l-1.56-.2-.19-.91h9.1l-.13,18.92c0,4.68,2.15,6.56,5.98,6.56,3.12,0,5.66-1.56,7.6-3.31v-18.59c0-1.95-.45-2.34-2.73-2.47l-1.69-.2-.19-.91h9.17v24.05c0,1.17.2,1.62,1.3,1.75l3.18.52-.07.71-8.91,1.95.07-5.59Z"/>
      <path class="cls-1" d="m419.53,142.38l1.69-.07c1.69-.13,2.34-.26,2.34-.97v-19.04c0-3.51-.46-4.16-2.34-4.49l-2.08-.32.07-.65,8.84-2.21-.13,5.4.19.06c2.8-2.34,6.5-5.53,10.86-5.53,2.02,0,3.84.59,5.07,1.88,1.5,1.5,2.15,3.71,2.15,6.57v18.39c0,.46.13.65,2.73.91l1.62.07.2.97h-13.13l.2-.97,1.69-.07c1.95-.13,2.27-.46,2.27-.97v-16.9c0-4.62-2.08-6.5-5.91-6.5-3.06,0-5.79,1.56-7.87,3.38v20.15c0,.52.39.65,2.73.84l1.69.07.2.97h-13.26l.2-.97Z"/>
      <path class="cls-1" d="m467.25,139.45l-.13-.06c-2.41,2.47-5.13,4.68-8.26,4.68-3.9,0-6.96-2.86-6.96-6.5,0-4.62,3.71-7.67,15.73-10.6l.07-2.21c.2-6.56-2.73-8.45-6.43-8.45-2.6,0-5.4,1.49-5.4,2.21,0,.46,1.5,1.5,1.5,3.12,0,1.37-1.11,2.6-2.86,2.6-1.62,0-2.86-.97-2.86-2.54,0-3.19,7.21-7.21,12.29-7.21,5.85,0,8.65,2.28,8.26,10.27l-.65,13.85c-.06,1.95.65,2.67,1.95,2.67.98,0,2.01-.85,3.06-1.82l.52.58c-1.37,1.69-3.31,4.1-5.72,4.1-2.27,0-3.96-1.62-4.09-4.68Zm0-1.23l.33-10.21c-9.04,2.21-11.12,4.88-11.12,8.32,0,2.99,2.01,4.81,4.62,4.81,2.34,0,4.22-1.11,6.17-2.92Z"/>
      <path class="cls-1" d="m489.8,142.38l1.69-.07c1.69-.13,2.34-.26,2.34-.97v-18.98c0-3.58-.46-4.22-2.4-4.55l-2.02-.32.06-.65,8.84-2.21-.19,5.27.19.07c2.47-2.34,5.79-5.46,9.95-5.46,2.15,0,3.9.78,5.14,1.95.78.85,1.49,2.15,1.75,3.64l.07.06c2.6-2.6,6.05-5.65,10.21-5.65,2.21,0,3.83.65,5.2,2.02,1.36,1.43,2.08,3.83,2.08,6.56v18.33c0,.46.06.65,2.73.91l1.5.07.2.97h-13.07l.2-.97,1.69-.07c1.88-.13,2.28-.46,2.28-.97v-16.96c0-4.55-1.88-6.44-5.66-6.44-2.8,0-5.85,1.56-7.02,3.31,0,.13-.06,1.69-.06,1.76v18.39c0,.46.06.65,2.73.91l1.62.07.2.97h-13.13l.2-.97,1.69-.07c1.88-.13,2.21-.46,2.21-.97v-16.96c0-4.55-1.88-6.44-5.52-6.44-2.86,0-5.33,1.49-7.22,3.12v20.41c0,.52.39.65,2.73.84l1.75.07.13.97h-13.26l.2-.97Z"/>
      <path class="cls-1" d="m553.78,139.45l-.13-.06c-2.4,2.47-5.13,4.68-8.25,4.68-3.9,0-6.96-2.86-6.96-6.5,0-4.62,3.71-7.67,15.73-10.6l.07-2.21c.19-6.56-2.73-8.45-6.44-8.45-2.6,0-5.4,1.49-5.4,2.21,0,.46,1.5,1.5,1.5,3.12,0,1.37-1.1,2.6-2.86,2.6-1.62,0-2.86-.97-2.86-2.54,0-3.19,7.21-7.21,12.29-7.21,5.85,0,8.65,2.28,8.25,10.27l-.65,13.85c-.07,1.95.65,2.67,1.95,2.67.97,0,2.01-.85,3.05-1.82l.52.58c-1.37,1.69-3.32,4.1-5.72,4.1-2.28,0-3.96-1.62-4.09-4.68Zm0-1.23l.32-10.21c-9.04,2.21-11.12,4.88-11.12,8.32,0,2.99,2.02,4.81,4.62,4.81,2.34,0,4.23-1.11,6.18-2.92Z"/>
      <path class="cls-1" d="m564.38,142.38l1.69-.07c1.69-.13,2.34-.26,2.34-.97v-19.04c0-3.51-.46-4.16-2.34-4.49l-2.08-.32.07-.65,8.84-2.21-.13,5.4.2.06c2.79-2.34,6.5-5.53,10.86-5.53,2.01,0,3.83.59,5.07,1.88,1.5,1.5,2.14,3.71,2.14,6.57v18.39c0,.46.13.65,2.73.91l1.62.07.2.97h-13.13l.2-.97,1.69-.07c1.95-.13,2.27-.46,2.27-.97v-16.9c0-4.62-2.08-6.5-5.92-6.5-3.05,0-5.79,1.56-7.87,3.38v20.15c0,.52.39.65,2.73.84l1.69.07.2.97h-13.26l.2-.97Z"/>
      <path class="cls-1" d="m595.67,129.51c0-8.38,6.37-15.02,14.69-15.02s14.37,6.3,14.37,14.56-6.31,15.21-14.56,15.21-14.5-6.37-14.5-14.76Zm23.86.52c0-4.94-1.11-9.43-3.58-11.89-1.43-1.43-3.32-2.54-5.85-2.54-5.59,0-9.23,5.98-9.23,12.94,0,5.13,1.17,9.69,3.71,12.22,1.36,1.43,3.31,2.4,5.79,2.4,5.39,0,9.17-5.98,9.17-13.13Z"/>
      <path class="cls-1" d="m639.55,130.09c0-8.71,6.18-15.6,14.63-15.6,5.33,0,9.3,2.54,9.3,5.98,0,1.88-1.43,3.12-2.93,3.12-1.88,0-3.25-1.56-2.92-3.57,0-1.43.91-1.95.91-2.34-.26-.78-2.28-2.08-4.55-2.08-5.26,0-9.62,5.13-9.62,12.48s4.42,12.74,10.27,12.74c3.71,0,6.31-1.3,8.65-4.94l.78.39c-2.67,4.94-6.37,7.93-11.57,7.93-7.34,0-12.94-6.11-12.94-14.11Z"/>
      <path class="cls-1" d="m665.57,129.51c0-8.38,6.37-15.02,14.69-15.02s14.37,6.3,14.37,14.56-6.31,15.21-14.56,15.21-14.5-6.37-14.5-14.76Zm23.86.52c0-4.94-1.11-9.43-3.58-11.89-1.43-1.43-3.32-2.54-5.85-2.54-5.59,0-9.23,5.98-9.23,12.94,0,5.13,1.17,9.69,3.71,12.22,1.36,1.43,3.31,2.4,5.79,2.4,5.39,0,9.17-5.98,9.17-13.13Z"/>
      <path class="cls-1" d="m695.62,142.38l1.69-.07c1.69-.13,2.34-.26,2.34-.97v-19.04c0-3.51-.46-4.16-2.34-4.49l-2.08-.32.07-.65,8.84-2.21-.13,5.4.2.06c2.79-2.34,6.5-5.53,10.86-5.53,2.01,0,3.83.59,5.07,1.88,1.5,1.5,2.14,3.71,2.14,6.57v18.39c0,.46.13.65,2.73.91l1.62.07.2.97h-13.13l.2-.97,1.69-.07c1.95-.13,2.27-.46,2.27-.97v-16.9c0-4.62-2.08-6.5-5.92-6.5-3.05,0-5.79,1.56-7.87,3.38v20.15c0,.52.39.65,2.73.84l1.69.07.2.97h-13.26l.2-.97Z"/>
      <path class="cls-1" d="m740.21,142.38l1.69-.07c1.69-.13,2.34-.26,2.34-.97v-19.04c0-3.51-.46-4.16-2.34-4.49l-2.08-.32.07-.65,8.84-2.21-.13,5.4.2.06c2.79-2.34,6.5-5.53,10.86-5.53,2.01,0,3.83.59,5.07,1.88,1.5,1.5,2.14,3.71,2.14,6.57v18.39c0,.46.13.65,2.73.91l1.62.07.2.97h-13.13l.2-.97,1.69-.07c1.95-.13,2.28-.46,2.28-.97v-16.9c0-4.62-2.08-6.5-5.92-6.5-3.05,0-5.79,1.56-7.87,3.38v20.15c0,.52.39.65,2.73.84l1.69.07.2.97h-13.26l.2-.97Z"/>
      <path class="cls-1" d="m792.04,138.8h-.13c-2.79,2.4-6.44,5.46-10.73,5.46-2.14,0-3.83-.65-5.26-1.95-1.43-1.56-2.02-3.77-2.02-6.56v-18.4c0-.58-.06-.65-2.79-.84l-1.56-.2-.2-.91h9.1l-.13,18.92c0,4.68,2.14,6.56,5.98,6.56,3.12,0,5.66-1.56,7.61-3.31v-18.59c0-1.95-.46-2.34-2.73-2.47l-1.69-.2-.2-.91h9.17v24.05c0,1.17.19,1.62,1.3,1.75l3.18.52-.06.71-8.91,1.95.06-5.59Z"/>
      <path class="cls-1" d="m801.04,130.09c0-8.64,5.85-15.6,14.04-15.6,6.44,0,10.14,3.96,10.14,8.97,0,.58-.07,1.1-.13,1.69l-18.98-.13c-.13.78-.26,2.21-.26,3.12,0,7.54,4.42,12.68,10.27,12.68,3.71,0,6.44-1.3,8.84-4.94l.71.39c-2.73,4.94-6.5,7.93-11.64,7.93-7.41,0-13-6.11-13-14.11Zm19.24-6.11c.07-4.55-1.88-8.38-5.85-8.38-3.58,0-7.08,3.71-8.19,8.45l14.04-.06Z"/>
      <path class="cls-1" d="m828.87,142.77l-.58-7.87h1.1l1.37,3.77c1.62,2.86,4.1,4.48,6.89,4.48,3.77,0,6.5-2.34,6.5-5.66,0-3.57-2.92-5.2-7.21-6.63-3.9-1.37-7.93-3.25-7.93-8.26,0-4.62,3.96-8.12,9.43-8.12,2.27,0,4.16.46,5.85,1.11l2.08-.65.39,7.8h-1.11l-2.67-5.46c-1.11-.85-2.73-1.69-4.75-1.69-3.51,0-5.59,1.95-5.59,4.88,0,3.45,2.79,4.62,6.83,6.04,4.35,1.56,8.51,3.31,8.51,8.78,0,4.74-4.03,8.97-10.79,8.97-3.19,0-5.92-.59-8.32-1.5Z"/>
      <path class="cls-1" d="m853.92,137.44l.33-19.37-5.07-.13.2-1.11,8.71-7.28.78.19-.07,5.72h9.62l-.78,2.47h-8.84s-.46,18.79-.46,18.85c-.06,3.12,1.62,4.55,4.42,4.55,2.27,0,3.96-1.11,5.52-2.28l.39.65c-2.41,2.34-5.14,4.55-8.32,4.55-3.64,0-6.5-1.76-6.44-6.83Z"/>
      <path class="cls-1" d="m870.41,142.38l1.69-.07c1.69-.13,2.34-.26,2.34-.97v-19.04c0-3.51-.46-4.16-2.34-4.49l-2.01-.32.07-.65,8.77-2.21-.13,10.14h.13c2.41-6.7,5.07-10.27,8.78-10.27,2.28,0,3.71,1.56,3.71,3.25s-1.1,3.19-2.99,3.19c-1.56,0-3.06-1.11-3.32-3.32-2.6.78-4.49,3.84-6.24,9.36v14.5c0,.52.26.71,2.54.84l2.67.07.2.97h-14.04l.2-.97Z"/>
      <path class="cls-1" d="m908.52,139.45l-.13-.06c-2.41,2.47-5.14,4.68-8.26,4.68-3.9,0-6.96-2.86-6.96-6.5,0-4.62,3.71-7.67,15.73-10.6l.07-2.21c.19-6.56-2.73-8.45-6.44-8.45-2.6,0-5.4,1.49-5.4,2.21,0,.46,1.5,1.5,1.5,3.12,0,1.37-1.1,2.6-2.86,2.6-1.62,0-2.86-.97-2.86-2.54,0-3.19,7.21-7.21,12.29-7.21,5.85,0,8.65,2.28,8.25,10.27l-.65,13.85c-.07,1.95.65,2.67,1.95,2.67.97,0,2.01-.85,3.05-1.82l.52.58c-1.37,1.69-3.32,4.1-5.72,4.1-2.28,0-3.96-1.62-4.09-4.68Zm0-1.23l.32-10.21c-9.04,2.21-11.12,4.88-11.12,8.32,0,2.99,2.02,4.81,4.62,4.81,2.34,0,4.23-1.11,6.18-2.92Z"/>
      <path class="cls-1" d="m243.53,207.38l1.76-.07c1.69-.13,2.28-.26,2.28-.97v-34.91c0-3.05-.39-3.64-2.08-3.96l-2.47-.52.06-.65,8.97-2.14v42.32c0,.52.26.65,2.67.84l1.62.07.19.97h-13.13l.13-.97Z"/>
      <path class="cls-1" d="m277.98,203.8h-.13c-2.79,2.4-6.43,5.46-10.73,5.46-2.14,0-3.83-.65-5.26-1.95-1.43-1.56-2.01-3.77-2.01-6.56v-18.4c0-.58-.07-.65-2.8-.84l-1.56-.2-.2-.91h9.1l-.13,18.92c0,4.68,2.14,6.56,5.98,6.56,3.12,0,5.65-1.56,7.6-3.31v-18.59c0-1.95-.46-2.34-2.73-2.47l-1.69-.2-.2-.91h9.17v24.05c0,1.17.2,1.62,1.3,1.75l3.19.52-.07.71-8.91,1.95.06-5.59Z"/>
      <path class="cls-1" d="m288.44,207.38l1.69-.07c1.69-.13,2.34-.26,2.34-.97v-19.04c0-3.51-.46-4.16-2.34-4.49l-2.08-.32.07-.65,8.84-2.21-.13,5.4.19.06c2.8-2.34,6.5-5.53,10.86-5.53,2.02,0,3.84.59,5.07,1.88,1.5,1.5,2.15,3.71,2.15,6.57v18.39c0,.46.13.65,2.73.91l1.62.07.2.97h-13.13l.2-.97,1.69-.07c1.95-.13,2.27-.46,2.27-.97v-16.9c0-4.62-2.08-6.5-5.91-6.5-3.06,0-5.79,1.56-7.87,3.38v20.15c0,.52.39.65,2.73.84l1.69.07.2.97h-13.26l.2-.97Z"/>
      <path class="cls-1" d="m336.17,204.45l-.13-.06c-2.41,2.47-5.13,4.68-8.26,4.68-3.9,0-6.96-2.86-6.96-6.5,0-4.62,3.71-7.67,15.73-10.6l.07-2.21c.2-6.56-2.73-8.45-6.43-8.45-2.6,0-5.4,1.49-5.4,2.21,0,.46,1.5,1.5,1.5,3.12,0,1.37-1.11,2.6-2.86,2.6-1.62,0-2.86-.97-2.86-2.54,0-3.19,7.21-7.21,12.29-7.21,5.85,0,8.65,2.28,8.26,10.27l-.65,13.85c-.06,1.95.65,2.67,1.95,2.67.98,0,2.01-.85,3.06-1.82l.52.58c-1.37,1.69-3.31,4.1-5.72,4.1-2.27,0-3.96-1.62-4.09-4.68Zm0-1.23l.33-10.21c-9.04,2.21-11.12,4.88-11.12,8.32,0,2.99,2.01,4.81,4.62,4.81,2.34,0,4.22-1.11,6.17-2.92Z"/>
      <path class="cls-1" d="m380.69,204l-.2-.06c-2.47,2.86-5.72,5.26-9.88,5.26-6.56,0-11.7-5.72-11.7-13.91,0-9.55,7.15-15.47,14.69-15.47,2.79,0,4.94.59,6.96,1.56h.13v-11.38c0-1.95-.33-2.6-2.02-2.79l-3.12-.52.13-.71,9.43-1.88v40.63c0,1.23.26,1.69,1.3,1.82l3.25.52-.07.71-8.9,1.62v-5.39Zm0-1.56v-16.19c-1.62-2.86-4.68-5.2-8.06-5.2-5.4,0-8.71,5.39-8.71,12.67s3.64,12.42,9.23,12.42c3.38,0,5.59-1.69,7.54-3.71Z"/>
      <path class="cls-1" d="m389.79,195.09c0-8.64,5.85-15.6,14.04-15.6,6.44,0,10.14,3.96,10.14,8.97,0,.58-.07,1.1-.13,1.69l-18.98-.13c-.13.78-.26,2.21-.26,3.12,0,7.54,4.42,12.68,10.27,12.68,3.71,0,6.43-1.3,8.84-4.94l.71.39c-2.73,4.94-6.5,7.93-11.64,7.93-7.41,0-13-6.11-13-14.11Zm19.24-6.11c.07-4.55-1.89-8.38-5.85-8.38-3.57,0-7.08,3.71-8.19,8.45l14.04-.06Z"/>
      <path class="cls-1" d="m428.98,207.38l1.69-.07c1.69-.13,2.34-.26,2.34-.97v-18.98c0-3.58-.46-4.22-2.4-4.55l-2.02-.32.06-.65,8.84-2.21-.19,5.27.19.07c2.47-2.34,5.79-5.46,9.95-5.46,2.15,0,3.9.78,5.14,1.95.78.85,1.49,2.15,1.75,3.64l.07.06c2.6-2.6,6.05-5.65,10.21-5.65,2.21,0,3.83.65,5.2,2.02,1.37,1.43,2.08,3.83,2.08,6.56v18.33c0,.46.07.65,2.73.91l1.5.07.2.97h-13.07l.2-.97,1.69-.07c1.88-.13,2.28-.46,2.28-.97v-16.96c0-4.55-1.88-6.44-5.66-6.44-2.8,0-5.85,1.56-7.02,3.31,0,.13-.06,1.69-.06,1.76v18.39c0,.46.06.65,2.73.91l1.62.07.2.97h-13.13l.2-.97,1.69-.07c1.88-.13,2.21-.46,2.21-.97v-16.96c0-4.55-1.88-6.44-5.52-6.44-2.86,0-5.33,1.49-7.22,3.12v20.41c0,.52.39.65,2.73.84l1.75.07.13.97h-13.26l.2-.97Z"/>
      <path class="cls-1" d="m478.2,207.38l1.82-.07c1.62-.13,2.28-.26,2.28-.97v-19.04c0-3.51-.46-4.16-2.41-4.49l-2.01-.32.13-.65,8.78-2.21v26.85c0,.52.33.65,2.67.84l1.62.07.2.97h-13.26l.2-.97Zm2.47-36.92c0-1.5,1.04-3.38,3.25-3.38s3.19,1.88,3.19,3.32-1.04,3.31-3.19,3.31-3.25-1.88-3.25-3.25Z"/>
      <path class="cls-1" d="m491.67,195.09c0-8.64,5.85-15.6,14.04-15.6,6.43,0,10.14,3.96,10.14,8.97,0,.58-.07,1.1-.13,1.69l-18.98-.13c-.13.78-.26,2.21-.26,3.12,0,7.54,4.42,12.68,10.27,12.68,3.71,0,6.44-1.3,8.84-4.94l.71.39c-2.73,4.94-6.5,7.93-11.63,7.93-7.41,0-13-6.11-13-14.11Zm19.24-6.11c.06-4.55-1.88-8.38-5.85-8.38-3.58,0-7.09,3.71-8.19,8.45l14.04-.06Z"/>
      <path class="cls-1" d="m516.97,207.38l1.76-.07c1.69-.13,2.28-.26,2.28-.97v-34.91c0-3.05-.39-3.64-2.08-3.96l-2.47-.52.06-.65,8.97-2.14v42.32c0,.52.26.65,2.67.84l1.62.07.2.97h-13.13l.13-.97Z"/>
      <path class="cls-1" d="m530.78,216.09c2.54-1.43,5.13-3.96,5.13-7.28s-3.25-4.49-4.68-3.58c-.65-1.75.52-4.03,3.32-4.03s4.94,2.02,4.94,5.27c0,4.09-3.96,8.19-8.12,10.14l-.58-.52Z"/>
      <path class="cls-1" d="m553.01,223.69l1.76-.06c1.62-.13,2.34-.26,2.34-.91v-35.49c0-3.45-.46-4.09-2.34-4.42l-2.08-.32.06-.65,8.84-2.21-.07,5.46.2.13c2.54-2.93,5.79-5.4,9.95-5.4,6.63,0,11.63,5.66,11.63,13.72,0,9.49-7.02,15.73-14.37,15.73-2.86,0-5.46-.78-7.28-1.62h-.13v15.21c0,.46.33.65,2.67.78l2.79.06.2.97h-14.37l.19-.97Zm25.29-28.6c0-6.89-3.58-12.15-9.1-12.15-3.25,0-5.79,1.75-7.67,3.83v16.19c1.69,2.67,4.68,5.01,8.12,5.01,5.33,0,8.65-5.46,8.65-12.87Z"/>
      <path class="cls-1" d="m585.8,194.51c0-8.38,6.37-15.02,14.69-15.02s14.37,6.3,14.37,14.56-6.31,15.21-14.56,15.21-14.5-6.37-14.5-14.76Zm23.86.52c0-4.94-1.11-9.43-3.58-11.89-1.43-1.43-3.32-2.54-5.85-2.54-5.59,0-9.23,5.98-9.23,12.94,0,5.13,1.17,9.69,3.71,12.22,1.36,1.43,3.31,2.4,5.79,2.4,5.39,0,9.17-5.98,9.17-13.13Z"/>
      <path class="cls-1" d="m639.12,204l-.2-.06c-2.47,2.86-5.72,5.26-9.88,5.26-6.57,0-11.7-5.72-11.7-13.91,0-9.55,7.15-15.47,14.69-15.47,2.79,0,4.94.59,6.96,1.56h.13v-11.38c0-1.95-.33-2.6-2.01-2.79l-3.12-.52.13-.71,9.42-1.88v40.63c0,1.23.26,1.69,1.3,1.82l3.25.52-.07.71-8.91,1.62v-5.39Zm0-1.56v-16.19c-1.62-2.86-4.68-5.2-8.06-5.2-5.4,0-8.71,5.39-8.71,12.67s3.64,12.42,9.23,12.42c3.38,0,5.59-1.69,7.54-3.71Z"/>
      <path class="cls-1" d="m648.22,195.09c0-8.64,5.85-15.6,14.04-15.6,6.44,0,10.14,3.96,10.14,8.97,0,.58-.07,1.1-.13,1.69l-18.98-.13c-.13.78-.26,2.21-.26,3.12,0,7.54,4.42,12.68,10.27,12.68,3.71,0,6.44-1.3,8.84-4.94l.72.39c-2.73,4.94-6.5,7.93-11.64,7.93-7.41,0-13-6.11-13-14.11Zm19.24-6.11c.07-4.55-1.88-8.38-5.85-8.38-3.58,0-7.08,3.71-8.19,8.45l14.04-.06Zm-2.01-24.96h5.39l-11.57,12.03h-.65l6.83-12.03Z"/>
      <path class="cls-1" d="m676.05,207.77l-.58-7.87h1.1l1.37,3.77c1.62,2.86,4.1,4.48,6.89,4.48,3.77,0,6.5-2.34,6.5-5.66,0-3.57-2.92-5.2-7.21-6.63-3.9-1.37-7.93-3.25-7.93-8.26,0-4.62,3.96-8.12,9.43-8.12,2.27,0,4.16.46,5.85,1.11l2.08-.65.39,7.8h-1.11l-2.67-5.46c-1.11-.85-2.73-1.69-4.75-1.69-3.51,0-5.59,1.95-5.59,4.88,0,3.45,2.79,4.62,6.83,6.04,4.35,1.56,8.51,3.31,8.51,8.78,0,4.74-4.03,8.97-10.79,8.97-3.19,0-5.92-.59-8.32-1.5Z"/>
      <path class="cls-1" d="m709.59,207.38l1.62-.07c1.62-.13,2.28-.26,2.28-.97v-35.88c0-2.08-.33-2.67-2.02-2.99l-2.41-.52.07-.65,8.84-2.14v20.8l.13.06c2.8-2.28,6.5-5.46,10.86-5.46,2.02,0,3.77.65,5.07,1.88,1.5,1.56,2.15,3.71,2.15,6.5v18.46c0,.46.06.71,2.73.91l1.56.07.2.97h-13.2l.2-.97,1.75-.07c1.95-.13,2.28-.46,2.28-.97v-16.9c0-4.62-2.08-6.5-5.85-6.5-3.12,0-5.85,1.56-7.87,3.38v20.15c0,.52.33.65,2.73.84l1.69.07.19.97h-13.2l.2-.97Z"/>
      <path class="cls-1" d="m757.18,204.45l-.13-.06c-2.4,2.47-5.13,4.68-8.25,4.68-3.9,0-6.96-2.86-6.96-6.5,0-4.62,3.71-7.67,15.73-10.6l.07-2.21c.19-6.56-2.73-8.45-6.44-8.45-2.6,0-5.4,1.49-5.4,2.21,0,.46,1.5,1.5,1.5,3.12,0,1.37-1.1,2.6-2.86,2.6-1.62,0-2.86-.97-2.86-2.54,0-3.19,7.21-7.21,12.29-7.21,5.85,0,8.65,2.28,8.25,10.27l-.65,13.85c-.07,1.95.65,2.67,1.95,2.67.97,0,2.01-.85,3.05-1.82l.52.58c-1.37,1.69-3.32,4.1-5.72,4.1-2.28,0-3.96-1.62-4.09-4.68Zm0-1.23l.32-10.21c-9.04,2.21-11.12,4.88-11.12,8.32,0,2.99,2.02,4.81,4.62,4.81,2.34,0,4.23-1.11,6.18-2.92Z"/>
      <path class="cls-1" d="m766.99,195.09c0-8.71,6.18-15.6,14.63-15.6,5.33,0,9.3,2.54,9.3,5.98,0,1.88-1.43,3.12-2.93,3.12-1.88,0-3.25-1.56-2.92-3.57,0-1.43.91-1.95.91-2.34-.26-.78-2.28-2.08-4.55-2.08-5.26,0-9.62,5.13-9.62,12.48s4.42,12.74,10.27,12.74c3.71,0,6.31-1.3,8.65-4.94l.78.39c-2.67,4.94-6.37,7.93-11.57,7.93-7.34,0-12.94-6.11-12.94-14.11Z"/>
      <path class="cls-1" d="m793.12,195.09c0-8.64,5.85-15.6,14.04-15.6,6.44,0,10.14,3.96,10.14,8.97,0,.58-.07,1.1-.13,1.69l-18.98-.13c-.13.78-.26,2.21-.26,3.12,0,7.54,4.42,12.68,10.27,12.68,3.71,0,6.44-1.3,8.84-4.94l.71.39c-2.73,4.94-6.5,7.93-11.64,7.93-7.41,0-13-6.11-13-14.11Zm19.24-6.11c.07-4.55-1.88-8.38-5.85-8.38-3.58,0-7.08,3.71-8.19,8.45l14.04-.06Z"/>
      <path class="cls-1" d="m819.03,207.38l1.69-.07c1.69-.13,2.34-.26,2.34-.97v-19.04c0-3.51-.46-4.16-2.34-4.49l-2.01-.32.07-.65,8.77-2.21-.13,10.14h.13c2.41-6.7,5.07-10.27,8.78-10.27,2.28,0,3.71,1.56,3.71,3.25s-1.1,3.19-2.99,3.19c-1.56,0-3.06-1.11-3.32-3.32-2.6.78-4.49,3.84-6.24,9.36v14.5c0,.52.26.71,2.54.84l2.67.07.2.97h-14.04l.2-.97Z"/>
      <path class="cls-1" d="m839.42,207.38l1.75-.07c1.69-.13,2.27-.26,2.27-.97v-34.91c0-3.05-.39-3.64-2.08-3.96l-2.47-.52.07-.65,8.97-2.14v42.32c0,.52.26.65,2.67.84l1.62.07.2.97h-13.13l.13-.97Z"/>
      <path class="cls-1" d="m852.65,194.51c0-8.38,6.37-15.02,14.69-15.02s14.37,6.3,14.37,14.56-6.31,15.21-14.56,15.21-14.5-6.37-14.5-14.76Zm23.86.52c0-4.94-1.11-9.43-3.58-11.89-1.43-1.43-3.32-2.54-5.85-2.54-5.59,0-9.23,5.98-9.23,12.94,0,5.13,1.17,9.69,3.71,12.22,1.36,1.43,3.31,2.4,5.79,2.4,5.39,0,9.17-5.98,9.17-13.13Z"/>
      <path class="cls-1" d="m307.58,269.45l-.13-.06c-2.41,2.47-5.13,4.68-8.26,4.68-3.9,0-6.96-2.86-6.96-6.5,0-4.62,3.71-7.67,15.73-10.6l.07-2.21c.2-6.56-2.73-8.45-6.43-8.45-2.6,0-5.4,1.49-5.4,2.21,0,.46,1.5,1.5,1.5,3.12,0,1.37-1.11,2.6-2.86,2.6-1.62,0-2.86-.97-2.86-2.54,0-3.19,7.21-7.21,12.29-7.21,5.85,0,8.65,2.28,8.26,10.27l-.65,13.85c-.06,1.95.65,2.67,1.95,2.67.98,0,2.01-.85,3.06-1.82l.52.58c-1.37,1.69-3.31,4.1-5.72,4.1-2.27,0-3.96-1.62-4.09-4.68Zm0-1.23l.33-10.21c-9.04,2.21-11.12,4.88-11.12,8.32,0,2.99,2.01,4.81,4.62,4.81,2.34,0,4.22-1.11,6.17-2.92Z"/>
      <path class="cls-1" d="m333.97,267.44l.33-19.37-5.07-.13.19-1.11,8.71-7.28.78.19-.07,5.72h9.62l-.78,2.47h-8.84s-.45,18.79-.45,18.85c-.07,3.12,1.62,4.55,4.42,4.55,2.27,0,3.97-1.11,5.53-2.28l.39.65c-2.4,2.34-5.13,4.55-8.32,4.55-3.64,0-6.5-1.76-6.44-6.83Z"/>
      <path class="cls-1" d="m350.46,272.38l1.69-.07c1.69-.13,2.34-.26,2.34-.97v-19.04c0-3.51-.46-4.16-2.34-4.49l-2.01-.32.06-.65,8.78-2.21-.13,10.14h.13c2.41-6.7,5.07-10.27,8.78-10.27,2.28,0,3.71,1.56,3.71,3.25s-1.11,3.19-2.99,3.19c-1.56,0-3.05-1.11-3.31-3.32-2.6.78-4.49,3.84-6.24,9.36v14.5c0,.52.26.71,2.54.84l2.66.07.2.97h-14.04l.2-.97Z"/>
      <path class="cls-1" d="m388.57,269.45l-.13-.06c-2.41,2.47-5.13,4.68-8.26,4.68-3.9,0-6.96-2.86-6.96-6.5,0-4.62,3.71-7.67,15.73-10.6l.07-2.21c.2-6.56-2.73-8.45-6.43-8.45-2.6,0-5.4,1.49-5.4,2.21,0,.46,1.5,1.5,1.5,3.12,0,1.37-1.11,2.6-2.86,2.6-1.62,0-2.86-.97-2.86-2.54,0-3.19,7.21-7.21,12.29-7.21,5.85,0,8.65,2.28,8.26,10.27l-.65,13.85c-.06,1.95.65,2.67,1.95,2.67.98,0,2.01-.85,3.06-1.82l.52.58c-1.37,1.69-3.31,4.1-5.72,4.1-2.27,0-3.96-1.62-4.09-4.68Zm0-1.23l.33-10.21c-9.04,2.21-11.12,4.88-11.12,8.32,0,2.99,2.01,4.81,4.62,4.81,2.34,0,4.22-1.11,6.17-2.92Z"/>
      <path class="cls-1" d="m400.44,249.82c-1.17-2.67-1.37-3.05-3.19-3.25l-1.56-.2-.19-.91h13.13l-.13.91-1.62.13c-2.02.13-2.34.84-1.56,2.86l7.35,18.53,5.85-15.41c1.82-4.88,1.56-5.65-1.88-5.91l-1.5-.2-.2-.91h11.05l-.2.91-1.24.13c-2.4.26-2.66,1.04-4.88,6.5l-8.12,20.93h-1.43l-9.69-24.12Z"/>
      <path class="cls-1" d="m424.45,260.09c0-8.64,5.85-15.6,14.04-15.6,6.44,0,10.14,3.96,10.14,8.97,0,.58-.07,1.1-.13,1.69l-18.98-.13c-.13.78-.26,2.21-.26,3.12,0,7.54,4.42,12.68,10.27,12.68,3.71,0,6.43-1.3,8.84-4.94l.71.39c-2.73,4.94-6.5,7.93-11.64,7.93-7.41,0-13-6.11-13-14.11Zm19.24-6.11c.07-4.55-1.89-8.38-5.85-8.38-3.57,0-7.08,3.71-8.19,8.45l14.04-.06Zm-2.01-24.96h5.39l-11.57,12.03h-.65l6.83-12.03Z"/>
      <path class="cls-1" d="m452.28,272.77l-.58-7.87h1.1l1.37,3.77c1.62,2.86,4.09,4.48,6.89,4.48,3.77,0,6.5-2.34,6.5-5.66,0-3.57-2.92-5.2-7.21-6.63-3.9-1.37-7.93-3.25-7.93-8.26,0-4.62,3.96-8.12,9.42-8.12,2.28,0,4.16.46,5.85,1.11l2.08-.65.39,7.8h-1.1l-2.67-5.46c-1.1-.85-2.73-1.69-4.74-1.69-3.51,0-5.59,1.95-5.59,4.88,0,3.45,2.79,4.62,6.83,6.04,4.36,1.56,8.52,3.31,8.52,8.78,0,4.74-4.03,8.97-10.79,8.97-3.18,0-5.92-.59-8.32-1.5Z"/>
      <path class="cls-1" d="m508.37,269l-.2-.06c-2.47,2.86-5.72,5.26-9.88,5.26-6.56,0-11.7-5.72-11.7-13.91,0-9.55,7.15-15.47,14.69-15.47,2.79,0,4.94.59,6.96,1.56h.13v-11.38c0-1.95-.33-2.6-2.02-2.79l-3.12-.52.13-.71,9.43-1.88v40.63c0,1.23.26,1.69,1.3,1.82l3.25.52-.07.71-8.9,1.62v-5.39Zm0-1.56v-16.19c-1.62-2.86-4.68-5.2-8.06-5.2-5.4,0-8.71,5.39-8.71,12.67s3.64,12.42,9.23,12.42c3.38,0,5.59-1.69,7.54-3.71Z"/>
      <path class="cls-1" d="m517.47,260.09c0-8.64,5.85-15.6,14.04-15.6,6.43,0,10.14,3.96,10.14,8.97,0,.58-.06,1.1-.13,1.69l-18.98-.13c-.13.78-.26,2.21-.26,3.12,0,7.54,4.42,12.68,10.27,12.68,3.71,0,6.44-1.3,8.84-4.94l.71.39c-2.73,4.94-6.5,7.93-11.64,7.93-7.41,0-13-6.11-13-14.11Zm19.24-6.11c.07-4.55-1.88-8.38-5.85-8.38-3.58,0-7.09,3.71-8.19,8.45l14.04-.06Z"/>
      <path class="cls-1" d="m556.86,260.09c0-8.64,5.85-15.6,14.04-15.6,6.44,0,10.14,3.96,10.14,8.97,0,.58-.07,1.1-.13,1.69l-18.98-.13c-.13.78-.26,2.21-.26,3.12,0,7.54,4.42,12.68,10.27,12.68,3.71,0,6.44-1.3,8.84-4.94l.71.39c-2.73,4.94-6.5,7.93-11.64,7.93-7.41,0-13-6.11-13-14.11Zm19.24-6.11c.07-4.55-1.88-8.38-5.85-8.38-3.58,0-7.08,3.71-8.19,8.45l14.04-.06Z"/>
      <path class="cls-1" d="m584.69,272.77l-.58-7.87h1.1l1.37,3.77c1.62,2.86,4.1,4.48,6.89,4.48,3.77,0,6.5-2.34,6.5-5.66,0-3.57-2.92-5.2-7.21-6.63-3.9-1.37-7.93-3.25-7.93-8.26,0-4.62,3.96-8.12,9.43-8.12,2.27,0,4.16.46,5.85,1.11l2.08-.65.39,7.8h-1.11l-2.67-5.46c-1.11-.85-2.73-1.69-4.75-1.69-3.51,0-5.59,1.95-5.59,4.88,0,3.45,2.79,4.62,6.83,6.04,4.35,1.56,8.51,3.31,8.51,8.78,0,4.74-4.03,8.97-10.79,8.97-3.19,0-5.92-.59-8.32-1.5Z"/>
      <path class="cls-1" d="m609.74,267.44l.33-19.37-5.07-.13.2-1.11,8.71-7.28.78.19-.07,5.72h9.62l-.78,2.47h-8.84s-.46,18.79-.46,18.85c-.06,3.12,1.62,4.55,4.42,4.55,2.27,0,3.96-1.11,5.52-2.28l.39.65c-2.41,2.34-5.14,4.55-8.32,4.55-3.64,0-6.5-1.76-6.44-6.83Z"/>
      <path class="cls-1" d="m641.81,269.45l-.13-.06c-2.4,2.47-5.13,4.68-8.25,4.68-3.9,0-6.96-2.86-6.96-6.5,0-4.62,3.71-7.67,15.73-10.6l.07-2.21c.19-6.56-2.73-8.45-6.44-8.45-2.6,0-5.4,1.49-5.4,2.21,0,.46,1.5,1.5,1.5,3.12,0,1.37-1.1,2.6-2.86,2.6-1.62,0-2.86-.97-2.86-2.54,0-3.19,7.21-7.21,12.29-7.21,5.85,0,8.65,2.28,8.25,10.27l-.65,13.85c-.07,1.95.65,2.67,1.95,2.67.97,0,2.01-.85,3.05-1.82l.52.58c-1.37,1.69-3.32,4.1-5.72,4.1-2.28,0-3.96-1.62-4.09-4.68Zm0-1.23l.32-10.21c-9.04,2.21-11.12,4.88-11.12,8.32,0,2.99,2.02,4.81,4.62,4.81,2.34,0,4.23-1.11,6.18-2.92Z"/>
      <path class="cls-1" d="m664.56,260.09c0-8.71,6.17-15.6,14.62-15.6,5.33,0,9.29,2.54,9.29,5.98,0,1.88-1.43,3.12-2.92,3.12-1.88,0-3.25-1.56-2.92-3.57,0-1.43.91-1.95.91-2.34-.26-.78-2.28-2.08-4.55-2.08-5.26,0-9.62,5.13-9.62,12.48s4.42,12.74,10.27,12.74c3.71,0,6.31-1.3,8.65-4.94l.78.39c-2.67,4.94-6.37,7.93-11.57,7.93-7.34,0-12.93-6.11-12.93-14.11Z"/>
      <path class="cls-1" d="m712.06,268.8h-.13c-2.79,2.4-6.44,5.46-10.73,5.46-2.14,0-3.83-.65-5.26-1.95-1.43-1.56-2.02-3.77-2.02-6.56v-18.4c0-.58-.06-.65-2.79-.84l-1.56-.2-.2-.91h9.1l-.13,18.92c0,4.68,2.14,6.56,5.98,6.56,3.12,0,5.66-1.56,7.61-3.31v-18.59c0-1.95-.46-2.34-2.73-2.47l-1.69-.2-.2-.91h9.17v24.05c0,1.17.19,1.62,1.3,1.75l3.18.52-.06.71-8.91,1.95.06-5.59Z"/>
      <path class="cls-1" d="m721.06,260.09c0-8.64,5.85-15.6,14.04-15.6,6.44,0,10.14,3.96,10.14,8.97,0,.58-.07,1.1-.13,1.69l-18.98-.13c-.13.78-.26,2.21-.26,3.12,0,7.54,4.42,12.68,10.27,12.68,3.71,0,6.44-1.3,8.84-4.94l.72.39c-2.73,4.94-6.5,7.93-11.64,7.93-7.41,0-13-6.11-13-14.11Zm19.24-6.11c.07-4.55-1.88-8.38-5.85-8.38-3.58,0-7.08,3.71-8.19,8.45l14.04-.06Z"/>
      <path class="cls-1" d="m747,272.38l1.69-.07c1.69-.13,2.34-.26,2.34-.97v-19.04c0-3.51-.46-4.16-2.34-4.49l-2.08-.32.07-.65,8.84-2.21-.13,5.4.2.06c2.79-2.34,6.5-5.53,10.86-5.53,2.01,0,3.83.59,5.07,1.88,1.5,1.5,2.14,3.71,2.14,6.57v18.39c0,.46.13.65,2.73.91l1.62.07.2.97h-13.13l.2-.97,1.69-.07c1.95-.13,2.27-.46,2.27-.97v-16.9c0-4.62-2.08-6.5-5.92-6.5-3.05,0-5.79,1.56-7.87,3.38v20.15c0,.52.39.65,2.73.84l1.69.07.2.97h-13.26l.2-.97Z"/>
      <path class="cls-1" d="m781.39,267.44l.33-19.37-5.07-.13.2-1.11,8.71-7.28.78.19-.07,5.72h9.62l-.78,2.47h-8.84s-.46,18.79-.46,18.85c-.06,3.12,1.62,4.55,4.42,4.55,2.28,0,3.97-1.11,5.53-2.28l.39.65c-2.41,2.34-5.14,4.55-8.32,4.55-3.64,0-6.5-1.76-6.44-6.83Z"/>
      <path class="cls-1" d="m813.46,269.45l-.13-.06c-2.4,2.47-5.13,4.68-8.25,4.68-3.9,0-6.96-2.86-6.96-6.5,0-4.62,3.71-7.67,15.73-10.6l.07-2.21c.19-6.56-2.73-8.45-6.44-8.45-2.6,0-5.4,1.49-5.4,2.21,0,.46,1.5,1.5,1.5,3.12,0,1.37-1.1,2.6-2.86,2.6-1.62,0-2.86-.97-2.86-2.54,0-3.19,7.21-7.21,12.29-7.21,5.85,0,8.65,2.28,8.25,10.27l-.65,13.85c-.07,1.95.65,2.67,1.95,2.67.97,0,2.01-.85,3.05-1.82l.52.58c-1.37,1.69-3.32,4.1-5.72,4.1-2.28,0-3.96-1.62-4.09-4.68Zm0-1.23l.32-10.21c-9.04,2.21-11.12,4.88-11.12,8.32,0,2.99,2.02,4.81,4.62,4.81,2.34,0,4.23-1.11,6.18-2.92Z"/>
      <path class="cls-1" d="m825.52,250.67c0-1.76,1.56-3.32,3.64-3.32s3.51,1.56,3.51,3.32-1.43,3.57-3.51,3.57-3.64-1.76-3.64-3.57Zm0,20.02c0-1.75,1.56-3.31,3.64-3.31s3.51,1.56,3.51,3.31c0,1.88-1.43,3.51-3.51,3.51s-3.64-1.62-3.64-3.51Z"/>
    </g>
  </g>
</svg>
