<?xml version="1.0" encoding="UTF-8"?>
<svg id="hoja_2" data-name="hoja 2" xmlns="http://www.w3.org/2000/svg" viewBox="0 0 1125 920.5">
  <defs>
    <style>
      .cls-1 {
        fill: #f2f2f3;
      }

      .cls-2 {
        fill: #00aeb7;
      }

      .cls-3 {
        fill: #f48b00;
      }

      .cls-4 {
        fill: #181818;
      }
    </style>
  </defs>
  <g id="clouds">
    <g>
      <circle class="cls-1" cx="-39.99" cy="711.72" r="55.25"/>
      <circle class="cls-1" cx="18.21" cy="618.93" r="97.43"/>
      <circle class="cls-1" cx="57.86" cy="699.07" r="97.43"/>
      <circle class="cls-1" cx="127.03" cy="628.21" r="64.53"/>
      <circle class="cls-1" cx="202.95" cy="675.45" r="64.53"/>
      <circle class="cls-1" cx="148.12" cy="693.16" r="64.53"/>
    </g>
    <g>
      <circle class="cls-1" cx="366.55" cy="775.44" r="77.17"/>
      <circle class="cls-1" cx="680.66" cy="698.28" r="77.17"/>
      <circle class="cls-1" cx="757.83" cy="775.44" r="77.17"/>
      <circle class="cls-1" cx="688.27" cy="809.14" r="77.17"/>
      <circle class="cls-1" cx="425.24" cy="704.8" r="77.17"/>
      <circle class="cls-1" cx="450.24" cy="828.7" r="77.17"/>
      <circle class="cls-1" cx="562.19" cy="809.14" r="110.86"/>
      <circle class="cls-1" cx="561.1" cy="683.06" r="119.56"/>
    </g>
    <g>
      <circle class="cls-1" cx="940.94" cy="645.06" r="75.22"/>
      <circle class="cls-1" cx="1018.23" cy="671.28" r="75.22"/>
      <circle class="cls-1" cx="1116.91" cy="612.63" r="58.65"/>
      <circle class="cls-1" cx="1111.39" cy="661.62" r="58.65"/>
      <circle class="cls-1" cx="1175.56" cy="645.06" r="52.44"/>
      <circle class="cls-1" cx="1007.88" cy="596.07" r="85.57"/>
    </g>
  </g>
  <g id="text-2" data-name="text">
    <g id="save_the_date" data-name="save the date">
      <g>
        <g>
          <path class="cls-4" d="m192.38,106.54c-5.25-2.46-10.17-3.77-15.91-3.61-10.01,0-16.24,6.23-16.24,16.73,0,11.97,6.56,19.85,17.55,30.84,14.93,14.93,20.01,22.14,20.01,36.09,0,16.73-10.01,27.56-28.54,27.56-6.07,0-14.6-1.64-21.16-5.74l1.31-2.3c6.89,3.94,13.45,5.09,19.68,5.09,10.01,0,16.9-4.1,17.06-16.57,0-11.15-4.27-18.04-17.55-30.84-11.97-11.65-20.01-21.49-20.01-36.74,0-16.9,11.48-27.07,27.56-27.07,6.4,0,12.3,1.48,17.39,4.1l-1.15,2.46Z"/>
          <path class="cls-4" d="m240.85,174.61h-26.08l-8.53,37.89h-3.45l23.46-103.67-1.64-7.38h14.6l24.6,111.05h-14.6l-8.37-37.89Zm-.66-2.95l-12.3-55.44-12.47,55.44h24.77Z"/>
          <path class="cls-4" d="m324.67,101.45l-22.14,111.05h-14.27l-23.46-111.05h14.76l21.49,102.85,20.18-102.85h3.44Z"/>
          <path class="cls-4" d="m386.02,212.5h-49.21v-111.05h46.09v2.95h-31.99v50.19h25.75v2.95h-25.75v52h35.1v2.95Z"/>
          <path class="cls-4" d="m486.89,101.45v2.95h-24.44v108.1h-14.11v-108.1h-24.44v-2.95h62.99Z"/>
          <path class="cls-4" d="m510.38,156.41v56.1h-14.11v-111.05h14.11v52h31.49v-52h14.11v111.05h-14.11v-56.1h-31.49Z"/>
          <path class="cls-4" d="m625.79,212.5h-49.21v-111.05h46.09v2.95h-31.99v50.19h25.75v2.95h-25.75v52h35.1v2.95Z"/>
          <path class="cls-4" d="m706.49,101.45c39.86,0,60.2,18.54,60.2,55.77,0,34.94-22.14,55.28-62.99,55.28h-31v-111.05h33.79Zm-4.27,108.1c32.97,0,48.39-21.32,48.39-52.33,0-33.79-16.57-52.82-48.06-52.82h-15.75v105.14h15.42Z"/>
          <path class="cls-4" d="m809.62,174.61h-26.08l-8.53,37.89h-3.45l23.46-103.67-1.64-7.38h14.6l24.6,111.05h-14.6l-8.37-37.89Zm-.66-2.95l-12.3-55.44-12.47,55.44h24.77Z"/>
          <path class="cls-4" d="m889.68,101.45v2.95h-24.44v108.1h-14.11v-108.1h-24.44v-2.95h62.99Z"/>
          <path class="cls-4" d="m948.27,212.5h-49.21v-111.05h46.09v2.95h-31.99v50.19h25.75v2.95h-25.75v52h35.1v2.95Z"/>
          <path class="cls-4" d="m973.63,99.16l-6.89,81.2h-2.95l-7.05-78.9,16.9-2.3Zm-16.73,106.29c0-4.92,3.12-8.69,8.37-8.69,4.76,0,8.53,3.77,8.53,8.69s-3.77,8.69-8.53,8.69-8.37-3.94-8.37-8.69Z"/>
        </g>
        <g>
          <path class="cls-2" d="m157.72,327.62v-73.71h-7.6v-1.93l22.2-7.12h1.93v82.76h-16.53Z"/>
          <path class="cls-2" d="m227.36,307.11c0,12.31-5.55,22.08-22.44,22.08-11.58,0-19.9-8.2-19.9-19.42,0-12.79,5.31-18.22,11.94-21.11-5.43-4.71-10.25-10.13-10.25-21.96,0-13.99,7.96-21.71,20.99-21.71s17.97,8.2,17.97,18.1c0,11.82-6.15,17.85-11.34,20.15,6.51,5.55,13.03,11.22,13.03,23.89Zm-15.8,6.39c0-12.67-6.03-17.61-12.06-22.68v.12c-.24-.48-1.81,4.58-1.81,18.82,0,13.39,3.62,17.25,7.36,17.25,3.14,0,6.51-2.53,6.51-13.51Zm-9.89-51.63c.24,9.53,4.95,14.72,10.37,19.3,1.57-3.02,2.17-7.96,2.17-18.58,0-8.32-1.57-15.44-6.63-15.44-4.22,0-6.15,5.67-5.91,14.72Z"/>
          <path class="cls-2" d="m303.96,245.95v81.67h-16.89l-23.28-67.44v67.44h-2.41v-73.23l-2.89-8.44h16.77l26.3,74.67v-74.67h2.41Z"/>
          <path class="cls-2" d="m313.41,286.84c0-25.57,17.73-42.58,45-42.58s45.12,16.89,45.12,42.34-17.97,42.58-45.12,42.58-45-16.89-45-42.34Zm71.66.12c0-24.49-10.25-40.77-26.66-40.77s-26.54,16.17-26.54,40.29,10.38,40.77,26.54,40.77,26.66-16.17,26.66-40.29Z"/>
          <path class="cls-2" d="m453.76,245.95l-15.32,81.67h-16.17l-16.16-81.67h16.89l14.48,74.19,13.75-74.19h2.53Z"/>
          <path class="cls-2" d="m461.32,327.62v-81.67h16.41v81.67h-16.41Z"/>
          <path class="cls-2" d="m531.61,327.62h-40.65v-81.67h38.48v2.17h-22.08v36.91h17.49v2.17h-17.49v38.24h24.25v2.17Z"/>
          <path class="cls-2" d="m599.38,245.95v81.67h-16.41v-70.33l-20.75,71.54h-1.57l-21.35-69.85v68.64h-2.41v-75.4l-1.93-6.27h17.61l15.68,53.08,15.32-53.08h15.8Z"/>
          <path class="cls-2" d="m659.67,303.97c0,15.08-8.08,23.64-21.35,23.64h-25.45v-81.67h24.85c12.06,0,18.94,6.39,18.94,18.82,0,9.53-4.95,16.77-17.25,19.06,14.24.97,20.27,8.32,20.27,20.15Zm-30.4-20.87h2.17c5.19,0,8.81-7.72,8.81-19.06,0-9.89-2.41-15.92-8.2-15.92h-2.77v34.98Zm13.27,21.83c0-12.06-3.74-19.66-10.86-19.66h-2.41v40.17h3.38c6.51,0,9.89-8.81,9.89-20.51Z"/>
          <path class="cls-2" d="m718.03,327.62h-17.49l-4.46-28.35c-1.21-7.12-3.74-12.3-9.17-12.3h-.84v40.65h-16.41v-81.67h22.08c16.04,0,23.16,8.2,23.16,18.94,0,13.39-9.77,19.78-20.87,20.99,10.98,1.45,16.41,6.88,18.34,15.56l5.67,26.18Zm-31.97-42.83h2.29c4.58,0,8.93-4.71,8.93-18.34,0-10.25-1.81-18.34-8.44-18.34h-2.77v36.67Z"/>
          <path class="cls-2" d="m767.16,327.62h-40.65v-81.67h38.48v2.17h-22.08v36.91h17.49v2.17h-17.49v38.24h24.25v2.17Z"/>
          <path class="cls-2" d="m831.1,315.79v11.82h-38.12v-5.07c0-7,2.77-14.72,10.62-26.06,7.48-10.86,11.1-24.13,11.1-36.67,0-8.32-4.34-11.58-9.53-11.58-2.89,0-6.03.96-8.93,2.65l-1.33-2.17c4.22-2.53,9.17-3.74,14.11-3.74,13.87,0,21.71,6.64,21.71,20.99,0,12.67-7.96,21.96-18.46,30.52-9.41,7.6-14.36,13.03-16.17,19.3h34.98Z"/>
          <path class="cls-2" d="m860.87,329.19c-15.92,0-23.28-13.27-23.28-42.22s7.48-41.98,23.64-41.98,23.4,13.15,23.4,41.98-7.48,42.22-23.77,42.22Zm0-2.17c4.58,0,6.76-12.43,6.76-40.05s-2.05-39.81-6.39-39.81c-4.58,0-6.76,12.43-6.76,39.81s2.05,40.05,6.39,40.05Z"/>
          <path class="cls-2" d="m925.85,315.79v11.82h-38.12v-5.07c0-7,2.77-14.72,10.62-26.06,7.48-10.86,11.1-24.13,11.1-36.67,0-8.32-4.34-11.58-9.53-11.58-2.89,0-6.03.96-8.93,2.65l-1.33-2.17c4.22-2.53,9.17-3.74,14.11-3.74,13.87,0,21.71,6.64,21.71,20.99,0,12.67-7.96,21.96-18.46,30.52-9.41,7.6-14.36,13.03-16.17,19.3h34.98Z"/>
          <path class="cls-2" d="m968.89,304.58c0,18.34-13.87,24.73-25.82,24.73-4.71,0-9.17-.97-12.43-2.65l.96-1.93c2.9,1.21,6.03,2.05,8.81,2.05,6.63,0,11.82-5.19,11.82-20.99,0-14.84-4.34-20.15-9.05-20.15h-4.7v-2.17h4.58c4.34,0,7.24-5.55,7.24-19.18,0-11.22-3.02-16.65-9.17-16.65-2.41,0-5.43.84-8.81,2.53l-.84-1.69c4.58-2.29,9.53-3.5,14.36-3.5,10.98,0,20.87,6.15,20.87,18.82,0,9.65-3.86,18.58-17.97,20.63,15.08.96,20.03,10.74,20.15,20.15Z"/>
        </g>
      </g>
      <g>
        <rect class="cls-3" x="401.91" y="371.86" width="321.18" height="68.71" rx="15.07" ry="15.07"/>
        <g>
          <path class="cls-4" d="m436.84,421.21c-8.72,0-16.83-5.09-16.83-16.69,0-10.84,8.35-16.5,17.63-16.5,3.06,0,6.41.66,9.1,2.17l-.33.52c-2.83-1.41-5.99-1.79-8.44-1.79-8.44,0-13.34,5.61-13.34,15.7s5.38,15.65,12.54,15.65c4.38,0,7.64-1.23,10.42-3.3l.42.47c-2.92,2.22-6.51,3.77-11.17,3.77Z"/>
          <path class="cls-4" d="m465.17,420.59h-14.14v-31.92h13.25v.85h-9.19v14.43h7.4v.85h-7.4v14.95h10.09v.85Z"/>
          <path class="cls-4" d="m484.66,420.59h-4.34l-2.36-10.66c-.9-3.58-2.26-5.19-4.24-5.19h-1.41v15.84h-4.05v-31.92h6.74c5.75,0,8.16,3.4,8.16,7.54,0,5.04-3.21,7.69-7.17,8.16,2.97.52,5.09,2.31,6.04,5.99l2.64,10.23Zm-12.35-16.69h1.89c2.74,0,4.57-2.22,4.57-7.36,0-4.01-.9-7.03-4.53-7.03h-1.93v14.38Z"/>
          <path class="cls-4" d="m502.87,420.59h-14.14v-31.92h13.25v.85h-9.2v14.43h7.4v.85h-7.4v14.95h10.09v.85Z"/>
          <path class="cls-4" d="m527.48,388.67v31.92h-4.01v-28.01l-8.02,28.29h-.61l-7.92-26.83v26.55h-.94v-29.19l-.8-2.73h4.43l7.03,24.61,6.98-24.61h3.87Z"/>
          <path class="cls-4" d="m532.21,404.66c0-9.9,6.93-16.64,16.97-16.64s17.02,6.88,17.02,16.55-7.07,16.64-16.97,16.64-17.02-6.74-17.02-16.55Zm29.42,0c0-9.67-4.9-15.89-12.45-15.89s-12.4,6.27-12.4,15.75,4.86,15.94,12.45,15.94,12.4-6.27,12.4-15.79Z"/>
          <path class="cls-4" d="m586.46,388.67v31.92h-4.2l-10.47-26.88v26.88h-.94v-28.95l-1.18-2.97h4.29l11.55,29.42v-29.42h.94Z"/>
          <path class="cls-4" d="m592.63,420.59v-31.92h4.05v31.92h-4.05Z"/>
          <path class="cls-4" d="m611.16,409.7h-7.5l-2.45,10.89h-.99l6.74-29.8-.47-2.12h4.2l7.07,31.92h-4.2l-2.41-10.89Zm-.19-.85l-3.54-15.94-3.58,15.94h7.12Z"/>
          <path class="cls-4" d="m632.76,420.59v-29.75h-3.06v-.71l6.41-1.98h.71v32.44h-4.05Z"/>
          <path class="cls-4" d="m654,417.53v3.06h-13.53v-1.79c0-3.54,1.79-6.88,4.57-10.94,3.11-4.71,4.53-9.15,4.53-13.53,0-3.49-1.75-4.9-3.96-4.9-1.27,0-2.64.42-3.96,1.23l-.47-.8c1.6-1.04,3.49-1.56,5.28-1.56,4.48,0,7.26,2.31,7.26,7.31s-2.78,8.82-6.46,12.49c-3.39,3.25-5.38,6.18-5.8,9.43h12.54Z"/>
          <path class="cls-4" d="m657.41,399.75c0-1.46,1.13-2.64,2.55-2.64s2.59,1.13,2.59,2.64c0,1.6-1.13,2.69-2.59,2.69s-2.55-1.18-2.55-2.69Zm0,18.67c0-1.46,1.13-2.64,2.55-2.64s2.59,1.13,2.59,2.64c0,1.6-1.13,2.69-2.59,2.69s-2.55-1.18-2.55-2.69Z"/>
          <path class="cls-4" d="m674.75,421.21c-5.52,0-8.02-5.19-8.02-16.5s2.55-16.41,8.11-16.41,8.11,5.14,8.11,16.41-2.59,16.5-8.2,16.5Zm0-.85c2.69,0,3.96-4.86,3.96-15.65s-1.23-15.56-3.87-15.56-3.91,4.86-3.91,15.56,1.18,15.65,3.82,15.65Z"/>
          <path class="cls-4" d="m695.64,421.21c-5.52,0-8.02-5.19-8.02-16.5s2.55-16.41,8.11-16.41,8.11,5.14,8.11,16.41-2.59,16.5-8.2,16.5Zm0-.85c2.69,0,3.96-4.86,3.96-15.65s-1.23-15.56-3.87-15.56-3.91,4.86-3.91,15.56,1.18,15.65,3.82,15.65Z"/>
        </g>
      </g>
    </g>
  </g>
</svg>
