<?xml version="1.0" encoding="UTF-8"?>
<svg id="hoja_2" data-name="hoja 2" xmlns="http://www.w3.org/2000/svg" viewBox="0 0 1125 940.75">
  <defs>
    <style>
      .cls-1 {
        fill: #f2f2f3;
      }

      .cls-2 {
        fill: #00aeb7;
      }

      .cls-3 {
        fill: #f48b00;
      }

      .cls-4 {
        fill: #181818;
      }
    </style>
  </defs>
  <g id="clouds">
    <g>
      <circle class="cls-1" cx="-39.99" cy="711.72" r="55.25"/>
      <circle class="cls-1" cx="18.21" cy="618.93" r="97.43"/>
      <circle class="cls-1" cx="57.86" cy="699.07" r="97.43"/>
      <circle class="cls-1" cx="127.03" cy="628.21" r="64.53"/>
      <circle class="cls-1" cx="202.95" cy="675.45" r="64.53"/>
      <circle class="cls-1" cx="148.12" cy="693.16" r="64.53"/>
    </g>
    <g>
      <circle class="cls-1" cx="366.55" cy="775.44" r="77.17"/>
      <circle class="cls-1" cx="680.66" cy="698.28" r="77.17"/>
      <circle class="cls-1" cx="757.83" cy="775.44" r="77.17"/>
      <circle class="cls-1" cx="688.27" cy="809.14" r="77.17"/>
      <circle class="cls-1" cx="425.24" cy="704.8" r="77.17"/>
      <circle class="cls-1" cx="450.24" cy="828.7" r="77.17"/>
      <circle class="cls-1" cx="562.19" cy="809.14" r="110.86"/>
      <circle class="cls-1" cx="561.1" cy="683.06" r="119.56"/>
    </g>
    <g>
      <circle class="cls-1" cx="940.94" cy="645.06" r="75.22"/>
      <circle class="cls-1" cx="1018.23" cy="671.28" r="75.22"/>
      <circle class="cls-1" cx="1116.91" cy="612.63" r="58.65"/>
      <circle class="cls-1" cx="1111.39" cy="661.62" r="58.65"/>
      <circle class="cls-1" cx="1175.56" cy="645.06" r="52.44"/>
      <circle class="cls-1" cx="1007.88" cy="596.07" r="85.57"/>
    </g>
  </g>
  <g id="text-2" data-name="text">
    <g id="save_the_date" data-name="save the date">
      <g>
        <g>
          <path class="cls-4" d="m192.38,106.54c-5.25-2.46-10.17-3.77-15.91-3.61-10.01,0-16.24,6.23-16.24,16.73,0,11.97,6.56,19.85,17.55,30.84,14.93,14.93,20.01,22.14,20.01,36.09,0,16.73-10.01,27.56-28.54,27.56-6.07,0-14.6-1.64-21.16-5.74l1.31-2.3c6.89,3.94,13.45,5.09,19.68,5.09,10.01,0,16.9-4.1,17.06-16.57,0-11.15-4.26-18.04-17.55-30.84-11.97-11.65-20.01-21.49-20.01-36.74,0-16.9,11.48-27.07,27.56-27.07,6.4,0,12.3,1.48,17.39,4.1l-1.15,2.46Z"/>
          <path class="cls-4" d="m240.85,174.61h-26.08l-8.53,37.89h-3.44l23.46-103.67-1.64-7.38h14.6l24.6,111.05h-14.6l-8.37-37.89Zm-.66-2.95l-12.3-55.44-12.47,55.44h24.77Z"/>
          <path class="cls-4" d="m324.67,101.45l-22.14,111.05h-14.27l-23.46-111.05h14.76l21.49,102.85,20.18-102.85h3.44Z"/>
          <path class="cls-4" d="m386.02,212.5h-49.21v-111.05h46.09v2.95h-31.99v50.19h25.75v2.95h-25.75v52h35.1v2.95Z"/>
          <path class="cls-4" d="m486.89,101.45v2.95h-24.44v108.1h-14.11v-108.1h-24.44v-2.95h62.99Z"/>
          <path class="cls-4" d="m510.38,156.41v56.1h-14.11v-111.05h14.11v52h31.49v-52h14.11v111.05h-14.11v-56.1h-31.49Z"/>
          <path class="cls-4" d="m625.79,212.5h-49.21v-111.05h46.09v2.95h-31.99v50.19h25.75v2.95h-25.75v52h35.1v2.95Z"/>
          <path class="cls-4" d="m706.49,101.45c39.86,0,60.2,18.54,60.2,55.77,0,34.94-22.14,55.28-62.99,55.28h-31v-111.05h33.79Zm-4.27,108.1c32.97,0,48.39-21.32,48.39-52.33,0-33.79-16.57-52.82-48.06-52.82h-15.75v105.14h15.42Z"/>
          <path class="cls-4" d="m809.62,174.61h-26.08l-8.53,37.89h-3.45l23.46-103.67-1.64-7.38h14.6l24.6,111.05h-14.6l-8.37-37.89Zm-.66-2.95l-12.3-55.44-12.47,55.44h24.77Z"/>
          <path class="cls-4" d="m889.68,101.45v2.95h-24.44v108.1h-14.11v-108.1h-24.44v-2.95h62.99Z"/>
          <path class="cls-4" d="m948.27,212.5h-49.21v-111.05h46.09v2.95h-31.99v50.19h25.75v2.95h-25.75v52h35.1v2.95Z"/>
          <path class="cls-4" d="m973.63,99.16l-6.89,81.2h-2.95l-7.05-78.9,16.9-2.3Zm-16.73,106.29c0-4.92,3.12-8.69,8.37-8.69,4.76,0,8.53,3.77,8.53,8.69s-3.77,8.69-8.53,8.69-8.37-3.94-8.37-8.69Z"/>
        </g>
        <g>
          <path class="cls-2" d="m157.73,327.62v-73.71h-7.6v-1.93l22.2-7.12h1.93v82.76h-16.53Z"/>
          <path class="cls-2" d="m227.36,307.11c0,12.31-5.55,22.08-22.44,22.08-11.58,0-19.9-8.2-19.9-19.42,0-12.79,5.31-18.22,11.94-21.11-5.43-4.71-10.25-10.13-10.25-21.96,0-13.99,7.96-21.71,20.99-21.71s17.97,8.2,17.97,18.1c0,11.82-6.15,17.85-11.34,20.15,6.51,5.55,13.03,11.22,13.03,23.89Zm-15.8,6.39c0-12.67-6.03-17.61-12.06-22.68v.12c-.24-.48-1.81,4.58-1.81,18.82,0,13.39,3.62,17.25,7.36,17.25,3.14,0,6.51-2.53,6.51-13.51Zm-9.89-51.63c.24,9.53,4.95,14.72,10.37,19.3,1.57-3.02,2.17-7.96,2.17-18.58,0-8.32-1.57-15.44-6.63-15.44-4.22,0-6.15,5.67-5.91,14.72Z"/>
          <path class="cls-2" d="m303.96,245.95v81.67h-16.89l-23.28-67.44v67.44h-2.41v-73.23l-2.9-8.44h16.77l26.3,74.67v-74.67h2.41Z"/>
          <path class="cls-2" d="m313.41,286.84c0-25.57,17.73-42.58,45-42.58s45.12,16.89,45.12,42.34-17.98,42.58-45.12,42.58-45-16.89-45-42.34Zm71.66.12c0-24.49-10.25-40.77-26.66-40.77s-26.54,16.17-26.54,40.29,10.38,40.77,26.54,40.77,26.66-16.17,26.66-40.29Z"/>
          <path class="cls-2" d="m453.76,245.95l-15.32,81.67h-16.17l-16.17-81.67h16.89l14.48,74.19,13.75-74.19h2.53Z"/>
          <path class="cls-2" d="m461.32,327.62v-81.67h16.41v81.67h-16.41Z"/>
          <path class="cls-2" d="m531.61,327.62h-40.65v-81.67h38.48v2.17h-22.08v36.91h17.49v2.17h-17.49v38.24h24.25v2.17Z"/>
          <path class="cls-2" d="m599.38,245.95v81.67h-16.41v-70.33l-20.75,71.54h-1.57l-21.35-69.85v68.64h-2.41v-75.4l-1.93-6.27h17.61l15.68,53.08,15.32-53.08h15.8Z"/>
          <path class="cls-2" d="m659.67,303.97c0,15.08-8.08,23.64-21.35,23.64h-25.45v-81.67h24.85c12.06,0,18.94,6.39,18.94,18.82,0,9.53-4.95,16.77-17.25,19.06,14.24.97,20.27,8.32,20.27,20.15Zm-30.4-20.87h2.17c5.19,0,8.81-7.72,8.81-19.06,0-9.89-2.41-15.92-8.2-15.92h-2.77v34.98Zm13.27,21.83c0-12.06-3.74-19.66-10.86-19.66h-2.41v40.17h3.38c6.51,0,9.89-8.81,9.89-20.51Z"/>
          <path class="cls-2" d="m718.03,327.62h-17.49l-4.46-28.35c-1.21-7.12-3.74-12.3-9.17-12.3h-.84v40.65h-16.41v-81.67h22.08c16.04,0,23.16,8.2,23.16,18.94,0,13.39-9.77,19.78-20.87,20.99,10.98,1.45,16.41,6.88,18.34,15.56l5.67,26.18Zm-31.97-42.83h2.29c4.58,0,8.93-4.71,8.93-18.34,0-10.25-1.81-18.34-8.44-18.34h-2.77v36.67Z"/>
          <path class="cls-2" d="m767.16,327.62h-40.65v-81.67h38.48v2.17h-22.08v36.91h17.49v2.17h-17.49v38.24h24.25v2.17Z"/>
          <path class="cls-2" d="m831.1,315.79v11.82h-38.12v-5.07c0-7,2.77-14.72,10.62-26.06,7.48-10.86,11.1-24.13,11.1-36.67,0-8.32-4.34-11.58-9.53-11.58-2.89,0-6.03.96-8.93,2.65l-1.33-2.17c4.22-2.53,9.17-3.74,14.11-3.74,13.87,0,21.71,6.64,21.71,20.99,0,12.67-7.96,21.96-18.46,30.52-9.41,7.6-14.36,13.03-16.17,19.3h34.98Z"/>
          <path class="cls-2" d="m860.87,329.19c-15.92,0-23.28-13.27-23.28-42.22s7.48-41.98,23.64-41.98,23.4,13.15,23.4,41.98-7.48,42.22-23.77,42.22Zm0-2.17c4.58,0,6.76-12.43,6.76-40.05s-2.05-39.81-6.39-39.81c-4.58,0-6.76,12.43-6.76,39.81s2.05,40.05,6.39,40.05Z"/>
          <path class="cls-2" d="m925.85,315.79v11.82h-38.12v-5.07c0-7,2.77-14.72,10.62-26.06,7.48-10.86,11.1-24.13,11.1-36.67,0-8.32-4.34-11.58-9.53-11.58-2.89,0-6.03.96-8.93,2.65l-1.33-2.17c4.22-2.53,9.17-3.74,14.11-3.74,13.87,0,21.71,6.64,21.71,20.99,0,12.67-7.96,21.96-18.46,30.52-9.41,7.6-14.36,13.03-16.17,19.3h34.98Z"/>
          <path class="cls-2" d="m968.89,304.58c0,18.34-13.87,24.73-25.82,24.73-4.71,0-9.17-.97-12.43-2.65l.96-1.93c2.9,1.21,6.03,2.05,8.81,2.05,6.63,0,11.82-5.19,11.82-20.99,0-14.84-4.34-20.15-9.05-20.15h-4.7v-2.17h4.58c4.34,0,7.24-5.55,7.24-19.18,0-11.22-3.02-16.65-9.17-16.65-2.41,0-5.43.84-8.81,2.53l-.84-1.69c4.58-2.29,9.53-3.5,14.36-3.5,10.98,0,20.87,6.15,20.87,18.82,0,9.65-3.86,18.58-17.97,20.63,15.08.96,20.03,10.74,20.15,20.15Z"/>
        </g>
      </g>
      <g>
        <rect class="cls-3" x="544" y="371.86" width="437" height="68.71" rx="15.07" ry="15.07"/>
        <g>
          <path class="cls-4" d="m591.3,394.24c-.75,1.18-1.46,1.56-1.46,1.56,0,0-2.36-2.31-7.12-2.31-6.18,0-8.86,4.95-8.86,11.03s3.16,11.08,8.82,11.08c2.88,0,4.67-.94,5.66-1.65.71-.47,1.46-.85,2.12.33l1.23,2.17c.42.71.75,1.32-.09,2.03-1.23.99-4.24,2.59-9.05,2.59-10.14,0-15.14-7.07-15.09-16.5.05-9.38,4.9-16.5,14.95-16.5,5.09,0,7.73,1.56,8.63,2.22.8.57,1.79,1.79.28,3.96Z"/>
          <path class="cls-4" d="m599.68,388.53h16.93c1.65,0,1.93.8,1.93,2.03v1.65c0,1.32-.66,1.84-2.03,1.79h-12.4l-.05,8.2c3.49,0,9.52,0,10.66-.05.85-.05,1.6.38,1.6,1.51v1.89c0,1.23-.38,1.46-1.46,1.46-1.37,0-7.21-.05-10.8,0,0,3.06.05,5.66.09,8.11,3.58,0,10.99-.05,12.4-.14,1.37-.09,1.98.57,1.98,1.89v2.22c0,1.23-.28,1.51-1.93,1.51h-16.74c-2.17,0-2.22-1.93-2.17-3.39.09-3.73-.09-23.76-.09-24.85-.05-1.6-.8-3.82,2.07-3.82Z"/>
          <path class="cls-4" d="m642.69,408.71l4.62,6.04c.8,1.23,1.65,1.27,2.88,1.27.9,3.77-.75,5.05-3.4,5.05s-3.72-1.37-4.81-3.16l-5.33-8.11h-5.28c-.05,1.18-.14,6.79,0,8.11.14,2.03-.38,2.69-1.98,2.69h-2.36c-2.17,0-2.22-1.93-2.17-3.39.09-3.73.14-23.76.09-24.9,0-1.6-.42-3.77,2.45-3.77h9.71c8.02,0,12.26,4.43,12.16,10.8,0,4.72-2.92,7.92-6.6,9.38Zm-5.89-15.51h-5.56c-.09,2.69,0,10.37,0,12.21h5.52c3.68,0,6.18-2.12,6.18-6.08,0-2.97-1.7-6.13-6.13-6.13Z"/>
          <path class="cls-4" d="m658.12,388.53h16.93c1.65,0,1.93.8,1.93,2.03v1.65c0,1.32-.66,1.84-2.03,1.79h-12.4l-.05,8.2c3.49,0,9.52,0,10.66-.05.85-.05,1.6.38,1.6,1.51v1.89c0,1.23-.38,1.46-1.46,1.46-1.37,0-7.21-.05-10.8,0,0,3.06.05,5.66.09,8.11,3.58,0,10.99-.05,12.4-.14,1.37-.09,1.98.57,1.98,1.89v2.22c0,1.23-.28,1.51-1.93,1.51h-16.74c-2.17,0-2.22-1.93-2.17-3.39.09-3.73-.09-23.76-.09-24.85-.05-1.6-.8-3.82,2.07-3.82Z"/>
          <path class="cls-4" d="m686.8,388.53h4.57c.85,0,2.07.19,2.45,1.6.52,1.7,6.41,19.1,6.41,19.1h.38s6.13-17.54,6.6-19.14c.42-1.51,1.65-1.56,2.69-1.56h4.57c2.22,0,2.12,1.89,2.17,3.35.24,3.21,1.65,20.79,2.07,25.6.09,1.6.85,3.11-2.12,3.11h-2.12c-2.36,0-2.03-1.41-2.12-2.88-.14-1.89-1.04-18.53-1.37-22.44h-.33c-.85,2.88-5.85,17.07-6.32,18.72-.38,1.08-1.04,1.46-1.79,1.46h-4.15c-1.13,0-1.79-.85-1.98-1.46-.52-1.93-5.56-16.17-6.27-18.72h-.28c-.19,5.52-.8,19.94-.9,22.54-.09,1.65.28,2.78-1.98,2.78h-2.4c-2.17,0-2.36-1.13-2.17-2.59.42-3.72,2.12-24.94,2.36-26.88.05-.75-.05-2.59,2.03-2.59Z"/>
          <path class="cls-4" d="m738.53,421.07c-9.81,0-14.52-7.07-14.48-16.5.05-9.29,4.62-16.5,14.43-16.5,9.29,0,14.43,7.17,14.43,16.5-.09,9.38-5.04,16.5-14.38,16.5Zm-.05-27.63c-5.99,0-7.92,5.14-7.92,11.08.05,5.85,1.93,11.17,7.92,11.17s7.83-5.42,7.83-11.17-1.98-11.08-7.83-11.08Z"/>
          <path class="cls-4" d="m781.73,388.53h2.31c2.17,0,2.17,1.89,2.17,3.35-.05,1.65-.33,22.54-.14,24.9.05,1.6.85,3.82-2.07,3.82h-2.26c-1.93,0-2.17-1.74-2.22-3.02-.05-1.65-11.46-15.42-13.91-19.1h-.42c0,3.16.42,17.4.52,18.29.05,1.6.8,3.82-2.08,3.82h-2.4c-2.17,0-2.22-1.93-2.17-3.39.14-3.73.09-24.52.09-25.6,0-1.6-.28-3.06,2.31-3.06h3.21l14.8,19.43h.38c-.09-2.12-.28-17.26-.28-17.78-.05-.8.09-1.65,2.17-1.65Z"/>
          <path class="cls-4" d="m796.17,388.53h2.41c2.17,0,2.22,1.89,2.17,3.35-.14,4.48-.09,22.54,0,24.9.14,1.6.9,3.82-1.98,3.82h-2.36c-2.22,0-2.26-1.93-2.22-3.39.14-3.73-.09-20.7-.09-24.85,0-1.6-.8-3.82,2.07-3.82Z"/>
          <path class="cls-4" d="m818.29,388.53h4.24c2.03,0,2.78,1.08,3.25,2.69.38,1.6,7.59,24.19,8.2,26.69.38,1.6.19,2.69-1.51,2.69h-1.93c-2.22,0-2.31-1.56-2.64-2.36-.28-.71-.8-2.69-1.75-5h-11.88c-.85,2.45-1.51,4.29-1.65,4.86-.33,1.65-.75,2.5-2.41,2.5h-2.69c-1.27,0-1.74-1.13-1.32-2.55,1.13-3.87,8.39-25.18,8.86-26.88.42-1.56.99-2.64,3.21-2.64Zm-2.92,20.18h9.71c-1.93-6.27-4.2-13.63-4.71-15.7h-.28c-.52,2.26-2.78,9.57-4.71,15.7Z"/>
          <path class="cls-4" d="m861.62,395.37l-6.08,2.83c-1.32.47-1.89-.09-2.22-.8l-.57-1.27c-.52-1.13-.28-1.93.75-2.45l9.95-5.14h2.4c2.22,0,2.17,1.89,2.12,3.35-.14,1.65-.33,22.54-.24,24.9.14,1.6.85,3.82-2.07,3.82h-2.36c-2.22,0-2.22-1.93-2.17-3.39.14-2.4.33-17.3.47-21.83Z"/>
          <path class="cls-4" d="m873.46,418.66l-.09-3.4c5.04-5.28,14.57-11.6,14.52-17.78,0-2.26-1.7-4.1-4.76-4.1-4.29,0-7.73,2.36-7.73,2.36,0,0-.52-.52-.9-1.41-1.23-2.83,0-3.68,1.13-4.34.99-.61,3.96-1.93,8.16-1.93,6.08,0,10.28,3.11,10.56,8.39.42,7.31-7.92,13.39-12.73,18.29v.42c2.17,0,9.85-.19,10.66-.28,1.46-.14,2.03.66,1.98,1.98v2.22c-.05,1.23-.28,1.51-2.12,1.51h-16.46c-1.51,0-2.22-.57-2.22-1.93Z"/>
          <path class="cls-4" d="m904,394.19c2.17,0,4.01.42,4.01,4.15s-1.74,4.1-3.96,4.1-4.1-.47-4.05-4.1c-.09-3.72,1.65-4.15,4.01-4.15Zm0,18.62c2.17,0,4.01.47,4.01,4.15s-1.74,4.1-3.96,4.1-4.1-.42-4.05-4.1c-.09-3.68,1.65-4.15,4.01-4.15Z"/>
          <path class="cls-4" d="m921.72,395.37l-6.08,2.83c-1.32.47-1.89-.09-2.22-.8l-.57-1.27c-.52-1.13-.28-1.93.75-2.45l9.95-5.14h2.4c2.22,0,2.17,1.89,2.12,3.35-.14,1.65-.33,22.54-.24,24.9.14,1.6.85,3.82-2.08,3.82h-2.36c-2.22,0-2.22-1.93-2.17-3.39.14-2.4.33-17.3.47-21.83Z"/>
          <path class="cls-4" d="m935.85,392.4c0-2.45-.24-3.87,2.88-3.87h13.91c1.6,0,1.84.8,1.84,2.03v1.89c0,1.51-1.04,1.65-3.06,1.65-2.31,0-6.7,0-9.67.05-.05,2.12-.19,5.56-.19,6.51,8.77-.47,15.28,1.89,15.28,9.76,0,6.13-4.38,10.66-12.02,10.66-7.03,0-11.32-2.12-10.56-5.28.24-1.23.99-2.26,1.18-2.4,0,0,4.1,2.45,9.19,2.45,3.91,0,5.85-2.4,5.85-5.42s-2.26-5.09-8.58-5.09c-1.79,0-3.49.19-4.53.19-1.13,0-1.84-.57-1.75-2.12.09-.85.19-8.16.24-10.99Z"/>
        </g>
      </g>
      <g>
        <rect class="cls-3" x="151" y="371.86" width="321" height="68.71" rx="15.07" ry="15.07"/>
        <g>
          <path class="cls-4" d="m185.17,405.39c6.04,1.65,8.06,4.67,8.16,8.77.14,6.27-5.14,9.9-12.31,9.9-4.01,0-7.17-1.04-8.25-1.6-2.03-.99-2.45-2.31-1.74-4.2.42-1.37,1.41-2.07,1.41-2.07,0,0,3.06,2.64,8.44,2.64,3.63,0,5.89-1.79,5.85-4.43,0-1.89-1.7-3.3-4.95-4.1l-4.05-1.04c-4.2-1.08-7.59-3.35-7.69-8.35-.09-5.75,4.43-9.85,11.55-9.85,4.24,0,7.17,1.08,8.35,1.74,1.6.85,2.26,1.93,1.27,4.15-.47,1.04-1.18,1.7-1.18,1.7,0,0-3.58-2.36-8.2-2.36-3.58,0-5.33,1.79-5.33,4.34.05,2.12,2.26,3.02,4.67,3.68l4.01,1.08Z"/>
          <path class="cls-4" d="m208.87,391.53h4.24c2.03,0,2.78,1.08,3.25,2.69.38,1.6,7.59,24.19,8.2,26.69.38,1.6.19,2.69-1.51,2.69h-1.93c-2.22,0-2.31-1.56-2.64-2.36-.28-.71-.8-2.69-1.74-5h-11.88c-.85,2.45-1.51,4.29-1.65,4.86-.33,1.65-.75,2.5-2.4,2.5h-2.69c-1.27,0-1.74-1.13-1.32-2.55,1.13-3.87,8.39-25.18,8.86-26.88.42-1.56.99-2.64,3.21-2.64Zm-2.92,20.18h9.71c-1.93-6.27-4.2-13.63-4.71-15.7h-.28c-.52,2.26-2.78,9.57-4.71,15.7Z"/>
          <path class="cls-4" d="m229.76,420.72v-3.58c.09-5.56.05-15.47.05-19.57,0-1.46-.14-2.83-.09-4.34.05-1.04.33-1.7,1.79-1.7h2.59c1.93,0,2.07,1.51,2.12,2.83.05.38,0,1.32,0,2.55-.09,4.81-.19,16.69-.09,21.22,3.54,0,10.56,0,11.88-.14,1.37-.14,1.98.66,1.98,1.98,0,.66,0,1.27-.05,1.93.05,1.23-.24,1.7-1.89,1.7h-16.08c-1.93,0-2.17-1.56-2.22-2.88Z"/>
          <path class="cls-4" d="m267.47,424.07c-9.81,0-14.52-7.07-14.48-16.5.05-9.29,4.62-16.5,14.43-16.5,9.29,0,14.43,7.17,14.43,16.5-.09,9.38-5.04,16.5-14.38,16.5Zm-.05-27.63c-5.99,0-7.92,5.14-7.92,11.08.05,5.85,1.93,11.17,7.92,11.17s7.83-5.42,7.83-11.17-1.98-11.08-7.83-11.08Zm-5.66-7.87l-.47-.85c-.47-.9-.33-1.46.52-1.89,1.84-.94,6.98-3.49,9.1-4.67,1.04-.57,1.41-.42,1.79.47l.8,1.74c.38.94.38,1.41-.61,1.84,0,0-7.97,3.25-9.34,3.87-1.08.52-1.37.28-1.79-.52Z"/>
          <path class="cls-4" d="m310.67,391.53h2.31c2.17,0,2.17,1.89,2.17,3.35-.05,1.65-.33,22.54-.14,24.9.05,1.6.85,3.82-2.07,3.82h-2.26c-1.93,0-2.17-1.74-2.22-3.02-.05-1.65-11.46-15.42-13.91-19.1h-.42c0,3.16.42,17.4.52,18.29.05,1.6.8,3.82-2.07,3.82h-2.4c-2.17,0-2.22-1.93-2.17-3.39.14-3.73.09-24.52.09-25.6,0-1.6-.28-3.06,2.31-3.06h3.21l14.81,19.43h.38c-.09-2.12-.28-17.26-.28-17.78-.05-.8.09-1.65,2.17-1.65Z"/>
          <path class="cls-4" d="m344.8,398.37l-6.08,2.83c-1.32.47-1.89-.09-2.22-.8l-.57-1.27c-.52-1.13-.28-1.93.75-2.45l9.95-5.14h2.4c2.22,0,2.17,1.89,2.12,3.35-.14,1.65-.33,22.54-.24,24.9.14,1.6.85,3.82-2.08,3.82h-2.36c-2.22,0-2.22-1.93-2.17-3.39.14-2.4.33-17.3.47-21.83Z"/>
          <path class="cls-4" d="m356.64,421.66l-.09-3.4c5.04-5.28,14.57-11.6,14.52-17.78,0-2.26-1.7-4.1-4.76-4.1-4.29,0-7.73,2.36-7.73,2.36,0,0-.52-.52-.9-1.41-1.23-2.83,0-3.68,1.13-4.34.99-.61,3.96-1.93,8.16-1.93,6.08,0,10.28,3.11,10.56,8.39.42,7.31-7.92,13.39-12.73,18.29v.42c2.17,0,9.85-.19,10.66-.28,1.46-.14,2.03.66,1.98,1.98v2.22c-.05,1.23-.28,1.51-2.12,1.51h-16.46c-1.51,0-2.22-.57-2.22-1.93Z"/>
          <path class="cls-4" d="m387.18,397.19c2.17,0,4.01.42,4.01,4.15s-1.74,4.1-3.96,4.1-4.1-.47-4.05-4.1c-.09-3.72,1.65-4.15,4.01-4.15Zm0,18.62c2.17,0,4.01.47,4.01,4.15s-1.74,4.1-3.96,4.1-4.1-.42-4.05-4.1c-.09-3.68,1.65-4.15,4.01-4.15Z"/>
          <path class="cls-4" d="m408.73,424.07c-9.01,0-12.31-7.12-12.31-16.5s3.91-16.5,12.82-16.5,12.31,7.17,12.35,16.5c.05,9.19-4.01,16.5-12.87,16.5Zm.47-27.63c-4.76,0-6.51,5.28-6.51,11.08s1.42,11.17,6.08,11.17,6.55-5.47,6.55-11.13-1.65-11.13-6.13-11.13Z"/>
          <path class="cls-4" d="m438.98,424.07c-9.01,0-12.31-7.12-12.31-16.5s3.91-16.5,12.82-16.5,12.31,7.17,12.35,16.5c.05,9.19-4.01,16.5-12.87,16.5Zm.47-27.63c-4.76,0-6.51,5.28-6.51,11.08s1.42,11.17,6.08,11.17,6.55-5.47,6.55-11.13-1.65-11.13-6.13-11.13Z"/>
        </g>
      </g>
    </g>
  </g>
</svg>