<?xml version="1.0" encoding="UTF-8"?>
<svg id="hoja_2" data-name="hoja 2" xmlns="http://www.w3.org/2000/svg" viewBox="0 0 582 38.5">
  <defs>
    <style>
      .cls-1 {
        fill: #f2f2f3;
      }
    </style>
  </defs>
  <g id="text-2" data-name="text">
    <g>
      <path class="cls-1" d="m8.84,10.26c-1.16,0-7.56-.04-7.92-.04C.24,10.26,0,9.94,0,9.18v-.96c0-.72.16-.92,1.04-.92,0,0,17.76.08,19.12,0,.68-.04.96.36.92,1.12v1c0,.68-.12.84-.96.84h-8.08c-.16,5.52.04,21.56.04,22.12-.04.88.4,2.12-1.08,2.12h-1.16c-1.12,0-1.12-1.04-1.12-1.88.04-.8.16-17.8.12-22.36Z"/>
      <path class="cls-1" d="m31.84,12.1c5.4,0,8.4,3.96,8.4,7.96,0,3.48-.72,3.72-1.88,3.72h-13.12l-.08.12c0,4.4,2.12,8.4,7.12,8.4,3.48,0,5.92-2,6.12-2.16,0,0,.52.2.84.88.32.68.2,1.4-.4,1.88-.64.56-3.16,2-6.56,2-7.24,0-10.24-4.92-10.24-11.52s3.68-11.28,9.8-11.28Zm5.2,9.36s.08-.72.08-1.4c0-2.92-1.76-5.32-5.32-5.32-4.76,0-6.36,4.32-6.48,6.72h11.72Z"/>
      <path class="cls-1" d="m46.76,7.86c-.08-1.32,0-1.76,1.36-1.76,1.88,0,1.92.92,1.84,1.92-.08,2.08-.4,17.08-.36,22.92.04,1.44.68,1.4,2.32,1.2.56-.08.8.12.84.48l.08.92c0,.48-.04.64-.48.84-.56.24-1.76.52-2.64.52-2.04,0-3.16-1.12-3.16-3.76-.04-2.96.28-21.88.2-23.28Z"/>
      <path class="cls-1" d="m67.44,12.1c5.4,0,8.4,3.96,8.4,7.96,0,3.48-.72,3.72-1.88,3.72h-13.12l-.08.12c0,4.4,2.12,8.4,7.12,8.4,3.48,0,5.92-2,6.12-2.16,0,0,.52.2.84.88.32.68.2,1.4-.4,1.88-.64.56-3.16,2-6.56,2-7.24,0-10.24-4.92-10.24-11.52s3.68-11.28,9.8-11.28Zm5.2,9.36s.08-.72.08-1.4c0-2.92-1.76-5.32-5.32-5.32-4.76,0-6.36,4.32-6.48,6.72h11.72Zm-10.24-11.92l-.24-.48c-.32-.6-.28-.96.24-1.24,1.48-.72,6.28-3.16,7.84-4.04.68-.36.92-.24,1.16.32l.48,1.12c.24.56.16.96-.28,1.16,0,0-7.44,3.2-8.12,3.52-.68.36-.8.12-1.08-.36Z"/>
      <path class="cls-1" d="m83.76,16.78c-.28,0-1.84,0-2.6.04-.6.04-.72-.16-.72-.68v-.76c0-.4.16-.68.52-.72l2.8-.52v-1.92c0-3.2,1.76-6.12,5.96-6.12,1.68,0,2.8.24,3.52.36,0,0,.44,2.44-1.24,2.44-.76,0-1.48-.16-2.24-.16-1.56,0-2.96.96-2.96,3.48v1.96s2.32.04,4.6,0c.68,0,.88.16.84.72l-.08,1.24c-.04.52-.24.68-.68.68h-4.68c-.04,3.4.04,15,.04,15.8,0,.88.2,1.88-1,1.88h-1c-1.12,0-1.12-.88-1.12-1.72.04-.64,0-14.4.04-16Z"/>
      <path class="cls-1" d="m105.64,12.1c6.48,0,9.88,4.96,9.8,11.24-.08,6.6-3.32,11.6-9.76,11.6s-9.84-4.92-9.76-11.56c.12-6.24,3.24-11.28,9.72-11.28Zm6.6,11.28c0-4.68-1.84-8.64-6.56-8.64-5.08,0-6.52,4-6.52,8.64s1.44,8.92,6.48,8.92,6.6-4.2,6.6-8.92Z"/>
      <path class="cls-1" d="m121.44,28.49c.04-4.68.04-13.68.04-14.64,0-.88-.32-1.76,1.28-1.76,1.72,0,1.96.96,1.96,2.04,0,.56-.08,1.28-.08,2.08h.28c.36-.64,2.48-4.12,7.24-4.12,5.36,0,7.96,3.4,7.92,8.6-.04,3.28-.16,7.84-.16,12.32,0,.92.36,1.88-1.32,1.88-1.8,0-1.92-.84-1.92-1.56,0-3.88.12-8.08.12-12.68,0-3.28-1.68-5.92-5.16-5.92-4.04,0-6.32,3.48-7.04,5.32,0,2.88-.08,7-.08,9.08,0,1.48,0,3.08.04,3.36.08,1.08.08,2-1.08,2h-1.04c-1.16,0-1.16-1.12-1.12-1.88s.12-2.52.12-4.12Z"/>
      <path class="cls-1" d="m155.48,12.1c6.48,0,9.88,4.96,9.8,11.24-.08,6.6-3.32,11.6-9.76,11.6s-9.84-4.92-9.76-11.56c.12-6.24,3.24-11.28,9.72-11.28Zm6.6,11.28c0-4.68-1.84-8.64-6.56-8.64-5.08,0-6.52,4-6.52,8.64s1.44,8.92,6.48,8.92,6.6-4.2,6.6-8.92Z"/>
    </g>
  </g>
</svg>