<?xml version="1.0" encoding="UTF-8"?>
<svg id="hoja_2" data-name="hoja 2" xmlns="http://www.w3.org/2000/svg" viewBox="0 0 582 38.5">
  <defs>
    <style>
      .cls-1 {
        fill: #f2f2f3;
      }
    </style>
  </defs>
  <g id="text-2" data-name="text">
    <g>
      <path class="cls-1" d="m6.2,20.27s.68-.44,1.48-.44c1,0,1.56.56,1.56,1.44,0,2.84-5.92,5.6-5.92,9.4,0,2.08,1.36,3.64,4.28,3.64,3.68,0,5.96-2.48,5.96-2.48,0,0,2.12,1.56.68,3-1.08,1.12-3.64,2.28-6.64,2.28C2.72,37.11-.08,34.59,0,30.67c.08-4.76,6.04-7.8,6.2-10.4Zm-1.12-8.44c0-2.48,1.2-2.72,2.76-2.72s2.84.24,2.84,2.72c.08,2.6-1.2,2.84-2.68,2.84s-2.84-.24-2.92-2.84Z"/>
      <path class="cls-1" d="m28.32,5.72c.28-.88.76-1.4,1.88-1.4h1.32c1.32,0,1.68.6,2.04,1.64.36,1.2,8.6,23.2,8.96,24.39.2.72-.08,1.16-.92,1.16h-.8c-1.2,0-1.24-.72-1.4-1.16-.44-.96-1.44-3.76-2.24-5.72h-12.68c-.92,2.44-1.96,4.96-2.16,5.64-.28.96-.76,1.24-1.36,1.24h-1.2c-.64,0-.92-.44-.6-1.28.52-1.72,8.72-23.12,9.16-24.52Zm8.04,16.4c-2.2-5.96-4.8-13.2-5.44-15.12h-.24c-.6,1.84-3.12,9.12-5.44,15.12h11.12Z"/>
      <path class="cls-1" d="m47.96,4.88c-.08-1.32,0-1.76,1.36-1.76,1.88,0,1.92.92,1.84,1.92-.08,2.08-.4,17.08-.36,22.92.04,1.44.68,1.4,2.32,1.2.56-.08.8.12.84.48l.08.92c0,.48-.04.64-.48.84-.56.24-1.76.52-2.64.52-2.04,0-3.16-1.12-3.16-3.76-.04-2.96.28-21.88.2-23.28Z"/>
      <path class="cls-1" d="m63.04,28.99v-.2s-1.88-.52-1.88-2.68c0-2.8,3.16-3.32,3.16-3.32v-.2s-5.16-.8-5.16-5.96c0-3.84,2.64-7.52,9.28-7.52h9.56s1.08,2.76-1.56,2.76c-1.44,0-2.68-.28-3.36-.4l-.04.16c1.12.48,4.04,1.72,4.04,5.2,0,4.56-4.16,6.76-9.68,6.76-2.4,0-3.32.64-3.32,1.92,0,.96.84,1.48,2.76,1.48.84,0,3.44-.04,4.84-.04,4.32,0,6.68,1.64,6.68,4.64,0,3.4-3.16,6.32-9.76,6.32-5.72,0-9.16-1.8-9.16-5.08.04-3.2,3.6-3.84,3.6-3.84Zm10.96-12.52c0-2.6-1.88-4.72-5.6-4.72-5.12,0-6.16,2.72-6.16,4.88,0,3.12,2.36,4.44,5.52,4.44,4.44,0,6.24-2,6.24-4.6Zm-5.4,18.88c4.68,0,6.56-1.8,6.56-3.56,0-.96-.6-2.32-3.44-2.32-1.08,0-3.64.04-4.68.04-.96,0-2-.08-2.44-.12-.24.12-2.12.84-2.12,2.68s1.68,3.28,6.12,3.28Z"/>
      <path class="cls-1" d="m84.48,10.68c0-.92,0-1.56,1.32-1.56,1.52,0,1.92.64,1.92,1.6-.08,3.88-.2,8.08-.2,12.64,0,3.56,1.56,5.92,4.92,5.92,3.96,0,6.12-3.24,6.92-5.2,0-2.92.08-7.04.08-9.2,0-1.48,0-3-.04-3.32-.08-1.36.08-2.04,1.08-2.04h1.04c1.12,0,1.2.92,1.16,1.88-.04.76-.12,2.52-.12,4.12-.04,4.72-.12,13.8-.12,14.76,0,.84.32,1.64-1.36,1.64-1.52,0-1.84-.96-1.84-2.08,0-.64.12-1.36.12-2h-.28c-.32.68-2.56,4.08-7.12,4.08-5.4,0-7.68-3.2-7.72-8.6,0-3.2.2-8.72.24-12.64Z"/>
      <path class="cls-1" d="m109.76,25.51c.04-4.68.04-13.68.04-14.64,0-.88-.32-1.76,1.28-1.76,1.72,0,1.96.96,1.96,2.04,0,.56-.08,1.28-.08,2.08h.28c.36-.64,2.48-4.12,7.24-4.12,5.36,0,7.96,3.4,7.92,8.6-.04,3.28-.16,7.84-.16,12.32,0,.92.36,1.88-1.32,1.88-1.8,0-1.92-.84-1.92-1.56,0-3.88.12-8.08.12-12.68,0-3.28-1.68-5.92-5.16-5.92-4.04,0-6.32,3.48-7.04,5.32,0,2.88-.08,7-.08,9.08,0,1.48,0,3.08.04,3.36.08,1.08.08,2-1.08,2h-1.04c-1.16,0-1.16-1.12-1.12-1.88s.12-2.52.12-4.12Z"/>
      <path class="cls-1" d="m141.76,18.47c3,0,5.8.88,6.36,1.16v-2.44c0-3.64-2.08-5.24-5.36-5.24-3.8,0-6.44,1.8-6.44,1.8-.12-.08-1.64-1.72-.24-2.92,1.08-.92,3.56-1.72,7-1.72,5.36,0,8.2,3.16,8.12,8.08-.04,3.52-.12,10.48.04,12.72.08,1.2.44,2-1.6,2-1.64,0-1.68-1.72-1.44-3.48h-.2s-2.88,3.48-7.24,3.48c-4.8,0-6.96-3.2-6.88-6.76.08-4.04,3.04-6.6,7.88-6.68Zm-.2,10.84c3.12,0,5.72-2.04,6.52-3.8v-3.68c-.56-.24-2.84-.92-5.64-.92-3.12,0-5.32,1.48-5.36,4.16,0,2.56,1.64,4.24,4.48,4.24Z"/>
      <path class="cls-1" d="m178.2,18.47c3,0,5.8.88,6.36,1.16v-2.44c0-3.64-2.08-5.24-5.36-5.24-3.8,0-6.44,1.8-6.44,1.8-.12-.08-1.64-1.72-.24-2.92,1.08-.92,3.56-1.72,7-1.72,5.36,0,8.2,3.16,8.12,8.08-.04,3.52-.12,10.48.04,12.72.08,1.2.44,2-1.6,2-1.64,0-1.68-1.72-1.44-3.48h-.2s-2.88,3.48-7.24,3.48c-4.8,0-6.96-3.2-6.88-6.76.08-4.04,3.04-6.6,7.88-6.68Zm-.2,10.84c3.12,0,5.72-2.04,6.52-3.8v-3.68c-.56-.24-2.84-.92-5.64-.92-3.12,0-5.32,1.48-5.36,4.16,0,2.56,1.64,4.24,4.48,4.24Z"/>
      <path class="cls-1" d="m203.64,9.12c5.12,0,6.48,2.44,6.64,4.16.12,1.88-1.12,2.72-2.64,2.2,0,0,.08-.36.08-.64,0-1.24-.96-3.08-3.96-3.08-4.28,0-7.04,3.32-7.04,8.72-.04,5.56,2.44,8.84,6.76,8.84,3.56,0,5.8-1.84,5.8-1.84,0,0,1,.4.88,1.64-.08,1.28-2.68,2.8-6.76,2.8-6.24,0-9.96-3.84-9.96-11.4,0-6.4,4.04-11.4,10.2-11.4Z"/>
      <path class="cls-1" d="m216.8,4.88c-.08-1.32,0-1.76,1.36-1.76,1.88,0,1.92.92,1.84,1.92-.08,2.08-.4,17.08-.36,22.92.04,1.44.68,1.4,2.32,1.2.56-.08.8.12.84.48l.08.92c0,.48-.04.64-.48.84-.56.24-1.76.52-2.64.52-2.04,0-3.16-1.12-3.16-3.76-.04-2.96.28-21.88.2-23.28Z"/>
      <path class="cls-1" d="m235.32,18.47c3,0,5.8.88,6.36,1.16v-2.44c0-3.64-2.08-5.24-5.36-5.24-3.8,0-6.44,1.8-6.44,1.8-.12-.08-1.64-1.72-.24-2.92,1.08-.92,3.56-1.72,7-1.72,5.36,0,8.2,3.16,8.12,8.08-.04,3.52-.12,10.48.04,12.72.08,1.2.44,2-1.6,2-1.64,0-1.68-1.72-1.44-3.48h-.2s-2.88,3.48-7.24,3.48c-4.8,0-6.96-3.2-6.88-6.76.08-4.04,3.04-6.6,7.88-6.68Zm-.2,10.84c3.12,0,5.72-2.04,6.52-3.8v-3.68c-.56-.24-2.84-.92-5.64-.92-3.12,0-5.32,1.48-5.36,4.16,0,2.56,1.64,4.24,4.48,4.24Z"/>
      <path class="cls-1" d="m251.72,26.27c0-3.4.04-9.04.04-12.4,0-1.04,0-2.12-.04-2.56-.04-1.32-.16-2.2,1.4-2.2,1.64,0,1.76.84,1.64,4.08h.32c.8-2.32,2.92-4.08,5.52-4.08,3.48,0,4.88,2.28,4.88,4.96,0,1.68-.52,2.2-2.04,2.2-1.32,0-1.08-.48-1.08-1.72,0-1.48-.76-2.8-2.72-2.8-2.68,0-4.52,3.88-4.76,6.24-.08,3.2-.12,7.88-.04,11.48.04,1,.4,2.04-1.04,2.04h-1c-1.04,0-1.2-.84-1.16-1.88,0-.48.08-2.08.08-3.36Z"/>
      <path class="cls-1" d="m276.16,18.47c3,0,5.8.88,6.36,1.16v-2.44c0-3.64-2.08-5.24-5.36-5.24-3.8,0-6.44,1.8-6.44,1.8-.12-.08-1.64-1.72-.24-2.92,1.08-.92,3.56-1.72,7-1.72,5.36,0,8.2,3.16,8.12,8.08-.04,3.52-.12,10.48.04,12.72.08,1.2.44,2-1.6,2-1.64,0-1.68-1.72-1.44-3.48h-.2s-2.88,3.48-7.24,3.48c-4.8,0-6.96-3.2-6.88-6.76.08-4.04,3.04-6.6,7.88-6.68Zm-.2,10.84c3.12,0,5.72-2.04,6.52-3.8v-3.68c-.56-.24-2.84-.92-5.64-.92-3.12,0-5.32,1.48-5.36,4.16,0,2.56,1.64,4.24,4.48,4.24Z"/>
      <path class="cls-1" d="m301.6,9.12c5.12,0,6.48,2.44,6.64,4.16.12,1.88-1.12,2.72-2.64,2.2,0,0,.08-.36.08-.64,0-1.24-.96-3.08-3.96-3.08-4.28,0-7.04,3.32-7.04,8.72-.04,5.56,2.44,8.84,6.76,8.84,3.56,0,5.8-1.84,5.8-1.84,0,0,1,.4.88,1.64-.08,1.28-2.68,2.8-6.76,2.8-6.24,0-9.96-3.84-9.96-11.4,0-6.4,4.04-11.4,10.2-11.4Z"/>
      <path class="cls-1" d="m314.84,4.24c-.04-1.88.8-2.16,1.92-2.16s2.04.24,2.08,2.16c.04,1.88-.84,2.08-1.92,2.08-1.24,0-2.04-.2-2.08-2.08Zm.28,21.28c.08-4.68.04-11.68.04-14.24,0-.88-.24-1.76,1.36-1.76s1.92.28,1.84,1.44c-.2,5.24-.12,11.92-.12,15.2,0,1.48,0,2.84.04,3.32.08,1.28-.08,2.04-1.08,2.04h-.96c-1.2,0-1.24-.92-1.2-1.92.04-.76.08-2.48.08-4.08Z"/>
      <path class="cls-1" d="m334.64,9.12c6.48,0,9.88,4.96,9.8,11.24-.08,6.6-3.32,11.6-9.76,11.6s-9.84-4.92-9.76-11.56c.12-6.24,3.24-11.28,9.72-11.28Zm6.6,11.28c0-4.68-1.84-8.64-6.56-8.64-5.08,0-6.52,4-6.52,8.64s1.44,8.92,6.48,8.92,6.6-4.2,6.6-8.92Zm-11.16-13.84l-.24-.48c-.32-.6-.28-.96.24-1.24,1.48-.72,6.28-3.16,7.84-4.04.68-.36.92-.24,1.16.32l.48,1.12c.24.56.16.96-.28,1.16,0,0-7.44,3.2-8.12,3.52-.68.36-.8.12-1.08-.36Z"/>
      <path class="cls-1" d="m350.44,25.51c.04-4.68.04-13.68.04-14.64,0-.88-.32-1.76,1.28-1.76,1.72,0,1.96.96,1.96,2.04,0,.56-.08,1.28-.08,2.08h.28c.36-.64,2.48-4.12,7.24-4.12,5.36,0,7.96,3.4,7.92,8.6-.04,3.28-.16,7.84-.16,12.32,0,.92.36,1.88-1.32,1.88-1.8,0-1.92-.84-1.92-1.56,0-3.88.12-8.08.12-12.68,0-3.28-1.68-5.92-5.16-5.92-4.04,0-6.32,3.48-7.04,5.32,0,2.88-.08,7-.08,9.08,0,1.48,0,3.08.04,3.36.08,1.08.08,2-1.08,2h-1.04c-1.16,0-1.16-1.12-1.12-1.88s.12-2.52.12-4.12Z"/>
      <path class="cls-1" d="m380.72,19.75c0-2.8,5.92-5.56,5.92-9.4,0-2.08-1.36-3.64-4.28-3.64-3.68,0-5.96,2.48-5.96,2.48,0,0-2.12-1.52-.68-3,1.08-1.12,3.64-2.28,6.64-2.28,4.88,0,7.68,2.52,7.6,6.44-.08,4.76-6.04,7.8-6.2,10.44,0,0-.68.4-1.48.4-1,0-1.56-.56-1.56-1.44Zm1.24,6.64c1.52,0,2.84.24,2.92,2.84,0,2.44-1.2,2.68-2.76,2.68s-2.84-.24-2.84-2.68c-.08-2.6,1.2-2.84,2.68-2.84Z"/>
    </g>
  </g>
</svg>