<?xml version="1.0" encoding="UTF-8"?>
<svg id="hoja_2" data-name="hoja 2" xmlns="http://www.w3.org/2000/svg" viewBox="0 0 913 139">
  <defs>
    <style>
      .cls-1 {
        fill: #f2f2f3;
      }
    </style>
  </defs>
  <g id="text-2" data-name="text">
    <g>
      <path class="cls-1" d="m24.18,20.65c0-1.4.05-2.35,2.05-2.35h2.6l17.5,22.6h.35c-.1-2.25-.2-20.7-.2-21.15-.05-.7.1-1.45,1.85-1.45h1.95c1.8,0,1.8,1.65,1.8,2.95,0,1.45-.2,25.6-.05,27.7.05,1.4.7,3.35-1.75,3.35h-1.9c-1.65,0-1.85-1.65-1.9-2.75-.05-1.6-14.05-18.35-16.7-22.25h-.45c0,3.35.4,20.85.45,21.65.05,1.4.7,3.35-1.75,3.35h-2c-1.85,0-1.9-1.7-1.85-3,.1-3.3,0-27.65,0-28.65Z"/>
      <path class="cls-1" d="m71.73,24.3c8.3,0,12.65,6.2,12.55,14.1-.1,8.2-4.25,14.45-12.5,14.45s-12.55-6.2-12.45-14.45c.1-7.85,4.15-14.1,12.4-14.1Zm7.15,14.1c0-5.25-1.75-9.75-7.1-9.75-5.75,0-7.05,4.55-7.05,9.75s1.3,10.1,7,10.1,7.15-4.8,7.15-10.1Z"/>
      <path class="cls-1" d="m117.78,24.3c8.3,0,12.65,6.2,12.55,14.1-.1,8.2-4.25,14.45-12.5,14.45s-12.55-6.2-12.45-14.45c.1-7.85,4.15-14.1,12.4-14.1Zm7.15,14.1c0-5.25-1.75-9.75-7.1-9.75-5.75,0-7.05,4.55-7.05,9.75s1.3,10.1,7,10.1,7.15-4.8,7.15-10.1Z"/>
      <path class="cls-1" d="m137.33,19.5c-.15-2,.05-2.7,2.35-2.7,2.9,0,3.2,1.35,3.1,2.95-.15,2.95-.7,20.5-.55,26.9.05,1.95.7,1.8,2.6,1.7.7-.05,1.1.25,1.15.8l.1,1.55c.05.75-.1,1.1-.8,1.4-.95.4-2.7.7-3.85.7-3,0-4.35-2-4.35-5.7,0-3.45.4-25.5.25-27.6Z"/>
      <path class="cls-1" d="m150.83,27.35c-.4-1.15-.7-2.55,1-2.55h1.85c1.7,0,1.8.7,2.25,1.9.75,2.1,6,17.45,7.15,21.8h.35c1.2-4.35,6.3-19.45,7.1-21.75.4-1.1.65-1.95,2.15-1.95h2.5c1.25,0,1.15,1.4.8,2.45-1,2.85-5.9,16.25-8.35,22.3-.45,1.1-.95,2.75-3,2.75h-2.8c-1.8,0-2.5-1.5-2.85-2.4-2.6-6.55-7.35-20.3-8.15-22.55Z"/>
      <path class="cls-1" d="m182.18,18.35c-.1-2.75,1.25-3.05,2.95-3.05s3.05.3,3.15,3.05c.05,2.7-1.3,3-2.95,3-1.8,0-3.05-.3-3.15-3Zm.2,26.7c.1-6.3.1-14.1.1-17.55,0-1.3-.5-2.7,2.3-2.7,2.45,0,3.3.5,3.2,2.45-.3,6.3-.3,14.2-.3,18.35,0,1.65,0,2.9.05,3.35.2,1.95.15,3.35-1.6,3.35h-2.05c-1.85,0-1.85-1.7-1.8-3,.05-.95.1-2.45.1-4.25Z"/>
      <path class="cls-1" d="m195.13,37.7c0-8.1,4.65-13.4,10.35-13.4,4.95,0,7.55,3.85,8.05,5.3h.35c-.05-3.75-.2-8.8-.25-9.95-.1-1.95.05-2.85,2.3-2.85,2.7,0,3.35,1.35,3.3,2.95-.1,1.45-.5,22.3-.15,29.75.05,1.05.55,2.6-.6,3.05-.4.15-1.35.25-2.05.25-2.4,0-2.75-2.1-2.3-4.5h-.3s-2.3,4.5-8.3,4.5-10.4-5.6-10.4-15.1Zm18.75,2.35v-4.4c-.3-1.25-2.55-7-7.3-7-3.2,0-6.05,2.45-6.05,9,0,6.9,2.75,10.85,6.55,10.85,3.6,0,6.8-3.25,6.8-8.45Z"/>
      <path class="cls-1" d="m238.23,24.3c6.95,0,10.75,4.85,10.75,10.05,0,4.35-1.05,5.05-2.7,5.05h-15.3l-.1.15c0,4.5,2.5,8.95,7.85,8.95,4.3,0,7.4-2.45,7.7-2.65,0,0,.85.45,1.25,1.5.5,1.3.2,2.4-.7,3.05-.8.6-3.9,2.4-8.25,2.4-9.2,0-13-6.2-13-14.4s4.6-14.1,12.5-14.1Zm5.5,11.5s.1-.75.1-1.45c0-3.7-1.75-5.7-5.7-5.7-5.4,0-7,4.5-7.1,7.15h12.7Z"/>
      <path class="cls-1" d="m256.13,46.1s3.05,2.4,7.65,2.4c3,0,6.15-.9,6.15-3.75,0-1.95-1.95-2.95-4.45-3.75l-4.15-1.35c-4.7-1.55-6.65-3.5-6.65-7.5,0-4.7,3.8-7.85,10.4-7.85s8.55,2.05,8.75,3.05c.3,1.3-.6,2.85-1.25,3.45,0,0-2.9-2.15-7.45-2.15-1.85,0-5.2.4-5.2,3.45,0,1.6,1.1,2.5,3.35,3.2l4.2,1.3c5.05,1.6,7.6,3.45,7.6,7.7,0,4.95-3.8,8.5-11.3,8.5-6.5,0-8.65-2-8.75-3.65-.1-1.5.75-2.85,1.1-3.05Z"/>
      <path class="cls-1" d="m309.68,24.3c6.75,0,8.7,3.15,8.7,5.8s-2.15,3.8-4.25,2.85c0,0,.1-.45.1-.85,0-1.4-1.05-3.45-4.3-3.45-4.85,0-7.75,3.75-7.75,9.8s2.55,10.05,7.7,10.05c4.15,0,7.05-2.25,7.05-2.25,0,0,1.45.7,1.45,2.6s-3.35,3.95-8.7,3.95c-8.4,0-12.9-5.1-12.9-14.3,0-8,5-14.2,12.9-14.2Z"/>
      <path class="cls-1" d="m335.98,24.3c8.3,0,12.65,6.2,12.55,14.1-.1,8.2-4.25,14.45-12.5,14.45s-12.55-6.2-12.45-14.45c.1-7.85,4.15-14.1,12.4-14.1Zm7.15,14.1c0-5.25-1.75-9.75-7.1-9.75-5.75,0-7.05,4.55-7.05,9.75s1.3,10.1,7,10.1,7.15-4.8,7.15-10.1Z"/>
      <path class="cls-1" d="m355.18,45.05c.1-6.3.1-16.3.1-18.05,0-1.3-.75-2.7,2.3-2.7,2.8,0,3.2,1.9,3.2,3.5,0,.25-.05.8-.05,1.8h.35c.4-1.05,2.6-5.3,8.55-5.3,7.05,0,9.7,4.95,9.7,11,0,4.05-.3,8.35-.3,14.8,0,1.4.3,2.7-2.35,2.7-2.8,0-3.2-1.25-3.2-2.6,0-4.7.3-9.65.3-14.95,0-3.65-1.75-6.6-5.2-6.6-4.55,0-7.1,4.6-7.95,6.6-.05,3.55-.1,7.65-.1,10.35,0,1.65,0,2.9.05,3.35.15,1.95.1,3.35-1.65,3.35h-2.05c-1.85,0-1.85-1.7-1.8-3,.05-.95.1-2.45.1-4.25Z"/>
      <path class="cls-1" d="m389.13,31s-2.1-.05-2.95,0c-.8.05-1.05-.25-1.05-.95v-1.5c0-.6.35-1.05.9-1.15l3.15-.65v-2.45c0-3.65,2.05-7.5,8-7.5,2.3,0,3.65.35,4.6.55,0,0,.75,3.95-1.9,3.95-.9,0-1.75-.15-2.65-.15-1.3,0-2.95.7-2.95,3.15v2.45s3.45.1,5.3,0c.95-.05,1.2.25,1.15.85l-.15,2.5c-.05.75-.3,1-.9,1h-5.3c-.1,4.25.1,16.7.1,17.95,0,1.4.5,3.25-1.65,3.25h-1.85c-1.85,0-1.9-1.65-1.85-2.95.05-1,0-15.85,0-18.35Zm18.4-12.65c-.1-2.75,1.25-3.05,2.95-3.05s3.05.3,3.15,3.05c.05,2.7-1.3,3-2.95,3-1.8,0-3.05-.3-3.15-3Zm.2,26.7c.1-6.3.1-14.1.1-17.55,0-1.3-.5-2.7,2.3-2.7,2.45,0,3.3.5,3.2,2.45-.3,6.3-.3,14.2-.3,18.35,0,1.65,0,2.9.05,3.35.2,1.95.15,3.35-1.6,3.35h-2.05c-1.85,0-1.85-1.7-1.8-3,.05-.95.1-2.45.1-4.25Z"/>
      <path class="cls-1" d="m421.98,45.85c0-4.65.05-12.25.05-16.05v-2.3c0-1.65-.4-3.2,2.25-3.2s2.95,1.35,2.95,5.3h.35c1.15-3.7,4.25-5.3,7-5.3,4.5,0,5.7,3,5.7,6.3,0,2.7-.85,3.5-3.4,3.5-2.1,0-1.7-.6-1.7-2.45,0-1.45-.4-3-2.35-3-3.05,0-5.15,5.1-5.45,7.95-.15,4.05-.15,8.05,0,12.35.05,1.4.7,3.35-1.7,3.35h-1.9c-1.85,0-1.85-1.7-1.85-3,0-.65.05-1.9.05-3.45Z"/>
      <path class="cls-1" d="m445.88,45.05c0-6.3.1-16.3.1-18.05,0-1.3-.75-2.7,2.3-2.7,2.8,0,3.2,1.9,3.2,3.5,0,.25-.05.8-.05,1.8h.3c.3-1.1,1.8-5.3,7.8-5.3,4.8,0,7.2,2.15,8.35,5.3h.3c.35-1.1,2.25-5.3,8.15-5.3,7.15,0,9.4,4.95,9.4,11,0,4.05-.3,8.2-.3,14.65,0,1.4.4,2.85-2.35,2.85s-3.2-1.4-3.2-2.75c0-4.7.15-9.5.15-14.8,0-3.65-1.3-6.6-4.75-6.6s-5.45,2.4-6.6,4.5c.05.7.1,1.4.1,2.15,0,4.05-.3,8.35-.3,14.8,0,1.4-.3,2.2-1.75,2.2h-1.95c-1.8,0-1.9-1.15-1.9-2.1,0-4.7.35-9.65.35-14.95,0-3.65-1.2-6.6-4.65-6.6-4.3,0-6.35,4.15-7.2,6.25-.05,3.65-.15,7.9-.15,10.7,0,1.65,0,2.9.05,3.35.15,1.95.1,3.35-1.65,3.35h-2.05c-1.85,0-1.85-1.7-1.8-3,.05-.95.1-2.45.1-4.25Z"/>
      <path class="cls-1" d="m501.78,36c3.35,0,6.6.95,7.4,1.3v-2.9c0-3.7-2.65-5.4-6.2-5.4-4.3,0-7.7,2.1-7.7,2.1,0,0-2.5-2.7-.4-4.7,1.35-1.2,4.4-2.1,8.7-2.1,6.8,0,10.6,4,10.6,10.1,0,4.25-.1,12.3.05,15.1.1,1.75,1,3.3-2.6,3.3-2.3,0-2.85-1.85-2.5-4.5h-.25s-2.95,4.5-8.5,4.5-8.45-3.85-8.45-8.35c0-5.25,3.9-8.45,9.85-8.45Zm.2,12.5c3.5,0,6.35-2.35,7.1-4.4v-3.45c-.65-.25-3.05-.85-5.8-.85-3.4,0-5.95,1.6-5.95,4.45,0,2.7,1.9,4.25,4.65,4.25Z"/>
      <path class="cls-1" d="m522.08,45.85c0-4.65.05-12.25.05-16.05v-2.3c0-1.65-.4-3.2,2.25-3.2s2.95,1.35,2.95,5.3h.35c1.15-3.7,4.25-5.3,7-5.3,4.5,0,5.7,3,5.7,6.3,0,2.7-.85,3.5-3.4,3.5-2.1,0-1.7-.6-1.7-2.45,0-1.45-.4-3-2.35-3-3.05,0-5.15,5.1-5.45,7.95-.15,4.05-.15,8.05,0,12.35.05,1.4.7,3.35-1.7,3.35h-1.9c-1.85,0-1.85-1.7-1.85-3,0-.65.05-1.9.05-3.45Z"/>
      <path class="cls-1" d="m563.88,29.25h-2.95c-.95,0-1.2-.2-1.2-1,0-.5-.05-1.15-.05-1.8,0-.35.2-.95,1-.95,4.2,0,4.95-3.15,5.05-4.85.05-.75.25-1.25,1.3-1.25s2.6-.2,2.5,1.4c-.05,1.25-.1,2.85-.1,4,1,.1,5.15.1,7.35,0,.9-.05,1.2.4,1.2.95v2.45c0,.5-.15.95-1.05.95-2.3-.1-7.65,0-7.65,0-.2,4.05-.2,10.8-.2,15.5,0,2.95.75,3.6,2.8,3.6,1.4,0,2.65-.5,3.55-.8,1.05-.4,1.55.1,1.65.65l.3,1.7c.15.85.05,1.35-.75,1.75-1.45.75-3.9,1.25-5.9,1.25-5.05,0-7.2-2.3-7.1-7.8.05-3.25.25-14.5.25-15.75Z"/>
      <path class="cls-1" d="m584.22,27c0-1.4-.3-2.7,2.35-2.7,2.8,0,3.2,1.25,3.2,2.6,0,4.7-.3,9.65-.3,14.95,0,3.65,1.5,6.6,4.95,6.6,4.45,0,6.85-4.4,7.7-6.45.05-3.6.1-7.75.1-10.5,0-1.65,0-2.9-.05-3.35-.15-1.95-.1-3.35,1.65-3.35h2.05c1.85,0,1.85,1.7,1.8,3-.05.95-.1,2.45-.1,4.25-.1,6.3-.1,16.3-.1,18.05,0,1.3.75,2.7-2.3,2.7-2.8,0-3.2-1.9-3.2-3.5,0-.25.05-.75.05-1.8h-.35c-.35,1.1-2.55,5.3-8.3,5.3-7.05,0-9.45-4.95-9.45-11,0-4.05.3-8.35.3-14.8Z"/>
      <path class="cls-1" d="m640.07,36c3.35,0,6.6.95,7.4,1.3v-2.9c0-3.7-2.65-5.4-6.2-5.4-4.3,0-7.7,2.1-7.7,2.1,0,0-2.5-2.7-.4-4.7,1.35-1.2,4.4-2.1,8.7-2.1,6.8,0,10.6,4,10.6,10.1,0,4.25-.1,12.3.05,15.1.1,1.75,1,3.3-2.6,3.3-2.3,0-2.85-1.85-2.5-4.5h-.25s-2.95,4.5-8.5,4.5-8.45-3.85-8.45-8.35c0-5.25,3.9-8.45,9.85-8.45Zm.2,12.5c3.5,0,6.35-2.35,7.1-4.4v-3.45c-.65-.25-3.05-.85-5.8-.85-3.4,0-5.95,1.6-5.95,4.45,0,2.7,1.9,4.25,4.65,4.25Z"/>
      <path class="cls-1" d="m660.82,46.1s3.05,2.4,7.65,2.4c3,0,6.15-.9,6.15-3.75,0-1.95-1.95-2.95-4.45-3.75l-4.15-1.35c-4.7-1.55-6.65-3.5-6.65-7.5,0-4.7,3.8-7.85,10.4-7.85s8.55,2.05,8.75,3.05c.3,1.3-.6,2.85-1.25,3.45,0,0-2.9-2.15-7.45-2.15-1.85,0-5.2.4-5.2,3.45,0,1.6,1.1,2.5,3.35,3.2l4.2,1.3c5.05,1.6,7.6,3.45,7.6,7.7,0,4.95-3.8,8.5-11.3,8.5-6.5,0-8.65-2-8.75-3.65-.1-1.5.75-2.85,1.1-3.05Z"/>
      <path class="cls-1" d="m687.52,18.35c-.1-2.75,1.25-3.05,2.95-3.05s3.05.3,3.15,3.05c.05,2.7-1.3,3-2.95,3-1.8,0-3.05-.3-3.15-3Zm.2,26.7c.1-6.3.1-14.1.1-17.55,0-1.3-.5-2.7,2.3-2.7,2.45,0,3.3.5,3.2,2.45-.3,6.3-.3,14.2-.3,18.35,0,1.65,0,2.9.05,3.35.2,1.95.15,3.35-1.6,3.35h-2.05c-1.85,0-1.85-1.7-1.8-3,.05-.95.1-2.45.1-4.25Z"/>
      <path class="cls-1" d="m702.42,46.1s3.05,2.4,7.65,2.4c3,0,6.15-.9,6.15-3.75,0-1.95-1.95-2.95-4.45-3.75l-4.15-1.35c-4.7-1.55-6.65-3.5-6.65-7.5,0-4.7,3.8-7.85,10.4-7.85s8.55,2.05,8.75,3.05c.3,1.3-.6,2.85-1.25,3.45,0,0-2.9-2.15-7.45-2.15-1.85,0-5.2.4-5.2,3.45,0,1.6,1.1,2.5,3.35,3.2l4.2,1.3c5.05,1.6,7.6,3.45,7.6,7.7,0,4.95-3.8,8.5-11.3,8.5-6.5,0-8.65-2-8.75-3.65-.1-1.5.75-2.85,1.1-3.05Z"/>
      <path class="cls-1" d="m730.12,29.25h-2.95c-.95,0-1.2-.2-1.2-1,0-.5-.05-1.15-.05-1.8,0-.35.2-.95,1-.95,4.2,0,4.95-3.15,5.05-4.85.05-.75.25-1.25,1.3-1.25s2.6-.2,2.5,1.4c-.05,1.25-.1,2.85-.1,4,1,.1,5.15.1,7.35,0,.9-.05,1.2.4,1.2.95v2.45c0,.5-.15.95-1.05.95-2.3-.1-7.65,0-7.65,0-.2,4.05-.2,10.8-.2,15.5,0,2.95.75,3.6,2.8,3.6,1.4,0,2.65-.5,3.55-.8,1.05-.4,1.55.1,1.65.65l.3,1.7c.15.85.05,1.35-.75,1.75-1.45.75-3.9,1.25-5.9,1.25-5.05,0-7.2-2.3-7.1-7.8.05-3.25.25-14.5.25-15.75Z"/>
      <path class="cls-1" d="m760.67,24.3c6.95,0,10.75,4.85,10.75,10.05,0,4.35-1.05,5.05-2.7,5.05h-15.3l-.1.15c0,4.5,2.5,8.95,7.85,8.95,4.3,0,7.4-2.45,7.7-2.65,0,0,.85.45,1.25,1.5.5,1.3.2,2.4-.7,3.05-.8.6-3.9,2.4-8.25,2.4-9.2,0-13-6.2-13-14.4s4.6-14.1,12.5-14.1Zm5.5,11.5s.1-.75.1-1.45c0-3.7-1.75-5.7-5.7-5.7-5.4,0-7,4.5-7.1,7.15h12.7Z"/>
      <path class="cls-1" d="m778.22,45.05c.1-6.3.1-16.3.1-18.05,0-1.3-.75-2.7,2.3-2.7,2.8,0,3.2,1.9,3.2,3.5,0,.25-.05.8-.05,1.8h.35c.4-1.05,2.6-5.3,8.55-5.3,7.05,0,9.7,4.95,9.7,11,0,4.05-.3,8.35-.3,14.8,0,1.4.3,2.7-2.35,2.7-2.8,0-3.2-1.25-3.2-2.6,0-4.7.3-9.65.3-14.95,0-3.65-1.75-6.6-5.2-6.6-4.55,0-7.1,4.6-7.95,6.6-.05,3.55-.1,7.65-.1,10.35,0,1.65,0,2.9.05,3.35.15,1.95.1,3.35-1.65,3.35h-2.05c-1.85,0-1.85-1.7-1.8-3,.05-.95.1-2.45.1-4.25Z"/>
      <path class="cls-1" d="m821.42,24.3c6.75,0,8.7,3.15,8.7,5.8s-2.15,3.8-4.25,2.85c0,0,.1-.45.1-.85,0-1.4-1.05-3.45-4.3-3.45-4.85,0-7.75,3.75-7.75,9.8s2.55,10.05,7.7,10.05c4.15,0,7.05-2.25,7.05-2.25,0,0,1.45.7,1.45,2.6s-3.35,3.95-8.7,3.95c-8.4,0-12.9-5.1-12.9-14.3,0-8,5-14.2,12.9-14.2Z"/>
      <path class="cls-1" d="m837.77,18.35c-.1-2.75,1.25-3.05,2.95-3.05s3.05.3,3.15,3.05c.05,2.7-1.3,3-2.95,3-1.8,0-3.05-.3-3.15-3Zm.2,26.7c.1-6.3.1-14.1.1-17.55,0-1.3-.5-2.7,2.3-2.7,2.45,0,3.3.5,3.2,2.45-.3,6.3-.3,14.2-.3,18.35,0,1.65,0,2.9.05,3.35.2,1.95.15,3.35-1.6,3.35h-2.05c-1.85,0-1.85-1.7-1.8-3,.05-.95.1-2.45.1-4.25Z"/>
      <path class="cls-1" d="m860.62,36c3.35,0,6.6.95,7.4,1.3v-2.9c0-3.7-2.65-5.4-6.2-5.4-4.3,0-7.7,2.1-7.7,2.1,0,0-2.5-2.7-.4-4.7,1.35-1.2,4.4-2.1,8.7-2.1,6.8,0,10.6,4,10.6,10.1,0,4.25-.1,12.3.05,15.1.1,1.75,1,3.3-2.6,3.3-2.3,0-2.85-1.85-2.5-4.5h-.25s-2.95,4.5-8.5,4.5-8.45-3.85-8.45-8.35c0-5.25,3.9-8.45,9.85-8.45Zm.2,12.5c3.5,0,6.35-2.35,7.1-4.4v-3.45c-.65-.25-3.05-.85-5.8-.85-3.4,0-5.95,1.6-5.95,4.45,0,2.7,1.9,4.25,4.65,4.25Z"/>
      <path class="cls-1" d="m884.62,44.35c2.15,0,4,.45,4,4.25s-1.75,4.2-3.95,4.2-4.05-.45-4-4.2c-.1-3.8,1.65-4.25,3.95-4.25Z"/>
      <path class="cls-1" d="m66.55,93.5l1.5.1c.35,4.9,2.75,12.6,2.65,16.65-.05,2-.65,4.05-3.6,4.05s-3.9-1.75-3.9-5c0-4.35,1.9-10.75,3.35-15.8Zm-3.15-10.4c0-3.45,1.75-3.8,3.95-3.8s4.1.35,4.1,3.8c.1,3.6-1.7,3.95-3.9,3.95s-4.05-.35-4.15-3.95Z"/>
      <path class="cls-1" d="m80.85,75.65c0-1.4.05-2.35,2.05-2.35h2.6l17.5,22.6h.35c-.1-2.25-.2-20.7-.2-21.15-.05-.7.1-1.45,1.85-1.45h1.95c1.8,0,1.8,1.65,1.8,2.95,0,1.45-.2,25.6-.05,27.7.05,1.4.7,3.35-1.75,3.35h-1.9c-1.65,0-1.85-1.65-1.9-2.75-.05-1.6-14.05-18.35-16.7-22.25h-.45c0,3.35.4,20.85.45,21.65.05,1.4.7,3.35-1.75,3.35h-2c-1.85,0-1.9-1.7-1.85-3,.1-3.3,0-27.65,0-28.65Z"/>
      <path class="cls-1" d="m128.4,79.3c8.3,0,12.65,6.2,12.55,14.1-.1,8.2-4.25,14.45-12.5,14.45s-12.55-6.2-12.45-14.45c.1-7.85,4.15-14.1,12.4-14.1Zm7.15,14.1c0-5.25-1.75-9.75-7.1-9.75-5.75,0-7.05,4.55-7.05,9.75s1.3,10.1,7,10.1,7.15-4.8,7.15-10.1Z"/>
      <path class="cls-1" d="m147.95,101.1s3.05,2.4,7.65,2.4c3,0,6.15-.9,6.15-3.75,0-1.95-1.95-2.95-4.45-3.75l-4.15-1.35c-4.7-1.55-6.65-3.5-6.65-7.5,0-4.7,3.8-7.85,10.4-7.85s8.55,2.05,8.75,3.05c.3,1.3-.6,2.85-1.25,3.45,0,0-2.9-2.15-7.45-2.15-1.85,0-5.2.4-5.2,3.45,0,1.6,1.1,2.5,3.35,3.2l4.2,1.3c5.05,1.6,7.6,3.45,7.6,7.7,0,4.95-3.8,8.5-11.3,8.5-6.5,0-8.65-2-8.75-3.65-.1-1.5.75-2.85,1.1-3.05Z"/>
      <path class="cls-1" d="m201.1,79.3c6.95,0,10.75,4.85,10.75,10.05,0,4.35-1.05,5.05-2.7,5.05h-15.3l-.1.15c0,4.5,2.5,8.95,7.85,8.95,4.3,0,7.4-2.45,7.7-2.65,0,0,.85.45,1.25,1.5.5,1.3.2,2.4-.7,3.05-.8.6-3.9,2.4-8.25,2.4-9.2,0-13-6.2-13-14.4s4.6-14.1,12.5-14.1Zm5.5,11.5s.1-.75.1-1.45c0-3.7-1.75-5.7-5.7-5.7-5.4,0-7,4.5-7.1,7.15h12.7Z"/>
      <path class="cls-1" d="m218.65,100.05c.1-6.3.1-16.3.1-18.05,0-1.3-.75-2.7,2.3-2.7,2.8,0,3.2,1.9,3.2,3.5,0,.25-.05.8-.05,1.8h.35c.4-1.05,2.6-5.3,8.55-5.3,7.05,0,9.7,4.95,9.7,11,0,4.05-.3,8.35-.3,14.8,0,1.4.3,2.7-2.35,2.7-2.8,0-3.2-1.25-3.2-2.6,0-4.7.3-9.65.3-14.95,0-3.65-1.75-6.6-5.2-6.6-4.55,0-7.1,4.6-7.95,6.6-.05,3.55-.1,7.65-.1,10.35,0,1.65,0,2.9.05,3.35.15,1.95.1,3.35-1.65,3.35h-2.05c-1.85,0-1.85-1.7-1.8-3,.05-.95.1-2.45.1-4.25Z"/>
      <path class="cls-1" d="m261.85,79.3c6.75,0,8.7,3.15,8.7,5.8s-2.15,3.8-4.25,2.85c0,0,.1-.45.1-.85,0-1.4-1.05-3.45-4.3-3.45-4.85,0-7.75,3.75-7.75,9.8s2.55,10.05,7.7,10.05c4.15,0,7.05-2.25,7.05-2.25,0,0,1.45.7,1.45,2.6s-3.35,3.95-8.7,3.95c-8.4,0-12.9-5.1-12.9-14.3,0-8,5-14.2,12.9-14.2Z"/>
      <path class="cls-1" d="m285.2,91c3.35,0,6.6.95,7.4,1.3v-2.9c0-3.7-2.65-5.4-6.2-5.4-4.3,0-7.7,2.1-7.7,2.1,0,0-2.5-2.7-.4-4.7,1.35-1.2,4.4-2.1,8.7-2.1,6.8,0,10.6,4,10.6,10.1,0,4.25-.1,12.3.05,15.1.1,1.75,1,3.3-2.6,3.3-2.3,0-2.85-1.85-2.5-4.5h-.25s-2.95,4.5-8.5,4.5-8.45-3.85-8.45-8.35c0-5.25,3.9-8.45,9.85-8.45Zm.2,12.5c3.5,0,6.35-2.35,7.1-4.4v-3.45c-.65-.25-3.05-.85-5.8-.85-3.4,0-5.95,1.6-5.95,4.45,0,2.7,1.9,4.25,4.65,4.25Z"/>
      <path class="cls-1" d="m305.6,100.05c.1-6.3.1-16.3.1-18.05,0-1.3-.75-2.7,2.3-2.7,2.8,0,3.2,1.9,3.2,3.5,0,.25-.05.8-.05,1.8h.35c.4-1.05,2.6-5.3,8.55-5.3,7.05,0,9.7,4.95,9.7,11,0,4.05-.3,8.35-.3,14.8,0,1.4.3,2.7-2.35,2.7-2.8,0-3.2-1.25-3.2-2.6,0-4.7.3-9.65.3-14.95,0-3.65-1.75-6.6-5.2-6.6-4.55,0-7.1,4.6-7.95,6.6-.05,3.55-.1,7.65-.1,10.35,0,1.65,0,2.9.05,3.35.15,1.95.1,3.35-1.65,3.35h-2.05c-1.85,0-1.85-1.7-1.8-3,.05-.95.1-2.45.1-4.25Z"/>
      <path class="cls-1" d="m339.4,84.25h-2.95c-.95,0-1.2-.2-1.2-1,0-.5-.05-1.15-.05-1.8,0-.35.2-.95,1-.95,4.2,0,4.95-3.15,5.05-4.85.05-.75.25-1.25,1.3-1.25s2.6-.2,2.5,1.4c-.05,1.25-.1,2.85-.1,4,1,.1,5.15.1,7.35,0,.9-.05,1.2.4,1.2.95v2.45c0,.5-.15.95-1.05.95-2.3-.1-7.65,0-7.65,0-.2,4.05-.2,10.8-.2,15.5,0,2.95.75,3.6,2.8,3.6,1.4,0,2.65-.5,3.55-.8,1.05-.4,1.55.1,1.65.65l.3,1.7c.15.85.05,1.35-.75,1.75-1.45.75-3.9,1.25-5.9,1.25-5.05,0-7.2-2.3-7.1-7.8.05-3.25.25-14.5.25-15.75Z"/>
      <path class="cls-1" d="m367.75,91c3.35,0,6.6.95,7.4,1.3v-2.9c0-3.7-2.65-5.4-6.2-5.4-4.3,0-7.7,2.1-7.7,2.1,0,0-2.5-2.7-.4-4.7,1.35-1.2,4.4-2.1,8.7-2.1,6.8,0,10.6,4,10.6,10.1,0,4.25-.1,12.3.05,15.1.1,1.75,1,3.3-2.6,3.3-2.3,0-2.85-1.85-2.5-4.5h-.25s-2.95,4.5-8.5,4.5-8.45-3.85-8.45-8.35c0-5.25,3.9-8.45,9.85-8.45Zm.2,12.5c3.5,0,6.35-2.35,7.1-4.4v-3.45c-.65-.25-3.05-.85-5.8-.85-3.4,0-5.95,1.6-5.95,4.45,0,2.7,1.9,4.25,4.65,4.25Z"/>
      <path class="cls-1" d="m388.05,100.85c0-4.65.05-12.25.05-16.05v-2.3c0-1.65-.4-3.2,2.25-3.2s2.95,1.35,2.95,5.3h.35c1.15-3.7,4.25-5.3,7-5.3,4.5,0,5.7,3,5.7,6.3,0,2.7-.85,3.5-3.4,3.5-2.1,0-1.7-.6-1.7-2.45,0-1.45-.4-3-2.35-3-3.05,0-5.15,5.1-5.45,7.95-.15,4.05-.15,8.05,0,12.35.05,1.4.7,3.35-1.7,3.35h-1.9c-1.85,0-1.85-1.7-1.85-3,0-.65.05-1.9.05-3.45Z"/>
      <path class="cls-1" d="m409.5,76.5l-.45-.85c-.45-.85-.4-1.45.35-1.85,1.9-.95,7.7-3.85,9.8-5,.95-.55,1.25-.4,1.6.4l.8,1.85c.35.85.35,1.35-.45,1.7,0,0-8.9,3.75-10.05,4.25-1,.5-1.2.25-1.6-.5Zm3.05,23.55c.1-6.3.1-14.1.1-17.55,0-1.3-.5-2.7,2.3-2.7,2.45,0,3.3.5,3.2,2.45-.3,6.3-.3,14.2-.3,18.35,0,1.65,0,2.9.05,3.35.2,1.95.15,3.35-1.6,3.35h-2.05c-1.85,0-1.85-1.7-1.8-3,.05-.95.1-2.45.1-4.25Z"/>
      <path class="cls-1" d="m435.15,91c3.35,0,6.6.95,7.4,1.3v-2.9c0-3.7-2.65-5.4-6.2-5.4-4.3,0-7.7,2.1-7.7,2.1,0,0-2.5-2.7-.4-4.7,1.35-1.2,4.4-2.1,8.7-2.1,6.8,0,10.6,4,10.6,10.1,0,4.25-.1,12.3.05,15.1.1,1.75,1,3.3-2.6,3.3-2.3,0-2.85-1.85-2.5-4.5h-.25s-2.95,4.5-8.5,4.5-8.45-3.85-8.45-8.35c0-5.25,3.9-8.45,9.85-8.45Zm.2,12.5c3.5,0,6.35-2.35,7.1-4.4v-3.45c-.65-.25-3.05-.85-5.8-.85-3.4,0-5.95,1.6-5.95,4.45,0,2.7,1.9,4.25,4.65,4.25Z"/>
      <path class="cls-1" d="m482.85,79.3c6.75,0,8.7,3.15,8.7,5.8s-2.15,3.8-4.25,2.85c0,0,.1-.45.1-.85,0-1.4-1.05-3.45-4.3-3.45-4.85,0-7.75,3.75-7.75,9.8s2.55,10.05,7.7,10.05c4.15,0,7.05-2.25,7.05-2.25,0,0,1.45.7,1.45,2.6s-3.35,3.95-8.7,3.95c-8.4,0-12.9-5.1-12.9-14.3,0-8,5-14.2,12.9-14.2Z"/>
      <path class="cls-1" d="m509.15,79.3c8.3,0,12.65,6.2,12.55,14.1-.1,8.2-4.25,14.45-12.5,14.45s-12.55-6.2-12.45-14.45c.1-7.85,4.15-14.1,12.4-14.1Zm7.15,14.1c0-5.25-1.75-9.75-7.1-9.75-5.75,0-7.05,4.55-7.05,9.75s1.3,10.1,7,10.1,7.15-4.8,7.15-10.1Z"/>
      <path class="cls-1" d="m528.35,100.05c.1-6.3.1-16.3.1-18.05,0-1.3-.75-2.7,2.3-2.7,2.8,0,3.2,1.9,3.2,3.5,0,.25-.05.8-.05,1.8h.35c.4-1.05,2.6-5.3,8.55-5.3,7.05,0,9.7,4.95,9.7,11,0,4.05-.3,8.35-.3,14.8,0,1.4.3,2.7-2.35,2.7-2.8,0-3.2-1.25-3.2-2.6,0-4.7.3-9.65.3-14.95,0-3.65-1.75-6.6-5.2-6.6-4.55,0-7.1,4.6-7.95,6.6-.05,3.55-.1,7.65-.1,10.35,0,1.65,0,2.9.05,3.35.15,1.95.1,3.35-1.65,3.35h-2.05c-1.85,0-1.85-1.7-1.8-3,.05-.95.1-2.45.1-4.25Z"/>
      <path class="cls-1" d="m562.15,84.25h-2.95c-.95,0-1.2-.2-1.2-1,0-.5-.05-1.15-.05-1.8,0-.35.2-.95,1-.95,4.2,0,4.95-3.15,5.05-4.85.05-.75.25-1.25,1.3-1.25s2.6-.2,2.5,1.4c-.05,1.25-.1,2.85-.1,4,1,.1,5.15.1,7.35,0,.9-.05,1.2.4,1.2.95v2.45c0,.5-.15.95-1.05.95-2.3-.1-7.65,0-7.65,0-.2,4.05-.2,10.8-.2,15.5,0,2.95.75,3.6,2.8,3.6,1.4,0,2.65-.5,3.55-.8,1.05-.4,1.55.1,1.65.65l.3,1.7c.15.85.05,1.35-.75,1.75-1.45.75-3.9,1.25-5.9,1.25-5.05,0-7.2-2.3-7.1-7.8.05-3.25.25-14.5.25-15.75Z"/>
      <path class="cls-1" d="m590.5,91c3.35,0,6.6.95,7.4,1.3v-2.9c0-3.7-2.65-5.4-6.2-5.4-4.3,0-7.7,2.1-7.7,2.1,0,0-2.5-2.7-.4-4.7,1.35-1.2,4.4-2.1,8.7-2.1,6.8,0,10.6,4,10.6,10.1,0,4.25-.1,12.3.05,15.1.1,1.75,1,3.3-2.6,3.3-2.3,0-2.85-1.85-2.5-4.5h-.25s-2.95,4.5-8.5,4.5-8.45-3.85-8.45-8.35c0-5.25,3.9-8.45,9.85-8.45Zm.2,12.5c3.5,0,6.35-2.35,7.1-4.4v-3.45c-.65-.25-3.05-.85-5.8-.85-3.4,0-5.95,1.6-5.95,4.45,0,2.7,1.9,4.25,4.65,4.25Z"/>
      <path class="cls-1" d="m610.8,100.85c0-4.65.05-12.25.05-16.05v-2.3c0-1.65-.4-3.2,2.25-3.2s2.95,1.35,2.95,5.3h.35c1.15-3.7,4.25-5.3,7-5.3,4.5,0,5.7,3,5.7,6.3,0,2.7-.85,3.5-3.4,3.5-2.1,0-1.7-.6-1.7-2.45,0-1.45-.4-3-2.35-3-3.05,0-5.15,5.1-5.45,7.95-.15,4.05-.15,8.05,0,12.35.05,1.4.7,3.35-1.7,3.35h-1.9c-1.85,0-1.85-1.7-1.85-3,0-.65.05-1.9.05-3.45Z"/>
      <path class="cls-1" d="m662,79.3c6.75,0,8.7,3.15,8.7,5.8s-2.15,3.8-4.25,2.85c0,0,.1-.45.1-.85,0-1.4-1.05-3.45-4.3-3.45-4.85,0-7.75,3.75-7.75,9.8s2.55,10.05,7.7,10.05c4.15,0,7.05-2.25,7.05-2.25,0,0,1.45.7,1.45,2.6s-3.35,3.95-8.7,3.95c-8.4,0-12.9-5.1-12.9-14.3,0-8,5-14.2,12.9-14.2Z"/>
      <path class="cls-1" d="m688.3,79.3c8.3,0,12.65,6.2,12.55,14.1-.1,8.2-4.25,14.45-12.5,14.45s-12.55-6.2-12.45-14.45c.1-7.85,4.15-14.1,12.4-14.1Zm7.15,14.1c0-5.25-1.75-9.75-7.1-9.75-5.75,0-7.05,4.55-7.05,9.75s1.3,10.1,7,10.1,7.15-4.8,7.15-10.1Z"/>
      <path class="cls-1" d="m707.5,100.05c.1-6.3.1-16.3.1-18.05,0-1.3-.75-2.7,2.3-2.7,2.8,0,3.2,1.9,3.2,3.5,0,.25-.05.8-.05,1.8h.35c.4-1.05,2.6-5.3,8.55-5.3,7.05,0,9.7,4.95,9.7,11,0,4.05-.3,8.35-.3,14.8,0,1.4.3,2.7-2.35,2.7-2.8,0-3.2-1.25-3.2-2.6,0-4.7.3-9.65.3-14.95,0-3.65-1.75-6.6-5.2-6.6-4.55,0-7.1,4.6-7.95,6.6-.05,3.55-.1,7.65-.1,10.35,0,1.65,0,2.9.05,3.35.15,1.95.1,3.35-1.65,3.35h-2.05c-1.85,0-1.85-1.7-1.8-3,.05-.95.1-2.45.1-4.25Z"/>
      <path class="cls-1" d="m753.05,82.35c-.4-1.15-.7-2.55,1-2.55h1.85c1.7,0,1.8.7,2.25,1.9.75,2.1,6,17.45,7.15,21.8h.35c1.2-4.35,6.3-19.45,7.1-21.75.4-1.1.65-1.95,2.15-1.95h2.5c1.25,0,1.15,1.4.8,2.45-1,2.85-5.9,16.25-8.35,22.3-.45,1.1-.95,2.75-3,2.75h-2.8c-1.8,0-2.5-1.5-2.85-2.4-2.6-6.55-7.35-20.3-8.15-22.55Z"/>
      <path class="cls-1" d="m794,79.3c8.3,0,12.65,6.2,12.55,14.1-.1,8.2-4.25,14.45-12.5,14.45s-12.55-6.2-12.45-14.45c.1-7.85,4.15-14.1,12.4-14.1Zm7.15,14.1c0-5.25-1.75-9.75-7.1-9.75-5.75,0-7.05,4.55-7.05,9.75s1.3,10.1,7,10.1,7.15-4.8,7.15-10.1Z"/>
      <path class="cls-1" d="m813.55,101.1s3.05,2.4,7.65,2.4c3,0,6.15-.9,6.15-3.75,0-1.95-1.95-2.95-4.45-3.75l-4.15-1.35c-4.7-1.55-6.65-3.5-6.65-7.5,0-4.7,3.8-7.85,10.4-7.85s8.55,2.05,8.75,3.05c.3,1.3-.6,2.85-1.25,3.45,0,0-2.9-2.15-7.45-2.15-1.85,0-5.2.4-5.2,3.45,0,1.6,1.1,2.5,3.35,3.2l4.2,1.3c5.05,1.6,7.6,3.45,7.6,7.7,0,4.95-3.8,8.5-11.3,8.5-6.5,0-8.65-2-8.75-3.65-.1-1.5.75-2.85,1.1-3.05Z"/>
      <path class="cls-1" d="m844.35,100.05c2.15,0,4.05.35,4.15,3.95,0,3.45-1.75,3.8-3.95,3.8s-4.1-.35-4.1-3.8c-.1-3.6,1.7-3.95,3.9-3.95Zm-3.15-23.2c.05-2,.65-4.05,3.6-4.05s3.9,1.75,3.9,5c0,4.35-1.9,10.75-3.35,15.8l-1.5-.1c-.35-4.9-2.75-12.6-2.65-16.65Z"/>
    </g>
  </g>
</svg>