<?xml version="1.0" encoding="UTF-8"?>
<svg id="hoja_4" data-name="hoja 4" xmlns="http://www.w3.org/2000/svg" viewBox="0 0 839 128.5">
  <defs>
    <style>
      .cls-1 {
        fill: #f2f2f3;
      }
    </style>
  </defs>
  <g id="text-3" data-name="text">
    <g>
      <path class="cls-1" d="m25.01,14.14h-.13l.06,31.53c0,2.47,1.04,3.18,4.22,3.51l2.21.2.19.97h-14.11l.2-.97,2.27-.2c2.34-.26,3.71-.91,3.71-3.64l.07-31.46c-.65-1.3-1.95-2.67-4.68-3.19l-1.82-.26-.2-.97h10.92l24.9,32.83h.13l-.06-28.15c0-2.47-1.04-3.05-4.23-3.45l-2.21-.2-.2-.97h14.04l-.2.97-2.21.2c-2.41.26-3.71.91-3.71,3.58l-.07,36.21h-1.23L25.01,14.14Z"/>
      <path class="cls-1" d="m60.34,36.51c0-8.38,6.37-15.02,14.69-15.02s14.37,6.3,14.37,14.56-6.31,15.21-14.56,15.21-14.5-6.37-14.5-14.76Zm23.86.52c0-4.94-1.11-9.43-3.58-11.89-1.43-1.43-3.32-2.54-5.85-2.54-5.59,0-9.23,5.98-9.23,12.94,0,5.13,1.17,9.69,3.71,12.22,1.37,1.43,3.32,2.4,5.79,2.4,5.4,0,9.17-5.98,9.17-13.13Z"/>
      <path class="cls-1" d="m104.21,36.51c0-8.38,6.37-15.02,14.69-15.02s14.37,6.3,14.37,14.56-6.3,15.21-14.56,15.21-14.5-6.37-14.5-14.76Zm23.86.52c0-4.94-1.1-9.43-3.58-11.89-1.43-1.43-3.31-2.54-5.85-2.54-5.59,0-9.23,5.98-9.23,12.94,0,5.13,1.17,9.69,3.71,12.22,1.37,1.43,3.31,2.4,5.79,2.4,5.39,0,9.17-5.98,9.17-13.13Z"/>
      <path class="cls-1" d="m134,49.38l1.75-.07c1.69-.13,2.28-.26,2.28-.97V13.43c0-3.05-.39-3.64-2.08-3.96l-2.47-.52.06-.65,8.97-2.14v42.32c0,.52.26.65,2.67.84l1.62.07.19.97h-13.13l.13-.97Z"/>
      <path class="cls-1" d="m150.47,26.82c-1.17-2.67-1.36-3.05-3.18-3.25l-1.56-.2-.2-.91h13.13l-.13.91-1.62.13c-2.01.13-2.34.84-1.56,2.86l7.34,18.53,5.85-15.41c1.82-4.88,1.56-5.65-1.88-5.91l-1.5-.2-.2-.91h11.05l-.2.91-1.23.13c-2.41.26-2.67,1.04-4.88,6.5l-8.12,20.93h-1.43l-9.69-24.12Z"/>
      <path class="cls-1" d="m177.49,49.38l1.82-.07c1.62-.13,2.27-.26,2.27-.97v-19.04c0-3.51-.46-4.16-2.41-4.49l-2.01-.32.13-.65,8.78-2.21v26.85c0,.52.33.65,2.67.84l1.62.07.2.97h-13.26l.2-.97Zm2.47-36.92c0-1.5,1.04-3.38,3.25-3.38s3.19,1.88,3.19,3.32-1.04,3.31-3.19,3.31-3.25-1.88-3.25-3.25Z"/>
      <path class="cls-1" d="m212.74,46l-.2-.06c-2.47,2.86-5.72,5.26-9.88,5.26-6.57,0-11.7-5.72-11.7-13.91,0-9.55,7.15-15.47,14.69-15.47,2.8,0,4.94.59,6.96,1.56h.13v-11.38c0-1.95-.33-2.6-2.02-2.79l-3.12-.52.13-.71,9.43-1.88v40.63c0,1.23.26,1.69,1.3,1.82l3.25.52-.07.71-8.91,1.62v-5.39Zm0-1.56v-16.19c-1.62-2.86-4.68-5.2-8.06-5.2-5.39,0-8.71,5.39-8.71,12.67s3.64,12.42,9.23,12.42c3.38,0,5.59-1.69,7.54-3.71Z"/>
      <path class="cls-1" d="m221.83,37.09c0-8.64,5.85-15.6,14.04-15.6,6.44,0,10.14,3.96,10.14,8.97,0,.58-.07,1.1-.13,1.69l-18.98-.13c-.13.78-.26,2.21-.26,3.12,0,7.54,4.42,12.68,10.27,12.68,3.71,0,6.43-1.3,8.84-4.94l.71.39c-2.73,4.94-6.5,7.93-11.64,7.93-7.41,0-13-6.11-13-14.11Zm19.24-6.11c.07-4.55-1.89-8.38-5.85-8.38-3.57,0-7.08,3.71-8.19,8.45l14.04-.06Z"/>
      <path class="cls-1" d="m249.66,49.77l-.58-7.87h1.1l1.37,3.77c1.62,2.86,4.09,4.48,6.89,4.48,3.77,0,6.5-2.34,6.5-5.66,0-3.57-2.92-5.2-7.21-6.63-3.9-1.37-7.93-3.25-7.93-8.26,0-4.62,3.96-8.12,9.42-8.12,2.28,0,4.16.46,5.85,1.11l2.08-.65.39,7.8h-1.1l-2.67-5.46c-1.1-.85-2.73-1.69-4.74-1.69-3.51,0-5.59,1.95-5.59,4.88,0,3.45,2.79,4.62,6.83,6.04,4.36,1.56,8.52,3.31,8.52,8.78,0,4.74-4.03,8.97-10.79,8.97-3.18,0-5.92-.59-8.32-1.5Z"/>
      <path class="cls-1" d="m283.98,37.09c0-8.71,6.17-15.6,14.63-15.6,5.33,0,9.29,2.54,9.29,5.98,0,1.88-1.43,3.12-2.93,3.12-1.88,0-3.25-1.56-2.92-3.57,0-1.43.91-1.95.91-2.34-.26-.78-2.27-2.08-4.55-2.08-5.27,0-9.62,5.13-9.62,12.48s4.42,12.74,10.27,12.74c3.71,0,6.3-1.3,8.64-4.94l.78.39c-2.67,4.94-6.37,7.93-11.57,7.93-7.34,0-12.94-6.11-12.94-14.11Z"/>
      <path class="cls-1" d="m310.01,36.51c0-8.38,6.37-15.02,14.69-15.02s14.37,6.3,14.37,14.56-6.31,15.21-14.56,15.21-14.5-6.37-14.5-14.76Zm23.86.52c0-4.94-1.11-9.43-3.58-11.89-1.43-1.43-3.32-2.54-5.85-2.54-5.59,0-9.23,5.98-9.23,12.94,0,5.13,1.17,9.69,3.71,12.22,1.37,1.43,3.32,2.4,5.79,2.4,5.4,0,9.17-5.98,9.17-13.13Z"/>
      <path class="cls-1" d="m340.05,49.38l1.69-.07c1.69-.13,2.34-.26,2.34-.97v-19.04c0-3.51-.45-4.16-2.34-4.49l-2.08-.32.07-.65,8.84-2.21-.13,5.4.2.06c2.79-2.34,6.5-5.53,10.86-5.53,2.02,0,3.83.59,5.07,1.88,1.5,1.5,2.14,3.71,2.14,6.57v18.39c0,.46.13.65,2.73.91l1.62.07.2.97h-13.13l.2-.97,1.69-.07c1.95-.13,2.28-.46,2.28-.97v-16.9c0-4.62-2.08-6.5-5.92-6.5-3.06,0-5.79,1.56-7.87,3.38v20.15c0,.52.39.65,2.73.84l1.69.07.2.97h-13.26l.2-.97Z"/>
      <path class="cls-1" d="m373.17,49.38l1.75-.07c1.62-.13,2.27-.2,2.27-.91v-23.4l-5-.13.78-2.41h4.1l.13-1.69c.65-9.29,6.63-14.17,12.35-14.17,2.8,0,4.49,1.43,4.49,3.19,0,1.43-1.17,2.67-2.79,2.67s-3.32-1.56-3.71-3.71l-.13-.39-1.04-.13c-3.51,1.23-4.68,5.39-4.68,11.63v2.6h7.67l-.78,2.54h-6.89v23.47c0,.52.2.71,2.54.84l2.92.07.2.97h-14.37l.2-.97Z"/>
      <path class="cls-1" d="m392.29,49.38l1.82-.07c1.62-.13,2.28-.26,2.28-.97v-19.04c0-3.51-.46-4.16-2.41-4.49l-2.02-.32.13-.65,8.78-2.21v26.85c0,.52.32.65,2.67.84l1.62.07.19.97h-13.26l.19-.97Zm2.47-36.92c0-1.5,1.04-3.38,3.25-3.38s3.18,1.88,3.18,3.32-1.04,3.31-3.18,3.31-3.25-1.88-3.25-3.25Z"/>
      <path class="cls-1" d="m407.26,49.38l1.69-.07c1.69-.13,2.34-.26,2.34-.97v-19.04c0-3.51-.46-4.16-2.34-4.49l-2.01-.32.07-.65,8.77-2.21-.13,10.14h.13c2.41-6.7,5.07-10.27,8.78-10.27,2.28,0,3.71,1.56,3.71,3.25s-1.1,3.19-2.99,3.19c-1.56,0-3.06-1.11-3.32-3.32-2.6.78-4.49,3.84-6.24,9.36v14.5c0,.52.26.71,2.54.84l2.67.07.2.97h-14.04l.2-.97Z"/>
      <path class="cls-1" d="m430.18,49.38l1.69-.07c1.69-.13,2.34-.26,2.34-.97v-18.98c0-3.58-.46-4.22-2.41-4.55l-2.02-.32.07-.65,8.84-2.21-.19,5.27.19.07c2.47-2.34,5.79-5.46,9.95-5.46,2.14,0,3.9.78,5.13,1.95.78.85,1.5,2.15,1.75,3.64l.07.06c2.6-2.6,6.04-5.65,10.21-5.65,2.21,0,3.83.65,5.2,2.02,1.37,1.43,2.08,3.83,2.08,6.56v18.33c0,.46.07.65,2.73.91l1.5.07.19.97h-13.07l.2-.97,1.69-.07c1.88-.13,2.27-.46,2.27-.97v-16.96c0-4.55-1.88-6.44-5.66-6.44-2.79,0-5.85,1.56-7.02,3.31,0,.13-.07,1.69-.07,1.76v18.39c0,.46.07.65,2.73.91l1.62.07.19.97h-13.13l.19-.97,1.69-.07c1.88-.13,2.21-.46,2.21-.97v-16.96c0-4.55-1.88-6.44-5.53-6.44-2.86,0-5.33,1.49-7.21,3.12v20.41c0,.52.39.65,2.73.84l1.75.07.13.97h-13.26l.2-.97Z"/>
      <path class="cls-1" d="m494.16,46.45l-.13-.06c-2.4,2.47-5.13,4.68-8.25,4.68-3.9,0-6.96-2.86-6.96-6.5,0-4.62,3.71-7.67,15.73-10.6l.07-2.21c.19-6.56-2.73-8.45-6.44-8.45-2.6,0-5.4,1.49-5.4,2.21,0,.46,1.5,1.5,1.5,3.12,0,1.37-1.1,2.6-2.86,2.6-1.62,0-2.86-.97-2.86-2.54,0-3.19,7.21-7.21,12.29-7.21,5.85,0,8.65,2.28,8.25,10.27l-.65,13.85c-.07,1.95.65,2.67,1.95,2.67.97,0,2.01-.85,3.05-1.82l.52.58c-1.37,1.69-3.32,4.1-5.72,4.1-2.28,0-3.96-1.62-4.09-4.68Zm0-1.23l.32-10.21c-9.04,2.21-11.12,4.88-11.12,8.32,0,2.99,2.02,4.81,4.62,4.81,2.34,0,4.23-1.11,6.18-2.92Z"/>
      <path class="cls-1" d="m504.76,49.38l1.69-.07c1.69-.13,2.34-.26,2.34-.97v-19.04c0-3.51-.46-4.16-2.34-4.49l-2.01-.32.07-.65,8.77-2.21-.13,10.14h.13c2.41-6.7,5.07-10.27,8.78-10.27,2.28,0,3.71,1.56,3.71,3.25s-1.1,3.19-2.99,3.19c-1.56,0-3.06-1.11-3.32-3.32-2.6.78-4.49,3.84-6.24,9.36v14.5c0,.52.26.71,2.54.84l2.67.07.2.97h-14.04l.2-.97Z"/>
      <path class="cls-1" d="m543.11,44.44l.33-19.37-5.07-.13.2-1.11,8.71-7.28.78.19-.07,5.72h9.62l-.78,2.47h-8.84s-.46,18.79-.46,18.85c-.06,3.12,1.62,4.55,4.42,4.55,2.27,0,3.96-1.11,5.52-2.28l.39.65c-2.41,2.34-5.14,4.55-8.32,4.55-3.64,0-6.5-1.76-6.44-6.83Z"/>
      <path class="cls-1" d="m581.56,45.8h-.13c-2.79,2.4-6.44,5.46-10.73,5.46-2.14,0-3.83-.65-5.26-1.95-1.43-1.56-2.02-3.77-2.02-6.56v-18.4c0-.58-.06-.65-2.79-.84l-1.56-.2-.2-.91h9.1l-.13,18.92c0,4.68,2.14,6.56,5.98,6.56,3.12,0,5.66-1.56,7.61-3.31v-18.59c0-1.95-.46-2.34-2.73-2.47l-1.69-.2-.2-.91h9.17v24.05c0,1.17.19,1.62,1.3,1.75l3.18.52-.06.71-8.91,1.95.06-5.59Z"/>
      <path class="cls-1" d="m619.32,46.45l-.13-.06c-2.4,2.47-5.13,4.68-8.25,4.68-3.9,0-6.96-2.86-6.96-6.5,0-4.62,3.71-7.67,15.73-10.6l.07-2.21c.19-6.56-2.73-8.45-6.44-8.45-2.6,0-5.4,1.49-5.4,2.21,0,.46,1.5,1.5,1.5,3.12,0,1.37-1.1,2.6-2.86,2.6-1.62,0-2.86-.97-2.86-2.54,0-3.19,7.21-7.21,12.29-7.21,5.85,0,8.65,2.28,8.25,10.27l-.65,13.85c-.07,1.95.65,2.67,1.95,2.67.97,0,2.01-.85,3.05-1.82l.52.58c-1.37,1.69-3.32,4.1-5.72,4.1-2.28,0-3.96-1.62-4.09-4.68Zm0-1.23l.32-10.21c-9.04,2.21-11.12,4.88-11.12,8.32,0,2.99,2.02,4.81,4.62,4.81,2.34,0,4.23-1.11,6.18-2.92Z"/>
      <path class="cls-1" d="m631.2,49.77l-.58-7.87h1.1l1.37,3.77c1.62,2.86,4.1,4.48,6.89,4.48,3.77,0,6.5-2.34,6.5-5.66,0-3.57-2.92-5.2-7.21-6.63-3.9-1.37-7.93-3.25-7.93-8.26,0-4.62,3.96-8.12,9.43-8.12,2.27,0,4.16.46,5.85,1.11l2.08-.65.39,7.8h-1.11l-2.67-5.46c-1.11-.85-2.73-1.69-4.75-1.69-3.51,0-5.59,1.95-5.59,4.88,0,3.45,2.79,4.62,6.83,6.04,4.35,1.56,8.51,3.31,8.51,8.78,0,4.74-4.03,8.97-10.79,8.97-3.19,0-5.92-.59-8.32-1.5Z"/>
      <path class="cls-1" d="m652.04,49.38l1.82-.07c1.62-.13,2.28-.26,2.28-.97v-19.04c0-3.51-.46-4.16-2.41-4.49l-2.02-.32.13-.65,8.78-2.21v26.85c0,.52.32.65,2.67.84l1.62.07.19.97h-13.26l.19-.97Zm2.47-36.92c0-1.5,1.04-3.38,3.25-3.38s3.18,1.88,3.18,3.32-1.04,3.31-3.18,3.31-3.25-1.88-3.25-3.25Z"/>
      <path class="cls-1" d="m667.47,49.77l-.58-7.87h1.1l1.37,3.77c1.62,2.86,4.1,4.48,6.89,4.48,3.77,0,6.5-2.34,6.5-5.66,0-3.57-2.92-5.2-7.21-6.63-3.9-1.37-7.93-3.25-7.93-8.26,0-4.62,3.96-8.12,9.43-8.12,2.27,0,4.16.46,5.85,1.11l2.08-.65.39,7.8h-1.11l-2.67-5.46c-1.11-.85-2.73-1.69-4.75-1.69-3.51,0-5.59,1.95-5.59,4.88,0,3.45,2.79,4.62,6.83,6.04,4.35,1.56,8.51,3.31,8.51,8.78,0,4.74-4.03,8.97-10.79,8.97-3.19,0-5.92-.59-8.32-1.5Z"/>
      <path class="cls-1" d="m689.07,37.09c0-8.64,5.85-15.6,14.04-15.6,6.44,0,10.14,3.96,10.14,8.97,0,.58-.07,1.1-.13,1.69l-18.98-.13c-.13.78-.26,2.21-.26,3.12,0,7.54,4.42,12.68,10.27,12.68,3.71,0,6.44-1.3,8.84-4.94l.72.39c-2.73,4.94-6.5,7.93-11.64,7.93-7.41,0-13-6.11-13-14.11Zm19.24-6.11c.07-4.55-1.88-8.38-5.85-8.38-3.58,0-7.08,3.71-8.19,8.45l14.04-.06Z"/>
      <path class="cls-1" d="m715.01,49.38l1.69-.07c1.69-.13,2.34-.26,2.34-.97v-19.04c0-3.51-.46-4.16-2.34-4.49l-2.08-.32.07-.65,8.84-2.21-.13,5.4.2.06c2.79-2.34,6.5-5.53,10.86-5.53,2.01,0,3.83.59,5.07,1.88,1.5,1.5,2.14,3.71,2.14,6.57v18.39c0,.46.13.65,2.73.91l1.62.07.2.97h-13.13l.2-.97,1.69-.07c1.95-.13,2.27-.46,2.27-.97v-16.9c0-4.62-2.08-6.5-5.92-6.5-3.05,0-5.79,1.56-7.87,3.38v20.15c0,.52.39.65,2.73.84l1.69.07.2.97h-13.26l.2-.97Z"/>
      <path class="cls-1" d="m746.3,37.09c0-8.71,6.18-15.6,14.63-15.6,5.33,0,9.3,2.54,9.3,5.98,0,1.88-1.43,3.12-2.93,3.12-1.88,0-3.25-1.56-2.92-3.57,0-1.43.91-1.95.91-2.34-.26-.78-2.28-2.08-4.55-2.08-5.26,0-9.62,5.13-9.62,12.48s4.42,12.74,10.27,12.74c3.71,0,6.31-1.3,8.65-4.94l.78.39c-2.67,4.94-6.37,7.93-11.57,7.93-7.34,0-12.94-6.11-12.94-14.11Z"/>
      <path class="cls-1" d="m772.21,49.38l1.82-.07c1.62-.13,2.28-.26,2.28-.97v-19.04c0-3.51-.46-4.16-2.41-4.49l-2.02-.32.13-.65,8.78-2.21v26.85c0,.52.32.65,2.67.84l1.62.07.19.97h-13.26l.19-.97Zm2.47-36.92c0-1.5,1.04-3.38,3.25-3.38s3.18,1.88,3.18,3.32-1.04,3.31-3.18,3.31-3.25-1.88-3.25-3.25Z"/>
      <path class="cls-1" d="m801.91,46.45l-.13-.06c-2.41,2.47-5.14,4.68-8.26,4.68-3.9,0-6.96-2.86-6.96-6.5,0-4.62,3.71-7.67,15.73-10.6l.07-2.21c.19-6.56-2.73-8.45-6.44-8.45-2.6,0-5.4,1.49-5.4,2.21,0,.46,1.5,1.5,1.5,3.12,0,1.37-1.1,2.6-2.86,2.6-1.62,0-2.86-.97-2.86-2.54,0-3.19,7.21-7.21,12.29-7.21,5.85,0,8.65,2.28,8.25,10.27l-.65,13.85c-.07,1.95.65,2.67,1.95,2.67.97,0,2.01-.85,3.05-1.82l.52.58c-1.37,1.69-3.32,4.1-5.72,4.1-2.28,0-3.96-1.62-4.09-4.68Zm0-1.23l.32-10.21c-9.04,2.21-11.12,4.88-11.12,8.32,0,2.99,2.02,4.81,4.62,4.81,2.34,0,4.23-1.11,6.18-2.92Z"/>
      <path class="cls-1" d="m813.97,47.69c0-1.82,1.56-3.45,3.64-3.45s3.51,1.62,3.51,3.45-1.43,3.51-3.51,3.51-3.64-1.62-3.64-3.51Z"/>
      <path class="cls-1" d="m49.5,77.52c0-1.82,1.49-3.45,3.51-3.45s3.51,1.62,3.51,3.45-1.5,3.31-3.51,3.31-3.51-1.56-3.51-3.31Zm.84,35.88l2.28-26.52c.07-.33.71-.33.78,0l2.34,26.52c.13,1.5.06,3.19-2.41,3.19h-.58c-2.54,0-2.6-1.69-2.41-3.19Z"/>
      <path class="cls-1" d="m68.35,79.14h-.13l.07,31.53c0,2.47,1.04,3.18,4.23,3.51l2.21.2.2.97h-14.11l.2-.97,2.28-.2c2.34-.26,3.71-.91,3.71-3.64l.06-31.46c-.65-1.3-1.95-2.67-4.68-3.19l-1.82-.26-.2-.97h10.92l24.9,32.83h.13l-.07-28.15c0-2.47-1.04-3.05-4.23-3.45l-2.21-.2-.19-.97h14.04l-.2.97-2.21.2c-2.41.26-3.71.91-3.71,3.58l-.06,36.21h-1.24l-27.89-36.53Z"/>
      <path class="cls-1" d="m103.69,101.51c0-8.38,6.37-15.02,14.69-15.02s14.37,6.3,14.37,14.56-6.3,15.21-14.56,15.21-14.5-6.37-14.5-14.76Zm23.86.52c0-4.94-1.11-9.43-3.58-11.89-1.43-1.43-3.31-2.54-5.85-2.54-5.59,0-9.23,5.98-9.23,12.94,0,5.13,1.17,9.69,3.71,12.22,1.37,1.43,3.32,2.4,5.79,2.4,5.4,0,9.17-5.98,9.17-13.13Z"/>
      <path class="cls-1" d="m135.85,114.77l-.58-7.87h1.1l1.37,3.77c1.62,2.86,4.09,4.48,6.89,4.48,3.77,0,6.5-2.34,6.5-5.66,0-3.57-2.92-5.2-7.21-6.63-3.9-1.37-7.93-3.25-7.93-8.26,0-4.62,3.96-8.12,9.42-8.12,2.28,0,4.16.46,5.85,1.11l2.08-.65.39,7.8h-1.1l-2.67-5.46c-1.1-.85-2.73-1.69-4.74-1.69-3.51,0-5.59,1.95-5.59,4.88,0,3.45,2.79,4.62,6.83,6.04,4.36,1.56,8.52,3.31,8.52,8.78,0,4.74-4.03,8.97-10.79,8.97-3.18,0-5.92-.59-8.32-1.5Z"/>
      <path class="cls-1" d="m170.17,102.09c0-8.64,5.85-15.6,14.04-15.6,6.44,0,10.14,3.96,10.14,8.97,0,.58-.06,1.1-.13,1.69l-18.98-.13c-.13.78-.26,2.21-.26,3.12,0,7.54,4.42,12.68,10.27,12.68,3.71,0,6.43-1.3,8.84-4.94l.71.39c-2.73,4.94-6.5,7.93-11.63,7.93-7.41,0-13-6.11-13-14.11Zm19.24-6.11c.06-4.55-1.89-8.38-5.85-8.38-3.58,0-7.08,3.71-8.19,8.45l14.04-.06Z"/>
      <path class="cls-1" d="m196.11,114.38l1.69-.07c1.69-.13,2.34-.26,2.34-.97v-19.04c0-3.51-.46-4.16-2.34-4.49l-2.08-.32.06-.65,8.84-2.21-.13,5.4.19.06c2.79-2.34,6.5-5.53,10.86-5.53,2.01,0,3.83.59,5.07,1.88,1.5,1.5,2.15,3.71,2.15,6.57v18.39c0,.46.13.65,2.73.91l1.62.07.2.97h-13.13l.2-.97,1.69-.07c1.95-.13,2.27-.46,2.27-.97v-16.9c0-4.62-2.08-6.5-5.92-6.5-3.05,0-5.79,1.56-7.87,3.38v20.15c0,.52.39.65,2.73.84l1.69.07.2.97h-13.26l.2-.97Z"/>
      <path class="cls-1" d="m227.4,102.09c0-8.71,6.18-15.6,14.63-15.6,5.33,0,9.3,2.54,9.3,5.98,0,1.88-1.43,3.12-2.93,3.12-1.88,0-3.25-1.56-2.92-3.57,0-1.43.91-1.95.91-2.34-.26-.78-2.28-2.08-4.55-2.08-5.27,0-9.62,5.13-9.62,12.48s4.42,12.74,10.27,12.74c3.71,0,6.31-1.3,8.65-4.94l.78.39c-2.66,4.94-6.37,7.93-11.57,7.93-7.34,0-12.94-6.11-12.94-14.11Z"/>
      <path class="cls-1" d="m269.43,111.45l-.13-.06c-2.41,2.47-5.13,4.68-8.26,4.68-3.9,0-6.96-2.86-6.96-6.5,0-4.62,3.71-7.67,15.73-10.6l.07-2.21c.2-6.56-2.73-8.45-6.43-8.45-2.6,0-5.4,1.49-5.4,2.21,0,.46,1.5,1.5,1.5,3.12,0,1.37-1.11,2.6-2.86,2.6-1.62,0-2.86-.97-2.86-2.54,0-3.19,7.21-7.21,12.29-7.21,5.85,0,8.65,2.28,8.26,10.27l-.65,13.85c-.06,1.95.65,2.67,1.95,2.67.98,0,2.01-.85,3.06-1.82l.52.58c-1.37,1.69-3.31,4.1-5.72,4.1-2.27,0-3.96-1.62-4.09-4.68Zm0-1.23l.33-10.21c-9.04,2.21-11.12,4.88-11.12,8.32,0,2.99,2.01,4.81,4.62,4.81,2.34,0,4.22-1.11,6.17-2.92Z"/>
      <path class="cls-1" d="m280.04,114.38l1.69-.07c1.69-.13,2.34-.26,2.34-.97v-19.04c0-3.51-.46-4.16-2.34-4.49l-2.08-.32.07-.65,8.84-2.21-.13,5.4.19.06c2.8-2.34,6.5-5.53,10.86-5.53,2.02,0,3.84.59,5.07,1.88,1.5,1.5,2.15,3.71,2.15,6.57v18.39c0,.46.13.65,2.73.91l1.62.07.2.97h-13.13l.2-.97,1.69-.07c1.95-.13,2.27-.46,2.27-.97v-16.9c0-4.62-2.08-6.5-5.91-6.5-3.06,0-5.79,1.56-7.87,3.38v20.15c0,.52.39.65,2.73.84l1.69.07.2.97h-13.26l.2-.97Z"/>
      <path class="cls-1" d="m314.43,109.44l.33-19.37-5.07-.13.2-1.11,8.71-7.28.78.19-.07,5.72h9.62l-.78,2.47h-8.84s-.46,18.79-.46,18.85c-.07,3.12,1.63,4.55,4.42,4.55,2.27,0,3.96-1.11,5.53-2.28l.39.65c-2.4,2.34-5.13,4.55-8.32,4.55-3.64,0-6.5-1.76-6.43-6.83Z"/>
      <path class="cls-1" d="m346.5,111.45l-.13-.06c-2.41,2.47-5.13,4.68-8.26,4.68-3.9,0-6.96-2.86-6.96-6.5,0-4.62,3.71-7.67,15.73-10.6l.07-2.21c.2-6.56-2.73-8.45-6.43-8.45-2.6,0-5.4,1.49-5.4,2.21,0,.46,1.5,1.5,1.5,3.12,0,1.37-1.11,2.6-2.86,2.6-1.62,0-2.86-.97-2.86-2.54,0-3.19,7.21-7.21,12.29-7.21,5.85,0,8.65,2.28,8.26,10.27l-.65,13.85c-.06,1.95.65,2.67,1.95,2.67.98,0,2.01-.85,3.06-1.82l.52.58c-1.37,1.69-3.31,4.1-5.72,4.1-2.27,0-3.96-1.62-4.09-4.68Zm0-1.23l.33-10.21c-9.04,2.21-11.12,4.88-11.12,8.32,0,2.99,2.01,4.81,4.62,4.81,2.34,0,4.22-1.11,6.17-2.92Z"/>
      <path class="cls-1" d="m357.1,114.38l1.69-.07c1.69-.13,2.34-.26,2.34-.97v-19.04c0-3.51-.46-4.16-2.34-4.49l-2.01-.32.06-.65,8.78-2.21-.13,10.14h.13c2.41-6.7,5.07-10.27,8.78-10.27,2.28,0,3.71,1.56,3.71,3.25s-1.11,3.19-2.99,3.19c-1.56,0-3.05-1.11-3.31-3.32-2.6.78-4.49,3.84-6.24,9.36v14.5c0,.52.26.71,2.54.84l2.66.07.2.97h-14.04l.2-.97Z"/>
      <path class="cls-1" d="m379.96,114.38l1.82-.07c1.62-.13,2.27-.26,2.27-.97v-19.04c0-3.51-.45-4.16-2.4-4.49l-2.02-.32.13-.65,8.78-2.21v26.85c0,.52.32.65,2.67.84l1.62.07.19.97h-13.26l.19-.97Zm10.34-43.36h5.39l-11.57,12.03h-.65l6.83-12.03Z"/>
      <path class="cls-1" d="m409.66,111.45l-.13-.06c-2.4,2.47-5.13,4.68-8.25,4.68-3.9,0-6.96-2.86-6.96-6.5,0-4.62,3.71-7.67,15.73-10.6l.07-2.21c.19-6.56-2.73-8.45-6.44-8.45-2.6,0-5.4,1.49-5.4,2.21,0,.46,1.5,1.5,1.5,3.12,0,1.37-1.1,2.6-2.86,2.6-1.62,0-2.86-.97-2.86-2.54,0-3.19,7.21-7.21,12.29-7.21,5.85,0,8.65,2.28,8.25,10.27l-.65,13.85c-.07,1.95.65,2.67,1.95,2.67.97,0,2.01-.85,3.05-1.82l.52.58c-1.37,1.69-3.32,4.1-5.72,4.1-2.28,0-3.96-1.62-4.09-4.68Zm0-1.23l.32-10.21c-9.04,2.21-11.12,4.88-11.12,8.32,0,2.99,2.02,4.81,4.62,4.81,2.34,0,4.23-1.11,6.18-2.92Z"/>
      <path class="cls-1" d="m432.4,102.09c0-8.71,6.18-15.6,14.63-15.6,5.33,0,9.3,2.54,9.3,5.98,0,1.88-1.43,3.12-2.93,3.12-1.88,0-3.25-1.56-2.92-3.57,0-1.43.91-1.95.91-2.34-.26-.78-2.28-2.08-4.55-2.08-5.26,0-9.62,5.13-9.62,12.48s4.42,12.74,10.27,12.74c3.71,0,6.31-1.3,8.65-4.94l.78.39c-2.67,4.94-6.37,7.93-11.57,7.93-7.34,0-12.94-6.11-12.94-14.11Z"/>
      <path class="cls-1" d="m458.43,101.51c0-8.38,6.37-15.02,14.69-15.02s14.37,6.3,14.37,14.56-6.31,15.21-14.56,15.21-14.5-6.37-14.5-14.76Zm23.86.52c0-4.94-1.11-9.43-3.58-11.89-1.43-1.43-3.32-2.54-5.85-2.54-5.59,0-9.23,5.98-9.23,12.94,0,5.13,1.17,9.69,3.71,12.22,1.36,1.43,3.31,2.4,5.79,2.4,5.39,0,9.17-5.98,9.17-13.13Z"/>
      <path class="cls-1" d="m488.48,114.38l1.69-.07c1.69-.13,2.34-.26,2.34-.97v-19.04c0-3.51-.46-4.16-2.34-4.49l-2.08-.32.07-.65,8.84-2.21-.13,5.4.2.06c2.79-2.34,6.5-5.53,10.86-5.53,2.01,0,3.83.59,5.07,1.88,1.5,1.5,2.14,3.71,2.14,6.57v18.39c0,.46.13.65,2.73.91l1.62.07.2.97h-13.13l.2-.97,1.69-.07c1.95-.13,2.27-.46,2.27-.97v-16.9c0-4.62-2.08-6.5-5.92-6.5-3.05,0-5.79,1.56-7.87,3.38v20.15c0,.52.39.65,2.73.84l1.69.07.2.97h-13.26l.2-.97Z"/>
      <path class="cls-1" d="m522.87,109.44l.33-19.37-5.07-.13.2-1.11,8.71-7.28.78.19-.07,5.72h9.62l-.78,2.47h-8.84s-.46,18.79-.46,18.85c-.06,3.12,1.62,4.55,4.42,4.55,2.27,0,3.96-1.11,5.52-2.28l.39.65c-2.41,2.34-5.14,4.55-8.32,4.55-3.64,0-6.5-1.76-6.44-6.83Z"/>
      <path class="cls-1" d="m554.94,111.45l-.13-.06c-2.4,2.47-5.13,4.68-8.25,4.68-3.9,0-6.96-2.86-6.96-6.5,0-4.62,3.71-7.67,15.73-10.6l.07-2.21c.19-6.56-2.73-8.45-6.44-8.45-2.6,0-5.4,1.49-5.4,2.21,0,.46,1.5,1.5,1.5,3.12,0,1.37-1.1,2.6-2.86,2.6-1.62,0-2.86-.97-2.86-2.54,0-3.19,7.21-7.21,12.29-7.21,5.85,0,8.65,2.28,8.25,10.27l-.65,13.85c-.07,1.95.65,2.67,1.95,2.67.97,0,2.01-.85,3.05-1.82l.52.58c-1.37,1.69-3.32,4.1-5.72,4.1-2.28,0-3.96-1.62-4.09-4.68Zm0-1.23l.32-10.21c-9.04,2.21-11.12,4.88-11.12,8.32,0,2.99,2.02,4.81,4.62,4.81,2.34,0,4.23-1.11,6.18-2.92Z"/>
      <path class="cls-1" d="m565.54,114.38l1.69-.07c1.69-.13,2.34-.26,2.34-.97v-19.04c0-3.51-.46-4.16-2.34-4.49l-2.01-.32.07-.65,8.77-2.21-.13,10.14h.13c2.41-6.7,5.07-10.27,8.78-10.27,2.28,0,3.71,1.56,3.71,3.25s-1.1,3.19-2.99,3.19c-1.56,0-3.06-1.11-3.32-3.32-2.6.78-4.49,3.84-6.24,9.36v14.5c0,.52.26.71,2.54.84l2.67.07.2.97h-14.04l.2-.97Z"/>
      <path class="cls-1" d="m600.25,102.09c0-8.71,6.17-15.6,14.62-15.6,5.33,0,9.29,2.54,9.29,5.98,0,1.88-1.43,3.12-2.92,3.12-1.88,0-3.25-1.56-2.92-3.57,0-1.43.91-1.95.91-2.34-.26-.78-2.28-2.08-4.55-2.08-5.26,0-9.62,5.13-9.62,12.48s4.42,12.74,10.27,12.74c3.71,0,6.31-1.3,8.65-4.94l.78.39c-2.67,4.94-6.37,7.93-11.57,7.93-7.34,0-12.93-6.11-12.93-14.11Z"/>
      <path class="cls-1" d="m626.28,101.51c0-8.38,6.37-15.02,14.69-15.02s14.37,6.3,14.37,14.56-6.31,15.21-14.56,15.21-14.5-6.37-14.5-14.76Zm23.86.52c0-4.94-1.11-9.43-3.58-11.89-1.43-1.43-3.32-2.54-5.85-2.54-5.59,0-9.23,5.98-9.23,12.94,0,5.13,1.17,9.69,3.71,12.22,1.36,1.43,3.31,2.4,5.79,2.4,5.39,0,9.17-5.98,9.17-13.13Z"/>
      <path class="cls-1" d="m656.33,114.38l1.69-.07c1.69-.13,2.34-.26,2.34-.97v-19.04c0-3.51-.46-4.16-2.34-4.49l-2.08-.32.07-.65,8.84-2.21-.13,5.4.2.06c2.79-2.34,6.5-5.53,10.86-5.53,2.01,0,3.83.59,5.07,1.88,1.5,1.5,2.14,3.71,2.14,6.57v18.39c0,.46.13.65,2.73.91l1.62.07.2.97h-13.13l.2-.97,1.69-.07c1.95-.13,2.28-.46,2.28-.97v-16.9c0-4.62-2.08-6.5-5.92-6.5-3.05,0-5.79,1.56-7.87,3.38v20.15c0,.52.39.65,2.73.84l1.69.07.2.97h-13.26l.2-.97Z"/>
      <path class="cls-1" d="m703.91,91.82c-1.17-2.67-1.37-3.05-3.19-3.25l-1.56-.2-.2-.91h13.13l-.13.91-1.62.13c-2.01.13-2.34.84-1.56,2.86l7.34,18.53,5.85-15.41c1.82-4.88,1.56-5.65-1.88-5.91l-1.5-.2-.2-.91h11.05l-.2.91-1.24.13c-2.4.26-2.67,1.04-4.88,6.5l-8.12,20.93h-1.43l-9.68-24.12Z"/>
      <path class="cls-1" d="m727.89,101.51c0-8.38,6.37-15.02,14.69-15.02s14.37,6.3,14.37,14.56-6.31,15.21-14.56,15.21-14.5-6.37-14.5-14.76Zm23.86.52c0-4.94-1.11-9.43-3.58-11.89-1.43-1.43-3.32-2.54-5.85-2.54-5.59,0-9.23,5.98-9.23,12.94,0,5.13,1.17,9.69,3.71,12.22,1.36,1.43,3.31,2.4,5.79,2.4,5.39,0,9.17-5.98,9.17-13.13Z"/>
      <path class="cls-1" d="m760.05,114.77l-.58-7.87h1.1l1.37,3.77c1.62,2.86,4.1,4.48,6.89,4.48,3.77,0,6.5-2.34,6.5-5.66,0-3.57-2.92-5.2-7.21-6.63-3.9-1.37-7.93-3.25-7.93-8.26,0-4.62,3.96-8.12,9.43-8.12,2.27,0,4.16.46,5.85,1.11l2.08-.65.39,7.8h-1.11l-2.67-5.46c-1.11-.85-2.73-1.69-4.75-1.69-3.51,0-5.59,1.95-5.59,4.88,0,3.45,2.79,4.62,6.83,6.04,4.35,1.56,8.51,3.31,8.51,8.78,0,4.74-4.03,8.97-10.79,8.97-3.19,0-5.92-.59-8.32-1.5Z"/>
      <path class="cls-1" d="m783.17,112.88c0-1.76,1.56-3.31,3.64-3.31,1.95,0,3.38,1.56,3.38,3.31s-1.43,3.45-3.38,3.45c-2.08,0-3.64-1.69-3.64-3.45Zm.78-35.88c-.2-1.56-.06-3.25,2.6-3.25h.52c2.67,0,2.67,1.69,2.54,3.25l-2.41,26.39c-.06.39-.71.39-.78,0l-2.47-26.39Z"/>
    </g>
  </g>
</svg>
