<?xml version="1.0" encoding="UTF-8"?>
<svg id="hoja_1" data-name="hoja 1" xmlns="http://www.w3.org/2000/svg" viewBox="0 0 1125 1245">
  <defs>
    <style>
      .cls-1 {
        fill: #f2c4cd;
      }

      .cls-2 {
        opacity: .75;
      }
    </style>
  </defs>
  <g id="text">
    <g class="cls-2">
      <path class="cls-1" d="m941.84,438.72v-75.23h66.72l2.13-3.55V95.91l-88.72,12.78V17.84l203.7-29.81v371.91l2.13,3.55h66.72v75.23h-252.67Z"/>
      <path class="cls-1" d="m1149.79,735.4c53.23,19.16,78.07,64.59,78.07,111.43,0,85.17-61.75,134.85-177.44,134.85-97.95,0-162.53-39.04-162.53-111.43,0-51.1,31.94-89.43,83.04-102.91v-5.68c-48.97-17.74-75.94-58.2-75.94-110.01,0-73.81,53.94-134.85,168.92-134.85,92.27,0,155.43,38.33,155.43,115.69,0,42.58-26.97,83.04-69.56,97.24v5.68Zm-158.98,114.98c0,31.23,21.29,50.39,63.88,50.39s60.33-19.87,60.33-46.84-14.9-46.84-80.2-63.88c-29.81,16.32-44,36.91-44,60.33Zm126.33-200.86c0-31.94-15.61-51.81-56.78-51.81-36.91,0-52.52,17.74-52.52,45.42s20.58,50.39,80.2,66.72c13.49-11.36,29.1-38.33,29.1-60.33Z"/>
    </g>
    <g class="cls-2">
      <path class="cls-1" d="m197.55,356.73L53.47,73.53h-6.21v212.39l1.86,3.11h39.12v65.83H-71.98v-65.83h36.64l1.86-3.11V35.65l-1.86-3.11h-36.64V-33.28H98.8L234.81,238.73h6.21V35.65l-1.86-3.11h-39.12V-33.28h160.23V32.55h-36.64l-1.86,3.11v321.07h-124.21Z"/>
      <path class="cls-1" d="m-76.33,613.39c0-144.08,67.07-212.39,202.46-212.39s192.52,63.35,192.52,194.38c0,144.08-67.07,212.39-201.84,212.39s-193.14-63.35-193.14-194.38Zm287.54-8.69c0-103.09-27.95-132.28-94.4-132.28-50.92,0-85.7,38.5-85.7,132.28,0,102.47,27.95,131.66,93.78,131.66,51.55,0,86.32-38.5,86.32-131.66Z"/>
      <path class="cls-1" d="m51.6,1245.15l-103.09-325.42h-36.02v-65.83H95.08v65.83h-35.4l-1.86,2.48,73.9,244.07h6.83l73.9-244.07-1.86-2.48h-35.4v-65.83h154.64v65.83h-36.02l-103.09,325.42H51.6Z"/>
    </g>
  </g>
</svg>
