<?xml version="1.0" encoding="UTF-8"?>
<svg id="hoja_3" data-name="hoja 3" xmlns="http://www.w3.org/2000/svg" viewBox="0 0 1125 1241">
  <defs>
    <style>
      .cls-1 {
        fill: none;
      }

      .cls-2 {
        fill: #f9d5ca;
      }

      .cls-3 {
        fill: #f7c97f;
      }

      .cls-4 {
        fill: #f6eeee;
      }

      .cls-5 {
        fill: #f7ccbf;
      }

      .cls-6 {
        fill: #f8f1f2;
      }

      .cls-7 {
        fill: #ebe4e0;
      }

      .cls-8 {
        fill: #f1c9b7;
      }

      .cls-9 {
        fill: #f5eeeb;
      }

      .cls-10 {
        fill: #e7e0dc;
      }

      .cls-11 {
        fill: #ece5e1;
      }

      .cls-12 {
        fill: #eebea7;
      }

      .cls-13 {
        fill: #e9c6af;
      }

      .cls-14 {
        fill: #eeddb9;
      }

      .cls-15 {
        fill: #f2c7b6;
      }

      .cls-16 {
        fill: #f1dfdb;
      }

      .cls-17 {
        fill: #fcd2c3;
      }

      .cls-18 {
        fill: #e6ad8f;
      }

      .cls-19 {
        fill: #f0c0a9;
      }

      .cls-20 {
        fill: #e5d4d1;
      }

      .cls-21 {
        fill: #80756e;
      }

      .cls-22 {
        fill: #664f4f;
      }

      .cls-23 {
        fill: #331d03;
      }

      .cls-24 {
        fill: #cdcccd;
      }

      .cls-25 {
        fill: #cdaf9f;
      }

      .cls-26 {
        fill: #c59f86;
      }

      .cls-27 {
        fill: #d0ad96;
      }

      .cls-28 {
        fill: #d19d5e;
      }

      .cls-29 {
        fill: #d2b4a4;
      }

      .cls-30 {
        fill: #d2a390;
      }

      .cls-31 {
        fill: #c3c1c2;
      }

      .cls-32 {
        fill: #dabfb3;
      }

      .cls-33 {
        fill: #dab79f;
      }

      .cls-34 {
        fill: #d9b197;
      }

      .cls-35 {
        fill: #e2bfa7;
      }

      .cls-36 {
        fill: #e2ae61;
      }

      .cls-37 {
        fill: #403d4c;
      }

      .cls-38 {
        fill: #413d4d;
      }

      .cls-39 {
        fill: #07231a;
      }

      .cls-40 {
        fill: #361920;
      }

      .cls-41 {
        fill: #362e32;
      }

      .cls-42 {
        fill: #973d59;
      }

      .cls-43 {
        fill: #5c4343;
      }

      .cls-44 {
        fill: #473938;
      }

      .cls-45 {
        fill: #5d4747;
      }

      .cls-46 {
        fill: #754f48;
      }

      .cls-47 {
        fill: #766e67;
      }

      .cls-48 {
        fill: #523b3c;
      }

      .cls-49 {
        fill: #4f4140;
      }
    </style>
  </defs>
  <g id="rectangle">
    <g>
      <rect class="cls-39" x="137.75" y="2" width="849.5" height="1236.14" rx="23" ry="23"/>
      <path class="cls-14" d="m964.25,7c9.94,0,18,8.06,18,18v1190.14c0,9.94-8.06,18-18,18H160.75c-9.94,0-18-8.06-18-18V25c0-9.94,8.06-18,18-18h803.5m0-10H160.75c-15.44,0-28,12.56-28,28v1190.14c0,15.44,12.56,28,28,28h803.5c15.44,0,28-12.56,28-28V25c0-15.44-12.56-28-28-28h0Z"/>
    </g>
    <g>
      <polygon class="cls-23" points="602.99 2 987.25 2 987.25 1267.52 602.99 2"/>
      <path class="cls-14" d="m982.25,7v1226.84L609.73,7h372.52m10-10h-396l3.92,12.91,372.52,1226.84,19.57,64.45V-3h0Z"/>
    </g>
  </g>
  <g id="couple">
    <path class="cls-28" d="m336.69,1089.3c1.2,8.5,1.2,16.66-.13,25.2-.13.84-.83,1.47-1.68,1.53-1.97.15-3.9.07-6.11-.05-.24-.01-.49-.07-.71-.18-3.26-1.6-2.74-4.46-2.9-6.99-.35-5.78.54-11.6-.78-17.78-1.05-1.65.52-3.21-.54-4.71-.22-.31-.31-.69-.3-1.06.48-13.25,3.23-25.94,4.87-38.78,1.25-9.8,3.03-19.53,4.7-29.6.37-2.21,3.61-1.92,3.61.31,0,.02,0,.04,0,.06.12,22.59,2.15,45.15,1.08,68.31-.19,1.09-.4,1.75-.9,2.58-.2.34-.27.75-.21,1.14Z"/>
    <path class="cls-17" d="m325.73,1071.22c-.34,41.97,1.9,63.3,4.84,74.55.39,1.49,1.44,5.53-.54,8.78-5.48,8.97-31.09,6.6-35.53-3.66-3.18-7.33-.13-15.06,2.02-22.13,8.13-26.68-.07-34.84,7.25-44.73,2.98-4.02,9-9.83,21.96-12.82Z"/>
    <path class="cls-41" d="m329.08,1158.14c-6.43,10.37-27.59,12.04-35.24,1.03-4.12-5.93-3.68-14.6.18-22.18,2.59,8.17,9.63,14.04,17.84,14.91,10.99,1.17,18.06-7.24,18.57-7.86.79,3.14,1.74,9.12-1.35,14.1Z"/>
    <path class="cls-41" d="m325.37,1088c-7.65.81-14.75,1.2-21.87-.33.04-.75.12-1.32.39-1.59,7.47.86,14.71.23,22.1-.12.08.93,0,1.47-.61,2.04Z"/>
    <path class="cls-3" d="m381.26,545.33c-5.35,12.86-6.98,21.39-11.02,31.93-6.4,16.73-16.45,46.25-18.67,58.22-.82,4.42-.84,7.87-3.52,11.74-1.27,1.84-3.08,3.67-3.62,6.91-.4,2.39-.01,4.27.09,4.84,1.03,5.39-1.28,24.48-14.09,32.89-8.24,5.4-20.91,6.45-25.84,1.17-1.13-1.21-1.06-1.9-4.39-12.68-1.82-5.88-3.18-10.17-3.64-11.4-2.5-6.69-6.08-12.33-8.13-18.87-7.11-22.61-13.51-45.43-20.33-68.12-2.13-7.08-4.23-14.17-6.3-21.27-1.37-4.71-2.62-9.33-4.39-13.89-1.83-4.71-3.38-9.62-3.63-14.7-.24-5.06.6-5.32,1.48-14.38.47-4.85,1.24-13.2,0-23.18-.29-2.36-.79-5.15-1.8-10.73-.73-4.09-1.35-7.17-2.39-12.41-2.02-10.15-3.98-20.41-4.12-30.8-.02-1.71.34-3.43.88-5.52,3.62.76,6.92,1.82,10.12,3.09,3.37,1.34,4.38,4.3,4.16,7.54-.33,4.94,1.75,4.66,4.99,2.69,1.63-1.01,3.34-1.89,5.43-2.88,2.04,5-2.5,8-3.52,12.23,7.19-1.52,14.32-3.41,20.82-7.22,14.76-8.68,19.29-24.84,11.09-39.89-3.64-6.67-5.83-13.65-4.35-21.76,2.31-2.35,3.32.01,4.5.92,6.38,4.91,11.79,10.88,17.32,16.65,15.8,16.53,31.56,33.1,46.23,50.63,3.04,3.64,5.88,7.44,8.59,11.33,1.42,2.03,2.8,4.08,4.18,6.14,2.59,3.89,3.61,6.96,4.04,11.65.46,4.95.54,9.91.58,14.88.08,9.74,0,19.57,2.19,29.12,1.19,5.18-.85,10.07-2.95,15.12Z"/>
    <path class="cls-5" d="m296.37,668.37c2.31,4.12,4.7,9.04,6.82,14.72,1.61,4.31,2.8,8.37,3.68,12.06-.18.66-.4.87-.92.75-1.75-.73-2.94-1.6-3.74-2.71-1.43-1.98-1.44-4.21-1.46-4.98-.07-2.94-.98-8.48-4.38-19.84Z"/>
    <path class="cls-5" d="m337.33,677.7c-1.47,7.3-2.92,14.06-8.25,18.95-1.45,1.33-2.83,2.2-3.74,2.71-.53.12-.74-.09-.92-.75.71-3.51,1.84-7.63,3.68-12.06,3.12-7.51,7.13-13.18,10.41-17.07-.29,3.43-.77,6.24-1.17,8.22Z"/>
    <rect class="cls-38" x="263.48" y="691.86" width="103.36" height="91.41" rx="4.78" ry="4.78"/>
    <path class="cls-21" d="m703.8,1114.28c-13.66-2.45-17.29-11.78-19.84-23.77-8.78-41.27-17.56-82.58-27.54-123.55-16.09-66.08-27.61-133.08-42.17-199.45-1.4-6.36-2.29-12.83-3.44-19.34-3,.85-2.25,2.74-2.3,4.1-1.59,39.86-2.72,79.75-4.76,119.59-2.37,46.28-2.21,92.7-6.99,138.84-2.21,21.37-5.71,42.6-8.53,63.91-1.15,8.72-2.26,17.45-2.96,26.21-.28,3.53-1.37,5.93-4.91,7.58-3.51,4.03-8.28,5.44-12.48,8.47-3.05,1.28-5.72,2.35-8.26,3.71-3.67,1.95-7.29,2.23-11.21-.48-1.08-.61-1.77-1.06-2.82-1.68-1.19-.75-1.98-1.4-3.16-2.11-.93-.54-1.54-.92-2.49-1.41-.51-.28-.71-.4-1.2-.71-1.01-.76-1.73-1.34-2.53-2.32-2.56-12.85-1.8-25.61-2.25-38.26-1.35-38.1-1.5-76.24-3.13-114.32-1.13-26.33-3.54-52.6-4.71-78.94-1.33-29.87-2.96-59.73-4.46-89.6-1.22-24.4-2.61-48.8-3.61-73.21-.74-18.21,2.04-36.27,2.96-54.42.84-16.58,2.46-33.11,5.47-49.47.17-.94.59-1.84,1.05-3.2,3.22.03,3.35,3.79,6.24,5.06,1.77,2.33.37,5.28,2.82,7.3,4.58,1.43,8.85.88,13.51.43,3.62-.3,4.06-3.34,6.1-5.29,16.04,2.59,31.62,4.68,47.58,3.47,12.44-.94,25.02.47,37.44-1.81,2.31-.42,4.62-.71,7.28-1.65,2.75.89,3.56,4.1,6.99,4.15,4.18,2.49,8.22,1.64,12.67,1.03,1.35-.24,2.25-.22,3.55.19.81.27,1.33.44,1.35.74,1.13,14.43,5.57,28.17,9.33,43.37-2.29-15.74-2.03-30.7-10.12-44.14-.6-.45-.8-.69-1.17-1.37-.59-2.04-.54-3.62.26-5.59,4.69-1.81,9.28-2.12,14.28-1.92,4.46,7.96,3.95,16.57,4.94,24.78,3.56,29.49,6.02,59.03,6.31,88.82.18,17.66,3.91,35.29,6.08,52.93,4.52,36.83,9.2,73.64,13.57,110.49,4.12,34.72,8.31,69.44,11.27,104.29.71,8.37,1.41,16.77,1.42,25.16.03,25.83,1.37,51.58,3.66,77.29.39,4.33.37,8.5-2.01,12.81-1.33,2.53-2.98,4.36-4.46,6.82-3,2.88-6.05,3.2-9.42,1.78-4.27-1.8-8.9-2.66-13.25-5.31Z"/>
    <path class="cls-3" d="m355.1,691.86s-.55-.42-1.17-1.17c-3.97-4.79,4.43-25.65,13.73-40.41,6.86-10.88,13.49-21.92,19.82-33.13,1.02-1.81,1.9-3.82,4.12-4.67.88-.34,1.91-.05,2.47.71,2.24,3.06,1.6,6.51,1.13,9.68-3.54,23.99-6.54,48.04-10.23,72.53-1.73,9.94-3,19.42-4.38,28.88-7.34,50.31-15.3,100.53-22.95,150.8-6.71,44.07-13.58,88.12-20.75,132.64-4.11,24.42-7.39,48.44-11.09,72.91-.01.09-.03.18-.05.27-.42,1.64-1.18,2.68-1.69,4.24-.05.17-.09.34-.1.52-.71,9.11-1.88,17.68-3.55,26.17-1.06,5.35-2.87,6.62-8.16,5.21-3.81-1.01-7.95-1.11-11.69-3.82-.16-.12-.34-.21-.52-.28-10.73-3.87-21.24-7.06-31.42-11.07-7.89-3.1-15.31-7.36-23.03-10.92-6.11-2.81-7.06-8.52-6.49-13.76.58-5.32.87-10.38-.26-15.59-.37-1.68-.13-3.51-.07-5.27.83-24.42-.97-48.81-1.54-73.21-.32-13.64.29-27.36-.98-40.93-1.88-20.12.27-40.27-1.22-60.3-1.43-19.15-.03-38.28-1.09-57.37-1.22-22-1.51-44.02-2.43-66.02-1.25-30.03-2.85-60.06-1.96-90.09.55-18.74.1-37.78,7.55-55.75,1.23-2.97,1-6.58,2.98-9.73.42-.67,1.17-1.11,1.96-1.03,1.63.17,2.19,1.66,2.79,2.85,9.03,17.98,20.48,34.72,28.45,53.17,5.26,12.18.57,26.6,0,31.14-.15,1.19-.29,2.16-.38,2.8-.28,0-.89,0-1.17,0-2.13,0-2.27,0-2.33,0,0,0,0,0-.02,0-.44.03-2.08.15-3.52,1.17-1.69,1.2-2.22,3.01-2.35,3.52v17.62c0,5.87.05,11.75,0,17.62-.11,11.74-.07,17.61,0,29.36.05,8.37.16,14.01,3.86,16.43,2.21,1.44,4.76,1.02,5.72,1.03,28.74.06,57.48,0,86.22.06.89,0,3.83.38,5.58-1.4,1.49-1.51,1.42-3.82,1.39-4.63-.69-24.57.66-49.15.58-73.73,0-1.18,0-2.13,0-2.35-.24-1.26-.76-1.96-1.17-2.35-2.48-2.37-7.01.36-10.57-2.35Z"/>
    <path class="cls-7" d="m649.44,338.52c3.69.12,6.5,1.81,10.02,2.81,1.5,1.95,1.37,3.9,1.06,5.83-4.15,25.73-7.01,51.6-8.27,78.12-2.27,4.35-3.01,8.31-.7,12.87,1.09,2.75,1.1,5.11.25,7.89-.92,1.74-1.91,3.06-.51,5.01,1.01,1.97,1.13,3.65.56,5.81-2.37,3.72-2.06,6.97.2,10.65.4,12.37,2.45,24.22,1.53,36.7-1.3,4.25-.48,9.24-6.59,10.38-10.52.18-19.67-3.97-29.72-6.13-1.4-1.29-1.67-2.59-1.92-4.41-.07-.81-.09-1.14-.18-1.94-.99-3.55-3.7-3.04-5.88-3.13-16.51-.68-33.02-.91-49.52,0-2.01.11-4.43-.31-5.59,2.76-.09.84-.1,1.18-.09,2.04.12,15.11.07,29.7.01,44.82-.06,1.23-.07,1.93,0,3.13.58,3.84,3.38,3.49,5.54,3.52,16.8.2,33.6.17,50.4.03,1.88-.02,4,.08,5.39-2.44.38-.76.56-1.05,1.12-1.7,9.63-.27,18.8-1.93,28.57-1.65,7.17,3.03,9.31,8.03,8.83,15.19-.58,8.56-.11,17.2-.15,25.8-.01,2.94.1,5.93-2.73,8.57-7.24,3.23-14.59,2.44-21.71,3.33-16.36,2.05-32.83.97-49.25,1.52-10.29.35-20.71-.66-31.2-3.95-2.68-4.24-2.41-8.7-2.69-12.88-.99-15.16-1.98-30.33-2.77-45.51-1.44-27.63-1.8-55.3-3.34-82.93-.42-7.6-.3-15.21.05-23.33.23-1.79.59-3.04.49-4.79-.23-1.97-.26-3.48-.08-5.46.16-1.73.09-2.99-.27-4.76-.77-21.99-.29-43.48-.35-64.96,0-1.96.17-3.92,1.88-5.87,7.46-3.38,14.41-6.48,21.8-9.63,3.75-.53,4.57,2.23,5.88,4.25,4.55,7.04,8.52,14.45,14.17,20.77,3.46,3.88,3.84,3.98,6.69-.27,2.07-3.09,4.11-6.2,6.41-9.1,3.47-4.37,5.59-4.44,9.58-.58,2.95,2.86,5.1,6.41,8.09,9.26,4.96,4.76,5.91,5.22,10.51.47,7.59-7.83,16.08-14.88,22.11-24.15.53-.82,1.06-1.64,2.39-1.98Z"/>
    <path class="cls-17" d="m419.21,486.19c-.03-1.19-1.58-16.9-5.02-48.29-.44-4-.89-8.02-2.01-11.88-3.72-12.84-14.27-22.34-24.34-31.13,2.13-2.38,6.18-1.64,8.71.31,2.54,1.95,4.27,4.79,6.8,6.76.79.62,1.71,1.16,2.71,1.16,2.71,0,3.79-3.69,3.11-6.31-.36-1.42-.97-2.75-1.38-4.15-.38-1.3-.07-2.77-.45-3.96-.39-1.23-1.64-2.58-2.38-3.65-.83-1.2-1.7-2.39-2.61-3.54-3.57-4.55-7.69-8.68-12.37-12.1-7.16-5.23-15.43-8.68-23.61-12.08-7.56-3.14-15.12-6.28-22.68-9.42-1.33-.55-2.72-1.12-4.17-1.03-2.88.17-4.92,2.76-6.71,5.03-5.21,6.6-14.06,12.72-21.45,8.69-2.16-1.18-3.9-3.14-6.25-3.89-2.35-.75-5.66.7-5.34,3.14.17,1.28,1.24,2.21,2.24,3.02,17.84,14.55,34.41,30.66,49.43,48.1,9.77,11.34,19.07,23.55,23.78,37.76,5.97,18.03,4.06,37.56,5.27,56.51.65,10.17,2.2,20.4.82,30.49-.88,6.39-2.91,12.55-4.94,18.67-6.59,19.92-8.01,26.17-11.23,36.23-4.81,15.04-6.51,17.04-10.22,28.53-2.08,6.43-4.79,15.96-6.91,28.07,48.27-32.77,59.23-64.77,62.25-76.34,2.19-8.4,4.51-22.52,5.87-32.89,1.46-11.04,3.72-28.78,3.04-51.81Z"/>
    <path class="cls-28" d="m429.85,1078.24c.32,8.98.26,17.59.45,26.2.07,3.06-.86,4.42-4.03,5.12-13.7,3.02-27.48,5.31-41.44,6.81-6.43.69-12.83.93-19.8,1.14-2.95-.9-3.1-3.18-3.64-5.22-1.93-7.34-3.56-14.74-4.02-22.83.19-2.09.17-3.7-.2-5.79,1.88-15.66,5.47-30.5,8.9-45.35,5.95-25.74,11.82-51.51,14.9-77.77,1.45-12.43,1.4-25.13.16-37.51-1.59-15.79.11-31.27,1.84-46.77,3.85-34.4,7.53-68.81,11.54-103.19.7-6,1.06-12.1,3.47-18.29,4.25-.06,4.45,3.36,5.23,5.97,4.87,16.37,7.38,33.17,8.73,50.15,1.87,23.54,3.72,47.09,5.54,70.64,3.31,42.83,2.46,40.4,3.75,57.81,1.74,23.53,3.04,41.09,5.51,64.92,1.51,14.61,1.84,15.9,2.35,23.49,2.24,33.49.17,34.02.76,50.48Z"/>
    <path class="cls-7" d="m535.2,592.44c.05.99.09,1.97.14,2.96-2.91,2.49-7.77.69-9.77-2.57s-1.97-7.34-1.88-11.17c.99-42.35.84-84.76-1.82-127.04.48,24.52.84,49.2-3.08,73.41-2.1,12.97-5.71,26.31-14.54,36.04-8.83,9.73-24.15,14.63-35.56,8.12-5.98-3.42-10.08-9.35-13.32-15.44-7.15-13.45-11-28.34-15.1-43.01-6.03-21.58-12.72-42.97-18.52-64.62-.3-1.11-.59-2.29-.26-3.39.46-1.52,1.97-2.44,3.36-3.2,8.86-4.88,17.93-9.39,27.17-13.51,1.34-.6,2.9-1.19,4.23-.56.95.45,1.52,1.41,2.05,2.31,4.65,8.08,9.3,16.16,13.95,24.24,4.02-18.98,8.04-37.98,13.27-56.66,2.16-7.71,4.62-15.55,9.47-21.92,4.18-5.48,9.89-9.51,15.91-12.74,3.07-1.65,6.24-3.1,9.43-4.49.7-.3,3.98-2.17,4.37-1.3.15.34-.03,1.08-.05,1.45-.03.56-.05,1.11-.08,1.67-.05,1.07-.1,2.14-.14,3.21-.37,8.56-.6,17.12-.69,25.69-.09,8.57-.04,17.13.14,25.7.18,8.56.51,17.13.97,25.68.07,1.24.14,2.48.21,3.72.97,16.66,2.47,33.28,3.83,49.92,2.65,32.46,4.75,64.97,6.31,97.5Z"/>
    <g>
      <path class="cls-1" d="m699.52,484.56c-1.08,7.42-.27,15.11-3.06,22.67,6.73-.78,13.17-1.26,19.57-2.03,3.86-.47,4.09-1.67,2.28-4.78-5.52-9.47-11.96-18.37-17.59-28.21.41,4.37-.63,8.39-1.2,12.35Z"/>
      <path class="cls-10" d="m792.43,509.12c-6.98-14.33-14.07-28.61-21.2-42.87-10.87-21.77-22.56-43.11-34.81-64.11-6.32-10.84-11.82-22.44-22.48-30.65-3.4,3.7-2.22,8.56-2.79,12.57-3.13,21.96-6.84,43.86-8.69,66-.53,6.31-2.71,12.49-2.16,19.5.21.9.33,1.77.41,2.64,5.62,9.83,12.07,18.73,17.59,28.21,1.81,3.1,1.58,4.31-2.28,4.78-6.39.77-12.83,1.25-19.57,2.03-.16.44-.33.88-.52,1.31-6.42,1.48-12.54,2.47-18.62,3.63-1.45.28-3.9.81-6.36-.37-2.75-1.31-4.05-4.02-4.63-5.52.01-.29,0-.64-.02-1.02-.4.26-.62.53-.97,1.07-.74,2.16-.89,3.9-.77,6.2-.12,4.99-.8,9.43-.9,13.85-.21,9.01-1.95,18.16,1.57,27.42,8.82,4,17.88,3.74,27.35,4.44,6.18.19,11.82.71,17.43.97,23.77,1.09,47.53.09,71.08-3.52,7.18-1.1,12.36-5.54,14.55-12.84,3.51-11.69,2.26-22.48-3.22-33.73Z"/>
      <path class="cls-11" d="m684.93,508.99c2.99-.8,6.12-1.2,9.68-1.55.63-.08,1.23-.14,1.85-.21,2.79-7.56,1.98-15.25,3.06-22.67.58-3.96,1.61-7.98,1.2-12.35-.5-.87-1-1.74-1.49-2.63-1.93-9.18,1.3-17.5,2.15-25.99,2.19-21.74,5.34-43.37,8.83-64.95.43-2.68.45-5.54,3.71-7.17,0,0,.01.01.02.02.11-.11-25.7-17-40.09-23.13-2.53,2.44-2.58,5.29-2.95,7.95-2.25,16.45-3.13,33.02-4.29,49.57-.92,13.05-.73,26.13-1.79,39.18-.87,10.67-1.06,21.45.53,32.61,1.55,1.48-.14,1.98-.31,3.25-.77,7.03-.82,13.57.07,20.6.29.48.61,1.12.85,1.92.2.67.29,1.28.33,1.82.12-.08.25-.15.4-.23,5.08,6.95,11.49,5.76,18.22,3.95Z"/>
      <path class="cls-11" d="m710.22,378.65c-3.49,21.58-6.64,43.21-8.83,64.95-.86,8.49-4.08,16.81-2.15,25.99.48.89.99,1.75,1.49,2.63-.08-.87-.2-1.74-.41-2.64-.55-7.01,1.64-13.18,2.16-19.5,1.85-22.15,5.56-44.04,8.69-66,.57-4.01-.62-8.87,2.79-12.57,0,0-.01-.01-.02-.02-3.26,1.63-3.27,4.49-3.71,7.17Z"/>
      <path class="cls-11" d="m666.33,506.29c.57,1.5,1.88,4.21,4.63,5.52,2.47,1.18,4.91.65,6.36.37,6.09-1.16,12.2-2.15,18.62-3.63.19-.44.36-.88.52-1.31-.62.07-1.23.13-1.85.21-3.55.35-6.69.75-9.68,1.55-6.73,1.81-13.13,3-18.22-3.95-.16.08-.29.16-.4.23.03.38.03.73.02,1.02Z"/>
    </g>
    <path class="cls-36" d="m425.73,1002.63c-3.44-.98-2.45-3.54-2.56-5.52-1.23-22.37-1.95-44.78-3.77-67.1-1.67-20.56-2.98-41.14-4.59-61.69-2.08-26.56-4.21-53.12-7.21-79.58-1.31-11.51-3.79-23.05-8.78-34.14-2.11-1.84-2.02-4.15-2.6-6.18-3.94-13.92-7.73-27.89-12.57-41.54-.8-2.26-1.05-4.56-1.37-7.29,3.24-24.66,6.82-48.94,10.18-73.24.44-3.2.64-6.6-.72-10.18,1.7-4.22,3.74-8.09,6.17-12.08,2.61,12.11,5.06,24.3,7,36.57,2.79,17.63,5.27,35.32,7.91,52.97,5.56,37.1,3.7,74.35,4.6,111.56.58,23.77,1.58,47.55,2.38,71.32.64,19.08,1.31,38.17,2.35,57.23,1.19,21.54,1.47,43.16,4.47,64.58.13.96,0,1.95-.02,3.46-.21.72-.39.91-.88.85Z"/>
    <path class="cls-40" d="m550.33,613.54c-4.72,2.35-9.2,1.74-14.16.62-3.34-5.18-1.66-10.52-2.04-16.21-.04-26.33-2.23-52.64-4.35-78.86-.85-10.51-1.78-21.01-2.78-31.5-3.36-35.04-5.51-69.83-4.69-105.07.15-6.44-.07-13.14.69-19.54.41-3.44,1.61-9.61,5.66-10.6,4.49-1.12,8.35-4.32,13.47-3.63.08.01-.47,10.18-.51,11.12-.13,3.73-.22,7.46-.27,11.19-.58,34.93.57,69.93,1.08,104.86.51,34.69,2.83,69.53,5.12,104.16.41,6.23.85,12.47,1.24,18.7,2.24,4.92,3.15,9.48,1.54,14.76Z"/>
    <path class="cls-22" d="m456.03,1153c1.44-10.06,4.96-14.31,14.65-14.57,14.74-.41,28.48-3.31,41.32-11.53,4.93,1.26,8.99,3.34,11.94,7.27,1.83,2.45,4.37,2.82,7.31,2.25,10.51-2.02,19.72-7.11,28.53-12.72,3.27-2.08,6.98-3.31,10.38-5.98,3.45-.83,6.43-2.24,10.01-.63,3.55,1.38,5.2,3.32,5.52,6.94.74,8.43,1.96,16.82,2.94,25.74-1.59,2.01-3.56,2.11-5.52,2.15-17.51.32-34.51,3.77-51.46,7.86-20.09,4.85-40.32,7.96-60.78,1.82-5.47-1.64-10.74-3.65-14.83-8.58Z"/>
    <path class="cls-40" d="m674.25,347.68c-3.87,15.59-4.35,31.21-5.34,46.72-1.2,20.81-2.18,41.62-2.45,62.47-.1,7.82.01,15.64-.14,23.45-.1,4.91-.32,9.82-.27,14.73.03,2.51.12,5.01.33,7.51s-.18,4.65-.41,7.09c-.16,1.67-1.22,3.16-2.74,4.02-2.59,1.47-5.73.45-8.44-.09-3.88-.77-3.23-4.25-2.87-7.65.94-8.67.13-17.25-.6-25.9-.89-10.54-1.39-21.12-1.62-31.7-.22-10.22.53-20.54,1.3-30.74.75-10.37,1.62-20.74,2.7-31.09,1.55-14.91,3.53-29.78,6.18-44.54,5.15.55,10.23,1.64,14.36,5.72Z"/>
    <path class="cls-27" d="m229.14,330.71c.97-3.33,2.85-5.86,5.01-8.07,8.23-8.4,10.09-18.93,10.5-30.05.23-6.22.72-12.43,1.15-19.17.95-1.5-.26-3.65,1.46-3.89,2.21-.3,2.29,2.07,3.39,3.8,5.28,13.2,11.49,14.7,27.04,12.55,4.35-.6,8.24-3.52,13.18-2.14.8,8.18-.27,15.94,0,23.73.14,3.92.27,7.8,1.44,12.07-1.59,6.02-3.61,11.37-6.93,16.15-1.46,2.11-2.87,4.12-6.29,3.92-8.62.75-16.04-3.97-24.31-3.02-4.61.53-9.22.27-13.6,2.37-4.56,2.18-7.83.2-10.23-4.4-.71-1.41-1.03-2.52-1.84-3.86Z"/>
    <path class="cls-48" d="m553.89,247.41c-4.17-15.18-3.23-29.91.89-44.4,3.38-11.87,11.45-19.23,24.09-21.86,2.26,2.89-.04,4.65-1.25,6.81,2.86-5.89,7.84-8.61,14.04-9.57,8.54-1.32,17.02-2.1,25.26,1.5,2.55,1.11,5.16,1.77,8.35,1.07,2.77.93,5.22,1.62,7.5,2.66,15.03,6.9,18.16,12.42,15.97,28.95-1.33,10.04-1.87,20.19-4.24,30.6,1.23,4.93.29,8.59-4.15,10.94-1.49-1.77-1.41-3.55-1.57-5.28-.66-7.27-2.38-14.01-7.52-19.72-3.71-4.12-3.53-9.65-3.45-15.32,8.45-6.47,7.75-15.56-1.25-20.5-6.35-3.48-12.6-7.01-19.84-8.55-5.74-1.22-11.42-.95-16.85.49-5.12,1.35-8.63,5.07-9.62,11.09,2.76-6.36,7.35-9.28,13.76-9.43,10.75-.26,20.39,3.59,29.46,8.73,5.44,3.08,8.05,10.56,6.35,16.34-2.15.52-2.94,2.08-4.41,3.44-3.27.17-3.52-2.08-3.99-4.21-2.79-12.7-13.94-18.7-23.78-18.83-4.96-.07-8.03,3.3-10.67,7.16.9.5,1.27-.04,1.71-.27,8.16-4.33,16.89-.97,19.74,7.58.73,2.18-.93,2.65-2.72,3.47-8.96-1.92-17.7-2.47-26.69-3.98-1.36-1.95-2.95-3.26-3.56-5.21.31,1.5,1.54,2.48,2.16,4.28-.63,3.3-3.32,3.29-5.42,4.03-11.22,3.96-12.46,5.58-12.43,17.2,0,4.51-.06,9-2.26,13.08-1.2,2.24-.67,4.54-.92,7.28-.78,1.37-1.55,1.56-2.7.45Z"/>
    <path class="cls-30" d="m573.73,311.71c-3.97-8.75-11.03-15.58-13.09-25.48-1.2-5.8-4.09-11.04-1-16.92,4.71,3.54,6.38,8.81,8.41,13.8,1.45,3.57,3.5,4.85,7.22,3.64,2.79-.91,5.69-1.38,9.09-1.21,1.6.11,2.74.36,4.34.45,5.48-.62,10.73-1.49,15.51.22,11.54,4.14,17.15-3.4,21.67-12.24,2.59-5.05,5.07-10.06,8.72-14.39,1.34-1.58,2.49-3.6,5.47-3.34,3.93,8.22,1.19,16.07-.52,24.37-.04,7.49-3.02,13.56-6.25,20-7.86,8.01-16.13,15.05-24.85,21.52-7.57,5.61-16.26,4.64-24.67,2.98-4.46-.88-6.53-5.2-8.65-9.51-.34-.91-.43-1.43-.59-2.35-.25-.71-.46-1.01-.82-1.55Z"/>
    <path class="cls-6" d="m245.91,271.4c-9.14.1-16-4.8-23.05-9.21-1.63-1.02-1.94-2.9-1.73-4.72.99-8.65,1.83-17.33,3.14-25.93.62-4.08,3.27-7.24,7.55-7.9,4.81-.74,5.22-4.25,5.24-7.72.05-10.03,3.36-18.86,9.54-26.56,7.53-9.39,16.78-16.62,27.97-21.37,2.96-1.25,5.78-2.25,9.47-1.97,2.92,5.11.72,10.21.3,15.76-2.08,3.56-5.53,4.4-8.9,6.17-1.55.52-2.72.61-3.89.69-9.06.6-9.88,1.21-12.39,10.12-1.05,3.71-2.51,7.32-6.1,8.88-8.77,3.84-9.87,10.7-8.28,19.36-2.12,10.02-1.18,19.09,4.28,27.94-.44,5.78-1.21,11.01-3.15,16.46Z"/>
    <path class="cls-22" d="m707.6,1154.14c-.41-1.57-.54-2.75-.72-4.37,1.38-7.55,2.29-8.1,9.62-9.83,3.72-.88,8.42.92,11.37-3.83,1.47-1.08,2.71-1.23,4.46-.91,4.26,3.18,8.74,4.77,13.74,6.35.41.18.27.29.25.2.02.38.23.76.91,1.21,5.05,4.31,9.01,9.06,11.73,15.23.63.88.6,1.7,1.41,2.24.36-.01-.03-.04.16-.05,2.92,11.22-1.51,18.55-12.51,21.57-10.02,2.75-19.77,1.88-29.08-2.27-6.89-3.07-12.11-7.87-11.57-16.93.28-3.06.87-5.61.23-8.6Z"/>
    <path class="cls-26" d="m335.97,201.02c16.42,8.18,24.33,22.06,28.47,38.92,2.38,9.68-1.4,18.92-1.2,28.94-1.99,2.48-4.47,3.05-7.59,3.11-1.64-.12-3.03-.19-3.79-.97-6.82-6.98-15.36-6.4-23.96-5.65-.39.03-.78.05-1.17.04-2.39-.03-3.4-1.56-3.9-3.62-.58-2.4.64-3.67,2.79-4.3,3.96-1.16,8.01-1.85,12.1-1.1,3.31.61,4.4-.55,3.68-3.68-2.24-9.75-6.34-18.34-15.53-24.15-.68-.34-.94-.51-1.53-.99-2.38-5.38-4.43-10.45-5.83-16.21-.11-1.34,0-2.22.45-3.45,4.96.02,7.52-2.42,8.81-7.12.81-.34,1.31-.43,2.19-.5.93.37,1.53.42,2.43.17.83-.1,1.38-.06,2.32.12.61.15.82.17,1.25.44Z"/>
    <path class="cls-9" d="m649.81,338.19c-6.93,12.14-17.33,20.73-26.86,30.11-2.31,2.27-4.65,2.22-6.95-.51-3.5-4.17-7.38-8.03-10.88-12.2-2.52-2.99-4.71-3.12-6.93.09-2.42,3.51-4.96,6.96-7.08,10.65-2.72,4.74-3.77,4.91-7.33.95-6.16-6.85-10.7-14.78-15.48-22.55-1.03-1.67-1.86-3.44-3.92-4.74,1.28-5.6,4.14-10.25,8.66-14.18,2.51-.54,3.11,1.24,3.8,2.47,4.97,8.83,13.65,13.09,21.83,17.98,2.35,1.4,4.4.44,6.65-.38,11.65-4.27,21.69-10.58,28.13-21.61.29-.5.85-.79,1.79-.95,2.9.17,3.92,2.06,5.28,3.76,2.94,3.68,6.15,7.14,9.27,11.12Z"/>
    <path class="cls-33" d="m231.37,332.51c4.02,7.09,4.29,6.53,11.65,4.22,8.73-2.74,17.92-3.33,26.64.72,1.75.81,3.12,1.59,4.74.15,1.47-1.32,2.75-1.27,4.09.73.58,4.11-2.5,5.75-4.72,7.59-3.3,2.75-6.13,5.87-8.85,9.13-4.28,5.13-4.33,8.49-.24,13.98,1.12,1.51,2.85,2.73,2.03,5.27-8.59-.38-16.6-2.67-25-2.66-4.71,0-8.31.53-10.98,4.87-2.76-2.7-5.06-5.34-7.42-7.92-5.66-6.2-5.64-13.49-3.66-20.91,1.51-5.68,4.32-10.86,8.04-15.9,1.55-.87,2.43-.07,3.68.75Z"/>
    <path class="cls-35" d="m230.42,376.87c.93-6.72,4.78-7.11,10.41-6.76,8.55.54,17.03.77,25.62,3.79,8.24,2.44,11.1,8.37,7.92,16.33-2.44,6.1-5.74,11.79-10.13,17.32-7.95,1.57-15.47,1.15-22.99.3-4.49-.51-9.31-1.96-11.98,3.73-.39.82-1.71.73-3.13.22-2.72-4.68-.17-8.52,1.05-12.51,2.18-7.17,6.4-14.01,3.23-22.42Z"/>
    <path class="cls-19" d="m411.74,423.48c-7.55-8.91-13.66-18.46-22.6-25.55-1.73-1.37-4.48-4.14-2.58-5.61,2.39-1.84,6.34-1.71,9.21.7,3.85,3.23,7.6,6.59,11.74,10.07,2.63-.16,4.34-.65,2.93-3.69-1.28-2.75-2.38-5.62-3.57-8.84-4.62-9.93-13.15-15.72-20.91-22.06-2.41-1.97-3.49-5.24-7.05-6.32-2.81-3.7-1.64-5.15,2.43-4.26,1.85.41,3.61,1.42,5.31,2.32,22.01,11.69,39.59,28.15,53.03,49.59,1.08,2.56-.32,3.74-1.87,4.61-6.8,3.82-14.05,6.68-21.2,9.74-1.44.62-3.07.46-4.87-.72Z"/>
    <path class="cls-19" d="m635.67,322.9c-6.94,13.82-19.13,20.34-32.38,25.51-1.33.52-2.52.99-3.86.15-9.68-6.04-20.26-11.07-25.68-22.56.35-3,.97-5.75.7-9.09-.08-.7-.15-.92-.08-1.46.14-.32.33-.31.42-.26.62.24,1.46.27,1.65.64,3.49,6.87,8.83,9.37,16.66,8.97,6.96-.35,12.54-2.18,18.1-6.53,7.17-5.6,13.11-12.74,21.63-17.18,2.72,3.24,1.26,7,1.72,10.51.47,3.58.75,7.2,1.12,11.3Z"/>
    <path class="cls-44" d="m455.49,1152.67c21.09,13.54,43.67,12.08,66.39,7.42,16.94-3.47,33.71-7.86,50.95-9.63,4.84-.5,9.77-.14,15.2-.18.54,0,.8.38.8.62.34.91.45,1.66.92,2.64.35,3.42.44,6.59.4,10.26-.47.76-.79,1.03-1.26,1.6-11.55.34-22.92.41-34.82.36-.8-.51-1.11-.83-1.83-1.2-.28-4.33-1.7-5.6-6.12-4.03-14.71,5.21-29.59,9.78-45.43,10.19-15.36.39-30.44-.13-44.04-8.69-4.21-2.65-5.32-5.42-1.16-9.36Z"/>
    <path class="cls-13" d="m225.82,412.03c.02-.09.07-.17.13-.24.26-.28.71-.18,1.09-.22.74-.08,1.28-.76,1.54-1.46s.33-1.46.62-2.14c.69-1.66,2.53-2.59,4.32-2.78s3.57.24,5.34.55c7.65,1.38,15.5.85,23.28.95.62,0,1.3.04,1.78.45.28.24.45.58.61.91,1.72,3.53,3.37,7.12,5.65,10.32,2.61,3.66,6.01,6.73,8.32,10.62,2.42,4.09,1.76,8.38-.82,12.26-2.81,4.23-7.02,7.52-11.8,9.23-.86.31-1.84.55-2.64.12-.55-.3-.9-.87-1.17-1.44-1.34-2.83-1.45-6.35-3.68-8.55-1.88-1.85-4.76-2.22-7.02-3.58-1.71-1.03-3.02-2.61-4.62-3.82-1.79-1.34-3.9-2.18-5.89-3.2-6.98-3.56-12.83-9.72-14.97-17.26-.07-.24-.12-.51-.06-.74Z"/>
    <path class="cls-17" d="m358.62,1075.91c.4,1.76.29,7.68.15,8.52-.09.53-.15.86-.15.88,0,0-.01.99,0,8.22.01,6.43,6.4,23.96,9.51,34.42,3.58,12.03,4.89,17.84,3.41,21.96-3.79,10.52-29.2,14.48-35.23,5.87-1.74-2.48-1.43-5.31-1.09-8.73,0,0,1.49-27.26,1.09-58.22,0-.74-.03-1.88,0-3.52.15-8.28,1.27-15.09,2.35-19.97,11.32,1.5,19.11,6.77,19.97,10.57Z"/>
    <path class="cls-41" d="m335.13,1145.21c.83.85,8.14,8.09,19.14,6.79,11.29-1.34,16.72-10.52,17.27-11.49.93,1.91,4.97,10.65,1.17,17.62-5.95,10.9-27.84,11.46-35.23,1.17-3.6-5.01-2.85-11.36-2.35-14.09Z"/>
    <path class="cls-26" d="m343.74,346.94c-1.72.09-3,.11-4.78.15-3.45-4.19-1.85-8.99-2.18-13.52-.21-2.89-.06-5.81.05-9.22.17-2.66.15-5.08,1.88-6.5,6.23-5.11,9.67-12.04,13.34-19.38,5.25-1.57,8.73-4.02,8.67-9.76-.02-1.76.66-3.43,3.05-4.02.44,13.53,1.56,26.99-.45,40.42-1.72,11.5-7.93,18.76-19.59,21.83Z"/>
    <path class="cls-7" d="m665.85,554.02c5.59.37,10.77,1.42,15.99,1.84,3.3.27,6.56.28,9.91,2.05-1.63,6.38-.3,12.66-.95,18.79-.66,6.15-2.19,12.14-5.82,17.84-6.15,2.26-12.14,4.46-19.02,2.59-2.06-3.7-1.54-7.27-1.52-10.74.07-9.94-.38-19.88.4-30.36.3-.9.46-1.24,1.01-2Z"/>
    <path class="cls-9" d="m411.39,423.62c10.53-1.83,19.49-6.93,28.33-12.97,11.2-1.11,11.25-1.13,16.17,9.35,1.21,2.57,3.25,4.98,2.44,8.66-9.49,1.57-16.83,7.72-25.32,11.16-3.91,1.59-7.58,3.75-11.78,5.7-4.16-4.79-3.99-11.4-8.17-16.3-.82-1.76-1.24-3.47-1.67-5.61Z"/>
    <path class="cls-4" d="m283.76,182.62c-.02-5.37.37-10.54.77-16.16,1.04-1.3,2.53-1.94,3.05-3.04,2.94-6.34,8.32-5.13,12.32-2.82,8.53,4.94,17.81,8.91,24.6,16.55,5.12,5.76,6.44,16.02,2.43,22.43-1.95,1.92-3.71.96-5.86-.06-1.15-1.21-1.56-2.32-1.79-3.46-2.72-13.62-12.58-16.82-25.37-15.13-3.28.43-6.33,2.06-10.14,1.69Z"/>
    <path class="cls-45" d="m728.2,1135.89c.53,3.86-1.35,4.94-4.69,5.02-3.45.09-6.91.64-10.33,1.2-3.72.6-4.23,4.04-5.94,6.97-6.67-10.67-5.36-22.37-3.81-34.62,5.17-.04,9.73,2.15,14.36,3.95,2.87,1.12,5.15.72,7.86-1.03,1.03-.53,1.7-.98,2.5-.94,2.35.14,5.22.4,5.28,3.24.06,2.99-3.16,2.04-5,2.64-1.72.56-3.42-.51-5.6-.16-1.29.36-2.11.72-2.93,1.11.92-.15,1.71-.63,3.02-1.03,4.64,1.03,8.95-1.3,13.54.64,3.55,6.19,6.69,12.1,9.92,18.42-5.22,1.42-9.38-.78-13.13-4.74.43-1.03,1.04-1.44,1.86-1.44-.35-.47-.83-.16-1.22-.16-3.61,0-7.28-.43-10.34,1.22,1.22-.12,2.66-1.22,4.65-.31Z"/>
    <path class="cls-44" d="m708.19,1161.77c-.43,7.19,3.14,11.97,8.68,15.02,11.39,6.26,23.42,6.94,35.44,1.94,7.67-3.19,8.15-10.23,8.23-17.83,7.09,9.97,2.26,24.23-9.69,27.99-9.54,3-19.22,3.18-28.9.38-12.48-3.61-15.85-8.02-15.83-20.91,0-1.76.1-3.52.26-5.81.49-.95.95-1.12,1.8-.78Z"/>
    <path class="cls-45" d="m570.02,1117.72c-1.57,5.45-6.99,5.7-10.49,7.88-8.76,5.46-17.91,10.76-28.5,12.42-2.39.37-4.93,1.15-6.48-1.03-3.11-4.39-7.57-6.85-12.1-9.82-.07-.42-.02-.44,0-.42,2.79-3.45,5.93-1.44,9.01-.6,2.17.59,3.87,2.01,5.53,2.97-1.58-2.74-6.51-2.24-6.69-6.93.1-1.8-2.65-4.47,2.25-3.66,3.59,1.19,6.31,3.46,9.77,3.77-2.57-.46-5.13-.91-3.96-4.99.12-.39.09-.22.03-.28,4.37-2.58,8.47-.73,12.61.86,1.88.72,3.59,2.54,6.24.83,5.33,2.91,10.05,2.4,14.78-.83,1.37-.93,3.2-1.19,5.28-1.78,1.49-.17,2.16.34,2.73,1.62Z"/>
    <path class="cls-17" d="m272.26,693.58c-.03-1.2-.03-2.4.02-3.6.13-3.21.91-6.46.83-9.66-.56-20.9-19.39-51.19-19.39-51.19-16.11-21.95-21.38-47.47-30.16-89.95-14.12-68.3,2.79-127.02,5.68-126.94.14,0,1.02.76,2.78,2.27.95.81,1.87,1.65,2.77,2.5,1.81,1.72,3.53,3.52,5.16,5.4,1.63,1.88,3.17,3.85,4.6,5.89,1.12,1.59,2.53,3.23,2.64,5.26.28,4.88,1.74,9.75,2.6,14.56.95,5.34,1.78,10.71,2.52,16.08,1.47,10.77,2.58,21.59,3.62,32.42,1.04,10.83,2,21.67,3.18,32.48,1.18,10.78,2.57,21.54,4.47,32.22,1.5,8.43,3.32,16.8,5.58,25.06,9.85,35.9,18.51,43.97,26.59,75.63,2.46,9.63,5.25,19.1,6.5,31.01.59,5.61.68,11.3.97,16.91.45,8.62,1.43,17.23,2.22,25.83.11,1.17,0,2.68-1.1,3.07-.87.3-1.8-.37-2.32-1.14-.79-1.17-1.07-2.59-1.32-3.98-.51-2.85-4.53-32.88-6.67-32.48-1.49.29,4.19,34.34,4.22,37.21.01,1.16-.06,2.35-.47,3.43-.19.51-.48,1.01-.96,1.26-.72.37-1.64.02-2.16-.6s-.74-1.43-.92-2.22c-.58-2.48-5.59-34.56-6.74-34.38-1.97.31,3.93,31.02,4.39,33.72.15.86.21,1.92-.5,2.41-.57.39-1.37.2-1.95-.18-1.32-.85-1.99-2.39-2.47-3.88-1.47-4.62-1.87-9.53-2.88-14.26-1.04-4.89-2.21-9.72-3.41-14.57.81,6.83,1.26,13.62,2.58,20.41.16.83.33,1.7.08,2.51-.25.81-1.07,1.51-1.9,1.31-.83-.2-1.22-1.13-1.48-1.95-3.9-12.27-6.6-25.01-7.18-37.89Z"/>
    <path class="cls-18" d="m639.72,281.02c-1.26-7.98,2.13-15.86-.14-24.23-.76-1.3-.36-2.05.69-2.91,2.76-2.85,3.03-6.28,3.96-9.88.59-.31.98-.25,1.37-.28,11.57-.61,12.5.38,10.83,11.72-.71,4.81-1.29,9.65-2.23,14.41-1.82,9.22-4.52,11.28-14.48,11.16Z"/>
    <path class="cls-32" d="m245.64,272.05c.52-5.6,1.11-10.91,2.01-16.58,6.44-2.02,12.62-1.86,19.25-.63,2.92,6.58,1.85,12.84.36,19.07-.57,2.4-2.18,3.55-4.68,3.36-4.23-.33-8.52-.42-12.82-2.92-1.12-1.47-1.78-2.65-2.43-3.84-.32.66-.63,1.32-1.21,2.19-.32.02-.37-.17-.49-.65Z"/>
    <path class="cls-47" d="m666.1,597.17c6.36-.02,11.86-3.05,18.3-2.41-.01,6.48,2.9,12.53,1.75,19.39-4.33,1.07-8.36,3.65-13.27,1.78-2.29-.61-4.24-.95-6.09-2.66-1.87-5.47-3.34-10.52-.68-16.1Z"/>
    <path class="cls-18" d="m560.8,269.03c-2.38,2.82-1.57,5.46-.55,7.99,1.06,2.64,1.1,5.23.31,8.34-5.36-.31-8.33-3.54-8.94-8.76-1.04-8.89-.91-17.83-.23-26.75.06-.84.93-1.63,1.85-2.65.95.2,1.47.61,2.53,1.41.8,2.55,1.28,4.64,2.33,7.02,1.17,4.59,3.23,8.56,2.71,13.39Z"/>
    <path class="cls-8" d="m364.29,284.23c-2.28,1.51-2.24,3.48-2.2,5.41.11,5.79-2.59,8.95-8.95,9.16-1.59-.97-2.08-2.31-1.9-3.66,1.05-7.86.34-15.95,3.38-24.01,2.79-.86,5.23-1.3,8.13-1.74,2.07,4.67,1.59,9.5,1.54,14.84Z"/>
    <path class="cls-45" d="m625.35,180.73c-2.32,2.52-4.8,2.49-8.06.95-10.28-4.83-20.92-3.46-31.25-.19-5.14,1.62-7.27,6.97-10.49,11.73-1.01-5.07,3.06-7.54,3.77-11.64,6.83-6.45,14.77-8.03,23.55-6.62,7.55,1.21,14.95,2.95,22.5,5.76Z"/>
    <path class="cls-47" d="m535.4,596.66c.43,5.24.55,10.22.69,15.7.06,2-.99,2.66-2.55,3.4-3.65-.25-4.78-2.44-5.53-5.51.33-4.73.96-9.2,1.73-14.12.56-.81,1.05-1.01,2.01-1.05,1.47.26,2.47.65,3.65,1.57Z"/>
    <path class="cls-49" d="m736.77,1122.68c-4.67.52-9.45.54-14.76.56-.7-.2-.86-.4-.79-.91,3.52-3,8.24,1.19,11.53-2.86-1.73-1.31-3.68-1.89-6.23-2.13.13-2.47.87-4.82,3.99-5.85,1.78,1.55,3.63.99,5.78,1.12.83.45,1.03.92.99,1.86-.62,1.2-1.33,1.97-.51,3.38.26.59.32.84.16,1.41-1.68,1.17-.28,2.05-.14,3.41Z"/>
    <path class="cls-49" d="m547.41,1118.27c.23,3.62-.92,4.6-3.98,2.59-4.29-2.81-8.95-4.41-14.64-3.79-.36-5.01,5.43-1.62,6.94-5.23,1.63-.28,2.7.17,3.6,1.6.14.34.09.49.13.42.68.12,1.32.32,2.14.81.94,1.28,2.03,1.78,3.43,2.46.93.43,1.56.65,2.39,1.15Z"/>
    <path class="cls-21" d="m570.55,1118.24c-1.05-.67-1.64-1.28-2.51-2.02,1.74-1.2,3.5-2.61,5.21-4.28,10.02-9.74,12.49-22.38,13.22-28.98.21,4.73.06,10.76-1.17,17.62-1.18,6.54-3.01,12.01-4.75,16.25-3.17.85-6.34,1.16-9.99,1.41Z"/>
    <path class="cls-25" d="m320.57,198.99c2.04.09,3.72.55,5.82,1.02.65.08.86.15,1.38.38.28,2.7.12,5.09-1.71,7.25-2.07,2.44-3.75,2.42-5.95-.25-2.32-2.95-1.04-5.49.46-8.39Z"/>
    <path class="cls-44" d="m520.09,1121.96c2.19,3.64,6.19,4.53,9.13,6.76.94.71,2.31,1.35,1.62,2.62-1.12,2.08-2.19.18-3.21-.39-4.46-2.51-8.68-5.78-14.75-4.24-.3-4.94,5.29-1.66,7.2-4.75Z"/>
    <path class="cls-44" d="m528.08,1117.03c.61,2.16,1.26,3.77,4.07,4.08,1.89.21,3.99,1.09,4.88,4.37-5.31-1.8-9.95-3.05-13.99-6.4,1.7-.29,3.17-1.13,5.04-2.05Z"/>
    <path class="cls-45" d="m708.5,1161.54c-.46.5-.89.5-1.66.49-.14-2.46.04-4.92.35-7.82,2.34,1.68.95,4.4,1.31,7.33Z"/>
    <path class="cls-34" d="m231.62,332.39c-.91.1-1.89-.21-3.22-.68-.29-.51-.13-.83.34-1.24,1.34.02,2.46.16,2.88,1.91Z"/>
    <path class="cls-44" d="m760.63,1160.11c-.74.4-1.26.03-1.54-1.15.42.05.93.44,1.54,1.15Z"/>
    <path class="cls-41" d="m590.12,1153.37c-.51-.21-.91-.83-1.3-1.85.95-.15,1.48.41,1.3,1.85Z"/>
    <path class="cls-25" d="m332.29,200.22c-.15.8-.77,1.08-1.76.3.34-.28.86-.34,1.76-.3Z"/>
    <path class="cls-41" d="m589.1,1165.68c-.16-.38.08-.74.62-1.23.13.33-.05.79-.62,1.23Z"/>
    <path class="cls-41" d="m551.96,1164.87c.36-.22.78-.03,1.38.46-.32.18-.82.06-1.38-.46Z"/>
    <path class="cls-45" d="m747.42,1142.8c-.25.06-.61-.2-1.05-.8.26-.07.6.21,1.05.8Z"/>
    <path class="cls-25" d="m336.06,201.06c-.17.18-.43.09-.81-.21.17-.33.46-.28.81.21Z"/>
    <path class="cls-47" d="m549.71,613.3c-.29-4.61-.6-8.8-.85-13.49,0,.08,2.33.33,2.56.36.87.12,1.74.23,2.61.34,1.74.21,3.48.41,5.22.58,3.47.35,6.95.62,10.44.82,3.48.2,6.96.33,10.44.41,3.48.07,6.96.09,10.45.06,3.49-.03,6.97-.12,10.45-.24s6.98-.28,10.47-.47c3.5-.19,6.99-.41,10.48-.65,3.5-.24,7-.5,10.5-.77,3.51-.27,7.02-.55,10.53-.83,1.41-.11,2.81-.22,4.22-.34.43-.01.84-.08,1.27-.07.36,0,.75-.02,1.04-.24.2-.15.32-.37.5-.54.37-.35.89-.45,1.39-.47.25-.01.49,0,.73.02.13.01.88,0,.94.1,2.81,4.09,1.84,8.27,1.5,12.86-.68,1.22-1.36,2.44-2.06,3.67-.88,1.56-1.76,3.11-2.65,4.65-3.7.93-9,2.13-15.44,3.11-15.71,2.4-18.1.27-38.29,1.5-12.6.77-25.44-1.41-38.05-3.5-.64-.11-1.15-.99-2.1-1.75-1.85-2.39-4.13-3.46-6.3-5.09Z"/>
    <path class="cls-47" d="m671.97,623.08c5.81,4.35,7.46,10.8,8.51,17.41,1.3,8.2,2.35,16.45,3.3,24.7.23,2.02.61,4.24-.58,6.25-3.7-4.17-11.61-38.82-11.03-47.23-.34-.5-.39-.71-.2-1.14Z"/>
    <path class="cls-29" d="m549.2,613.04c1.08.08,2.15.23,3.21.48.62.15,1.24.34,1.78.68,2.03,1.28,1.47,4.64,1.22,6.64-.09.68-.21,1.4-.66,1.93-.57.68-1.51.88-2.38,1.05-1.83.35-3.66.79-5.52.87-1.66.07-3.32,0-4.98-.11s-3.38-.1-5.06-.23c-1.26-.1-2.44-.92-3.02-2.04-.1-.18-.18-.37-.24-.57-.29-.89-.23-1.86-.22-2.8.01-1.35-.3-2.67.24-3.94.3-.71.84-1.37,1.51-1.76.77-.44,1.95-.22,2.81-.23,2.16-.02,4.33-.04,6.49-.06,1.6-.02,3.21-.03,4.81.09Z"/>
    <path class="cls-32" d="m672.04,621.48c0-.08-.01-.15-.01-.21,0-.98.14-1.92.24-2.88s.09-1.95.05-2.92c-.02-.56-.32-.85-.8-1.08-2.6-1.26-5.47-1.83-8.32-2.22-2.29-.31-4.62-.5-6.92-.26-1.99.2-4.33.58-5.39,2.5-.07.12-.13.25-.19.38-.31.74-.46,1.53-.57,2.32-.16,1.14-.25,2.3-.05,3.43.24,1.35,1.01,2.02,2.36,2.16.71.07,1.4.24,2.08.45,1.39.43,2.73,1.01,4.17,1.26,1.98.34,4,0,6.01-.04,2.06-.05,4.17.19,6.16-.36.35-.1.76-.23,1.01-.51.42-.46.22-1.38.16-2.02Zm-6.73.28c-.06-.11-.13-.21-.2-.33-2.68-1.55-5.31-.99-7.8-1.37-.97-.15-2.07-.38-2.2-1.53-.19-1.53,1.08-1.91,2.24-2.15,3.11-.62,6.12.67,9.58.53-.45,1.71-.75,3.31-1.63,4.85Z"/>
    <path class="cls-44" d="m664.54,623.75c1.3.1,2.14.23,3.38.47-3.67,1.87-7.73,1.46-11.91-.41,2.6-.27,5.33-.14,8.53-.05Z"/>
    <path class="cls-44" d="m536.27,624.42c4.42-.46,9.2-.6,14.52-.62-4.22,2.86-9.24,1.03-14.52.62Z"/>
    <path class="cls-45" d="m545.14,1117c-1.18.28-2.72.63-3.32-1.63,1.28-.34,2.38.16,3.32,1.63Z"/>
    <path class="cls-17" d="m336.54,1087.01c.18-25.12-1.26-49.87-2.29-74.98,3.45-23.73,7.35-47.1,11-70.5,3.39-21.69,6.44-43.42,9.77-65.12,2.92-19,6.15-37.96,9-56.97,3.4-22.67,6.13-45.44,9.96-68.03,2.24-13.23,3.48-26.6,6.15-39.74.78-3.83-.1-7.88,1.81-11.98,5.45,8.63,7.26,19.05,10.24,28.97,2.43,8.1,5.96,16.03,6.3,25.19-1.37,12.24-2.77,24-4.11,35.76-1.41,12.34-2.75,24.69-4.14,37.03-1.8,16.01-4,31.98-5.32,48.03-1.24,15.05-3.28,29.93-2.15,45.3,1.57,21.52.85,43.15-3.48,64.62-6.03,29.9-12.83,59.62-19.37,89.4-.75,3.41-1.03,6.92-1.59,10.94-.7,2.36-2.23,2.38-3.79,2.52-5.88.53-11.76,1.15-17.99-.45Z"/>
    <path class="cls-12" d="m616.87,508c10.01.34,18.87,4.34,28.76,5.81,2.21,1.41,2.53,3.43,2.25,5.31-1.31,8.68-.75,17.41-1.06,26.12-.05,1.37-.31,2.7-1.39,4.31-9.4,1.85-18.36,3.99-28.05,1.82-6.55,3-12.99,1.39-19.23,1.24-3.57-.09-7.26-.67-11.3-1.79-1.84-5.42-1.33-6.36,3.47-6.56,5.8-.23,11.62.08,17.42-.28.77-.27-.42-1.34-.07-.64.16.32.09.52-.2.55-7.77.64-15.56.24-23.34.25-1.15,0-2.29-.48-3.35-.98-2.08-.97-3.72-2.33-3.27-4.9.42-2.42,2.27-2.91,4.4-2.85.78.02,1.56,0,2.88,0,8.54,0,16.55,0,24.56-.02-7.56-.02-15.13-.02-23.21-.02-3.45-.07-6.4.24-9.31-.13-2-.26-3.86-1.06-4.17-3.45-.33-2.58,1.21-3.98,3.36-4.88,1.65-.69,3.42-.98,5.18-.74,6.62.88,13.27.13,18.64.4-3.64,0-8.53,0-13.42,0-2.17,0-4.32-.13-6.25-1.24-1.61-.92-2.82-2.15-2.66-4.19.14-1.86,1.56-2.59,3.05-3.18,2.59-1.03,5.31-1.29,8.06-1.33,5.28-.07,10.56-.02,15.85-.03q9.19,0,12.42-8.62Z"/>
    <path class="cls-46" d="m586.47,535.65c-2.73,1.13-8.23-.85-8.1,3.4.12,3.62,4.47,3.45,7.1,3.56,8.12.35,16.26.13,24.43.93-6.08,2.06-12.38,1.13-18.56,1.59-2.16.16-5.75-.99-4.51,4.04-.37,1.6-1.41,2.23-2.58,2.26-10.19.19-20.39,1.14-31-.9-.52-15.74-.59-31.1-.56-47.01,1.64-2.08,3.63-2.03,5.56-2.04,17.68-.06,35.36-.06,53.04,0,1.56,0,3.12.07,4.99,1.19.57,1.62.68,2.87.89,4.59-.71,11.05-.71,10.98-11.64,11.06-7.4.05-14.8.17-22.19.62-1.8.11-5.03-.45-5.08,2.6-.05,3.12,3.16,3.3,5.27,3.48,5.42.48,10.89.48,16.34.6,2.99.07,5.99.01,8.98.01v1.83c-8.41,0-16.81-.02-25.21.01-2.72.01-5.47-.16-8.06,1.01-1.33.6-2.4,1.42-2.34,3,.07,1.78,1.48,2.09,2.87,2.27,2.7.35,5.41.65,8.62,1.03.67.22,1.83.48,1.72.85Z"/>
    <path class="cls-9" d="m645.1,550.4c.12-12.14-.32-23.87,1.04-36.04,4.09-1.51,5.16-4.63,5.73-8.63,1.38,7.25,3.38,8.16,13.83,5.42,1.13,11.6-1.68,23.37-.65,35.26.18,2.11-.37,4.31.99,6.75.17.71.14.97.08,1.63-.52.72-.99,1.08-1.56,1.21q-8.33,1.94-8.31,10.49c.01,7.55.05,15.1-.02,22.65-.03,3.09.03,6.23-2.27,9.28-1.3.33-2.23.31-3.62.28,1.37-2.15,1.92-4.58,1.87-7.43-.16-9.69-.19-19.39,0-29.09.08-4.33.15-8.22-5.41-9.13-.65-.11-1.09-1.44-1.69-2.65Z"/>
    <path class="cls-24" d="m553.02,502.31c-1.08-3.72.62-4.97,4.06-5.11,18.36-.72,36.71.07,55.06.03,2.63,0,4.66.58,4.79,4.18-7.52,1.82-15.09,1.02-22.61,1.02-13.59,0-27.17.22-41.29-.12Z"/>
    <path class="cls-31" d="m616.33,552.15c1.08,3.76-.34,5.03-3.97,5.01-18.3-.14-36.6-.08-54.89-.05-2.82,0-5.14-.42-4.99-4.49,2.2-1.79,4.59-1.3,6.88-1.35,18.82-.4,37.62.53,56.97.88Z"/>
    <path class="cls-48" d="m616.88,552.13c-21.12.26-42.22.27-63.83.14-.5-.59-.48-1.04-.35-1.81,11.12-.41,22.13-.49,33.74-.71,10.1,1.78,19.76,1.07,29.89,1.6.55.02.58.53.55.78Z"/>
    <path class="cls-41" d="m552.54,502.38c9-1.68,18.12-.73,27.2-.86,12.03-.17,24.07,0,36.64.2.53.17.49.75.43,1.03-21.04.29-42.01.3-63.5.27-.52-.05-.71-.43-.77-.64Z"/>
    <path class="cls-7" d="m588.05,493.57c-2.41.09-4.35.15-6.29.07-1.65-.06-3.23-.58-3.3-2.53-.08-2.38,1.9-1.9,3.36-2.05,2.39-.25,4.66.35,6.74,1.39,1.71.85,1.47,2.04-.52,3.12Z"/>
    <path class="cls-20" d="m602.24,570.52c2.38,2.58,2.47,4.93-.53,6.23-2.17.94-4.37.08-4.62-2.66-.31-3.36,1.7-4.35,5.14-3.57Z"/>
    <path class="cls-20" d="m597.42,407.34c2.03-2.14,3.98-2.26,5.75-.5,1.07,1.07.89,2.46-.08,3.63-.99,1.19-2.08,2.44-3.83,1.9-2.35-.72-2.47-2.61-1.84-5.04Z"/>
    <path class="cls-20" d="m597.11,490.41c1.34-2.8,3.28-3.06,5.4-1.94,1.3.69,1.75,2.05,1.04,3.45-.7,1.4-1.72,2.68-3.4,2.73-2.52.08-3.17-1.64-3.03-4.25Z"/>
    <path class="cls-20" d="m603.44,448.31c.41,3.38-.69,5.39-4.01,4.8-1.92-.34-3.05-1.97-2.23-3.94,1.3-3.13,3.54-3.07,6.24-.86Z"/>
    <path class="cls-20" d="m603.45,367.07c-.36,2.84-1.29,5.07-4.32,3.5-1.75-.91-3.09-2.89-1.37-4.76,1.93-2.09,4.07-1.88,5.69,1.26Z"/>
    <path class="cls-34" d="m297.82,387.64c-.93,8.76,1.02,16.44,5.25,23.86,7.72,13.57,2.54,31.06-11.25,39.79-6.54,4.14-16.35,7.32-25.31,8.06,2.17-4.49,4.22-8.75,6.37-13.45,1.39-1.56,2.04-3.21,3.02-4.55,2.98-4.05,4.58-8.51.34-13.06-2.76-2.96-5.18-6.24-7.77-9.36-2.7-3.24-4.56-6.75-3.95-11.64,1.14-5.96,5.08-10.03,7.34-14.96,3.99-8.68,3.29-12.1-4.72-18.12-1.21-1.5-2.14-2.73-3.19-3.85-5.22-5.56-4.94-10.47-.27-16.32,4.37-5.47,10.29-9.27,14.81-15.03,7.52-1.95,7.88-8.95,10.61-14.06.65-1.21-.2-3.17,2.24-3.9,4.19-1.27,5.11,1.49,6.3,4.53.64,10.29-.79,20.31,3.23,30.2-.02,2.14.05,3.79.16,5.94,3.73,9.39.41,17.48-3.21,25.92Z"/>
    <path class="cls-36" d="m297.75,388.21c.97-8.45,4.41-16.36,3.32-25.47,2.55-.72,4.2.61,6.1,2.2,18.43,15.36,35.01,32.48,49.76,51.39,2.65,3.4,5.33,6.78,7.99,10.18,1.6,2.05,2.83,3.66,3.08,3.98,0,0,.03.04.04.05,7.22,9.4,10.54,28.76,10.54,28.76.64,3.1,1.17,6.6,1.46,10.44.44,5.84.2,11.04-.28,15.4-1.48-3.75-3.87-9.23-7.51-15.45-5.91-10.1-11.52-14.53-22.89-27.84-13.78-16.13-28.82-31.13-43.65-46.3-2.45-2.51-5.88-3.91-7.96-7.35Z"/>
    <path class="cls-15" d="m301.19,356.43c-5.55-6.95-5.04-14.86-4.89-22.71.05-2.3.04-4.61.11-7.47,3.77-2.17,5.79.69,7.99,2.66,7.76,6.95,15.21,6.78,22.92-.4,3.05-2.84,5.79-6.36,10.82-6.55.37,8.17.38,16.09.37,24.58-3.4,6.63-8.05,11.55-14.11,14.85-8.81,4.79-15.94.33-23.2-4.96Z"/>
    <path class="cls-18" d="m406.63,390.77c4.6,3.18,4.94,8.82,6.87,13.84-2.19,1.27-3.39-.53-5.26-1.18.27-4.27-1.76-8.09-1.61-12.66Z"/>
    <path class="cls-17" d="m338.54,321.78c-5.27,2.46-8.92,6.53-12.81,10.32-4.6,4.48-15.54,4.45-20.18-.01-2.52-2.42-4.68-5.31-8.7-6.32-.75-2.4-2.14-3.86-4.67-4.74-5.1-10.84-2.65-22.02-2.22-33.09.04-1.15.29-2.29.43-3.94-.7-1.32-.56-2.14.31-3.26,4.2-1.82,8.84-1.71,11.91-5.88,14.56-11.17,22-25.47,22-43.5,0-1.17-.06-2.35.76-3.79,5.46-.26,7.33,4.15,9.82,7.4,5.3,6.92,8.4,14.74,8.13,24.33-5.94-2.44-11.58-1.81-17.25-.62-1.51.32-2.78.65-2.04,2.55.5,1.29.25,3.41,2.71,2.96.76-.14,1.51-.36,2.28-.46,9.34-1.29,17.97.05,25.55,6.88-.36,9.11-1.13,18.13-1.89,27.66-2.45,8.43-6.09,15.53-13.14,20.45-.63.44-.65,1.73-1,3.06Z"/>
    <path class="cls-29" d="m292.24,280.34c-.76,1.04-1.25,1.68-1.8,2.74-7,3.09-13.97,5.03-21.59,5.26-9.3.28-15.16-2.77-19.38-13.89,3.11,0,6.5-.02,9.63.89,5.84,1.7,7.37-1.45,7.62-6.15.23-4.29.12-8.59.14-13.44-1.18-2.94.24-3.92,2.64-4.56,2.47,4.71,5.09,6.39,9.21,1.99.97-1.03,2.44-1.11,3.8-.42.69.35,1.38,1.13,2.04,1.05,8.51-1.09,9.95,3.91,9.46,11.14.52,3.49-.16,6.46-.75,9.91-.07,2.04-.17,3.61-1.03,5.5Z"/>
    <path class="cls-12" d="m560.55,269.82c-1.19-4.9-2.37-9.36-3.58-14.29-.69-2.27-.95-4.1-.48-6.42,5.02-4.15,10.57-1.83,15.82-2.17,1.34-.09,2.66.48,4.01.62,1.19.12,2.45.11,2.79-1.36.31-1.34-.68-2.08-1.67-2.75-5.68-3.91-15.38-2.01-19.83,4.15-.5.53-.71.73-1.34.78-.41-.16-.43-.1-.4-.08-1.26-4.4-.68-8.57,1.3-12.72,1.75-3.67,1.39-7.74.94-11.57-.91-7.83,2.95-12.18,9.71-14.7,3.28-1.23,6.65-2.21,10.23-3.71.22-.62.2-.83.27-.74,1.48,1.87,3.27,1.39,4.95,1.16,7.71-1.02,14.89,1.56,22.67,3.18,7.44.89,15.78,7.93,17.49,14.78.01.81-.14,1.12-.4,1.4-.13.15-.09.33-.07.36.37.69,1.05-.03.29.16-.01,0-.07-.18,0-.89.88-3.21-.3-6.34,1.63-9.37.4-2.11-.43-4.58,3.44-4.03.65.32.81.5.92,1.05.27,6.54,0,12.42,5.14,17.68,5.78,5.92,5.9,14.41,6.28,22.87-.37,1.17-.74,1.85-1.28,2.88-5.5,6.28-9.99,12.61-12.74,20.32-1.91,5.37-6.89,8.94-11.38,12.24-3.21,2.36-7.13-.43-10.68-.97-5.05-.77-9.97-1.18-15.4.26-2.27-3.61,1.57-4.25,3.15-6.07,1.47-1.69,3.13-3.28,1.75-5.61-1.67-2.81-2.81-6.17-5.96-7.72-1.39-.68-2.44.8-3.3,1.88-3.27,4.07-3.32,8.84-.1,13.27.59.81,1.11,1.59.67,2.95-4.44-.02-8.39,1.03-12.28,2.28-2.51.81-4.08.13-5.14-2.28-2.42-5.48-4.94-10.93-7.44-16.82Z"/>
    <path class="cls-43" d="m624.79,215.15c.97,3.76.62,7.15-1.59,10.57-.92-5.02-3.58-8.6-8.49-10.89-2.75-1.28-5.05-3.53-7.93-5.5-.26-.95,1.78-.89.61-2.22-.63-.71-1.61-1.12-2.23-1.84q-7.85-9.06-18.14-2.92c-.8.48-1.59,1.41-2.48.36-.74-.86-.19-1.77.23-2.68,4.89-10.51,19.24-12.59,28.68-3.9,4.95,4.56,10.16,9.17,9.63,16.97-.04.58.85,1.22,1.7,2.05Z"/>
    <path class="cls-43" d="m629.6,213.01c-.5-.18-.61-.38-.75-.92,1.35-4.97-1.32-12.84-5.94-15.34-7.71-4.16-15.87-7.55-24.7-8.34-10.48-.94-13.52,1.27-18.44,11.98-3.15-6.67,4.12-16.6,11.96-17.66,14.39-1.95,26.51,3.57,38.25,10.48,7.64,4.5,7.46,14.89-.37,19.79Z"/>
    <path class="cls-45" d="m578.26,204.71c.15.44.08.41.06.44-4.34-1.13-4.12-4.56-3.57-8.17,1.12,2.43,2.24,4.86,3.51,7.73Z"/>
    <path class="cls-10" d="m527.37,492.71c.26.35.27.86.26,1.76-.83-.1-1.19-.71-.26-1.76Z"/>
    <path class="cls-12" d="m600.59,294.27c2.79-2.35,5.13.04,7.64.4,1.15.16,1.6,1.56,1.41,2.85-.7,4.62-7.17,9.12-11.92,7.88-3.11-.81-6.09-1.24-9.11-.14-2.4.88-4.28-.17-5.86-1.57-2.51-2.23-4.65-5.16-4.18-8.52.47-3.37,4.17-1.91,6.36-2.76,4.64-1.79,9.15-.32,13.93,1.2-2.22,5.36-7.38,4.33-11.9,5.34,5.87,3.04,10.75,1.41,13.61-4.69Z"/>
    <path class="cls-18" d="m585.53,286.98c-5.74-7.91-5.83-13.55-.9-18.83,2.4-2.57,4.4-3.07,6.28.42.18.34.52.59.71.92,5.73,9.79,8.77,7.98-2.06,16.3-.4.31-.51,1.02-.78,1.94-.98.04-1.93-.33-3.26-.75Z"/>
    <path class="cls-26" d="m600.27,293.91c1.96,1.06,3.15,2.11,1.3,4.12-3.01,3.28-10.4,5.1-14.62,3.42-1.18-.47-2.98-.4-2.33-2.52.5-1.65,1.43-2.93,3.39-2.22,4.02,1.46,7.14-.82,10.8-2.57.6-.21.85-.2,1.46-.24Z"/>
    <path class="cls-20" d="m270.81,251.92c-2.13-.06-3.4.69-3.93,2.88-6,.48-11.95,2.02-18.41.37-6.43-8.32-7.89-17.36-5.13-27.6,1.89-2.18,4.04-1.78,6.17-1.4,2.33.42,4.77.99,6.9-.2,3.95-2.2,6.53-1.11,9.57,2.09,7.7,8.11,17.14,7.54,24.32-1.1,2.45-2.95,2.5-6.47,1.12-9.98-2.02-5.14-5.48-9.16-10.58-11.2-4.38-1.75-5.46-4.77-4.57-8.81.72-3.28.01-6.16-1.33-9.44,2.62-1.87,5.15-3.32,8.04-4.94,6.16-2.51,12.09-3.97,18.44-3.69,11.57.51,17.47,6.09,19.52,19.29-.39,2.96-.79,5.48-1.17,8.48-.04,1.29-.1,2.12-.18,3.35-4.9,10.86-14.03,17.52-22.33,24.73-6.88,5.98-14.57,11.06-22.27,16.02-1.15.74-2.37,1.37-4.18,1.16Z"/>
    <path class="cls-16" d="m274.54,187.12c3.34,2.47,4.78,5.07,3.37,9.19-1.07,3.13-1.45,6.21,3.64,7.96,7.77,2.67,13.07,12.22,12.35,18.65-.82,7.35-7.49,9.5-12.14,11.82-5.67,2.82-12.11-.26-16.59-5.22-2.43-2.69-3.98-5.02-8.24-1.93-3.66,2.66-8.26-.84-13.01-.51-.62-3.6-1.89-6.93-.87-10.86,1.18-4.56,3.6-7.32,7.51-8.86,3.65-1.44,5.73-3.98,6.8-7.45q3.9-12.65,17.19-12.8Z"/>
    <path class="cls-44" d="m728.97,1136.16c-3.92-.46-6.81,2.62-12.03,1.54,8.11-4.09,15-4.68,23.37-3.03-2.56,2.08-4.49,1.23-6.67,1.5-1.72,0-2.96,0-4.68,0Z"/>
    <path class="cls-2" d="m291.89,275.49c-.28-3.5,1.46-6.52.86-10.32.4-.9.85-1.24,1.75-1.63,2.33-.75,4.67.37,6.56-1.63-1.17-2.33-3.79-1.3-5.76-2.58-.69-.73-.85-1.29-.82-1.88.63-11.86,13.57-28.8,24.64-32.48,2.09-.7,3.32.36,5.05,1.7.35.27.91.39,1.18.48,1.04,10.45-.53,20.12-5.14,29.77-3.76,7.88-10.09,12.58-16.48,18.15-4.14-.47-7.75,2.02-11.85.43Z"/>
    <path class="cls-25" d="m324.51,226.48c-6.04-.69-16.24,4.59-19.95,11.34-3.52,6.42-7.54,12.67-9.34,20.37,1.05,1.9,1.39,3.49.35,5.65-.87.52-1.42.63-2.38.79-.8-1.04-1.8-2.39-1.46-3.18,2.31-5.52-.15-5.65-4.95-5.94-4.21-.25-8.23-3.22-11.21,2.37-.24.45-3.71-.56-5.45-1.11-1.39-.44.75-2.67.33-4.61,18.22-11.65,35.36-24.14,48.76-41.61,1.48,5.24,4.63,9.97,5.32,15.93Z"/>
    <path class="cls-35" d="m232.15,408.81c.19.15.22.41.24.67-.14-.19-.27-.37-.24-.67Z"/>
    <path class="cls-40" d="m653.62,599.27c1.08-12.99.64-25.49.25-37.97-.16-5.18.93-7.54,6.49-6.24,1.48.35,3.11.01,5.2.06.64,13.6.76,27.13.91,41.2.26,5.66.48,10.78.7,16.39-4.45.5-8.91.52-13.69.16-.16-4.61.01-8.84.14-13.58Z"/>
    <path class="cls-44" d="m721.27,1128.6c4.99-1.89,9.57-2.84,15.68-.03-6.55.98-12.06-.35-16.8,2.62-.51.32-1.7.1-1.56-1.02.16-1.24,1.45-1,2.68-1.58Z"/>
    <path class="cls-44" d="m721.03,1122.08c.42.15.42.36.43.87-1.34,2.03-3.36,1.55-6.12,2.96,1.67-3.17,3.75-3.02,5.69-3.82Z"/>
    <path class="cls-12" d="m556.74,248.19c.26,1.94.25,3.91.22,6.37-1.11-1.41-2.95-3.14-1.25-5.99.35-.36.56-.35,1.03-.38Z"/>
    <path class="cls-45" d="m539.46,1113.8c-.5.8-1.22,1.26-2.23.99-.08-.02-.1-.69-.05-.7.52-.13,1.05-.19,1.93-.29.36-.02.31.04.35,0Z"/>
    <path class="cls-41" d="m544.99,615.02c2.05.21,3.62.26,5.1.62,1.84.45,2.17,1.96,2.15,3.66-.03,2.29-1.59,2.34-3.22,2.34-3.13.01-6.25.05-9.38,0-1.85-.03-4.08.53-4.07-2.64.01-2.93,1.11-4.35,4.21-4.01,1.54.17,3.12.01,5.21.02Z"/>
    <path class="cls-40" d="m666.97,615.58c-.05,2.1,5.07,5.5-1.47,6.25-3.38-.04-6.3-.18-9.23-.3-2.01-.08-4.05.05-3.62-3.06.33-2.39.9-4.06,3.93-3.67,3.28.43,6.61.48,10.39.78Z"/>
    <path class="cls-46" d="m585.75,535.84c-.54-.07-.53-.53-.52-.75,8.25-.23,16.49-.23,24.73-.23,0,.35,0,.7,0,1.05-7.89,0-15.78,0-24.21-.07Z"/>
    <path class="cls-15" d="m308.69,292.78c2.16-3.17,3.63-7.3,8.12-5.03,3.74,1.89,5.99,9.08,4.17,11.44-2.8,3.62-7.89,3.94-11.35.95-2.44-2.1-1.6-4.49-.94-7.36Z"/>
    <path class="cls-42" d="m307.58,315.78c-2.32-1.13-3.81-2.23-2.78-4.71,1.12-2.69,2.92-.89,4.41-.64,4.29.71,8.52.77,12.67-.7,1.57-.56,2.94-.92,3.84,1.13.86,1.95-.17,2.95-1.57,3.8-5.15,3.13-10.53,3.79-16.56,1.11Z"/>
    <path class="cls-48" d="m332.15,273.87c3.35,1.97,6.39,1.97,9.17.06,2.4-1.65,3.66-.24,4.67,1.42,1.3,2.13-.96,2.63-2.1,3.26-4.53,2.55-9.21,2.86-13.82.17-1.11-.65-3.04-1.37-2.51-2.76.57-1.51,1.54-3.88,4.59-2.15Z"/>
    <path class="cls-47" d="m291.55,275.69c2.2-.08,4.24-.57,6.09-1.65,1.99-1.16,3.58-.9,5.36,1.03-1.25,5.63-6.08,4.94-10.6,5.67-1.27-1.46-.94-3.04-.84-5.05Z"/>
    <path class="cls-48" d="m601.45,249.36c-3.19.78-3.26-1.03-3.44-2.88-.16-1.64-.14-3.08,1.64-3.91,7.04-3.28,14.14-3.85,21.34-.53,1.69.78,2.91,1.63,2.23,3.97-.74,2.56-2.27,2.02-4.05,1.66-5.88-1.19-11.55.24-17.72,1.68Z"/>
    <path class="cls-48" d="m557.05,248.24c-.85-3.47.7-5.43,3.87-6.69,5.77-2.28,11.37-1.85,17.08.29,3.21,1.2,3.34,3.28,2.69,6.03-.86,3.59-3.18,1.27-4.59.95-6-1.35-11.97-1.42-18.55-.58-.54-.09-.54,0-.5,0Z"/>
    <path class="cls-37" d="m563.04,254.52c4.6-3.61,9.11-4.07,13.81-1.06,1.56,1,2.22,2.21.77,3.8-.64.71-1.21,1.16-2.45.88-4.18-.95-10.3,5.57-12.14-3.62Z"/>
    <path class="cls-37" d="m607.37,259.07c-2.69-1.05-6.4-1.53-5.65-4.71.62-2.62,4.15-3.16,6.82-3.54,2.81-.4,5.31.72,7.53,2.38.76.57,1.54,1.39.88,2.41-.5.78-1.87,1.96-1.92,1.91-3.15-2.78-4.75,1.65-7.67,1.55Z"/>
    <path class="cls-43" d="m622.78,225.9c-.18.25-.33.53-.49.8.02-.27.04-.54.3-.77.25.04.2,0,.18-.03Z"/>
    <path class="cls-26" d="m295.74,264.34c-.54-1.65-.58-3.2-.6-5.24.39-.46.81-.52,1.15-.39,2.41.91,7.17-2.09,6.83,3.26-.29,4.7-4.5,1.74-7.38,2.37Z"/>
    <path class="cls-29" d="m294.5,249.01c1.49-.24,1.82.49,1.46,1.49-.12.33-.8.46-1.23.69-.16-.64-.33-1.28-.23-2.18Z"/>
    <path class="cls-17" d="m351.65,731.47c-.26.81-.65,1.75-1.48,1.95-.82.2-1.65-.5-1.9-1.31-.25-.81-.08-1.68.08-2.51,1.32-6.78,1.77-13.58,2.58-20.41-1.2,4.85-2.37,9.68-3.41,14.57-1.01,4.73-1.4,9.64-2.88,14.26-.48,1.49-1.15,3.04-2.47,3.88-.58.38-1.38.57-1.95.18-.72-.49-.65-1.56-.5-2.41.46-2.7,6.37-33.41,4.39-33.72-1.15-.18-6.17,31.9-6.74,34.38-.18.79-.4,1.6-.92,2.22s-1.45.97-2.16.6c-.48-.25-.77-.75-.96-1.26-.41-1.09-.48-2.27-.47-3.43.03-2.86,5.71-36.91,4.22-37.21-2.14-.39-6.16,29.63-6.67,32.48-.25,1.39-.54,2.81-1.32,3.98-.52.77-1.44,1.44-2.32,1.14-1.11-.38-1.21-1.9-1.1-3.07.95-10.46,2.22-25.83,2.22-25.83,1.46-8.16.18-7.74,1.38-15.74,1.98-13.16,6.37-20.55,11.74-32.89,5.73-13.15,5.28-15.18,11.74-32.89,13.15-36,21.54-46.46,38.76-90.44,5.64-14.41,9.13-28.05,8.22-41.11-.76-10.98-3.8-17.04-3.52-32.89.1-5.72.56-8.7-1.17-12.92-3.61-8.78-12.15-11.81-11.13-17.53.24-1.33.88-2.75,2.64-5.26,1.84-2.61,3.51-5.74,4.6-5.89,5.67-.77,25.63,56.15,21.52,123.77-.4,6.54-.93,11.72-1.19,14.13-.45,4.92-1.38,11.87-3.52,19.97-.89,3.37-5.13,18.76-17.62,38.76-8.99,14.4-12.46,15.49-19.97,29.36-4.62,8.54-7.58,16.02-9.4,21.14,0,0-1.93,8.14-2.15,20.44,0,.4,0,.79,0,.79.03.63.1.76.01,2.82-.59,12.88-3.29,25.62-7.18,37.89Z"/>
    <path class="cls-41" d="m336.07,1085.49c7.4.16,14.65.61,22.09-.45.27.26.37.83.43,1.58-7.08,1.71-14.19,1.51-21.86.9-.63-.56-.72-1.1-.67-2.03Z"/>
  </g>
</svg>