<?xml version="1.0" encoding="UTF-8"?>
<svg id="hoja_1" data-name="hoja 1" xmlns="http://www.w3.org/2000/svg" viewBox="0 0 1125 587">
  <defs>
    <style>
      .cls-1 {
        fill: #f2f2f3;
      }

      .cls-2 {
        fill: #ea8ca2;
      }

      .cls-3 {
        fill: #eeddb9;
      }
    </style>
  </defs>
  <g id="text">
    <g>
      <g>
        <path class="cls-3" d="m349.09,92.63l-3.9-21.3c-3.3-15.3-6.9-16.8-60.3-16.8h-8.7v53.4h12c10.2,0,12.3-1.2,14.7-9l3.3-12.9h27.6l-7.2,67.5h-23.1l-3.3-13.2c-2.4-6.6-4.5-8.1-12-8.1h-12v42.6l.6,1.2,25.5,6.6v27.6h-93.3v-31.8h17.7l.9-1.2V59.03l-.6-1.2-19.2-7.5v-27.6h176.1v69.9h-34.8Z"/>
        <path class="cls-3" d="m406.12,210.23v-31.8h14.7l.9-1.2V56.03l-.6-1.2-23.1-14.4v-13.8L467.32,2.63v172.2l.6,1.2,16.5,6.6v27.6h-78.3Z"/>
        <path class="cls-3" d="m566.89,215.33c-52.2,0-68.7-30-68.7-72,0-57.6,35.4-77.4,84-77.4,51.6,0,67.5,28.5,67.5,70.8,0,57.6-34.2,78.6-82.8,78.6Zm27-112.8c-3.3-3.9-9.9-6.3-21.6-6.3-23.4,0-25.5,14.4-25.5,40.5,0,18.9,1.5,36,7.2,42.3,3.3,3.9,6.3,6,21,6,24.9,0,26.1-14.7,26.1-40.8,0-18.6-1.5-35.7-7.2-41.7Z"/>
        <path class="cls-3" d="m778.77,114.23c-12.6,0-20.1-2.7-24.9-10.5-6.3,3.6-15,11.1-21.3,20.7v50.4l.6,1.2,22.5,8.4v25.8h-84.3v-31.8h14.7l.9-1.2v-58.2c0-.3-.3-1.2-.6-1.2l-23.1-14.1v-14.1l69.3-23.7v37.5h3c12.9-26.1,20.4-37.5,39.6-37.5,15.3,0,25.5,9.3,25.5,27.3,0,14.1-5.4,21-21.9,21Z"/>
      </g>
      <g>
        <path class="cls-3" d="m367.59,447.4l-21-5.7c-17.4,7.5-39.9,10.8-59.7,10.8-66.6,0-89.1-33.6-89.1-93.9,0-82.8,42.3-102.6,100.2-102.6,17.1,0,27,2.7,36.6,5.7l34.2-8.7v72.6h-33.9l-8.7-30.3c-10.5-4.5-21.6-6.9-33.3-6.9-34.2,0-44.7,18-44.7,60.6,0,59.7,8.7,70.5,46.8,70.5,14.7,0,23.7-3.3,34.2-8.1l8.7-30.6h34.8l-5.1,66.6Z"/>
        <path class="cls-3" d="m510.36,452.8c-16.5,0-27-7.5-26.7-24.6h-3c-12,12.3-25.5,24.3-46.2,24.3-23.4,0-41.1-14.1-41.1-38.4,0-27.6,25.2-45.9,90.3-51.3v-3.9c0-15.3-10.8-23.7-27.9-23.7-14.1,0-20.1,2.7-20.1,4.8,0,1.8,2.7,9.6,2.7,13.2,0,5.7-12.9,6.9-28.8,6.9-12.9,0-16.5-1.2-16.5-6.9,0-30.6,31.8-49.8,75.3-49.8s60.9,13.2,60.9,52.8v54.3c0,7.5,2.7,9,9,9,2.7,0,6-.3,9.3-1.2,0,0,.6,14.4.6,17.7-6.6,7.8-19.8,16.8-37.8,16.8Zm-26.7-72.9c-39.9,6.3-48.3,12.6-48.3,25.2,0,10.5,4.8,16.5,21,16.5,10.2,0,21.9-4.2,27.3-7.8v-33.9Z"/>
        <path class="cls-3" d="m753.57,447.7v-31.8h10.5l.9-1.2v-47.7c0-21.9-6.9-29.1-23.4-29.1-11.4,0-18,3-23.7,6.3v68.1l.6,1.2,15,6.6v27.6h-72.6v-31.8h10.5l.9-1.2v-47.7c0-21.9-6.9-29.1-23.4-29.1-11.4,0-18,3-23.7,6.3v68.1l.6,1.2,15,6.6v27.6h-76.8v-31.8h14.7l.9-1.2v-58.2l-.3-.6-23.4-14.7v-14.1l69.3-23.7v26.1h3c11.1-14.4,24.3-26.1,48.6-26.1,16.8,0,30.6,9,36.3,27.6h2.7c11.1-15.9,26.7-27.6,50.1-27.6,34.2,0,44.7,18.9,44.7,53.4v55.5l.6,1.2,15.6,6.6v27.6h-73.2Z"/>
        <path class="cls-3" d="m844.01,447.7v-31.8h17.7l.9-1.2v-58.2l-.6-1.2-23.1-14.1v-14.1l69.3-23.7v108.9l.6,1.2,19.5,6.6v27.6h-84.3Zm41.7-156.3c-21.9,0-27.6-8.1-27.6-27.9s5.7-27.3,27.6-27.3,27,7.2,27,27.3-4.8,27.9-27,27.9Z"/>
      </g>
      <path class="cls-2" d="m915.21,155.7l-17,14,24.8,28.6-8.4,5.8-22.2-28.4h-1c-14.8,15.4-30.4,26.8-42.2,26.8-16.6,0-33-13-33-31.8,0-22.6,19.6-30.6,35.8-34.8v-1c-9.6-6.8-15.2-16.4-15.2-28,0-20.4,17.6-33.2,34.2-33.2,20.2,0,31,10.4,31,27.4s-11.8,30.2-33.8,36.8v1c7.2,5,20.2,18.2,27.4,27.6h1l27.4-27.4v-1.6c-1.8-1.2-5.6-2.8-5.6-8,0-5.6,3.8-8.6,8.4-8.6,6,0,9.6,4,9.6,10,0,7.6-11.4,16.6-21.2,24.8Zm-60.2-17.2c-21,9.2-28.4,16.2-28.4,29.8,0,15.6,13.8,25.6,24.6,25.6,9.4,0,24.8-11,38.4-21.4-14-16.6-25.4-27.8-34.6-34Zm14.6-56.2c-16,0-23,11.6-23,25.4,0,12,5,19.2,17.6,27.8,22.6-8.6,28.2-21.6,28.2-34.6,0-11.4-7.4-18.6-22.8-18.6Z"/>
    </g>
    <g>
      <path class="cls-1" d="m210.73,536.49c0,2.25-1.43,3.97-3.83,3.97-2.17,0-3.9-1.72-3.9-3.97s1.72-3.97,3.9-3.97,3.83,1.8,3.83,3.97Zm-7.65,48.6l3.15-37.12h1.35l3.22,36.07-7.72,1.05Z"/>
      <path class="cls-1" d="m273.81,533.34v50.77h-6.67l-16.65-42.75v42.75h-1.5v-46.05l-1.88-4.72h6.83l18.37,46.8v-46.8h1.5Z"/>
      <path class="cls-1" d="m342.72,558.61c0,17.4-5.47,26.47-15.82,26.47s-15.9-9-15.9-26.32,5.55-26.47,16.05-26.47,15.67,9,15.67,26.32Zm-24.67-.07c0,16.57,3,25.2,8.85,25.2s8.77-8.32,8.77-24.9-3-25.2-8.85-25.2-8.77,8.55-8.77,24.9Z"/>
      <path class="cls-1" d="m397.12,535.66c-2.4-1.12-4.65-1.72-7.28-1.65-4.57,0-7.42,2.85-7.42,7.65,0,5.47,3,9.07,8.02,14.1,6.83,6.82,9.15,10.12,9.15,16.5,0,7.65-4.58,12.6-13.05,12.6-2.77,0-6.67-.75-9.67-2.62l.6-1.05c3.15,1.8,6.15,2.32,9,2.32,4.58,0,7.72-1.88,7.8-7.57,0-5.1-1.95-8.25-8.02-14.1-5.47-5.32-9.15-9.82-9.15-16.8,0-7.72,5.25-12.37,12.6-12.37,2.93,0,5.62.67,7.95,1.88l-.52,1.12Z"/>
      <path class="cls-1" d="m496.94,585.09c-9.45,0-16.57-8.32-16.57-26.02,0-20.4,9.45-26.7,17.32-26.7,3.3,0,6.38,1.05,8.92,3.15l-.67.83c-2.25-1.8-5.1-2.62-7.5-2.62-6.53,0-10.95,6.6-10.95,25.65,0,17.1,3.75,24.07,10.65,24.07,3.98,0,7.12-2.25,9.08-4.95l.83.6c-3,3.82-6.22,6-11.1,6Z"/>
      <path class="cls-1" d="m558.16,566.79h-11.92l-3.9,17.32h-1.57l10.72-47.4-.75-3.38h6.67l11.25,50.77h-6.67l-3.83-17.32Zm-.3-1.35l-5.62-25.35-5.7,25.35h11.33Z"/>
      <path class="cls-1" d="m622.77,535.66c-2.4-1.12-4.65-1.72-7.28-1.65-4.57,0-7.42,2.85-7.42,7.65,0,5.47,3,9.07,8.02,14.1,6.83,6.82,9.15,10.12,9.15,16.5,0,7.65-4.58,12.6-13.05,12.6-2.77,0-6.67-.75-9.67-2.62l.6-1.05c3.15,1.8,6.15,2.32,9,2.32,4.58,0,7.72-1.88,7.8-7.57,0-5.1-1.95-8.25-8.02-14.1-5.47-5.32-9.15-9.82-9.15-16.8,0-7.72,5.25-12.37,12.6-12.37,2.93,0,5.62.67,7.95,1.88l-.52,1.12Z"/>
      <path class="cls-1" d="m675.29,566.79h-11.92l-3.9,17.32h-1.57l10.72-47.4-.75-3.38h6.67l11.25,50.77h-6.67l-3.83-17.32Zm-.3-1.35l-5.62-25.35-5.7,25.35h11.33Z"/>
      <path class="cls-1" d="m755.05,533.34v50.77h-6.38v-44.55l-12.75,45h-.98l-12.6-42.67v42.22h-1.5v-46.42l-1.28-4.35h7.05l11.17,39.15,11.1-39.15h6.15Z"/>
      <path class="cls-1" d="m823.42,558.61c0,17.4-5.48,26.47-15.83,26.47s-15.9-9-15.9-26.32,5.55-26.47,16.05-26.47,15.67,9,15.67,26.32Zm-24.67-.07c0,16.57,3,25.2,8.85,25.2s8.78-8.32,8.78-24.9-3-25.2-8.85-25.2-8.78,8.55-8.78,24.9Z"/>
      <path class="cls-1" d="m877.82,535.66c-2.4-1.12-4.65-1.72-7.27-1.65-4.57,0-7.42,2.85-7.42,7.65,0,5.47,3,9.07,8.03,14.1,6.82,6.82,9.15,10.12,9.15,16.5,0,7.65-4.58,12.6-13.05,12.6-2.77,0-6.67-.75-9.67-2.62l.6-1.05c3.15,1.8,6.15,2.32,9,2.32,4.58,0,7.72-1.88,7.8-7.57,0-5.1-1.95-8.25-8.02-14.1-5.47-5.32-9.15-9.82-9.15-16.8,0-7.72,5.25-12.37,12.6-12.37,2.92,0,5.62.67,7.95,1.88l-.53,1.12Z"/>
      <path class="cls-1" d="m921.92,532.29l-3.15,37.12h-1.35l-3.23-36.07,7.73-1.05Zm-7.65,48.6c0-2.25,1.42-3.97,3.83-3.97,2.17,0,3.9,1.73,3.9,3.97s-1.72,3.98-3.9,3.98-3.83-1.8-3.83-3.98Z"/>
    </g>
  </g>
</svg>
