<?xml version="1.0" encoding="UTF-8"?>
<svg id="hoja_1" data-name="hoja 1" xmlns="http://www.w3.org/2000/svg" viewBox="0 0 1125 667">
  <defs>
    <style>
      .cls-1 {
        fill: #f2f2f3;
      }

      .cls-2 {
        fill: #ea8ca2;
      }

      .cls-3 {
        fill: #eeddb9;
      }
    </style>
  </defs>
  <g id="text">
    <g>
      <g>
        <path class="cls-3" d="m215.89,212.93c.9-41.1,1.8-123.6,1.8-133.2-.3-16.2-7.2-34.5,20.4-34.5h93.6c14.7,0,18.6,7.2,18.6,17.4v18c0,10.8-6.9,15.6-19.8,15h-50.1l-.9,40.8c13.8.3,36.9-.3,46.8-.3,13.8,0,15,5.7,15,16.2v13.8c0,11.4-3.3,14.4-14.4,13.5-8.4-.6-32.4-.6-48.6-.6,0,26.1,2.4,39.6,2.1,51-.6,15.9-11.4,19.2-23.1,19.2h-20.4c-16.8,0-20.4-9.6-21-21.9v-14.4Z"/>
        <path class="cls-3" d="m372.34,63.53c-.6-19.8.9-27.3,27.9-27.3,30,0,35.7,12.6,35.7,29.1,0,25.2-5.7,117.3-4.5,136.8.3,7.8,4.2,7.5,15.3,7.5,5.7,0,8.7,3.6,9.3,9.3l.9,11.1c.6,7.8-1.8,12-9,15.3-8.7,3.9-24.9,6.9-38.4,6.9-33.3,0-39.3-19.2-39-48.6.3-16.8,2.4-120.3,1.8-140.1Z"/>
        <path class="cls-3" d="m549.16,81.23c55.2,0,83.7,37.2,83.1,85.5s-27.9,85.8-82.5,85.8-82.5-37.5-82.2-86.4c.3-47.7,27.3-84.9,81.6-84.9Zm23.4,84.9c0-18.9-4.5-35.4-22.8-35.4-19.8,0-23.4,16.5-23.4,35.4s4.2,36.9,22.8,36.9c19.8,0,23.4-17.4,23.4-36.9Z"/>
        <path class="cls-3" d="m656.17,212.33c.9-36.3,1.8-79.5,1.5-94.5-.3-6.6-.9-11.7-.9-15.6,0-12.6,1.5-21,23.4-21,26.7,0,31.8,16.8,31.5,37.2h2.1c2.7-20.4,20.7-37.2,41.1-37.2,27.3,0,35.1,15,33.6,43.8-.9,21-14.1,35.4-33.9,32.7-8.4-.9-12-4.5-12-13.2s-3-13.8-9.9-13.8-12,9.6-12.9,14.7c-1.2,25.8-1.8,51.9.9,78.9,1.2,12.3,1.2,24.9-20.4,24.9h-23.1c-12.3,0-16.8-6.3-18.9-13.8-2.7-6.3-2.4-14.4-2.1-23.1Z"/>
      </g>
      <g>
        <path class="cls-3" d="m292.89,279.7c33.6,0,51.6,11.7,57,15.9,5.4,4.5,12.3,12.9,1.5,32.1-6.9,12.9-14.4,17.4-14.4,17.4,0,0-13.2-12.9-38.1-12.9-29.7,0-40.2,23.4-40.2,52.2s13.2,52.2,39,52.2c15.6,0,25.5-6,30-9,6-3.9,13.8-7.2,19.5,3.6l11.4,21.3c3.6,6.6,6.6,11.7-.9,18-10.2,9-31.8,19.2-62.4,19.2-64.5,0-98.1-45.3-97.2-105,1.2-59.4,31.2-105,94.8-105Z"/>
        <path class="cls-3" d="m438.57,389.2c10.8.3,22.8,3,29.7,5.1v-8.1c0-11.1-7.5-17.1-24.3-17.1-20.7,0-41.1,6.3-41.1,6.3,0,.3-18.3-28.5-3-43.8,8.1-7.5,25.8-12.9,52.2-12.9,46.8,0,74.7,25.2,76.8,60.9,1.2,22.8-1.5,60-1.2,76.5,0,15.6,10.8,33.6-26.7,33.6-16.8,0-28.8-6.6-25.5-33.9h-2.1s-6,33.9-44.7,33.9c-29.4,0-49.2-20.1-51-48.3-2.4-35.4,25.8-54,60.9-52.2Zm7.5,59.1c14.7,0,21.3-13.8,22.5-22.8v-9.3c-2.1-.6-8.1-1.8-14.1-1.8-14.1,0-25.8,6.6-25.2,18.6,0,9,6.9,15.3,16.8,15.3Z"/>
        <path class="cls-3" d="m558.6,448.6c0-47.1,1.8-80.4,1.5-102.6,0-12.9-8.1-27.3,27-27.3,21,0,29.7,9,33.6,19.5,1.5,3.6,2.1,9.6,2.4,15.6h2.1c1.2-11.7,13.5-35.1,45-35.1,28.5,0,40.2,16.5,45,35.1h2.4c.9-11.7,14.1-35.1,45.6-35.1,47.7,0,48.6,46.8,48,69.3-.9,24.6-3.9,48.9-1.8,78.6,1.2,13.5-.3,23.1-27.9,23.1-25.5,0-36.3-10.5-36.3-27.9,0-24.9,3-49.2,3-72,0-12-3.3-20.7-15.9-20.7-6.9,0-11.7,4.2-14.4,8.1v11.4c-.9,24.6-3.3,49.2-2.4,78.9.6,13.5-3.3,19.2-20.1,19.2h-24.6c-13.2,0-17.7-3-17.7-19.8,0-20.7,2.1-54.3,2.1-77.1,0-12-3-20.7-15.6-20.7-9.6,0-14.7,7.2-17.1,11.4-.9,20.1-1.8,47.1-.6,65.7.3,6,.6,11.7,1.2,15.6,1.2,13.5.6,24.9-20.1,24.9h-23.4c-15.3,0-19.2-9.3-20.7-19.2-.6-5.4-.3-12.3-.3-18.9Z"/>
        <path class="cls-3" d="m842.16,448.6c1.5-47.1,1.5-74.4,1.5-99.6,0-12.9-7.8-27.3,27-27.3,26.7,0,37.5,6.3,36.6,28.5-.9,32.7-3.3,71.1-1.8,96,0,6,.6,11.7,1.2,15.6,1.5,13.5.6,24.9-20.1,24.9h-23.4c-15.3,0-19.2-9.3-20.4-19.2-.9-5.4-.6-12.3-.6-18.9Zm1.8-163.5c-.6-21,12.9-23.4,30-23.4s30.3,2.4,31.2,23.4c.3,20.7-13.2,22.8-29.7,22.8-17.4,0-30.9-2.1-31.5-22.8Z"/>
      </g>
      <path class="cls-2" d="m848.21,166.41v-.9c-9.15-8.7-13.5-14.85-13.5-25.35,0-12.9,9.9-24.15,30.15-24.15,15.45,0,23.4,7.05,25.35,8.85,2.1,1.95,4.05,5.25.9,7.95-1.05.9-2.55,1.2-2.55,1.2,0,0-8.55-10.65-24.15-10.65-11.7,0-21.45,5.25-21.45,16.8,0,6.9,2.7,13.2,10.35,20.1l38.85,35.1c6.6-9.3,10.05-19.8,11.7-25.35.45-1.5,1.2-2.85,3.15-2.25l3.9,1.35c1.95.6,1.2,2.1.45,4.2-2.4,7.05-6.45,17.55-13.5,27l14.1,12.75c1.8,1.65,2.1,2.7.45,4.35l-1.8,1.8c-1.35,1.35-2.7,1.35-4.2-.15l-13.65-12.6c-8.1,8.25-18.9,14.55-33.6,14.55-20.85,0-33.9-12.9-33.9-28.95,0-21.3,22.95-25.65,22.95-25.65Zm10.95,47.25c12.3,0,21.45-5.25,28.05-12.3l-32.4-30c-13.05,0-21.15,9.45-21.15,20.7,0,12.3,10.05,21.6,25.5,21.6Z"/>
    </g>
    <g>
      <path class="cls-1" d="m217.48,575.49c0,2.25-1.42,3.97-3.82,3.97-2.17,0-3.9-1.72-3.9-3.97s1.73-3.97,3.9-3.97,3.82,1.8,3.82,3.97Zm-7.65,48.6l3.15-37.12h1.35l3.23,36.07-7.73,1.05Z"/>
      <path class="cls-1" d="m279.44,572.34v50.77h-6.67l-16.65-42.75v42.75h-1.5v-46.05l-1.88-4.72h6.82l18.37,46.8v-46.8h1.5Z"/>
      <path class="cls-1" d="m347.22,597.61c0,17.4-5.47,26.47-15.82,26.47s-15.9-9-15.9-26.32,5.55-26.47,16.05-26.47,15.67,9,15.67,26.32Zm-24.67-.07c0,16.57,3,25.2,8.85,25.2s8.77-8.32,8.77-24.9-3-25.2-8.85-25.2-8.77,8.55-8.77,24.9Z"/>
      <path class="cls-1" d="m400.49,574.66c-2.4-1.12-4.65-1.72-7.27-1.65-4.57,0-7.42,2.85-7.42,7.65,0,5.47,3,9.07,8.02,14.1,6.82,6.82,9.15,10.12,9.15,16.5,0,7.65-4.58,12.6-13.05,12.6-2.77,0-6.67-.75-9.67-2.62l.6-1.05c3.15,1.8,6.15,2.32,9,2.32,4.57,0,7.72-1.88,7.8-7.57,0-5.1-1.95-8.25-8.02-14.1-5.48-5.32-9.15-9.82-9.15-16.8,0-7.72,5.25-12.37,12.6-12.37,2.92,0,5.62.67,7.95,1.88l-.52,1.12Z"/>
      <path class="cls-1" d="m498.07,624.09c-9.45,0-16.57-8.32-16.57-26.02,0-20.4,9.45-26.7,17.32-26.7,3.3,0,6.37,1.05,8.92,3.15l-.67.83c-2.25-1.8-5.1-2.62-7.5-2.62-6.52,0-10.95,6.6-10.95,25.65,0,17.1,3.75,24.07,10.65,24.07,3.98,0,7.12-2.25,9.07-4.95l.82.6c-3,3.82-6.22,6-11.1,6Z"/>
      <path class="cls-1" d="m558.16,605.79h-11.92l-3.9,17.32h-1.57l10.72-47.4-.75-3.38h6.67l11.25,50.77h-6.67l-3.83-17.32Zm-.3-1.35l-5.62-25.35-5.7,25.35h11.32Z"/>
      <path class="cls-1" d="m621.64,574.66c-2.4-1.12-4.65-1.72-7.27-1.65-4.57,0-7.42,2.85-7.42,7.65,0,5.47,3,9.07,8.02,14.1,6.82,6.82,9.15,10.12,9.15,16.5,0,7.65-4.58,12.6-13.05,12.6-2.77,0-6.67-.75-9.67-2.62l.6-1.05c3.15,1.8,6.15,2.32,9,2.32,4.57,0,7.72-1.88,7.8-7.57,0-5.1-1.95-8.25-8.02-14.1-5.48-5.32-9.15-9.82-9.15-16.8,0-7.72,5.25-12.37,12.6-12.37,2.92,0,5.62.67,7.95,1.88l-.52,1.12Z"/>
      <path class="cls-1" d="m673.04,605.79h-11.92l-3.9,17.32h-1.57l10.72-47.4-.75-3.38h6.67l11.25,50.77h-6.67l-3.83-17.32Zm-.3-1.35l-5.62-25.35-5.7,25.35h11.32Z"/>
      <path class="cls-1" d="m751.68,572.34v50.77h-6.38v-44.55l-12.75,45h-.98l-12.6-42.67v42.22h-1.5v-46.42l-1.28-4.35h7.05l11.17,39.15,11.1-39.15h6.15Z"/>
      <path class="cls-1" d="m818.92,597.61c0,17.4-5.48,26.47-15.83,26.47s-15.9-9-15.9-26.32,5.55-26.47,16.05-26.47,15.67,9,15.67,26.32Zm-24.67-.07c0,16.57,3,25.2,8.85,25.2s8.78-8.32,8.78-24.9-3-25.2-8.85-25.2-8.78,8.55-8.78,24.9Z"/>
      <path class="cls-1" d="m872.2,574.66c-2.4-1.12-4.65-1.72-7.27-1.65-4.57,0-7.42,2.85-7.42,7.65,0,5.47,3,9.07,8.03,14.1,6.82,6.82,9.15,10.12,9.15,16.5,0,7.65-4.58,12.6-13.05,12.6-2.77,0-6.67-.75-9.67-2.62l.6-1.05c3.15,1.8,6.15,2.32,9,2.32,4.58,0,7.72-1.88,7.8-7.57,0-5.1-1.95-8.25-8.02-14.1-5.47-5.32-9.15-9.82-9.15-16.8,0-7.72,5.25-12.37,12.6-12.37,2.92,0,5.62.67,7.95,1.88l-.53,1.12Z"/>
      <path class="cls-1" d="m915.17,571.29l-3.15,37.12h-1.35l-3.23-36.07,7.73-1.05Zm-7.65,48.6c0-2.25,1.42-3.97,3.83-3.97,2.17,0,3.9,1.73,3.9,3.97s-1.72,3.98-3.9,3.98-3.83-1.8-3.83-3.98Z"/>
    </g>
  </g>
</svg>