<?xml version="1.0" encoding="UTF-8"?>
<svg xmlns="http://www.w3.org/2000/svg" viewBox="0 0 1125 533.5">
  <defs>
    <style>
      .cls-1 {
        fill: #f2f0ed;
      }

      .cls-2 {
        fill: #f9f7f4;
      }

      .cls-3 {
        fill: #697520;
      }

      .cls-4 {
        fill: #697020;
      }

      .cls-5 {
        fill: #eae6dc;
      }

      .cls-6 {
        fill: #edebe8;
      }

      .cls-7 {
        fill: #ede8dd;
      }

      .cls-8 {
        fill: #eeddb9;
      }

      .cls-9 {
        fill: #e8e1cf;
      }

      .cls-10 {
        fill: #e8e3d9;
      }

      .cls-11 {
        fill: #efebe4;
      }

      .cls-12 {
        fill: #efeadf;
      }

      .cls-13 {
        fill: #e5decc;
      }

      .cls-14 {
        fill: #e5dfcf;
      }

      .cls-15 {
        fill: #b4dbd3;
      }

      .cls-16 {
        fill: #bae2da;
      }

      .cls-17 {
        fill: #9e8f77;
      }

      .cls-18 {
        fill: #737725;
      }

      .cls-19 {
        fill: #baaf93;
      }

      .cls-20 {
        fill: #cec2a5;
      }

      .cls-21 {
        fill: #b2d8d0;
      }

      .cls-22 {
        fill: #b2a78d;
      }

      .cls-23 {
        fill: #afa389;
      }

      .cls-24, .cls-25 {
        fill: #ddd3b8;
      }

      .cls-26 {
        fill: #d1c6aa;
      }

      .cls-27 {
        fill: #abd6ce;
      }

      .cls-28 {
        fill: #d3c7ab;
      }

      .cls-29 {
        fill: #d7d8b2;
      }

      .cls-30 {
        fill: #c6bba3;
      }

      .cls-31 {
        fill: #c6ba9d;
      }

      .cls-32 {
        fill: #e2dac7;
      }

      .cls-33 {
        fill: #dbd3c1;
      }

      .cls-34 {
        fill: #d6cebd;
      }

      .cls-35 {
        fill: #d6ccb9;
      }

      .cls-36 {
        fill: #a89b82;
      }

      .cls-37 {
        fill: #6d7f22;
      }

      .cls-38 {
        fill: #967242;
      }

      .cls-39 {
        fill: #896337;
      }

      .cls-40, .cls-41 {
        fill: #5d534f;
      }

      .cls-42 {
        fill: #7a872b;
      }

      .cls-43 {
        fill: #777f28;
      }

      .cls-44 {
        fill: #7b8929;
      }

      .cls-45 {
        fill: #514744;
      }

      .cls-46 {
        fill: #f4f0e9;
        mix-blend-mode: multiply;
      }

      .cls-25 {
        stroke: #c4b89b;
      }

      .cls-25, .cls-41, .cls-47, .cls-48, .cls-49 {
        stroke-miterlimit: 10;
      }

      .cls-25, .cls-47, .cls-48, .cls-49 {
        stroke-width: .5px;
      }

      .cls-41 {
        stroke: #4c4340;
      }

      .cls-50 {
        isolation: isolate;
      }

      .cls-51 {
        fill: #d6ede8;
        opacity: .5;
      }

      .cls-47 {
        stroke: #eae7e4;
      }

      .cls-47, .cls-48, .cls-49 {
        fill: none;
      }

      .cls-48 {
        stroke: #cec6b3;
      }

      .cls-49 {
        stroke: #e0dcd5;
      }
    </style>
  </defs>
  <g class="cls-50">
    <g id="hoja_2" data-name="hoja 2">
      <g id="mansion">
        <g id="mansion-2" data-name="mansion">
          <rect class="cls-24" x="94.16" y="298.01" width="925.71" height="245.65"/>
          <rect class="cls-24" x="109.32" y="106.79" width="895.39" height="146.84"/>
          <path class="cls-40" d="m1019.59,244.68H94.45c-.19,0-.37.03-.55.1L.2,279.19c-1.68.62-1.23,3.1.55,3.1h1112.54c1.78,0,2.23-2.48.55-3.1l-93.7-34.41c-.18-.06-.36-.1-.55-.1Z"/>
          <line class="cls-41" x1="74.29" y1="257.23" x2="1039.74" y2="257.23"/>
          <line class="cls-41" x1="30.41" y1="273.83" x2="1083.62" y2="273.83"/>
          <rect class="cls-45" x="8.86" y="282.28" width="1096.32" height="15.73"/>
          <path class="cls-45" d="m85.68,91.52h942.66v11.7c0,1.97-1.6,3.57-3.57,3.57H89.25c-1.97,0-3.57-1.6-3.57-3.57v-11.7h0Z"/>
          <path class="cls-40" d="m1037.92,91.52H76.11c-2.03,0-2.54-2.81-.64-3.52l134.69-50.61c.2-.08.42-.12.64-.12h692.42c.22,0,.44.04.64.12l134.69,50.61c1.9.71,1.39,3.52-.64,3.52Z"/>
          <line class="cls-41" x1="185.71" y1="53.45" x2="927.54" y2="53.45"/>
          <line class="cls-41" x1="147.09" y1="64.39" x2="962.94" y2="64.39"/>
          <line class="cls-41" x1="109.32" y1="78.36" x2="1004.71" y2="78.36"/>
          <rect class="cls-13" x="15.15" y="298.01" width="51.51" height="23.25" rx=".7" ry=".7"/>
          <rect class="cls-33" x="18.93" y="321.27" width="43.96" height="5.78" rx=".21" ry=".21"/>
          <rect class="cls-13" x="23.24" y="327.05" width="35.34" height="160.24"/>
          <rect class="cls-13" x="1043.45" y="298.01" width="51.51" height="23.25" rx=".7" ry=".7" transform="translate(2138.41 619.28) rotate(180)"/>
          <rect class="cls-33" x="1047.23" y="321.27" width="43.96" height="5.78" rx=".21" ry=".21" transform="translate(2138.41 648.32) rotate(180)"/>
          <rect class="cls-13" x="1051.54" y="327.05" width="35.34" height="160.24" transform="translate(2138.41 814.34) rotate(180)"/>
          <polygon class="cls-26" points="700.38 543.66 413.65 543.66 413.65 272.84 557.02 202.69 700.38 272.84 700.38 543.66"/>
          <path class="cls-46" d="m557.02,202.69l-143.36,70.15v112.8c95.58,4.26,191.15,3.6,286.73,2.68v-115.48l-143.36-70.15Z"/>
          <polygon class="cls-24" points="651.79 244.68 462.25 244.68 462.25 64.39 557.02 11.15 651.79 64.39 651.79 244.68"/>
          <polygon class="cls-45" points="557.02 11.46 452.69 70.07 444.4 63.14 557.02 .19 669.63 62.8 661.34 70.07 557.02 11.46"/>
          <polygon class="cls-28" points="557.02 11.15 462.25 64.39 462.25 78.36 557.02 25.11 651.79 78.36 651.79 64.39 557.02 11.15"/>
          <rect class="cls-5" x="504.83" y="90.41" width="104.38" height="125.76" rx=".42" ry=".42"/>
          <rect class="cls-48" x="504.83" y="90.41" width="104.38" height="125.76" rx=".42" ry=".42"/>
          <rect class="cls-16" x="506.21" y="113.17" width="101.61" height="80.23" transform="translate(710.3 -403.73) rotate(90)"/>
          <polygon class="cls-27" points="524.48 110.87 597.13 110.87 597.13 102.48 516.9 102.48 516.9 204.09 524.48 204.09 524.48 110.87"/>
          <rect class="cls-5" x="713.95" y="118.8" width="193.99" height="113.51"/>
          <rect class="cls-48" x="713.95" y="118.8" width="193.99" height="113.51"/>
          <rect class="cls-16" x="811.6" y="135.98" width="89.37" height="79.16" transform="translate(1031.84 -680.73) rotate(90)"/>
          <rect class="cls-16" x="720.85" y="136.05" width="89.37" height="79.02" transform="translate(941.09 -589.98) rotate(90)"/>
          <rect class="cls-5" x="805.04" y="130.87" width="11.8" height="89.37"/>
          <rect class="cls-5" x="174.86" y="118.8" width="193.99" height="113.51"/>
          <rect class="cls-48" x="174.86" y="118.8" width="193.99" height="113.51"/>
          <rect class="cls-16" x="272.58" y="136.05" width="89.37" height="79.02" transform="translate(492.82 -141.71) rotate(90)"/>
          <rect class="cls-16" x="181.76" y="136.05" width="89.37" height="79.02" transform="translate(402 -50.88) rotate(90)"/>
          <polygon class="cls-21" points="823.68 142.95 895.87 142.95 895.87 130.87 816.71 130.87 816.71 220.24 823.68 220.24 823.68 142.95"/>
          <polygon class="cls-21" points="733 142.95 805.04 142.95 805.04 130.87 726.03 130.87 726.03 220.24 733 220.24 733 142.95"/>
          <polygon class="cls-21" points="284.72 142.95 356.77 142.95 356.77 130.87 277.75 130.87 277.75 220.24 284.72 220.24 284.72 142.95"/>
          <polygon class="cls-21" points="193.9 142.95 265.95 142.95 265.95 130.87 186.93 130.87 186.93 220.24 193.9 220.24 193.9 142.95"/>
          <rect class="cls-5" x="265.95" y="130.87" width="11.8" height="89.37"/>
          <rect class="cls-2" x="511.61" y="349.17" width="90.81" height="194.5"/>
          <rect class="cls-47" x="511.61" y="349.17" width="90.81" height="194.5"/>
          <path class="cls-2" d="m602.42,419.66v-29.84c-1.72,9.95-1.19,19.89,0,29.84Z"/>
          <path class="cls-1" d="m511.61,531.71v11.96h90.81v-58.96c-13.28,34.07-53.72,53.89-90.81,47Z"/>
          <rect class="cls-6" x="528.85" y="363.13" width="56.33" height="87.15"/>
          <rect class="cls-6" x="528.85" y="363.13" width="56.33" height="87.15"/>
          <rect class="cls-6" x="528.85" y="463.28" width="56.33" height="50.07"/>
          <rect class="cls-49" x="528.85" y="363.13" width="56.33" height="87.15"/>
          <rect class="cls-49" x="528.85" y="463.28" width="56.33" height="50.07"/>
          <rect class="cls-29" x="592.38" y="444.34" width="4.27" height="37.93" rx=".3" ry=".3"/>
          <g>
            <g>
              <rect class="cls-5" x="464.48" y="349.17" width="26.89" height="100.25"/>
              <rect class="cls-16" x="431.82" y="389.87" width="92.2" height="18.84" transform="translate(877.22 -78.63) rotate(90)"/>
            </g>
            <g>
              <rect class="cls-5" x="619.18" y="349.17" width="26.89" height="100.25"/>
              <rect class="cls-16" x="586.52" y="389.87" width="92.2" height="18.84" transform="translate(1031.92 -233.33) rotate(90)"/>
            </g>
          </g>
          <g>
            <path class="cls-5" d="m154.45,349.17v166.31h226.25v-166.31h-226.25Zm214.18,154.24h-202.11v-142.16h202.11v142.16Z"/>
            <rect class="cls-16" x="166.52" y="361.24" width="62.67" height="142.16"/>
            <rect class="cls-16" x="236.47" y="361.24" width="62.55" height="142.16"/>
            <rect class="cls-16" x="306.29" y="361.24" width="62.34" height="142.16"/>
            <polygon class="cls-15" points="173.05 371.18 229.19 371.18 229.19 361.24 166.52 361.24 166.52 503.4 173.05 503.4 173.05 371.18"/>
            <polygon class="cls-15" points="242.99 371.18 299.02 371.18 299.02 361.24 236.47 361.24 236.47 503.4 242.99 503.4 242.99 371.18"/>
            <polygon class="cls-15" points="312.82 371.18 368.63 371.18 368.63 361.24 306.29 361.24 306.29 503.4 312.82 503.4 312.82 371.18"/>
            <rect class="cls-5" x="299.02" y="361.24" width="7.28" height="142.16"/>
            <rect class="cls-5" x="229.19" y="361.24" width="7.28" height="142.16"/>
            <path class="cls-51" d="m229.19,390.07c-22.55,13.5-43.97,28.42-62.67,46.36v42.55c20.56-17.02,41.32-33.99,62.67-50.15v-38.76Z"/>
            <path class="cls-51" d="m229.19,476.66c-10.77,8.72-21.38,17.64-31.84,26.75h31.38c.15-.14.3-.27.46-.4v-26.34Z"/>
            <path class="cls-16" d="m229.19,503c-.15.14-.3.27-.46.4h.46v-.4Z"/>
            <path class="cls-16" d="m236.47,361.24v24.55c14.75-8.56,29.89-16.6,45-24.55"/>
            <path class="cls-51" d="m299.02,361.24h-17.55c-15.11,7.95-30.25,15.99-45,24.55v37.58c20.19-15,40.93-29.21,62.55-41.97v-20.16Z"/>
            <path class="cls-51" d="m299.02,424.95c-21.46,14.4-42.3,29.75-62.55,45.85v25.78c20.17-17.67,40.96-34.78,62.55-50.72v-20.91Z"/>
            <path class="cls-51" d="m299.02,485.66c-7.35,5.94-14.67,11.9-22.01,17.74h22.01v-17.74Z"/>
            <path class="cls-51" d="m306.29,361.24v15.93c9.9-5.64,19.98-10.97,30.28-15.93h-30.28Z"/>
            <path class="cls-51" d="m368.63,383.06c-21.37,11.38-42.13,23.79-62.34,37.06v20.43c20.04-14.43,40.77-27.83,62.34-39.72v-17.76Z"/>
            <path class="cls-51" d="m368.63,435.99c-21.94,12.31-42.34,27.81-62.34,43.81v23.6h.19c20.69-14.63,41.04-29.44,62.15-42.83v-24.58Z"/>
          </g>
          <g>
            <path class="cls-5" d="m726.03,349.17v166.31h226.25v-166.31h-226.25Zm214.18,154.24h-202.11v-142.16h202.11v142.16Z"/>
            <rect class="cls-16" x="738.1" y="361.24" width="62.67" height="142.16"/>
            <rect class="cls-16" x="808.04" y="361.24" width="62.55" height="142.16"/>
            <rect class="cls-16" x="877.87" y="361.24" width="62.34" height="142.16"/>
            <polygon class="cls-15" points="744.63 371.18 800.76 371.18 800.76 361.24 738.1 361.24 738.1 503.4 744.63 503.4 744.63 371.18"/>
            <polygon class="cls-15" points="814.57 371.18 870.59 371.18 870.59 361.24 808.04 361.24 808.04 503.4 814.57 503.4 814.57 371.18"/>
            <polygon class="cls-15" points="884.4 371.18 940.21 371.18 940.21 361.24 877.87 361.24 877.87 503.4 884.4 503.4 884.4 371.18"/>
            <rect class="cls-5" x="870.59" y="361.24" width="7.28" height="142.16"/>
            <rect class="cls-5" x="800.76" y="361.24" width="7.28" height="142.16"/>
            <path class="cls-51" d="m800.76,390.07c-22.55,13.5-43.97,28.42-62.67,46.36v42.55c20.56-17.02,41.32-33.99,62.67-50.15v-38.76Z"/>
            <path class="cls-51" d="m800.76,476.66c-10.77,8.72-21.38,17.64-31.84,26.75h31.38c.15-.14.3-.27.46-.4v-26.34Z"/>
            <path class="cls-16" d="m800.76,503c-.15.14-.3.27-.46.4h.46v-.4Z"/>
            <path class="cls-16" d="m808.04,361.24v24.55c14.75-8.56,29.89-16.6,45-24.55"/>
            <path class="cls-51" d="m870.59,361.24h-17.55c-15.11,7.95-30.25,15.99-45,24.55v37.58c20.19-15,40.93-29.21,62.55-41.97v-20.16Z"/>
            <path class="cls-51" d="m870.59,424.95c-21.46,14.4-42.3,29.75-62.55,45.85v25.78c20.17-17.67,40.96-34.78,62.55-50.72v-20.91Z"/>
            <path class="cls-51" d="m870.59,485.66c-7.35,5.94-14.67,11.9-22.01,17.74h22.01v-17.74Z"/>
            <path class="cls-51" d="m877.87,361.24v15.93c9.9-5.64,19.98-10.97,30.28-15.93h-30.28Z"/>
            <path class="cls-51" d="m940.21,383.06c-21.37,11.38-42.13,23.79-62.34,37.06v20.43c20.04-14.43,40.77-27.83,62.34-39.72v-17.76Z"/>
            <path class="cls-51" d="m940.21,435.99c-21.94,12.31-42.34,27.81-62.34,43.81v23.6h.19c20.69-14.63,41.04-29.44,62.15-42.83v-24.58Z"/>
          </g>
          <rect class="cls-24" x="872.79" y="28.07" width="60.1" height="25.38"/>
          <path class="cls-12" d="m932.67,28.07h-59.66c-.14,0-.26-.09-.31-.22l-1.44-4.12c-.19-.54.21-1.1.78-1.1h61.59c.57,0,.97.56.78,1.1l-1.44,4.12c-.05.13-.17.22-.31.22Z"/>
          <rect class="cls-20" x="895.87" y="31.06" width="31.67" height="9.7" rx=".48" ry=".48"/>
          <rect class="cls-31" x="915.79" y="42.77" width="18.39" height="5.63" rx=".48" ry=".48"/>
          <rect class="cls-9" x="958.71" y="140.05" width="47.8" height="15.93" rx=".82" ry=".82"/>
          <rect class="cls-9" x="118.73" y="166.92" width="47.8" height="15.93" rx=".82" ry=".82"/>
          <rect class="cls-9" x="105.82" y="194.72" width="23.9" height="15.93" rx=".82" ry=".82"/>
          <rect class="cls-7" x="976.27" y="161.04" width="30.23" height="13.84" rx=".5" ry=".5"/>
          <path class="cls-51" d="m597.13,142.5c-25.89,18.55-51.14,37.98-72.82,61.6h8l12.33-5.99c17.14-16.6,34.49-32.62,52.48-47.85v-7.77Z"/>
          <path class="cls-51" d="m597.13,102.48h-29.32c-17.68,11.97-35.13,24.05-50.91,38.15v44.64c24.84-22.65,52.19-42.13,80.23-60.62v-22.17Z"/>
          <path class="cls-51" d="m816.71,130.87v29c17.28-9.49,34.54-19.06,51.6-29h-51.6Z"/>
          <path class="cls-51" d="m895.87,152.69c-26.11,18.75-52.55,35.34-79.16,51.2v16.34h12.04c21.97-14.52,44.47-28.06,67.11-41.47v-26.08Z"/>
          <path class="cls-16" d="m805.04,210.8c-5.37,3.16-10.75,6.3-16.13,9.44h16.13v-9.44Z"/>
          <path class="cls-51" d="m805.04,130.87h-4.91c-24.99,11.79-49.66,24.22-74.1,36.9v43.58c25.76-15.77,52.34-30.44,79.02-45.08v-35.41Z"/>
          <path class="cls-16" d="m277.75,130.87v.13c.08-.04.16-.08.24-.13h-.24Z"/>
          <path class="cls-51" d="m277.99,130.87c-.08.04-.16.08-.24.13v35.69c22.26-11.83,44.49-23.7,66.61-35.81h-66.37Z"/>
          <path class="cls-51" d="m356.77,153.76c-26.67,13.19-53.11,26.85-79.02,41.28v23.29c25.68-16.44,52.09-31.73,79.02-46.1v-18.47Z"/>
          <path class="cls-51" d="m265.95,201.68c-10.58,6.03-21.05,12.22-31.4,18.56h31.4v-18.56Z"/>
          <path class="cls-51" d="m265.95,137.16c-26.26,13.87-52.14,28.46-79.02,41.22v36.73c26.27-14.19,52.65-28.17,79.02-42.15v-35.79Z"/>
          <rect class="cls-14" x="702.09" y="114.57" width="217.7" height="4.24"/>
          <rect class="cls-14" x="163" y="114.57" width="217.7" height="4.24"/>
          <rect class="cls-46" x="109.32" y="106.79" width="346.5" height="35.71"/>
          <rect class="cls-46" x="658.21" y="106.79" width="346.5" height="37.09"/>
          <path class="cls-46" d="m651.79,102.53v-38.14l-94.77-53.25-94.77,53.25v42.23c63.35-1.58,126.65-5.07,189.54-4.1Z"/>
          <g>
            <g>
              <path class="cls-32" d="m485.62,78.36h-36.77c-.63,0-1.19-.42-1.35-1.03l-3.05-11.16c-.24-.89.43-1.77,1.35-1.77h42.87c.93,0,1.6.88,1.35,1.77l-3.05,11.16c-.17.61-.72,1.03-1.35,1.03Z"/>
              <g>
                <path class="cls-32" d="m448.41,73.41l-1.53-5.61c-.21-.75.36-1.49,1.14-1.49h38.44"/>
                <path class="cls-11" d="m448.41,73.41c-.62-1.84-1.18-3.69-1.76-5.53-.3-.87.43-1.87,1.36-1.87.43,0,3.13-.08,3.63-.09,11.55-.18,23.28-.17,34.83.38-11.55.55-23.27.56-34.83.38-.48-.01-3.19-.08-3.62-.08-.58-.02-1.05.57-.89,1.15.43,1.89.89,3.77,1.29,5.66h0Z"/>
              </g>
              <path class="cls-34" d="m478.65,78.36h-22.82v19.4c7.65-.63,15.24-1.31,22.82-2v-17.4Z"/>
              <path class="cls-32" d="m455.83,97.76v155.87h22.82V95.76c-7.59.69-15.18,1.37-22.82,2Z"/>
            </g>
            <g>
              <path class="cls-32" d="m665.18,78.36h-36.77c-.63,0-1.19-.42-1.35-1.03l-3.05-11.16c-.24-.89.43-1.77,1.35-1.77h42.87c.93,0,1.6.88,1.35,1.77l-3.05,11.16c-.17.61-.72,1.03-1.35,1.03Z"/>
              <g>
                <path class="cls-32" d="m628.56,75.58l-2.12-7.78c-.21-.75.36-1.49,1.14-1.49h32.52"/>
                <path class="cls-11" d="m628.56,75.58c-.83-2.44-1.67-5.17-2.42-7.65-.38-1.22.71-2.15,1.88-2.01,3.56-.09,7.13-.1,10.69-.12,7.01.01,14.37.12,21.38.5-1.78.11-3.56.16-5.34.25-8.86.27-17.88.34-26.72.14-.84-.12-1.44.26-1.28,1.08,0,0,.64,2.6.64,2.6.39,1.74.81,3.47,1.17,5.22h0Z"/>
              </g>
              <path class="cls-32" d="m635.38,253.63h22.82V95.52c-7.6-.53-15.2-1.04-22.82-1.34v159.45Z"/>
              <path class="cls-34" d="m635.38,78.36v15.82c7.63.29,15.23.81,22.82,1.34v-17.15h-22.82Z"/>
            </g>
          </g>
          <g>
            <line class="cls-25" x1="658.21" y1="78.36" x2="658.21" y2="244.68"/>
            <line class="cls-25" x1="455.83" y1="78.36" x2="455.83" y2="244.68"/>
            <line class="cls-25" x1="635.38" y1="78.36" x2="635.38" y2="234.1"/>
            <line class="cls-25" x1="478.65" y1="78.36" x2="478.65" y2="234.1"/>
          </g>
          <rect class="cls-46" x="94.16" y="298.01" width="319.56" height="43.53"/>
          <rect class="cls-46" x="700.38" y="298.01" width="319.49" height="43.53"/>
          <g>
            <rect class="cls-32" x="413.73" y="316.98" width="32.35" height="226.68"/>
            <rect class="cls-10" x="408.95" y="311.76" width="41.92" height="17.4" rx=".99" ry=".99"/>
          </g>
          <g>
            <rect class="cls-32" x="668.09" y="316.98" width="32.35" height="226.68"/>
            <rect class="cls-10" x="663.31" y="311.76" width="41.92" height="17.4" rx=".99" ry=".99"/>
          </g>
          <path class="cls-32" d="m444.35,311.76c16.23-29.55,60.53-50.77,112.67-50.77s96.44,21.22,112.67,50.77h30.7v-38.92l-143.36-70.15-143.36,70.15v38.92h30.7Z"/>
          <polygon class="cls-35" points="557.02 203.33 413.65 277.8 413.65 286.03 557.02 215.88 700.38 286.03 700.38 277.8 557.02 203.33"/>
          <path class="cls-45" d="m557.02,207.27l-146.65,71.76c-2.89,1.42-6.27-.69-6.27-3.91v-5.51c0-1.66.95-3.18,2.44-3.91l150.48-73.63,150.48,73.63c1.49.73,2.44,2.25,2.44,3.91v5.51c0,3.22-3.38,5.33-6.27,3.91l-146.65-71.76Z"/>
          <g>
            <rect class="cls-23" x="407.76" y="486.61" width="44.29" height="57.05"/>
            <path class="cls-19" d="m402.57,478.94h54.67c.35,0,.64.29.64.64v14.34c0,.35-.29.64-.64.64h-54.67c-.35,0-.64-.29-.64-.64v-14.34c0-.35.29-.64.64-.64Z"/>
          </g>
          <g>
            <rect class="cls-23" x="662.12" y="486.61" width="44.29" height="57.05"/>
            <path class="cls-19" d="m656.93,478.94h54.67c.35,0,.64.29.64.64v14.34c0,.35-.29.64-.64.64h-54.67c-.35,0-.64-.29-.64-.64v-14.34c0-.35.29-.64.64-.64Z"/>
          </g>
          <rect class="cls-9" x="980.18" y="363.13" width="42.62" height="23.68" rx=".47" ry=".47"/>
          <rect class="cls-9" x="973.84" y="394.87" width="30.87" height="7.49" rx=".43" ry=".43"/>
          <rect class="cls-7" x="991.39" y="407.17" width="31.41" height="15.09" rx=".8" ry=".8"/>
          <rect class="cls-7" x="93.62" y="422.78" width="31.41" height="15.09" rx=".8" ry=".8"/>
          <rect class="cls-7" x="105.36" y="410.95" width="31.41" height="7.55" rx=".8" ry=".8"/>
          <rect class="cls-30" x="619.18" y="449.42" width="26.89" height="6.09"/>
          <rect class="cls-30" x="464.48" y="449.42" width="26.89" height="6.09"/>
          <g>
            <g>
              <path class="cls-38" d="m-10.37,236.52s-25.18,167.66-7.29,269.11H.52s21.72-45.58-.06-269.11h-10.83Z"/>
              <path class="cls-4" d="m-9.79,255.07s-20.37-60.84,4.44-77.77c24.82-16.94,129.76,15.52,129.76,15.52l-25.91,11.7-21.83-11.7,11.48,14.25-48.31,23.82-49.64,24.18Z"/>
              <g>
                <path class="cls-18" d="m-5.35,184.09c20.35-13.89,94.58,5.44,120.63,12.84l9.13-4.12S19.47,160.36-5.35,177.29c-10.2,6.96-12.76,21.35-12.24,35.87.47-12.06,3.64-23.2,12.24-29.07Z"/>
                <polygon class="cls-18" points="76.68 199.62 84.24 209 88.16 207.07 86.33 204.79 76.68 199.62"/>
              </g>
              <path class="cls-3" d="m-.67,255.07s7.08-62.94-13.38-69.76c-20.45-6.82-80.13,17.26-112.07,61.89h38.78l12.78-18.47-3.41,20.24,37.86,3.11,7.71-17.36,5.7,18.33,26.03,2.01Z"/>
              <path class="cls-37" d="m-5.34,252.9s10.04-37.1,47.89-38.62c37.85-1.52,78.09,69.42,78.09,69.42l-32.47-2.48-13.91-26.15-1.35,21.91-40.8-10.28,1.31-17.72-9,17.72-29.76-13.8Z"/>
              <g>
                <polygon class="cls-44" points="83.22 261.16 82.62 270.8 88.16 281.21 94.13 281.67 83.22 261.16"/>
                <polygon class="cls-44" points="41.35 269.02 42.37 255.07 35.97 267.67 41.35 269.02"/>
                <path class="cls-44" d="m51.51,220.37c7.55-.3,15.19,2.31,22.59,6.63-10.08-7.85-20.91-13.15-31.56-12.72-37.85,1.52-47.89,38.62-47.89,38.62l9.5,4.4c2.5-7.26,14.36-35.61,47.36-36.93Z"/>
              </g>
              <g>
                <g>
                  <path class="cls-38" d="m-3.16,328.46c.35,5.49,2.07,10.89,4.96,15.57.54.88,1.67,1.84,2.46,1.17.48-.41.42-1.15.33-1.77-.62-4.04-1.23-8.08-1.85-12.12,1.57,4.55,3.48,9.52,7.75,11.74,1.09-3.32.27-6.93-.62-10.31-1.31-5-2.75-9.96-4.31-14.88-.6-1.9-1.25-3.85-2.52-5.4"/>
                  <path class="cls-39" d="m-3.3,328.46c.14,2.04,4.44,21.42,8.1,16.54.66-.88.03-2.47-.1-3.4-.41-2.95-.97-6.37-1.82-8.81,1.48,4.24,3.53,8.16,7.43,10.57.18.11.44,0,.49-.2,1.23-5.2-.47-10.14-1.86-15.17-1.43-5.15-2.41-11.28-5.66-15.65-.21-.28-.68-.03-.49.28,3.48,5.53,4.83,13.03,6.48,19.29.38,1.44.8,2.9,1.05,4.37l.33,3.38c-1.28,1.96-2.33,2.12-3.13.48-2.4-1.65-3.58-6.4-4.46-8.93-.15-.44-.75-.26-.69.19.34,2.31.69,4.62,1.03,6.93.22,1.49,1.79,5.65-2.1,4.06-1.07-.44-2.31-4.88-2.67-5.93-.9-2.61-1.38-5.27-1.67-8.01-.02-.18-.29-.18-.28,0h0Z"/>
                </g>
                <g>
                  <path class="cls-38" d="m-3.2,442.26c1.1,5.64,3.11,11.11,5.93,16.12,1.71,3.03,3.95,6.08,7.26,7.17.41.13.86.23,1.26.07.66-.27.85-1.09.95-1.79.78-5.46,1.48-10.97,1.03-16.47-.45-5.49-2.12-11.02-5.61-15.29"/>
                  <path class="cls-39" d="m-3.42,442.32c1.23,6.51,3.35,13.45,7.2,18.95,1.45,2.07,5.52,6.8,8.34,4.51,1.3-1.06,1.16-4.16,1.35-5.59.51-3.95.87-7.92.65-11.9-.34-6.14-1.98-11.92-6.13-16.57-.39-.44-1.12.13-.81.62,5.26,8.35,5.92,17.31,4.85,26.93-.16,1.46-.34,2.91-.55,4.36-2.52.46-4.42-.21-5.72-1.98-1.58-1.54-2.74-3.89-3.76-5.83-2.28-4.32-3.86-8.87-4.96-13.62-.07-.3-.51-.17-.45.12h0Z"/>
                </g>
              </g>
            </g>
            <g>
              <path class="cls-38" d="m1116.34,236.52s-25.18,167.66-7.29,269.11h18.17s21.72-45.58-.06-269.11h-10.83Z"/>
              <path class="cls-4" d="m1116.92,255.07s-20.37-60.84,4.44-77.77c24.82-16.94,129.76,15.52,129.76,15.52l-25.91,11.7-21.83-11.7,11.48,14.25-48.31,23.82-49.64,24.18Z"/>
              <path class="cls-18" d="m1121.36,184.09c20.35-13.89,94.58,5.44,120.63,12.84l9.13-4.12s-104.94-32.46-129.76-15.52c-10.2,6.96-12.76,21.35-12.24,35.87.47-12.06,3.64-23.2,12.24-29.07Z"/>
              <path class="cls-3" d="m1126.04,255.07s7.08-62.94-13.38-69.76c-20.45-6.82-80.13,17.26-112.07,61.89h38.78l12.78-18.47-3.41,20.24,37.86,3.11,7.71-17.36,5.7,18.33,26.03,2.01Z"/>
              <g>
                <path class="cls-43" d="m1116.89,196.58c3.17,1.06,5.68,3.47,7.66,6.79-2.12-8.92-5.76-16.01-11.89-18.05-20.45-6.82-80.13,17.26-112.07,61.89h13.25c33.11-37.35,84.39-56.84,103.05-50.62Z"/>
                <polygon class="cls-43" points="1098.53 245.99 1098.11 246.95 1100.01 253.05 1100.75 253.11 1098.53 245.99"/>
                <polygon class="cls-43" points="1056.38 240 1050.09 249.09 1054.79 249.47 1056.38 240"/>
              </g>
              <path class="cls-37" d="m1121.36,252.9s-50.57-50.35-91.68-5.7c-41.12,44.65-26.6,92.92-26.6,92.92l30.23-29.87-4.84-25.58,15.72,13.93,25.4-17.38-2.27-10.71,10.74,3.54,43.31-21.14Z"/>
              <g>
                <path class="cls-42" d="m1029.68,257.81c31.22-33.91,67.89-13.04,83.73-1.03l7.95-3.88s-50.57-50.35-91.68-5.7c-26.54,28.83-29.9,59.13-28.94,77.01.97-17.98,7.11-42.7,28.94-66.41Z"/>
                <polygon class="cls-42" points="1067.31 281.1 1067.62 282.56 1068.95 281.64 1067.31 281.1"/>
                <polygon class="cls-42" points="1028.47 295.27 1031.61 311.91 1033.3 310.24 1030.87 297.4 1028.47 295.27"/>
              </g>
              <path class="cls-37" d="m1121.36,252.9s10.04-37.1,47.89-38.62c37.85-1.52,78.09,69.42,78.09,69.42l-32.47-2.48-13.91-26.15-1.35,21.91-40.8-10.28,1.31-17.72-9,17.72-29.76-13.8Z"/>
              <path class="cls-44" d="m1178.21,220.37c7.55-.3,15.19,2.31,22.59,6.63-10.08-7.85-20.91-13.15-31.56-12.72-37.85,1.52-47.89,38.62-47.89,38.62l9.5,4.4c2.5-7.26,14.36-35.61,47.35-36.93Z"/>
              <g>
                <g>
                  <path class="cls-38" d="m1108.12,332.06c-1.19,3.84-2.38,7.69-3.57,11.53-2.08,6.73-4.19,13.59-4.16,20.64,0,.94.11,2.01.86,2.57.99.74,2.39.12,3.4-.59,4.46-3.15,7.61-8.08,8.6-13.44"/>
                  <path class="cls-39" d="m1108.08,332.05c-2.25,6.59-4.75,13.14-6.43,19.91-.8,3.21-3.35,11.5-1.14,14.49,1.6,2.16,3.94.53,5.63-.84,4.03-3.27,6.35-7.75,7.29-12.8.04-.23-.3-.34-.36-.1-1.1,4.26-3.2,8.26-6.43,11.3-1.11,2.01-2.45,2.35-4.01,1.01-1.75-.11-2.34-.97-1.76-2.56-.62-2.17.59-5.47,1.06-7.7,1.64-7.64,4.14-15.17,6.23-22.7.02-.06-.07-.08-.09-.02h0Z"/>
                </g>
                <g>
                  <path class="cls-38" d="m1123.55,328.46c.35,5.49,2.07,10.89,4.96,15.57.54.88,1.67,1.84,2.46,1.17.48-.41.42-1.15.33-1.77-.62-4.04-1.23-8.08-1.85-12.12,1.57,4.55,3.48,9.52,7.75,11.74,1.09-3.32.27-6.93-.62-10.31-1.31-5-2.75-9.96-4.31-14.88-.6-1.9-1.25-3.85-2.52-5.4"/>
                  <path class="cls-39" d="m1123.41,328.46c.14,2.04,4.44,21.42,8.1,16.54.66-.88.03-2.47-.1-3.4-.41-2.95-.97-6.37-1.82-8.81,1.48,4.24,3.53,8.16,7.43,10.57.18.11.44,0,.49-.2,1.23-5.2-.47-10.14-1.86-15.17s-2.41-11.28-5.66-15.65c-.21-.28-.68-.03-.49.28,3.48,5.53,4.83,13.03,6.48,19.29.38,1.44.8,2.9,1.05,4.37l.33,3.38c-1.28,1.96-2.33,2.12-3.13.48-2.4-1.65-3.58-6.4-4.46-8.93-.15-.44-.75-.26-.69.19.34,2.31.69,4.62,1.03,6.93.22,1.49,1.79,5.65-2.1,4.06-1.07-.44-2.31-4.88-2.67-5.93-.9-2.61-1.38-5.27-1.67-8.01-.02-.18-.29-.18-.28,0h0Z"/>
                </g>
                <g>
                  <path class="cls-38" d="m1104.03,391.96c-2.6,5.57-5.2,11.13-7.79,16.7-2.22,4.75-4.49,9.94-3.36,15.05,4.69-5.44,8.15-11.93,10.05-18.85.26,6.19.51,12.39.77,18.58.07,1.78.48,4,2.2,4.46,2.27.61,3.64-2.44,4-4.76,1.41-9.08,2.81-18.15,4.22-27.23.64,5.03,1.28,10.05,1.92,15.08.4,3.15,1.27,6.91,4.28,7.94,2.6-8.55.68-17.75-1.25-26.48"/>
                  <path class="cls-39" d="m1103.91,391.89c-2.92,6.05-5.96,12.06-8.76,18.16-2.06,4.49-3.43,8.81-2.64,13.76.04.28.48.39.65.17,3.17-3.88,5.89-8.09,7.89-12.7.35-.81,1.88-4.35,1.58-4.57.92.66.31,8.01.35,9.29.07,1.85-.75,15.68,5.13,11.77,2.91-1.94,6.55-29.65,6.08-29.82.58.2,1.25,12.23,1.65,14.34.56,2.97,1.46,5.55,4.27,6.96.22.11.5.02.57-.23,2.47-8.93.82-17.85-1.08-26.73-.15-.71-1.24-.41-1.08.3.91,4.05,1.85,8.13,2.29,12.26.18,1.72,1.3,11.43-.42,12.24-4.31,2.03-5.53-18.46-5.87-21.19-.05-.39-.69-.58-.77-.1-1.36,8.74-2.55,17.54-4.08,26.25-.09.73-.23,1.46-.42,2.17-3.67,2.7-5.37,2.44-5.12-.79-.18-1.84-.15-3.73-.24-5.57-.19-4.34-.39-8.67-.58-13.01-.02-.41-.61-.51-.73-.1-1.15,3.96-2.66,7.77-4.72,11.36-.62,1.08-3.19,5.95-4.18,6.05-1.31.14.11-6.14.32-6.84,2.42-7.98,6.73-15.7,10.15-23.3.07-.16-.16-.31-.24-.14h0Z"/>
                </g>
                <g>
                  <path class="cls-38" d="m1123.51,442.26c1.1,5.64,3.11,11.11,5.93,16.12,1.71,3.03,3.95,6.08,7.26,7.17.41.13.86.23,1.26.07.66-.27.85-1.09.95-1.79.78-5.46,1.48-10.97,1.03-16.47-.45-5.49-2.12-11.02-5.61-15.29"/>
                  <path class="cls-39" d="m1123.28,442.32c1.23,6.51,3.35,13.45,7.2,18.95,1.45,2.07,5.52,6.8,8.34,4.51,1.3-1.06,1.16-4.16,1.35-5.59.51-3.95.87-7.92.65-11.9-.34-6.14-1.98-11.92-6.13-16.57-.39-.44-1.12.13-.81.62,5.26,8.35,5.92,17.31,4.85,26.93-.16,1.46-.34,2.91-.55,4.36-2.52.46-4.42-.21-5.72-1.98-1.58-1.54-2.74-3.89-3.76-5.83-2.28-4.32-3.86-8.87-4.96-13.62-.07-.3-.51-.17-.45.12h0Z"/>
                </g>
                <g>
                  <path class="cls-38" d="m1110.57,291.11c-5.08,4.55-8.12,11.3-8.16,18.12,0,.72.1,1.58.73,1.93.73.41,1.61-.15,2.24-.7,4.43-3.9,7.7-9.1,9.29-14.78.16,4.56,1.7,9.07,4.35,12.78.23.33.51.67.91.75.75.14,1.26-.72,1.5-1.45,1.88-5.68,2.14-11.89.73-17.71"/>
                  <path class="cls-39" d="m1110.47,291.01c-3.27,2.9-5.86,6.39-7.25,10.56-.59,1.76-2.75,8.43-.46,9.88,2.12,1.34,4.74-2.28,5.85-3.54,3.08-3.52,5.2-7.64,6.56-12.1l-1.01-.14c.16,2.49,2.3,15.58,6.58,13.89,1.91-.75,2.2-5.24,2.44-6.75.66-4.14.83-8.89-.7-12.86-.12-.32-.67-.31-.64.09.25,4.41,1.85,10.41-.12,14.69-.41.9-1.4,3.08-2.99,2.32-.49-.23-1.09-1.91-1.32-2.4-1.35-2.84-2-5.86-2.21-8.98-.04-.57-.84-.71-1.01-.14-.91,3.01-2.15,5.89-3.89,8.51-.88,1.33-2.01,3.19-3.3,4.16-.55,1.01-1.39,1.34-2.53.99-1.49.54-2,.13-1.53-1.25-.62-2.6,1.51-7.31,2.6-9.57,1.3-2.7,3.03-5.05,5.14-7.18.13-.13-.06-.32-.2-.2h0Z"/>
                </g>
              </g>
            </g>
          </g>
          <rect class="cls-19" x="-33.34" y="487.29" width="152.07" height="56.37"/>
          <path class="cls-22" d="m-33.34,526.99v16.68H118.73v-56.37h-20.27c-34.94,27.8-86.43,39.5-131.8,39.7Z"/>
          <g>
            <rect class="cls-19" x="991.39" y="487.29" width="152.07" height="56.37" transform="translate(2134.84 1030.95) rotate(180)"/>
            <path class="cls-22" d="m991.39,519.33v24.33h152.07v-52.89c-45.16,21.74-100.29,27.19-152.07,28.55Z"/>
          </g>
          <rect class="cls-36" x="406.31" y="496.58" width="28.7" height="8.98" rx=".37" ry=".37"/>
          <rect class="cls-36" x="425.06" y="521.96" width="28.7" height="12.75" rx=".37" ry=".37"/>
          <rect class="cls-17" x="417.89" y="507.38" width="17.12" height="5.36" rx=".37" ry=".37"/>
          <rect class="cls-36" x="660.54" y="496.58" width="28.7" height="8.98" rx=".37" ry=".37"/>
          <rect class="cls-36" x="686.28" y="515.58" width="21.72" height="12.75" rx=".37" ry=".37"/>
          <rect class="cls-17" x="672.12" y="507.38" width="12.15" height="5.36" rx=".37" ry=".37"/>
          <rect class="cls-17" x="679.82" y="532.03" width="17.12" height="5.36" rx=".37" ry=".37"/>
        </g>
      </g>
    </g>
    <g id="hoja_3" data-name="hoja 3">
      <g id="bg-2" data-name="bg">
        <rect class="cls-8" y="533.5" width="1125" height="2436"/>
      </g>
    </g>
  </g>
</svg>
