<?xml version="1.0" encoding="UTF-8"?>
<svg id="hoja_1" data-name="hoja 1" xmlns="http://www.w3.org/2000/svg" viewBox="0 0 404.5 1467">
  <defs>
    <style>
      .cls-1 {
        fill: none;
        opacity: .75;
      }

      .cls-2 {
        fill: #f2c4cd;
      }
    </style>
  </defs>
  <g id="text">
    <g class="cls-1">
      <path class="cls-2" d="m123.9,327.06c0-45.5-17.5-85.4-39.9-85.4-13.3,0-20.3,10.5-20.3,37.1,0,35.7,33.6,47.6,33.6,88.2,0,58.1-34.3,80.5-93.1,80.5s-95.9-20.3-109.2-68.6c-11.9-51.1,11.2-89.6,11.9-163.1-.7-68.6-23.8-105.7-12.6-157.5C-92.4,9.97-54.6-13.13,40.6-13.13c112.7,0,126.7,31.5,126.7,108.5,0,60.2,22.4,88.9,39.9,88.9,14.7,0,18.2-14.7,18.2-32.2,0-41.3-31.5-46.2-31.5-95.2,0-53.2,31.5-70,84-70,63.7,0,100.1,23.1,113.4,71.4,11.2,51.8-12.6,88.9-12.6,157.5,0,73.5,14.7,112,2.8,161.7-13.3,50.4-50.4,70-121.8,70-97.3,0-135.8-31.5-135.8-120.4Z"/>
      <path class="cls-2" d="m381.5,712.97c.7,159.6-46.2,235.2-249.9,235.2s-246.4-75.6-246.4-234.5,48.3-226.8,246.4-226.8,250.6,74.9,249.9,226.1Zm-177.1,3.5c0-28-23.1-39.2-71.4-39.2s-71.4,11.2-71.4,39.2,23.1,40.6,71.4,40.6,71.4-11.2,71.4-40.6Z"/>
      <path class="cls-2" d="m154.7,1133.17c-16.1-58.1-25.9-146.3,96.6-146.3,72.1,0,100.8,18.9,112.7,46.2,17.5,43.4,3.5,73.5-2.1,115.5-4.2,51.8-7,123.2-49.7,205.1-35.7,70.7-89.6,93.8-182,93.8s-146.3-23.1-181.3-93.8c-42.7-81.9-46.2-153.3-50.4-205.1-4.9-42-18.9-72.1-1.4-115.5,11.9-27.3,40.6-46.2,112.7-46.2,121.8,0,113.4,86.8,95.9,146.3-16.8,56-23.1,92.4,24.5,92.4s41.3-35.7,24.5-92.4Z"/>
    </g>
  </g>
</svg>