<?xml version="1.0" encoding="UTF-8"?>
<svg xmlns="http://www.w3.org/2000/svg" viewBox="0 0 1125 949">
  <defs>
    <style>
      .cls-1 {
        fill: #f2f2f3;
      }

      .cls-2 {
        fill: #03283f;
      }

      .cls-3 {
        fill: #00aeb7;
      }

      .cls-4 {
        fill: #f48b00;
      }

      .cls-5 {
        fill: #181818;
      }
    </style>
  </defs>
  <g id="hoja_1" data-name="hoja 1">
    <g id="bg">
      <rect class="cls-2" y="-2436" width="1125" height="2436"/>
    </g>
  </g>
  <g id="hoja_2" data-name="hoja 2">
    <g id="clouds">
      <g>
        <circle class="cls-1" cx="-39.99" cy="712.22" r="55.25"/>
        <circle class="cls-1" cx="18.21" cy="619.43" r="97.43"/>
        <circle class="cls-1" cx="57.86" cy="699.57" r="97.43"/>
        <circle class="cls-1" cx="127.03" cy="628.71" r="64.53"/>
        <circle class="cls-1" cx="202.95" cy="675.95" r="64.53"/>
        <circle class="cls-1" cx="148.12" cy="693.66" r="64.53"/>
      </g>
      <g>
        <circle class="cls-1" cx="366.55" cy="775.94" r="77.17"/>
        <circle class="cls-1" cx="680.66" cy="698.78" r="77.17"/>
        <circle class="cls-1" cx="757.83" cy="775.94" r="77.17"/>
        <circle class="cls-1" cx="688.27" cy="809.64" r="77.17"/>
        <circle class="cls-1" cx="425.24" cy="705.3" r="77.17"/>
        <circle class="cls-1" cx="450.24" cy="829.2" r="77.17"/>
        <circle class="cls-1" cx="562.19" cy="809.64" r="110.86"/>
        <circle class="cls-1" cx="561.1" cy="683.56" r="119.56"/>
      </g>
      <g>
        <circle class="cls-1" cx="940.94" cy="645.56" r="75.22"/>
        <circle class="cls-1" cx="1018.23" cy="671.78" r="75.22"/>
        <circle class="cls-1" cx="1116.91" cy="613.13" r="58.65"/>
        <circle class="cls-1" cx="1111.39" cy="662.12" r="58.65"/>
        <circle class="cls-1" cx="1175.56" cy="645.56" r="52.44"/>
        <circle class="cls-1" cx="1007.88" cy="596.57" r="85.57"/>
      </g>
    </g>
    <g id="text-2" data-name="text">
      <g id="save_the_date" data-name="save the date">
        <g>
          <g>
            <path class="cls-5" d="m192.38,107.04c-5.25-2.46-10.17-3.77-15.91-3.61-10.01,0-16.24,6.23-16.24,16.73,0,11.97,6.56,19.85,17.55,30.84,14.93,14.93,20.01,22.14,20.01,36.09,0,16.73-10.01,27.56-28.54,27.56-6.07,0-14.6-1.64-21.16-5.74l1.31-2.3c6.89,3.94,13.45,5.09,19.68,5.09,10.01,0,16.9-4.1,17.06-16.57,0-11.15-4.26-18.04-17.55-30.84-11.97-11.65-20.01-21.49-20.01-36.74,0-16.9,11.48-27.07,27.56-27.07,6.4,0,12.3,1.48,17.39,4.1l-1.15,2.46Z"/>
            <path class="cls-5" d="m240.85,175.11h-26.08l-8.53,37.89h-3.44l23.46-103.67-1.64-7.38h14.6l24.6,111.05h-14.6l-8.37-37.89Zm-.66-2.95l-12.3-55.44-12.47,55.44h24.77Z"/>
            <path class="cls-5" d="m324.67,101.95l-22.14,111.05h-14.27l-23.46-111.05h14.76l21.49,102.85,20.18-102.85h3.44Z"/>
            <path class="cls-5" d="m386.02,213h-49.21v-111.05h46.09v2.95h-31.99v50.19h25.75v2.95h-25.75v52h35.1v2.95Z"/>
            <path class="cls-5" d="m486.89,101.95v2.95h-24.44v108.1h-14.11v-108.1h-24.44v-2.95h62.99Z"/>
            <path class="cls-5" d="m510.38,156.91v56.1h-14.11v-111.05h14.11v52h31.49v-52h14.11v111.05h-14.11v-56.1h-31.49Z"/>
            <path class="cls-5" d="m625.79,213h-49.21v-111.05h46.09v2.95h-31.99v50.19h25.75v2.95h-25.75v52h35.1v2.95Z"/>
            <path class="cls-5" d="m706.49,101.95c39.86,0,60.2,18.54,60.2,55.77,0,34.94-22.14,55.28-62.99,55.28h-31v-111.05h33.79Zm-4.27,108.1c32.97,0,48.39-21.32,48.39-52.33,0-33.79-16.57-52.82-48.06-52.82h-15.75v105.14h15.42Z"/>
            <path class="cls-5" d="m809.62,175.11h-26.08l-8.53,37.89h-3.45l23.46-103.67-1.64-7.38h14.6l24.6,111.05h-14.6l-8.37-37.89Zm-.66-2.95l-12.3-55.44-12.47,55.44h24.77Z"/>
            <path class="cls-5" d="m889.68,101.95v2.95h-24.44v108.1h-14.11v-108.1h-24.44v-2.95h62.99Z"/>
            <path class="cls-5" d="m948.27,213h-49.21v-111.05h46.09v2.95h-31.99v50.19h25.75v2.95h-25.75v52h35.1v2.95Z"/>
            <path class="cls-5" d="m973.63,99.66l-6.89,81.2h-2.95l-7.05-78.9,16.9-2.3Zm-16.73,106.29c0-4.92,3.12-8.69,8.37-8.69,4.76,0,8.53,3.77,8.53,8.69s-3.77,8.69-8.53,8.69-8.37-3.94-8.37-8.69Z"/>
          </g>
          <g>
            <path class="cls-3" d="m157.73,328.12v-73.71h-7.6v-1.93l22.2-7.12h1.93v82.76h-16.53Z"/>
            <path class="cls-3" d="m227.36,307.61c0,12.31-5.55,22.08-22.44,22.08-11.58,0-19.9-8.2-19.9-19.42,0-12.79,5.31-18.22,11.94-21.11-5.43-4.71-10.25-10.13-10.25-21.96,0-13.99,7.96-21.71,20.99-21.71s17.97,8.2,17.97,18.1c0,11.82-6.15,17.85-11.34,20.15,6.51,5.55,13.03,11.22,13.03,23.89Zm-15.8,6.39c0-12.67-6.03-17.61-12.06-22.68v.12c-.24-.48-1.81,4.58-1.81,18.82,0,13.39,3.62,17.25,7.36,17.25,3.14,0,6.51-2.53,6.51-13.51Zm-9.89-51.63c.24,9.53,4.95,14.72,10.37,19.3,1.57-3.02,2.17-7.96,2.17-18.58,0-8.32-1.57-15.44-6.63-15.44-4.22,0-6.15,5.67-5.91,14.72Z"/>
            <path class="cls-3" d="m303.96,246.45v81.67h-16.89l-23.28-67.44v67.44h-2.41v-73.23l-2.9-8.44h16.77l26.3,74.67v-74.67h2.41Z"/>
            <path class="cls-3" d="m313.41,287.34c0-25.57,17.73-42.58,45-42.58s45.12,16.89,45.12,42.34-17.98,42.58-45.12,42.58-45-16.89-45-42.34Zm71.66.12c0-24.49-10.25-40.77-26.66-40.77s-26.54,16.17-26.54,40.29,10.38,40.77,26.54,40.77,26.66-16.17,26.66-40.29Z"/>
            <path class="cls-3" d="m453.76,246.45l-15.32,81.67h-16.17l-16.17-81.67h16.89l14.48,74.19,13.75-74.19h2.53Z"/>
            <path class="cls-3" d="m461.32,328.12v-81.67h16.41v81.67h-16.41Z"/>
            <path class="cls-3" d="m531.61,328.12h-40.65v-81.67h38.48v2.17h-22.08v36.91h17.49v2.17h-17.49v38.24h24.25v2.17Z"/>
            <path class="cls-3" d="m599.38,246.45v81.67h-16.41v-70.33l-20.75,71.54h-1.57l-21.35-69.85v68.64h-2.41v-75.4l-1.93-6.27h17.61l15.68,53.08,15.32-53.08h15.8Z"/>
            <path class="cls-3" d="m659.67,304.47c0,15.08-8.08,23.64-21.35,23.64h-25.45v-81.67h24.85c12.06,0,18.94,6.39,18.94,18.82,0,9.53-4.95,16.77-17.25,19.06,14.24.97,20.27,8.32,20.27,20.15Zm-30.4-20.87h2.17c5.19,0,8.81-7.72,8.81-19.06,0-9.89-2.41-15.92-8.2-15.92h-2.77v34.98Zm13.27,21.83c0-12.06-3.74-19.66-10.86-19.66h-2.41v40.17h3.38c6.51,0,9.89-8.81,9.89-20.51Z"/>
            <path class="cls-3" d="m718.03,328.12h-17.49l-4.46-28.35c-1.21-7.12-3.74-12.3-9.17-12.3h-.84v40.65h-16.41v-81.67h22.08c16.04,0,23.16,8.2,23.16,18.94,0,13.39-9.77,19.78-20.87,20.99,10.98,1.45,16.41,6.88,18.34,15.56l5.67,26.18Zm-31.97-42.83h2.29c4.58,0,8.93-4.71,8.93-18.34,0-10.25-1.81-18.34-8.44-18.34h-2.77v36.67Z"/>
            <path class="cls-3" d="m767.16,328.12h-40.65v-81.67h38.48v2.17h-22.08v36.91h17.49v2.17h-17.49v38.24h24.25v2.17Z"/>
            <path class="cls-3" d="m831.1,316.29v11.82h-38.12v-5.07c0-7,2.77-14.72,10.62-26.06,7.48-10.86,11.1-24.13,11.1-36.67,0-8.32-4.34-11.58-9.53-11.58-2.89,0-6.03.96-8.93,2.65l-1.33-2.17c4.22-2.53,9.17-3.74,14.11-3.74,13.87,0,21.71,6.64,21.71,20.99,0,12.67-7.96,21.96-18.46,30.52-9.41,7.6-14.36,13.03-16.17,19.3h34.98Z"/>
            <path class="cls-3" d="m860.87,329.69c-15.92,0-23.28-13.27-23.28-42.22s7.48-41.98,23.64-41.98,23.4,13.15,23.4,41.98-7.48,42.22-23.77,42.22Zm0-2.17c4.58,0,6.76-12.43,6.76-40.05s-2.05-39.81-6.39-39.81c-4.58,0-6.76,12.43-6.76,39.81s2.05,40.05,6.39,40.05Z"/>
            <path class="cls-3" d="m925.85,316.29v11.82h-38.12v-5.07c0-7,2.77-14.72,10.62-26.06,7.48-10.86,11.1-24.13,11.1-36.67,0-8.32-4.34-11.58-9.53-11.58-2.89,0-6.03.96-8.93,2.65l-1.33-2.17c4.22-2.53,9.17-3.74,14.11-3.74,13.87,0,21.71,6.64,21.71,20.99,0,12.67-7.96,21.96-18.46,30.52-9.41,7.6-14.36,13.03-16.17,19.3h34.98Z"/>
            <path class="cls-3" d="m968.89,305.08c0,18.34-13.87,24.73-25.82,24.73-4.71,0-9.17-.97-12.43-2.65l.96-1.93c2.9,1.21,6.03,2.05,8.81,2.05,6.63,0,11.82-5.19,11.82-20.99,0-14.84-4.34-20.15-9.05-20.15h-4.7v-2.17h4.58c4.34,0,7.24-5.55,7.24-19.18,0-11.22-3.02-16.65-9.17-16.65-2.41,0-5.43.84-8.81,2.53l-.84-1.69c4.58-2.29,9.53-3.5,14.36-3.5,10.98,0,20.87,6.15,20.87,18.82,0,9.65-3.86,18.58-17.97,20.63,15.08.96,20.03,10.74,20.15,20.15Z"/>
          </g>
        </g>
        <g>
          <rect class="cls-4" x="344" y="372.36" width="437" height="68.71" rx="15.07" ry="15.07"/>
          <g>
            <path class="cls-5" d="m377.27,388.56c4.48,0,7.45,1.41,8.68,2.22.94.61,1.32,1.32.24,2.36-.19.24-.47.42-.47.42,0,0-3.16-2.69-8.63-2.69-8.16,0-12.49,5.94-12.49,14.15s4.9,14.24,12.59,14.24c3.06,0,5.33-.94,6.6-1.7.52-.28.99-.47,1.41.19l.47.66c.28.38.24.8-.33,1.18-.61.42-3.4,1.98-8.16,1.98-10.23,0-15.13-6.98-15.23-16.5-.09-9.1,4.95-16.5,15.32-16.5Z"/>
            <path class="cls-5" d="m393.88,390.92c0-.8,0-1.89,1.23-1.89h18.29c.66,0,.8.42.8.85v.57c0,.66-.09.9-.75.9h-17.07l.05,12.73c4.62,0,13.63-.05,14.9-.05.38,0,.66.19.66.8v.85c0,.47-.19.61-.66.61-1.41,0-10.14-.05-14.95,0,0,4.39-.09,8.96-.05,12.49,4.34,0,14.95,0,16.97-.05.57,0,.85.33.85.94v.66c0,.61-.14.75-.85.75h-18.29c-.85,0-1.13-.94-1.08-1.7.05-1.84-.09-27.91-.05-28.48Z"/>
            <path class="cls-5" d="m421.36,390.59c-.05-.94.47-1.56,1.6-1.56h9.48c7.87,0,11.98,4.53,12.12,10.04,0,6.32-5.19,9.43-8.77,10.14l6.65,8.96c.71.99,1.13,1.08,3.06,1.08.52,1.32-.42,2.31-1.79,2.31-1.7,0-2.45-.71-3.49-2.17l-6.93-9.85h-9.57c0,1.23-.09,7.45,0,10,.05,1.32-.28,1.56-.9,1.56h-.61c-.9,0-.94-.57-.94-1.32.05-1.84.19-28.57.09-29.19Zm11.08,16.74c5.52,0,9.62-2.78,9.48-8.25-.05-3.82-3.21-7.73-9.48-7.73h-8.63c0,3.16-.14,14.62-.14,15.98h8.77Z"/>
            <path class="cls-5" d="m452.75,390.92c0-.8,0-1.89,1.23-1.89h18.29c.66,0,.8.42.8.85v.57c0,.66-.09.9-.75.9h-17.07l.05,12.73c4.62,0,13.63-.05,14.9-.05.38,0,.66.19.66.8v.85c0,.47-.19.61-.66.61-1.41,0-10.14-.05-14.95,0,0,4.39-.09,8.96-.05,12.49,4.34,0,14.95,0,16.97-.05.57,0,.85.33.85.94v.66c0,.61-.14.75-.85.75h-18.29c-.85,0-1.13-.94-1.08-1.7.05-1.84-.09-27.91-.05-28.48Z"/>
            <path class="cls-5" d="m482.19,390.26c-.05-.99.33-1.23,1.23-1.23h1.51c.75,0,1.32.05,1.74,1.23.57,1.51,10.14,23.57,10.14,23.57h.38s9.29-21.92,9.9-23.48c.47-1.37,1.18-1.32,2.07-1.32h1.04c1.7,0,1.56.9,1.65,1.65.38,3.63,1.65,23.48,2.07,28.86.05.8.38,1.56-.8,1.56h-.85c-.99,0-.85-.71-.9-1.41.05-.94-1.7-24.19-1.93-28.1h-.33c-1.08,2.78-9.01,21.69-9.38,22.77-.57,1.27-1.04,1.6-2.36,1.6h-.66c-1.46,0-1.89-.28-2.36-1.32-.24-.71-8.72-20.6-9.57-23.1h-.24c-.24,6.88-2.03,24.9-2.12,28.15,0,.85.05,1.41-.8,1.41h-.9c-.9,0-.99-.57-.9-1.32.14-1.89,2.31-28.43,2.36-29.52Z"/>
            <path class="cls-5" d="m535.58,388.56c9.05,0,13.91,7.12,14,16.5.14,9.43-5.09,16.5-14.24,16.5-9.9,0-14.14-7.03-14.24-16.5-.09-9.29,4.81-16.5,14.47-16.5Zm-.09,30.69c8.06,0,11.46-6.79,11.46-14.24s-3.4-14.15-11.46-14.15c-8.49,0-11.65,6.46-11.69,14.15-.05,7.59,3.11,14.24,11.69,14.24Z"/>
            <path class="cls-5" d="m557.61,390.35c.05-.8.52-1.32,1.32-1.32h.94l20.79,25.88h.38c.09-2.4-.14-22.07-.14-24.52,0-.38-.09-1.37.66-1.37h.94c.9,0,.99.9.99,1.65,0,3.82,0,27.35.09,28.53,0,.8.33,1.89-.85,1.89h-.9c-.85,0-.75-.9-.94-1.51-.42-1.37-17.92-22.82-20.32-25.89h-.47c0,3.16.09,25.08.14,25.51-.09.8.24,1.89-.94,1.89h-.75c-.9,0-.94-.94-.9-1.7.05-1.84-.05-28.48-.05-29.04Z"/>
            <path class="cls-5" d="m593.54,390.92c.05-.8-.33-1.89.85-1.89h.75c.9,0,.94.9.9,1.65-.19,5.85-.05,20.93-.14,28.53,0,.8.38,1.89-.8,1.89h-.75c-.9,0-.94-.94-.9-1.7.05-1.84.09-22.54.09-28.48Z"/>
            <path class="cls-5" d="m602.54,419.82c.28-.85,11.22-28.05,11.79-29.66.24-.75.61-1.13,1.65-1.13h.28c1.42,0,1.51.47,1.89,1.56.42,1.27,11.6,28.86,11.88,29.61.09.38,0,.9-.8.9h-.57c-.99,0-1.08-.57-1.18-.9-.66-1.51-2.4-5.71-3.16-7.59h-16.36c-1.08,2.88-2.69,6.55-3.02,7.5-.28.94-.9.99-1.18.99h-.9c-.61,0-.71-.42-.33-1.27Zm21.08-9.43c-2.97-7.4-6.46-16.5-7.36-18.86h-.28c-.85,2.12-4.15,11.36-7.26,18.86h14.9Z"/>
            <path class="cls-5" d="m661.48,392.1l-8.44,4.81c-.47.24-1.13.52-1.65-.33l-.19-.24c-.38-.61-.09-1.13.33-1.37l10.56-5.94h.99c.9,0,.8.61.8,1.37-.09.85.09,27.63.09,28.81,0,.8.38,1.89-.8,1.89h-.8c-.9,0-.9-.94-.9-1.7.05-1.18-.14-22.77,0-27.3Z"/>
            <path class="cls-5" d="m670.94,418.41c6.93-7.54,16.74-13.91,16.74-20.93,0-3.87-2.5-6.6-7.69-6.6-4.43,0-7.78,2.88-7.78,2.88,0,0-.42-.24-.66-.66-.38-.66-.19-1.41.57-1.98.61-.47,3.72-2.55,7.87-2.55,6.18,0,10.33,3.25,10.33,8.91,0,7.73-11.88,16.08-16.36,20.93v.38c2.03,0,15.18.05,15.51-.05.57-.05.8.33.75.99v.61c-.05.61-.09.75-.85.75h-17.49c-.66,0-.94-.28-.94-.99v-1.7Z"/>
            <path class="cls-5" d="m697.08,397.57c-.09-2.55,1.08-2.88,2.69-2.88,1.51,0,2.78.33,2.73,2.88,0,2.55-1.13,2.88-2.69,2.88s-2.78-.33-2.73-2.88Zm2.69,18.25c1.56,0,2.83.33,2.78,2.88,0,2.55-1.13,2.88-2.69,2.88s-2.83-.33-2.78-2.88c-.09-2.55,1.08-2.88,2.69-2.88Z"/>
            <path class="cls-5" d="m708.93,405.06c0-9.29,3.63-16.5,11.93-16.5s11.36,7.17,11.41,16.5c.09,9.15-4.01,16.5-11.93,16.5s-11.41-7.12-11.41-16.5Zm20.7,0c-.05-7.54-2.69-14.24-8.77-14.24-6.41,0-9.24,6.7-9.24,14.19,0,7.07,2.4,14.29,8.77,14.29s9.24-6.88,9.24-14.24Z"/>
            <path class="cls-5" d="m738.99,405.06c0-9.29,3.63-16.5,11.93-16.5s11.36,7.17,11.41,16.5c.09,9.15-4.01,16.5-11.93,16.5s-11.41-7.12-11.41-16.5Zm20.7,0c-.05-7.54-2.69-14.24-8.77-14.24-6.41,0-9.24,6.7-9.24,14.19,0,7.07,2.4,14.29,8.77,14.29s9.24-6.88,9.24-14.24Z"/>
          </g>
        </g>
      </g>
    </g>
  </g>
</svg>